<svg width="325" height="325" viewBox="0 0 325 325" fill="none" xmlns="http://www.w3.org/2000/svg">
<path d="M303.94 163.741C300.735 190.911 288.34 222.507 263.549 237.015C226.115 258.953 229.248 292.681 156.175 307.345C145.519 309.535 134.657 310.562 123.779 310.407C118.456 310.309 113.143 309.875 107.874 309.107C61.4315 302.327 30.1795 270.048 18.7135 231.074C3.62699 179.828 33.7545 146.249 53.7225 126.06C73.6905 105.871 88.322 42.8605 160.043 27.9105C170.982 25.5629 182.156 24.4854 193.342 24.6995C218.861 25.3495 246.694 33.7085 265.954 51.1935C267.397 52.4935 268.805 53.8541 270.179 55.2755C296.946 82.764 308.321 126.697 303.94 163.741Z" fill="#92E3A9"/>
<path opacity="0.7" d="M303.94 163.741C300.735 190.911 288.34 222.507 263.549 237.015C226.115 258.953 229.248 292.681 156.175 307.345C145.519 309.535 134.657 310.562 123.779 310.407C118.456 310.309 113.143 309.875 107.874 309.107C61.4315 302.327 30.1795 270.048 18.7135 231.074C3.62699 179.828 33.7545 146.249 53.7225 126.06C73.6905 105.871 88.322 42.8605 160.043 27.9105C170.982 25.5629 182.156 24.4854 193.342 24.6995C218.861 25.3495 246.694 33.7085 265.954 51.1935C267.397 52.4935 268.805 53.8541 270.179 55.2755C296.946 82.764 308.321 126.697 303.94 163.741Z" fill="white"/>
<path d="M16.5359 301.666H309.933" stroke="#263238" stroke-width="0.65" stroke-linecap="round" stroke-linejoin="round"/>
<path d="M245.343 47.71H281.879C281.879 47.71 285.389 37.193 279.078 33.3385C272.766 29.484 272.766 34.7425 267.859 32.6365C263.803 30.901 263.042 27.599 261.911 24.102C261.781 23.7055 261.645 23.3025 261.502 22.8995C261.112 21.8139 260.608 20.7724 260 19.7925" stroke="#B2B2B2" stroke-width="0.65" stroke-linecap="round" stroke-linejoin="round"/>
<path d="M255.697 15.2359C246.539 8.56037 231.4 11.0499 231.4 25.2719C231.4 28.7819 222.983 25.2719 219.83 29.8219C216.678 34.3719 220.181 37.1864 215.976 38.5904C211.77 39.9944 211.426 36.4844 206.154 36.8354C200.883 37.1864 201.604 42.0939 199.843 43.4979C198.081 44.9019 198.094 44.1999 194.233 44.5509C190.372 44.9019 189.683 47.7034 189.683 47.7034H238.882" stroke="#B2B2B2" stroke-width="0.65" stroke-linecap="round" stroke-linejoin="round"/>
<path d="M265.096 43.8744C265.096 43.8744 267.007 37.9724 262.321 33.6304C257.634 29.2884 252.766 31.7194 251.381 33.6304C249.997 35.5414 249.99 39.1879 247.735 39.5324C245.479 39.8769 245.993 35.7494 241.15 36.7569C236.308 37.7644 238.199 42.6589 235.95 43.6989C233.701 44.7389 233.695 40.9234 230.568 42.1389C227.442 43.3544 227.617 45.6099 227.617 45.6099" stroke="#B2B2B2" stroke-width="0.65" stroke-linecap="round" stroke-linejoin="round"/>
<path d="M240.156 32.0775C238.877 31.1669 237.379 30.6149 235.815 30.4789C234.251 30.3429 232.68 30.6278 231.264 31.304C226.233 33.6245 228.553 38.454 226.233 39.6175C223.912 40.781 222.755 39.429 219.856 40.781C216.957 42.133 217.146 44.0635 217.146 44.0635" stroke="#B2B2B2" stroke-width="0.65" stroke-linecap="round" stroke-linejoin="round"/>
<path d="M33.761 65.9226C33.1787 65.6002 32.513 65.4598 31.85 65.5196C29.809 65.6561 30.082 67.5671 29.3995 68.1196C28.717 68.6721 28.7495 68.3926 27.2155 68.5291C26.8295 68.5233 26.4512 68.6379 26.1332 68.8569C25.8152 69.0758 25.5733 69.3884 25.441 69.7511H61.3275C61.3275 69.7511 62.2115 67.1056 61.2755 65.2856" stroke="#B2B2B2" stroke-width="0.65" stroke-linecap="round" stroke-linejoin="round"/>
<path d="M60.2356 64.1547C57.7786 62.6597 57.7786 64.7007 55.8741 63.8817C54.2946 63.2317 54.0021 61.9317 53.5601 60.5667C53.5081 60.4107 53.4561 60.2547 53.3976 60.0987C51.3306 54.3397 41.6976 53.9432 41.6976 61.0217C41.6976 62.3867 38.4476 61.0217 37.1996 62.7962C35.9516 64.5707 37.3361 65.6562 35.6981 66.2022" stroke="#B2B2B2" stroke-width="0.65" stroke-linecap="round" stroke-linejoin="round"/>
<path d="M54.795 68.2494C54.9947 67.5499 54.9997 66.8092 54.8096 66.1071C54.6195 65.4049 54.2413 64.768 53.716 64.2649C51.896 62.5749 50.0045 63.5239 49.465 64.2649C48.9255 65.0059 48.9255 66.4229 48.0415 66.5594C47.1575 66.6959 47.3915 65.0774 45.4805 65.4804C43.5695 65.8834 44.33 67.7749 43.4525 68.1844C42.575 68.5939 42.575 67.0989 41.3595 67.5734C40.144 68.0479 40.209 68.9254 40.209 68.9254" stroke="#B2B2B2" stroke-width="0.65" stroke-linecap="round" stroke-linejoin="round"/>
<path d="M45.0971 63.7001C44.5999 63.3461 44.0169 63.1317 43.4089 63.0791C42.8008 63.0265 42.1897 63.1377 41.6391 63.4011C39.6891 64.3046 40.5861 66.1831 39.6891 66.6511C38.7921 67.1191 38.3371 66.5796 37.2126 67.1061C36.0881 67.6326 36.1596 68.4061 36.1596 68.4061" stroke="#B2B2B2" stroke-width="0.65" stroke-linecap="round" stroke-linejoin="round"/>
<path d="M142.142 29.5872C141.565 29.2686 140.907 29.1283 140.251 29.1842C138.21 29.3207 138.483 31.2317 137.8 31.7842C137.118 32.3367 137.118 32.0572 135.616 32.1872C135.229 32.1819 134.85 32.2974 134.532 32.5176C134.214 32.7378 133.973 33.0517 133.842 33.4157H169.709C169.709 33.4157 170.586 30.7702 169.657 28.9502" stroke="#B2B2B2" stroke-width="0.65" stroke-linecap="round" stroke-linejoin="round"/>
<path d="M168.617 27.8197C166.16 26.3182 166.16 28.3657 164.249 27.5467C162.676 26.8967 162.377 25.5967 161.941 24.2317C161.889 24.0757 161.837 23.9197 161.779 23.7637C159.705 18.0047 150.079 17.6017 150.079 24.6867C150.079 26.0452 146.829 24.6867 145.574 26.4547C144.32 28.2227 145.711 29.3212 144.079 29.8672" stroke="#B2B2B2" stroke-width="0.65" stroke-linecap="round" stroke-linejoin="round"/>
<path d="M163.15 31.9209C163.35 31.2256 163.358 30.489 163.173 29.7896C162.987 29.0901 162.615 28.4541 162.097 27.9494C160.277 26.2594 158.385 27.2019 157.846 27.9494C157.306 28.6969 157.3 30.1074 156.422 30.2439C155.545 30.3804 155.772 28.7554 153.861 29.1649C151.95 29.5744 152.711 31.4594 151.833 31.8624C150.956 32.2654 150.956 30.7834 149.74 31.2579C148.525 31.7324 148.59 32.6099 148.59 32.6099" stroke="#B2B2B2" stroke-width="0.65" stroke-linecap="round" stroke-linejoin="round"/>
<path d="M153.478 27.3319C152.981 26.9779 152.398 26.7635 151.79 26.711C151.182 26.6584 150.571 26.7695 150.02 27.0329C148.07 27.9299 148.967 29.8149 148.07 30.2829C147.173 30.7509 146.718 30.2049 145.587 30.7314C144.456 31.2579 144.534 32.0314 144.534 32.0314" stroke="#B2B2B2" stroke-width="0.65" stroke-linecap="round" stroke-linejoin="round"/>
<path d="M191.919 52.6953H153.406V260.832H191.919V52.6953Z" fill="#263238" stroke="#263238" stroke-width="0.65" stroke-linecap="round" stroke-linejoin="round"/>
<path d="M215.014 52.6953H182.5V260.832H215.014V52.6953Z" fill="white" stroke="#263238" stroke-width="0.65" stroke-linecap="round" stroke-linejoin="round"/>
<path d="M213.493 54.9312H183.716V65.2271H213.493V54.9312Z" fill="white" stroke="#263238" stroke-width="0.65" stroke-linecap="round" stroke-linejoin="round"/>
<path d="M187.746 56.3682V63.8497" stroke="#263238" stroke-width="0.65" stroke-linecap="round" stroke-linejoin="round"/>
<path d="M192.166 56.3682V63.8497" stroke="#263238" stroke-width="0.65" stroke-linecap="round" stroke-linejoin="round"/>
<path d="M196.579 56.3682V63.8497" stroke="#263238" stroke-width="0.65" stroke-linecap="round" stroke-linejoin="round"/>
<path d="M200.999 56.3682V63.8497" stroke="#263238" stroke-width="0.65" stroke-linecap="round" stroke-linejoin="round"/>
<path d="M205.419 56.3682V63.8497" stroke="#263238" stroke-width="0.65" stroke-linecap="round" stroke-linejoin="round"/>
<path d="M209.833 56.3682V63.8497" stroke="#263238" stroke-width="0.65" stroke-linecap="round" stroke-linejoin="round"/>
<path d="M180.661 54.9312H155.135V65.2271H180.661V54.9312Z" fill="white" stroke="#263238" stroke-width="0.65" stroke-linecap="round" stroke-linejoin="round"/>
<path d="M158.587 56.3682V63.8497" stroke="#263238" stroke-width="0.65" stroke-linecap="round" stroke-linejoin="round"/>
<path d="M162.376 56.3682V63.8497" stroke="#263238" stroke-width="0.65" stroke-linecap="round" stroke-linejoin="round"/>
<path d="M166.159 56.3682V63.8497" stroke="#263238" stroke-width="0.65" stroke-linecap="round" stroke-linejoin="round"/>
<path d="M169.949 56.3682V63.8497" stroke="#263238" stroke-width="0.65" stroke-linecap="round" stroke-linejoin="round"/>
<path d="M173.739 56.3682V63.8497" stroke="#263238" stroke-width="0.65" stroke-linecap="round" stroke-linejoin="round"/>
<path d="M177.521 56.3682V63.8497" stroke="#263238" stroke-width="0.65" stroke-linecap="round" stroke-linejoin="round"/>
<path d="M144.092 79.9951H73.8204V260.825H144.092V79.9951Z" fill="white" stroke="#263238" stroke-width="0.65" stroke-linecap="round" stroke-linejoin="round"/>
<path d="M104.214 86.9116H78.1234V253.923H104.214V86.9116Z" fill="#263238" stroke="#263238" stroke-width="0.65" stroke-linecap="round" stroke-linejoin="round"/>
<path d="M178.113 79.9951H107.842V260.825H178.113V79.9951Z" fill="white" stroke="#263238" stroke-width="0.65" stroke-linecap="round" stroke-linejoin="round"/>
<path d="M172.321 86.9116H113.626V253.923H172.321V86.9116Z" fill="white" stroke="#263238" stroke-width="0.65" stroke-linecap="round" stroke-linejoin="round"/>
<path d="M128.369 93.6519H116.344V99.9439H128.369V93.6519Z" fill="white" stroke="#263238" stroke-width="0.65" stroke-linecap="round" stroke-linejoin="round"/>
<path d="M142.116 93.6519H130.091V99.9439H142.116V93.6519Z" fill="white" stroke="#263238" stroke-width="0.65" stroke-linecap="round" stroke-linejoin="round"/>
<path d="M155.857 93.6519H143.832V99.9439H155.857V93.6519Z" fill="white" stroke="#263238" stroke-width="0.65" stroke-linecap="round" stroke-linejoin="round"/>
<path d="M169.604 93.6519H157.579V99.9439H169.604V93.6519Z" fill="white" stroke="#263238" stroke-width="0.65" stroke-linecap="round" stroke-linejoin="round"/>
<path d="M128.369 104.838H116.344V111.13H128.369V104.838Z" fill="white" stroke="#263238" stroke-width="0.65" stroke-linecap="round" stroke-linejoin="round"/>
<path d="M142.116 104.838H130.091V111.13H142.116V104.838Z" fill="white" stroke="#263238" stroke-width="0.65" stroke-linecap="round" stroke-linejoin="round"/>
<path d="M155.857 104.838H143.832V111.13H155.857V104.838Z" fill="white" stroke="#263238" stroke-width="0.65" stroke-linecap="round" stroke-linejoin="round"/>
<path d="M169.604 104.838H157.579V111.13H169.604V104.838Z" fill="white" stroke="#263238" stroke-width="0.65" stroke-linecap="round" stroke-linejoin="round"/>
<path d="M128.369 116.031H116.344V122.323H128.369V116.031Z" fill="white" stroke="#263238" stroke-width="0.65" stroke-linecap="round" stroke-linejoin="round"/>
<path d="M142.116 116.031H130.091V122.323H142.116V116.031Z" fill="white" stroke="#263238" stroke-width="0.65" stroke-linecap="round" stroke-linejoin="round"/>
<path d="M155.857 116.031H143.832V122.323H155.857V116.031Z" fill="white" stroke="#263238" stroke-width="0.65" stroke-linecap="round" stroke-linejoin="round"/>
<path d="M169.604 116.031H157.579V122.323H169.604V116.031Z" fill="white" stroke="#263238" stroke-width="0.65" stroke-linecap="round" stroke-linejoin="round"/>
<path d="M128.369 127.218H116.344V133.51H128.369V127.218Z" fill="white" stroke="#263238" stroke-width="0.65" stroke-linecap="round" stroke-linejoin="round"/>
<path d="M142.116 127.218H130.091V133.51H142.116V127.218Z" fill="white" stroke="#263238" stroke-width="0.65" stroke-linecap="round" stroke-linejoin="round"/>
<path d="M155.857 127.218H143.832V133.51H155.857V127.218Z" fill="white" stroke="#263238" stroke-width="0.65" stroke-linecap="round" stroke-linejoin="round"/>
<path d="M169.604 127.218H157.579V133.51H169.604V127.218Z" fill="white" stroke="#263238" stroke-width="0.65" stroke-linecap="round" stroke-linejoin="round"/>
<path d="M128.369 138.411H116.344V144.703H128.369V138.411Z" fill="white" stroke="#263238" stroke-width="0.65" stroke-linecap="round" stroke-linejoin="round"/>
<path d="M142.116 138.411H130.091V144.703H142.116V138.411Z" fill="white" stroke="#263238" stroke-width="0.65" stroke-linecap="round" stroke-linejoin="round"/>
<path d="M155.857 138.411H143.832V144.703H155.857V138.411Z" fill="white" stroke="#263238" stroke-width="0.65" stroke-linecap="round" stroke-linejoin="round"/>
<path d="M169.604 138.411H157.579V144.703H169.604V138.411Z" fill="white" stroke="#263238" stroke-width="0.65" stroke-linecap="round" stroke-linejoin="round"/>
<path d="M128.369 149.604H116.344V155.896H128.369V149.604Z" fill="white" stroke="#263238" stroke-width="0.65" stroke-linecap="round" stroke-linejoin="round"/>
<path d="M142.116 149.604H130.091V155.896H142.116V149.604Z" fill="white" stroke="#263238" stroke-width="0.65" stroke-linecap="round" stroke-linejoin="round"/>
<path d="M155.857 149.604H143.832V155.896H155.857V149.604Z" fill="white" stroke="#263238" stroke-width="0.65" stroke-linecap="round" stroke-linejoin="round"/>
<path d="M169.604 149.604H157.579V155.896H169.604V149.604Z" fill="white" stroke="#263238" stroke-width="0.65" stroke-linecap="round" stroke-linejoin="round"/>
<path d="M128.369 160.79H116.344V167.082H128.369V160.79Z" fill="white" stroke="#263238" stroke-width="0.65" stroke-linecap="round" stroke-linejoin="round"/>
<path d="M142.116 160.79H130.091V167.082H142.116V160.79Z" fill="white" stroke="#263238" stroke-width="0.65" stroke-linecap="round" stroke-linejoin="round"/>
<path d="M155.857 160.79H143.832V167.082H155.857V160.79Z" fill="white" stroke="#263238" stroke-width="0.65" stroke-linecap="round" stroke-linejoin="round"/>
<path d="M169.604 160.79H157.579V167.082H169.604V160.79Z" fill="white" stroke="#263238" stroke-width="0.65" stroke-linecap="round" stroke-linejoin="round"/>
<path d="M128.369 171.983H116.344V178.275H128.369V171.983Z" fill="white" stroke="#263238" stroke-width="0.65" stroke-linecap="round" stroke-linejoin="round"/>
<path d="M142.116 171.983H130.091V178.275H142.116V171.983Z" fill="white" stroke="#263238" stroke-width="0.65" stroke-linecap="round" stroke-linejoin="round"/>
<path d="M155.857 171.983H143.832V178.275H155.857V171.983Z" fill="white" stroke="#263238" stroke-width="0.65" stroke-linecap="round" stroke-linejoin="round"/>
<path d="M169.604 171.983H157.579V178.275H169.604V171.983Z" fill="white" stroke="#263238" stroke-width="0.65" stroke-linecap="round" stroke-linejoin="round"/>
<path d="M128.369 183.17H116.344V189.462H128.369V183.17Z" fill="white" stroke="#263238" stroke-width="0.65" stroke-linecap="round" stroke-linejoin="round"/>
<path d="M142.116 183.17H130.091V189.462H142.116V183.17Z" fill="white" stroke="#263238" stroke-width="0.65" stroke-linecap="round" stroke-linejoin="round"/>
<path d="M155.857 183.17H143.832V189.462H155.857V183.17Z" fill="white" stroke="#263238" stroke-width="0.65" stroke-linecap="round" stroke-linejoin="round"/>
<path d="M169.604 183.17H157.579V189.462H169.604V183.17Z" fill="white" stroke="#263238" stroke-width="0.65" stroke-linecap="round" stroke-linejoin="round"/>
<path d="M128.369 194.363H116.344V200.655H128.369V194.363Z" fill="white" stroke="#263238" stroke-width="0.65" stroke-linecap="round" stroke-linejoin="round"/>
<path d="M142.116 194.363H130.091V200.655H142.116V194.363Z" fill="white" stroke="#263238" stroke-width="0.65" stroke-linecap="round" stroke-linejoin="round"/>
<path d="M155.857 194.363H143.832V200.655H155.857V194.363Z" fill="white" stroke="#263238" stroke-width="0.65" stroke-linecap="round" stroke-linejoin="round"/>
<path d="M169.604 194.363H157.579V200.655H169.604V194.363Z" fill="white" stroke="#263238" stroke-width="0.65" stroke-linecap="round" stroke-linejoin="round"/>
<path d="M128.369 205.549H116.344V211.841H128.369V205.549Z" fill="white" stroke="#263238" stroke-width="0.65" stroke-linecap="round" stroke-linejoin="round"/>
<path d="M142.116 205.549H130.091V211.841H142.116V205.549Z" fill="white" stroke="#263238" stroke-width="0.65" stroke-linecap="round" stroke-linejoin="round"/>
<path d="M155.857 205.549H143.832V211.841H155.857V205.549Z" fill="white" stroke="#263238" stroke-width="0.65" stroke-linecap="round" stroke-linejoin="round"/>
<path d="M169.604 205.549H157.579V211.841H169.604V205.549Z" fill="white" stroke="#263238" stroke-width="0.65" stroke-linecap="round" stroke-linejoin="round"/>
<path d="M128.369 216.742H116.344V223.034H128.369V216.742Z" fill="white" stroke="#263238" stroke-width="0.65" stroke-linecap="round" stroke-linejoin="round"/>
<path d="M142.116 216.742H130.091V223.034H142.116V216.742Z" fill="white" stroke="#263238" stroke-width="0.65" stroke-linecap="round" stroke-linejoin="round"/>
<path d="M155.857 216.742H143.832V223.034H155.857V216.742Z" fill="white" stroke="#263238" stroke-width="0.65" stroke-linecap="round" stroke-linejoin="round"/>
<path d="M169.604 216.742H157.579V223.034H169.604V216.742Z" fill="white" stroke="#263238" stroke-width="0.65" stroke-linecap="round" stroke-linejoin="round"/>
<path d="M128.369 227.935H116.344V234.227H128.369V227.935Z" fill="white" stroke="#263238" stroke-width="0.65" stroke-linecap="round" stroke-linejoin="round"/>
<path d="M142.116 227.935H130.091V234.227H142.116V227.935Z" fill="white" stroke="#263238" stroke-width="0.65" stroke-linecap="round" stroke-linejoin="round"/>
<path d="M155.857 227.935H143.832V234.227H155.857V227.935Z" fill="white" stroke="#263238" stroke-width="0.65" stroke-linecap="round" stroke-linejoin="round"/>
<path d="M169.604 227.935H157.579V234.227H169.604V227.935Z" fill="white" stroke="#263238" stroke-width="0.65" stroke-linecap="round" stroke-linejoin="round"/>
<path d="M128.369 239.122H116.344V245.414H128.369V239.122Z" fill="white" stroke="#263238" stroke-width="0.65" stroke-linecap="round" stroke-linejoin="round"/>
<path d="M142.116 239.122H130.091V245.414H142.116V239.122Z" fill="white" stroke="#263238" stroke-width="0.65" stroke-linecap="round" stroke-linejoin="round"/>
<path d="M155.857 239.122H143.832V245.414H155.857V239.122Z" fill="white" stroke="#263238" stroke-width="0.65" stroke-linecap="round" stroke-linejoin="round"/>
<path d="M169.604 239.122H157.579V245.414H169.604V239.122Z" fill="white" stroke="#263238" stroke-width="0.65" stroke-linecap="round" stroke-linejoin="round"/>
<path d="M86.4174 93.6519H82.3875V99.9439H86.4174V93.6519Z" fill="white" stroke="#263238" stroke-width="0.65" stroke-linecap="round" stroke-linejoin="round"/>
<path d="M91.026 93.6519H86.996V99.9439H91.026V93.6519Z" fill="white" stroke="#263238" stroke-width="0.65" stroke-linecap="round" stroke-linejoin="round"/>
<path d="M95.6279 93.6519H91.5979V99.9439H95.6279V93.6519Z" fill="white" stroke="#263238" stroke-width="0.65" stroke-linecap="round" stroke-linejoin="round"/>
<path d="M100.23 93.6519H96.2V99.9439H100.23V93.6519Z" fill="white" stroke="#263238" stroke-width="0.65" stroke-linecap="round" stroke-linejoin="round"/>
<path d="M86.4174 104.838H82.3875V111.13H86.4174V104.838Z" fill="white" stroke="#263238" stroke-width="0.65" stroke-linecap="round" stroke-linejoin="round"/>
<path d="M91.026 104.838H86.996V111.13H91.026V104.838Z" fill="white" stroke="#263238" stroke-width="0.65" stroke-linecap="round" stroke-linejoin="round"/>
<path d="M95.6279 104.838H91.5979V111.13H95.6279V104.838Z" fill="white" stroke="#263238" stroke-width="0.65" stroke-linecap="round" stroke-linejoin="round"/>
<path d="M100.23 104.838H96.2V111.13H100.23V104.838Z" fill="white" stroke="#263238" stroke-width="0.65" stroke-linecap="round" stroke-linejoin="round"/>
<path d="M86.4174 116.031H82.3875V122.323H86.4174V116.031Z" fill="white" stroke="#263238" stroke-width="0.65" stroke-linecap="round" stroke-linejoin="round"/>
<path d="M91.026 116.031H86.996V122.323H91.026V116.031Z" fill="white" stroke="#263238" stroke-width="0.65" stroke-linecap="round" stroke-linejoin="round"/>
<path d="M95.6279 116.031H91.5979V122.323H95.6279V116.031Z" fill="white" stroke="#263238" stroke-width="0.65" stroke-linecap="round" stroke-linejoin="round"/>
<path d="M100.23 116.031H96.2V122.323H100.23V116.031Z" fill="white" stroke="#263238" stroke-width="0.65" stroke-linecap="round" stroke-linejoin="round"/>
<path d="M86.4174 127.218H82.3875V133.51H86.4174V127.218Z" fill="white" stroke="#263238" stroke-width="0.65" stroke-linecap="round" stroke-linejoin="round"/>
<path d="M91.026 127.218H86.996V133.51H91.026V127.218Z" fill="white" stroke="#263238" stroke-width="0.65" stroke-linecap="round" stroke-linejoin="round"/>
<path d="M95.6279 127.218H91.5979V133.51H95.6279V127.218Z" fill="white" stroke="#263238" stroke-width="0.65" stroke-linecap="round" stroke-linejoin="round"/>
<path d="M100.23 127.218H96.2V133.51H100.23V127.218Z" fill="white" stroke="#263238" stroke-width="0.65" stroke-linecap="round" stroke-linejoin="round"/>
<path d="M86.4174 138.411H82.3875V144.703H86.4174V138.411Z" fill="white" stroke="#263238" stroke-width="0.65" stroke-linecap="round" stroke-linejoin="round"/>
<path d="M91.026 138.411H86.996V144.703H91.026V138.411Z" fill="white" stroke="#263238" stroke-width="0.65" stroke-linecap="round" stroke-linejoin="round"/>
<path d="M95.6279 138.411H91.5979V144.703H95.6279V138.411Z" fill="white" stroke="#263238" stroke-width="0.65" stroke-linecap="round" stroke-linejoin="round"/>
<path d="M100.23 138.411H96.2V144.703H100.23V138.411Z" fill="white" stroke="#263238" stroke-width="0.65" stroke-linecap="round" stroke-linejoin="round"/>
<path d="M86.4174 149.604H82.3875V155.896H86.4174V149.604Z" fill="white" stroke="#263238" stroke-width="0.65" stroke-linecap="round" stroke-linejoin="round"/>
<path d="M91.026 149.604H86.996V155.896H91.026V149.604Z" fill="white" stroke="#263238" stroke-width="0.65" stroke-linecap="round" stroke-linejoin="round"/>
<path d="M95.6279 149.604H91.5979V155.896H95.6279V149.604Z" fill="white" stroke="#263238" stroke-width="0.65" stroke-linecap="round" stroke-linejoin="round"/>
<path d="M100.23 149.604H96.2V155.896H100.23V149.604Z" fill="white" stroke="#263238" stroke-width="0.65" stroke-linecap="round" stroke-linejoin="round"/>
<path d="M86.4174 160.79H82.3875V167.082H86.4174V160.79Z" fill="white" stroke="#263238" stroke-width="0.65" stroke-linecap="round" stroke-linejoin="round"/>
<path d="M91.026 160.79H86.996V167.082H91.026V160.79Z" fill="white" stroke="#263238" stroke-width="0.65" stroke-linecap="round" stroke-linejoin="round"/>
<path d="M95.6279 160.79H91.5979V167.082H95.6279V160.79Z" fill="white" stroke="#263238" stroke-width="0.65" stroke-linecap="round" stroke-linejoin="round"/>
<path d="M100.23 160.79H96.2V167.082H100.23V160.79Z" fill="white" stroke="#263238" stroke-width="0.65" stroke-linecap="round" stroke-linejoin="round"/>
<path d="M86.4174 171.983H82.3875V178.275H86.4174V171.983Z" fill="white" stroke="#263238" stroke-width="0.65" stroke-linecap="round" stroke-linejoin="round"/>
<path d="M91.026 171.983H86.996V178.275H91.026V171.983Z" fill="white" stroke="#263238" stroke-width="0.65" stroke-linecap="round" stroke-linejoin="round"/>
<path d="M95.6279 171.983H91.5979V178.275H95.6279V171.983Z" fill="white" stroke="#263238" stroke-width="0.65" stroke-linecap="round" stroke-linejoin="round"/>
<path d="M100.23 171.983H96.2V178.275H100.23V171.983Z" fill="white" stroke="#263238" stroke-width="0.65" stroke-linecap="round" stroke-linejoin="round"/>
<path d="M86.4174 183.17H82.3875V189.462H86.4174V183.17Z" fill="white" stroke="#263238" stroke-width="0.65" stroke-linecap="round" stroke-linejoin="round"/>
<path d="M91.026 183.17H86.996V189.462H91.026V183.17Z" fill="white" stroke="#263238" stroke-width="0.65" stroke-linecap="round" stroke-linejoin="round"/>
<path d="M95.6279 183.17H91.5979V189.462H95.6279V183.17Z" fill="white" stroke="#263238" stroke-width="0.65" stroke-linecap="round" stroke-linejoin="round"/>
<path d="M100.23 183.17H96.2V189.462H100.23V183.17Z" fill="white" stroke="#263238" stroke-width="0.65" stroke-linecap="round" stroke-linejoin="round"/>
<path d="M86.4174 194.363H82.3875V200.655H86.4174V194.363Z" fill="white" stroke="#263238" stroke-width="0.65" stroke-linecap="round" stroke-linejoin="round"/>
<path d="M91.026 194.363H86.996V200.655H91.026V194.363Z" fill="white" stroke="#263238" stroke-width="0.65" stroke-linecap="round" stroke-linejoin="round"/>
<path d="M95.6279 194.363H91.5979V200.655H95.6279V194.363Z" fill="white" stroke="#263238" stroke-width="0.65" stroke-linecap="round" stroke-linejoin="round"/>
<path d="M100.23 194.363H96.2V200.655H100.23V194.363Z" fill="white" stroke="#263238" stroke-width="0.65" stroke-linecap="round" stroke-linejoin="round"/>
<path d="M86.4174 205.549H82.3875V211.841H86.4174V205.549Z" fill="white" stroke="#263238" stroke-width="0.65" stroke-linecap="round" stroke-linejoin="round"/>
<path d="M91.026 205.549H86.996V211.841H91.026V205.549Z" fill="white" stroke="#263238" stroke-width="0.65" stroke-linecap="round" stroke-linejoin="round"/>
<path d="M95.6279 205.549H91.5979V211.841H95.6279V205.549Z" fill="white" stroke="#263238" stroke-width="0.65" stroke-linecap="round" stroke-linejoin="round"/>
<path d="M100.23 205.549H96.2V211.841H100.23V205.549Z" fill="white" stroke="#263238" stroke-width="0.65" stroke-linecap="round" stroke-linejoin="round"/>
<path d="M86.4174 216.742H82.3875V223.034H86.4174V216.742Z" fill="white" stroke="#263238" stroke-width="0.65" stroke-linecap="round" stroke-linejoin="round"/>
<path d="M91.026 216.742H86.996V223.034H91.026V216.742Z" fill="white" stroke="#263238" stroke-width="0.65" stroke-linecap="round" stroke-linejoin="round"/>
<path d="M95.6279 216.742H91.5979V223.034H95.6279V216.742Z" fill="white" stroke="#263238" stroke-width="0.65" stroke-linecap="round" stroke-linejoin="round"/>
<path d="M100.23 216.742H96.2V223.034H100.23V216.742Z" fill="white" stroke="#263238" stroke-width="0.65" stroke-linecap="round" stroke-linejoin="round"/>
<path d="M86.4174 227.935H82.3875V234.227H86.4174V227.935Z" fill="white" stroke="#263238" stroke-width="0.65" stroke-linecap="round" stroke-linejoin="round"/>
<path d="M91.026 227.935H86.996V234.227H91.026V227.935Z" fill="white" stroke="#263238" stroke-width="0.65" stroke-linecap="round" stroke-linejoin="round"/>
<path d="M95.6279 227.935H91.5979V234.227H95.6279V227.935Z" fill="white" stroke="#263238" stroke-width="0.65" stroke-linecap="round" stroke-linejoin="round"/>
<path d="M100.23 227.935H96.2V234.227H100.23V227.935Z" fill="white" stroke="#263238" stroke-width="0.65" stroke-linecap="round" stroke-linejoin="round"/>
<path d="M86.4174 239.122H82.3875V245.414H86.4174V239.122Z" fill="white" stroke="#263238" stroke-width="0.65" stroke-linecap="round" stroke-linejoin="round"/>
<path d="M91.026 239.122H86.996V245.414H91.026V239.122Z" fill="white" stroke="#263238" stroke-width="0.65" stroke-linecap="round" stroke-linejoin="round"/>
<path d="M95.6279 239.122H91.5979V245.414H95.6279V239.122Z" fill="white" stroke="#263238" stroke-width="0.65" stroke-linecap="round" stroke-linejoin="round"/>
<path d="M100.23 239.122H96.2V245.414H100.23V239.122Z" fill="white" stroke="#263238" stroke-width="0.65" stroke-linecap="round" stroke-linejoin="round"/>
<path d="M220.318 277.654H47.5085V301.983H220.318V277.654Z" fill="#263238" stroke="#263238" stroke-width="0.65" stroke-linecap="round" stroke-linejoin="round"/>
<path d="M131.358 285.688H126.873V301.977H131.358V285.688Z" fill="white" stroke="#263238" stroke-width="0.65" stroke-linecap="round" stroke-linejoin="round"/>
<path d="M110.734 285.688H106.249V301.977H110.734V285.688Z" fill="white" stroke="#263238" stroke-width="0.65" stroke-linecap="round" stroke-linejoin="round"/>
<path d="M90.1094 285.688H85.6244V301.977H90.1094V285.688Z" fill="white" stroke="#263238" stroke-width="0.65" stroke-linecap="round" stroke-linejoin="round"/>
<path d="M69.485 285.688H65V301.977H69.485V285.688Z" fill="white" stroke="#263238" stroke-width="0.65" stroke-linecap="round" stroke-linejoin="round"/>
<path d="M48.867 285.688H44.382V301.977H48.867V285.688Z" fill="white" stroke="#263238" stroke-width="0.65" stroke-linecap="round" stroke-linejoin="round"/>
<path d="M161.746 285.688H157.261V301.977H161.746V285.688Z" fill="white" stroke="#263238" stroke-width="0.65" stroke-linecap="round" stroke-linejoin="round"/>
<path d="M192.14 285.688H187.655V301.977H192.14V285.688Z" fill="white" stroke="#263238" stroke-width="0.65" stroke-linecap="round" stroke-linejoin="round"/>
<path d="M222.527 285.688H218.042V301.977H222.527V285.688Z" fill="white" stroke="#263238" stroke-width="0.65" stroke-linecap="round" stroke-linejoin="round"/>
<path d="M223.665 242.664H105.566V287.781H223.665V242.664Z" fill="white" stroke="#263238" stroke-width="0.65" stroke-linecap="round" stroke-linejoin="round"/>
<path d="M124.631 242.664H38.3175V287.781H124.631V242.664Z" fill="white" stroke="#263238" stroke-width="0.65" stroke-linecap="round" stroke-linejoin="round"/>
<path d="M120.881 250.562H42.0615V276.965H120.881V250.562Z" fill="#263238" stroke="#263238" stroke-width="0.65" stroke-linecap="round" stroke-linejoin="round"/>
<path d="M144.092 250.602H127.705V260.833H144.092V250.602Z" fill="white" stroke="#263238" stroke-width="0.65" stroke-linecap="round" stroke-linejoin="round"/>
<path d="M163.313 250.602H146.926V260.833H163.313V250.602Z" fill="white" stroke="#263238" stroke-width="0.65" stroke-linecap="round" stroke-linejoin="round"/>
<path d="M182.527 250.602H166.14V260.833H182.527V250.602Z" fill="white" stroke="#263238" stroke-width="0.65" stroke-linecap="round" stroke-linejoin="round"/>
<path d="M201.74 250.602H185.354V260.833H201.74V250.602Z" fill="white" stroke="#263238" stroke-width="0.65" stroke-linecap="round" stroke-linejoin="round"/>
<path d="M220.954 250.602H204.568V260.833H220.954V250.602Z" fill="white" stroke="#263238" stroke-width="0.65" stroke-linecap="round" stroke-linejoin="round"/>
<path d="M144.092 266.792H127.705V277.023H144.092V266.792Z" fill="white" stroke="#263238" stroke-width="0.65" stroke-linecap="round" stroke-linejoin="round"/>
<path d="M163.313 266.792H146.926V277.023H163.313V266.792Z" fill="white" stroke="#263238" stroke-width="0.65" stroke-linecap="round" stroke-linejoin="round"/>
<path d="M182.527 266.792H166.14V277.023H182.527V266.792Z" fill="white" stroke="#263238" stroke-width="0.65" stroke-linecap="round" stroke-linejoin="round"/>
<path d="M201.74 266.792H185.354V277.023H201.74V266.792Z" fill="white" stroke="#263238" stroke-width="0.65" stroke-linecap="round" stroke-linejoin="round"/>
<path d="M220.954 266.792H204.568V277.023H220.954V266.792Z" fill="white" stroke="#263238" stroke-width="0.65" stroke-linecap="round" stroke-linejoin="round"/>
<path d="M56.1275 250.602H42.913V260.833H56.1275V250.602Z" fill="white" stroke="#263238" stroke-width="0.65" stroke-linecap="round" stroke-linejoin="round"/>
<path d="M71.617 250.602H58.4025V260.833H71.617V250.602Z" fill="white" stroke="#263238" stroke-width="0.65" stroke-linecap="round" stroke-linejoin="round"/>
<path d="M87.1129 250.602H73.8984V260.833H87.1129V250.602Z" fill="white" stroke="#263238" stroke-width="0.65" stroke-linecap="round" stroke-linejoin="round"/>
<path d="M102.609 250.602H89.3945V260.833H102.609V250.602Z" fill="white" stroke="#263238" stroke-width="0.65" stroke-linecap="round" stroke-linejoin="round"/>
<path d="M118.105 250.602H104.891V260.833H118.105V250.602Z" fill="white" stroke="#263238" stroke-width="0.65" stroke-linecap="round" stroke-linejoin="round"/>
<path d="M56.1275 266.792H42.913V277.023H56.1275V266.792Z" fill="white" stroke="#263238" stroke-width="0.65" stroke-linecap="round" stroke-linejoin="round"/>
<path d="M71.617 266.792H58.4025V277.023H71.617V266.792Z" fill="white" stroke="#263238" stroke-width="0.65" stroke-linecap="round" stroke-linejoin="round"/>
<path d="M87.1129 266.792H73.8984V277.023H87.1129V266.792Z" fill="white" stroke="#263238" stroke-width="0.65" stroke-linecap="round" stroke-linejoin="round"/>
<path d="M102.609 266.792H89.3945V277.023H102.609V266.792Z" fill="white" stroke="#263238" stroke-width="0.65" stroke-linecap="round" stroke-linejoin="round"/>
<path d="M118.105 266.792H104.891V277.023H118.105V266.792Z" fill="white" stroke="#263238" stroke-width="0.65" stroke-linecap="round" stroke-linejoin="round"/>
<path d="M142.142 235.709H72.696V243.086H142.142V235.709Z" fill="#263238" stroke="#263238" stroke-width="0.65" stroke-linecap="round" stroke-linejoin="round"/>
<path d="M188.149 235.709H118.703V243.086H188.149V235.709Z" fill="white" stroke="#263238" stroke-width="0.65" stroke-linecap="round" stroke-linejoin="round"/>
<path d="M297.382 45.3758L260.494 82.2633C258.881 83.876 256.692 84.7816 254.411 84.781C252.13 84.7804 249.942 83.8736 248.329 82.26C246.717 80.6464 245.811 78.4583 245.812 76.177C245.812 73.8956 246.719 71.708 248.333 70.0953L285.214 33.2078C286.839 31.6501 289.009 30.7911 291.26 30.8149C293.511 30.8387 295.663 31.7434 297.254 33.3351C298.846 34.9267 299.751 37.0786 299.774 39.3294C299.798 41.5803 298.939 43.7508 297.382 45.3758Z" fill="#263238" stroke="#263238" stroke-width="0.65" stroke-linecap="round" stroke-linejoin="round"/>
<path d="M254.228 83.459L233.708 103.999C232.766 104.94 231.49 105.469 230.159 105.469C228.827 105.469 227.551 104.94 226.61 103.999C225.668 103.058 225.14 101.781 225.14 100.45C225.14 99.1189 225.668 97.8423 226.61 96.901L247.13 76.387C248.078 75.4802 249.342 74.9804 250.654 74.9944C251.965 75.0085 253.219 75.5354 254.146 76.4623C255.074 77.3892 255.602 78.6424 255.618 79.9538C255.633 81.2651 255.134 82.5303 254.228 83.4785V83.459Z" fill="white" stroke="#263238" stroke-width="0.65" stroke-linecap="round" stroke-linejoin="round"/>
<path d="M173.615 100.431C168.025 106.023 164.218 113.147 162.676 120.902C161.134 128.658 161.927 136.696 164.953 144.001C167.979 151.306 173.104 157.55 179.679 161.942C186.253 166.335 193.983 168.68 201.89 168.68C209.797 168.68 217.527 166.335 224.101 161.942C230.676 157.55 235.801 151.306 238.827 144.001C241.854 136.696 242.646 128.658 241.104 120.902C239.562 113.147 235.756 106.023 230.165 100.431C226.452 96.7171 222.044 93.7712 217.193 91.7612C212.341 89.7513 207.141 88.7168 201.89 88.7168C196.639 88.7168 191.439 89.7513 186.587 91.7612C181.736 93.7712 177.328 96.7171 173.615 100.431ZM225.186 152.002C220.578 156.61 214.707 159.747 208.316 161.018C201.925 162.289 195.3 161.637 189.28 159.143C183.259 156.649 178.114 152.426 174.493 147.008C170.873 141.589 168.941 135.219 168.941 128.703C168.941 122.186 170.873 115.816 174.493 110.398C178.114 104.98 183.259 100.756 189.28 98.2625C195.3 95.7686 201.925 95.116 208.316 96.387C214.707 97.6581 220.578 100.796 225.186 105.403C228.246 108.463 230.673 112.095 232.329 116.093C233.985 120.091 234.838 124.376 234.838 128.703C234.838 133.03 233.985 137.315 232.329 141.312C230.673 145.31 228.246 148.942 225.186 152.002Z" fill="#263238" stroke="#263238" stroke-width="0.65" stroke-linecap="round" stroke-linejoin="round"/>
<path opacity="0.56" d="M203.704 159.834C221.901 159.834 236.652 145.083 236.652 126.886C236.652 108.689 221.901 93.9375 203.704 93.9375C185.507 93.9375 170.755 108.689 170.755 126.886C170.755 145.083 185.507 159.834 203.704 159.834Z" fill="white"/>
<path d="M175.435 98.6106C169.845 104.203 166.038 111.327 164.496 119.082C162.954 126.837 163.747 134.876 166.773 142.181C169.799 149.486 174.924 155.729 181.499 160.122C188.073 164.515 195.803 166.859 203.71 166.859C211.617 166.859 219.347 164.515 225.921 160.122C232.496 155.729 237.621 149.486 240.647 142.181C243.674 134.876 244.466 126.837 242.924 119.082C241.382 111.327 237.575 104.203 231.985 98.6106C228.272 94.8968 223.864 91.9509 219.013 89.9409C214.161 87.931 208.961 86.8965 203.71 86.8965C198.459 86.8965 193.259 87.931 188.407 89.9409C183.556 91.9509 179.148 94.8968 175.435 98.6106ZM227.006 150.182C222.398 154.789 216.527 157.927 210.136 159.198C203.745 160.469 197.12 159.816 191.099 157.322C185.079 154.829 179.933 150.606 176.313 145.187C172.693 139.769 170.761 133.399 170.761 126.882C170.761 120.366 172.693 113.996 176.313 108.577C179.933 103.159 185.079 98.9361 191.099 96.4422C197.12 93.9483 203.745 93.2957 210.136 94.5667C216.527 95.8378 222.398 98.9755 227.006 103.583C230.066 106.643 232.493 110.275 234.149 114.273C235.805 118.27 236.658 122.555 236.658 126.882C236.658 131.209 235.805 135.494 234.149 139.492C232.493 143.49 230.066 147.122 227.006 150.182Z" fill="white" stroke="#263238" stroke-width="0.65" stroke-linecap="round" stroke-linejoin="round"/>
<path d="M99.0665 83.3429V61.1714" stroke="#263238" stroke-width="0.65" stroke-linecap="round" stroke-linejoin="round"/>
<path d="M97.2205 53.0918V56.8553L95.719 59.4553C95.7181 59.8715 95.7994 60.2839 95.9581 60.6687C96.1168 61.0535 96.3498 61.4032 96.6439 61.6978C96.9379 61.9925 97.2871 62.2262 97.6716 62.3857C98.0561 62.5452 98.4683 62.6273 98.8845 62.6273C99.7196 62.6273 100.521 62.2974 101.114 61.7094C101.707 61.1213 102.043 60.3228 102.05 59.4878V56.8878" stroke="#263238" stroke-width="1.95" stroke-linecap="round" stroke-linejoin="round"/>
<path d="M93.951 52.9165H100.295V45.8705H93.951V52.9165Z" fill="white" stroke="#263238" stroke-width="0.65" stroke-linecap="round" stroke-linejoin="round"/>
<path d="M91.6109 50.5635H102.648V36.413H91.6109V50.5635Z" fill="white" stroke="#263238" stroke-width="0.65" stroke-linecap="round" stroke-linejoin="round"/>
<path d="M88.3219 47.8662H105.82V43.5242H88.3219V47.8662Z" fill="white" stroke="#263238" stroke-width="0.65" stroke-linecap="round" stroke-linejoin="round"/>
<path d="M97.1229 43.5176H99.6319L103.174 47.5346L102.804 47.8661H100.958L97.1229 43.5176Z" fill="#263238"/>
<path d="M104.442 43.5176L105.814 45.0711V47.8661H105.768L101.94 43.5176H104.442Z" fill="#263238"/>
<path d="M92.3065 43.5176H94.8155L98.358 47.5346L97.9875 47.8661H96.1415L92.3065 43.5176Z" fill="#263238"/>
<path d="M88.3154 44.4536V43.5176H89.9989L93.5414 47.5346L93.1709 47.8661H91.3249L88.3154 44.4536Z" fill="#263238"/>
<path d="M97.3766 36.1659V27.6509" stroke="#263238" stroke-width="1.3" stroke-linecap="round" stroke-linejoin="round"/>
<path d="M10.0231 27.4367H101.797V22.3342L78.6501 12.5322H10.0231" stroke="#263238" stroke-width="1.3" stroke-linecap="round" stroke-linejoin="round"/>
<path d="M78.65 27.4367V12.5322L63.3555 27.4367V12.5322L78.65 27.4367Z" stroke="#263238" stroke-width="1.3" stroke-linecap="round" stroke-linejoin="round"/>
<path d="M55.64 20.0592L48.074 27.4367V12.5322L63.375 27.4367V12.5322L55.64 20.0592Z" stroke="#263238" stroke-width="1.3" stroke-linecap="round" stroke-linejoin="round"/>
<path d="M48.0936 27.4367V12.5322L32.7991 27.4367V12.5322L48.0936 27.4367Z" stroke="#263238" stroke-width="1.3" stroke-linecap="round" stroke-linejoin="round"/>
<path d="M25.545 20.3517L32.8185 27.4367V12.5322L17.5175 27.4367V12.5322L25.545 20.3517Z" stroke="#263238" stroke-width="1.3" stroke-linecap="round" stroke-linejoin="round"/>
<path d="M98.67 72.5273L42.6465 114.816" stroke="#263238" stroke-width="0.65" stroke-linecap="round" stroke-linejoin="round"/>
<path d="M98.67 72.5273L154.694 114.816" stroke="#263238" stroke-width="0.65" stroke-linecap="round" stroke-linejoin="round"/>
<path d="M153.796 114.192C135.152 108.675 118.027 98.9427 103.746 85.7481C102.443 84.5175 100.719 83.832 98.9267 83.832C97.1345 83.832 95.4101 84.5175 94.107 85.7481C79.8276 98.9448 62.7021 108.677 44.057 114.192C42.5129 114.655 41.1752 115.635 40.2685 116.968C39.3618 118.301 38.9414 119.905 39.078 121.511C40.378 136.663 48.2235 178.711 94.2695 218.901C95.5507 220.019 97.1936 220.635 98.8942 220.635C100.595 220.635 102.238 220.019 103.519 218.901C149.565 178.731 157.41 136.663 158.71 121.511C158.853 119.913 158.443 118.314 157.549 116.982C156.654 115.65 155.33 114.665 153.796 114.192Z" fill="#92E3A9" stroke="#263238" stroke-width="0.65" stroke-linecap="round" stroke-linejoin="round"/>
<path d="M143.234 120.491C128.565 115.993 115.066 108.322 103.695 98.0205C102.402 96.8388 100.714 96.1836 98.9625 96.1836C97.2112 96.1836 95.5232 96.8388 94.2305 98.0205C82.8573 108.319 69.3587 115.99 54.691 120.491C53.1306 120.962 51.7822 121.96 50.8764 123.316C49.9706 124.671 49.5636 126.298 49.725 127.92C51.064 141.161 58.1165 174.434 94.302 206.421C95.5881 207.556 97.2442 208.182 98.9593 208.182C100.674 208.182 102.33 207.556 103.617 206.421C139.809 174.434 146.855 141.161 148.2 127.92C148.358 126.299 147.949 124.673 147.044 123.319C146.139 121.964 144.792 120.965 143.234 120.491Z" fill="#263238" stroke="#263238" stroke-width="0.65" stroke-miterlimit="10"/>
<path d="M143.234 120.491C131.323 116.813 120.154 111.063 110.24 103.506C109.199 102.712 107.957 102.225 106.653 102.1C105.35 101.975 104.038 102.217 102.865 102.798C101.692 103.38 100.705 104.278 100.015 105.39C99.3254 106.503 98.9608 107.787 98.9624 109.096V194.565C98.9616 195.951 99.3714 197.307 100.14 198.461C100.909 199.615 102.003 200.516 103.283 201.049C104.563 201.582 105.972 201.725 107.333 201.458C108.694 201.191 109.945 200.527 110.929 199.55C140.783 169.78 146.952 140.205 148.2 127.914C148.356 126.293 147.947 124.669 147.042 123.316C146.136 121.963 144.791 120.965 143.234 120.491Z" fill="white" stroke="#263238" stroke-width="0.65" stroke-linecap="round" stroke-linejoin="round"/>
<path d="M110.078 158.77C115.719 153.13 115.719 143.985 110.078 138.345C104.438 132.705 95.293 132.705 89.6527 138.345C84.0123 143.985 84.0123 153.13 89.6527 158.77C95.293 164.411 104.438 164.411 110.078 158.77Z" fill="white" stroke="#263238" stroke-width="1.95" stroke-linecap="round" stroke-linejoin="round"/>
<path d="M100.893 154.616C100.429 154.612 99.9722 154.509 99.5518 154.314C99.1314 154.119 98.7576 153.836 98.4554 153.485L92.1179 146.088C91.6117 145.428 91.3775 144.599 91.4635 143.772C91.5495 142.945 91.9493 142.183 92.5804 141.642C93.2116 141.1 94.0262 140.822 94.8567 140.863C95.6872 140.904 96.4703 141.262 97.0449 141.863L100.945 146.458L113.945 131.95C114.219 131.6 114.563 131.31 114.954 131.097C115.345 130.885 115.775 130.756 116.219 130.717C116.662 130.678 117.108 130.73 117.531 130.871C117.953 131.011 118.341 131.237 118.673 131.534C119.004 131.831 119.271 132.193 119.457 132.597C119.642 133.001 119.743 133.44 119.753 133.884C119.762 134.329 119.68 134.771 119.512 135.183C119.344 135.595 119.093 135.968 118.774 136.279L103.35 153.537C103.046 153.875 102.674 154.146 102.259 154.332C101.843 154.518 101.394 154.615 100.938 154.616H100.893Z" fill="#92E3A9"/>
<path d="M116.421 131.846C116.86 131.844 117.29 131.97 117.659 132.208C118.028 132.447 118.319 132.787 118.497 133.188C118.676 133.589 118.734 134.033 118.664 134.467C118.594 134.9 118.4 135.304 118.105 135.629L102.609 152.886C102.396 153.124 102.136 153.314 101.844 153.443C101.553 153.573 101.238 153.64 100.919 153.64C100.596 153.636 100.278 153.563 99.9856 153.426C99.6932 153.289 99.4331 153.092 99.2225 152.847L92.885 145.45C92.6843 145.225 92.5305 144.962 92.4326 144.677C92.3348 144.391 92.2948 144.089 92.3151 143.788C92.3354 143.488 92.4155 143.194 92.5507 142.924C92.686 142.654 92.8736 142.414 93.1027 142.218C93.3318 142.022 93.5977 141.873 93.8849 141.781C94.1721 141.689 94.4749 141.655 94.7754 141.681C95.0759 141.707 95.3682 141.793 95.6351 141.934C95.902 142.074 96.1383 142.266 96.33 142.499L100.984 147.933L114.731 132.6C114.944 132.362 115.204 132.171 115.496 132.041C115.787 131.912 116.102 131.845 116.421 131.846ZM116.421 129.896C115.83 129.897 115.245 130.022 114.704 130.263C114.163 130.503 113.679 130.854 113.282 131.293L100.997 144.943L97.786 141.199C97.4253 140.778 96.9853 140.433 96.4911 140.182C95.9969 139.931 95.4581 139.78 94.9055 139.738C94.3529 139.695 93.7974 139.762 93.2706 139.934C92.7438 140.106 92.2561 140.38 91.8352 140.741C91.4144 141.102 91.0687 141.542 90.818 142.036C90.5672 142.53 90.4162 143.069 90.3737 143.622C90.3311 144.174 90.3978 144.73 90.57 145.256C90.7421 145.783 91.0163 146.271 91.377 146.692L97.721 154.082C98.1107 154.539 98.5936 154.907 99.1374 155.161C99.6812 155.416 100.273 155.551 100.873 155.558H100.919C101.511 155.558 102.097 155.434 102.637 155.193C103.178 154.952 103.663 154.6 104.058 154.16L119.554 136.903C120.1 136.297 120.457 135.546 120.585 134.741C120.712 133.936 120.603 133.111 120.272 132.367C119.941 131.622 119.401 130.989 118.717 130.545C118.034 130.101 117.237 129.864 116.421 129.863V129.896Z" fill="#263238"/>
<path d="M259.35 295.101C259.35 295.101 257.101 298.526 255.268 299.969C253.435 301.412 249.132 303.492 247.929 304.461C246.727 305.429 247.28 306.294 247.676 306.71C248.073 307.126 253.623 307.431 256.639 307.438C259.655 307.444 265.089 306.138 265.089 306.138C265.089 306.138 267.494 306.521 268.099 306.216C268.703 305.91 269.1 305.228 269.191 304.162C269.282 303.096 268.944 297.077 268.944 297.077L259.35 295.101Z" fill="white" stroke="#263238" stroke-width="0.65" stroke-linecap="round" stroke-linejoin="round"/>
<path d="M265.798 304.545C263.451 304.922 262.99 305.455 258.459 306.131C254.722 306.69 249.197 306.001 247.182 305.643C247.188 305.842 247.234 306.037 247.317 306.218C247.399 306.399 247.517 306.561 247.663 306.696C248.079 307.112 253.61 307.418 256.626 307.424C259.642 307.431 265.076 306.124 265.076 306.124C265.076 306.124 267.481 306.508 268.086 306.202C268.429 305.989 268.71 305.689 268.901 305.333C269.093 304.978 269.188 304.578 269.178 304.174C268.045 304.232 266.917 304.356 265.798 304.545Z" fill="#263238" stroke="#263238" stroke-width="0.65" stroke-linecap="round" stroke-linejoin="round"/>
<path d="M261.3 297.616C261.3 297.616 258.7 296.459 256.951 298.409" stroke="#263238" stroke-width="1.3" stroke-linecap="round" stroke-linejoin="round"/>
<path d="M258.329 296.635C258.329 296.635 260.325 298.201 260.058 299.885" stroke="#263238" stroke-width="1.3" stroke-linecap="round" stroke-linejoin="round"/>
<path d="M259.35 299.423C259.35 299.423 257.302 298.474 255.911 300.073" stroke="#263238" stroke-width="1.3" stroke-linecap="round" stroke-linejoin="round"/>
<path d="M257.016 298.623C257.016 298.623 258.589 299.923 258.368 301.288" stroke="#263238" stroke-width="1.3" stroke-linecap="round" stroke-linejoin="round"/>
<path d="M257.842 301.256C257.842 301.256 255.951 300.365 252.974 301.418" stroke="#263238" stroke-width="1.3" stroke-linecap="round" stroke-linejoin="round"/>
<path d="M255.45 300.443C255.592 300.587 255.699 300.761 255.764 300.953C255.828 301.144 255.848 301.348 255.823 301.548C255.797 301.749 255.726 301.94 255.615 302.109C255.505 302.278 255.357 302.42 255.183 302.523" stroke="#263238" stroke-width="1.3" stroke-linecap="round" stroke-linejoin="round"/>
<path d="M274.163 298.351C274.163 298.351 273.052 302.329 272.649 302.901C272.246 303.473 269.6 306.801 269.581 307.964C269.561 309.128 270.406 310.025 272.512 310.506C274.618 310.987 277.907 311.156 280.514 309.966C283.12 308.777 284.303 308.387 284.966 306.567C285.629 304.747 285.187 298.643 285.187 298.643C285.187 298.643 277.03 292.631 274.163 298.351Z" fill="white" stroke="#263238" stroke-width="0.65" stroke-linecap="round" stroke-linejoin="round"/>
<path d="M284.966 306.547C285.228 305.57 285.357 304.562 285.35 303.55C284.804 304.418 284.191 305.242 283.517 306.014C282.217 307.437 280.013 309.017 275.782 309.329C273.597 309.523 271.424 308.856 269.724 307.47C269.665 307.631 269.628 307.799 269.613 307.97C269.613 309.16 270.439 310.031 272.545 310.512C274.651 310.993 277.94 311.162 280.546 309.972C283.153 308.783 284.303 308.367 284.966 306.547Z" fill="#263238" stroke="#263238" stroke-width="0.65" stroke-linecap="round" stroke-linejoin="round"/>
<path d="M279.903 296.999C279.903 296.999 276.334 296.823 275.216 298.949" stroke="#263238" stroke-width="1.3" stroke-linecap="round" stroke-linejoin="round"/>
<path d="M275.996 297.05C275.996 297.05 279.058 297.7 279.532 299.156" stroke="#263238" stroke-width="1.3" stroke-linecap="round" stroke-linejoin="round"/>
<path d="M279.194 299.598C279.194 299.598 275.626 299.429 274.508 301.548" stroke="#263238" stroke-width="1.3" stroke-linecap="round" stroke-linejoin="round"/>
<path d="M275.288 299.65C275.288 299.65 278.349 300.3 278.817 301.756" stroke="#263238" stroke-width="1.3" stroke-linecap="round" stroke-linejoin="round"/>
<path d="M278.479 302.199C278.479 302.199 274.911 302.03 273.793 304.149" stroke="#263238" stroke-width="1.3" stroke-linecap="round" stroke-linejoin="round"/>
<path d="M274.579 302.25C274.579 302.25 277.634 302.9 278.109 304.356" stroke="#263238" stroke-width="1.3" stroke-linecap="round" stroke-linejoin="round"/>
<path d="M252.85 220.26C252.85 220.26 254.221 240.936 254.8 246.741C255.378 252.545 256.815 265.929 256.932 266.286C257.049 266.644 257.406 271.376 257.406 271.376C257.406 271.376 257.049 273.274 257.523 277.421C257.998 281.568 259.421 290.213 259.421 290.213C259.421 290.213 258.232 290.447 258.355 291.396C258.479 292.345 258.947 294.951 258.947 294.951C258.947 294.951 263.445 296.485 264.751 296.609C266.058 296.732 268.651 296.609 268.651 296.609C268.651 296.609 269.717 294.828 269.6 293.885C269.355 292.721 269.038 291.572 268.651 290.447L269.243 283.459L270.192 254.918C270.192 254.918 273.864 282.751 274.456 284.759C275.047 286.768 275.639 289.959 275.639 289.959C275.639 289.959 274.456 290.908 274.456 291.5C274.456 292.091 274.69 296.238 274.69 296.238C274.69 296.238 277.062 294.34 279.311 294.698C281.56 295.055 285.233 297.662 285.233 297.662C285.382 296.46 285.621 295.272 285.948 294.106C286.416 292.566 285.473 288.659 285.233 287.606C284.957 286.401 284.918 285.154 285.116 283.934C285.35 282.868 285.473 279.553 285.59 278.487C285.707 277.421 285.473 250.888 285.473 250.888L287.891 220.5L253.441 219.434L252.85 220.26Z" fill="#263238" stroke="#263238" stroke-width="0.65" stroke-linecap="round" stroke-linejoin="round"/>
<path d="M258.16 175.56C258.16 175.56 253.747 183.808 252.596 186.174C251.446 188.54 250.107 191.212 250.107 191.212C245.908 185.134 241.741 179.083 237.191 173.265L236.177 172.082C236.177 172.082 230.496 169.937 229.963 170.457C229.43 170.977 228.15 178.985 229.398 180.207C230.646 181.429 235.898 182.157 235.898 182.157L236.892 183.191L236.756 183.314C236.756 183.314 244.705 200.955 245.986 202.164C247.266 203.373 248.774 205.499 251.543 205.635C253.129 205.707 258.498 194.358 258.498 194.358L258.16 175.56Z" fill="white" stroke="#263238" stroke-width="0.65" stroke-linecap="round" stroke-linejoin="round"/>
<path d="M257.627 175.442L250.815 187.356L256.197 200.2L259.525 193.395C259.525 193.395 261.43 174.701 260 174.545C259.563 174.508 259.123 174.57 258.712 174.725C258.302 174.881 257.931 175.125 257.627 175.442Z" fill="white" stroke="#263238" stroke-width="0.65" stroke-linecap="round" stroke-linejoin="round"/>
<path d="M249.073 188.936C249.073 188.936 254.455 203.353 255.092 203.353C255.729 203.353 257.627 200.5 257.465 199.076C257.302 197.653 253.032 186.401 251.615 186.245C250.198 186.089 249.704 187.513 249.073 188.936Z" fill="white" stroke="#263238" stroke-width="0.65" stroke-linecap="round" stroke-linejoin="round"/>
<path d="M239.304 175.878C239.304 175.878 237.406 172.589 237.198 171.25C236.866 169.17 239.252 167.876 238.154 167.382C237.055 166.888 235.014 168.318 234.825 169.807C234.712 170.745 234.749 171.695 234.936 172.621C234.936 172.621 233.87 174.571 234.143 176.027C234.416 177.483 235.15 179.076 235.709 179.277" fill="white"/>
<path d="M239.304 175.878C239.304 175.878 237.406 172.589 237.198 171.25C236.866 169.17 239.252 167.876 238.154 167.382C237.055 166.888 235.014 168.318 234.825 169.807C234.712 170.745 234.749 171.695 234.936 172.621C234.936 172.621 233.87 174.571 234.143 176.027C234.416 177.483 235.15 179.076 235.709 179.277" stroke="#263238" stroke-width="0.65" stroke-linecap="round" stroke-linejoin="round"/>
<path d="M229.125 168.812C228.943 168.766 228.754 168.758 228.569 168.787C228.384 168.817 228.207 168.884 228.049 168.985C227.891 169.085 227.755 169.216 227.649 169.371C227.544 169.526 227.471 169.701 227.435 169.884C227.362 170.045 227.322 170.218 227.318 170.394C227.314 170.571 227.345 170.746 227.411 170.909C227.477 171.073 227.575 171.221 227.7 171.346C227.824 171.47 227.973 171.568 228.137 171.633C228.787 171.951 232.421 174.031 232.785 173.03C233.149 172.029 233.499 171.132 232.739 170.684C231.978 170.235 229.125 168.812 229.125 168.812Z" fill="white" stroke="#263238" stroke-width="0.65" stroke-linecap="round" stroke-linejoin="round"/>
<path d="M228.67 171.808C228.489 171.762 228.3 171.752 228.115 171.781C227.93 171.81 227.753 171.876 227.595 171.976C227.436 172.076 227.3 172.207 227.194 172.362C227.089 172.516 227.016 172.691 226.98 172.874C226.906 173.035 226.865 173.209 226.86 173.386C226.856 173.563 226.887 173.739 226.953 173.903C227.019 174.068 227.117 174.217 227.242 174.342C227.368 174.466 227.517 174.564 227.682 174.629C228.332 174.948 231.959 177.028 232.33 176.02C232.7 175.013 233.038 174.129 232.284 173.68C231.53 173.232 228.67 171.808 228.67 171.808Z" fill="white" stroke="#263238" stroke-width="0.65" stroke-linecap="round" stroke-linejoin="round"/>
<path d="M228.364 174.883C228.21 174.844 228.05 174.837 227.892 174.862C227.735 174.887 227.585 174.944 227.45 175.029C227.316 175.114 227.2 175.226 227.11 175.357C227.02 175.489 226.958 175.637 226.928 175.793C226.864 175.929 226.829 176.077 226.825 176.228C226.821 176.378 226.848 176.528 226.904 176.667C226.96 176.807 227.044 176.933 227.151 177.039C227.258 177.145 227.386 177.227 227.526 177.282C228.085 177.555 231.166 179.323 231.478 178.471C231.79 177.62 232.082 176.859 231.439 176.476C230.795 176.092 228.364 174.883 228.364 174.883Z" fill="white" stroke="#263238" stroke-width="0.65" stroke-linecap="round" stroke-linejoin="round"/>
<path d="M228.488 177.619C228.349 177.581 228.204 177.572 228.061 177.592C227.918 177.613 227.782 177.663 227.659 177.74C227.537 177.816 227.432 177.917 227.351 178.036C227.27 178.155 227.214 178.29 227.188 178.432C227.136 178.551 227.108 178.68 227.106 178.811C227.105 178.942 227.129 179.071 227.178 179.192C227.227 179.313 227.3 179.424 227.392 179.516C227.484 179.609 227.594 179.682 227.714 179.732C228.215 179.972 230.964 181.552 231.237 180.791C231.51 180.031 231.777 179.355 231.237 179.01C230.698 178.666 228.488 177.619 228.488 177.619Z" fill="white" stroke="#263238" stroke-width="0.65" stroke-linecap="round" stroke-linejoin="round"/>
<path d="M265.46 169.287C265.46 169.287 258.141 172.641 257.66 173.837C257.179 175.033 254.715 199.252 253.292 208.937C251.868 218.622 252.479 221.196 252.479 221.196C252.479 221.196 254 224.349 268.95 223.835C283.9 223.322 289.178 221.092 289.386 219.773C289.594 218.453 289.789 220.124 289.789 219.207C289.789 218.291 290.907 175.085 289.789 172.44C288.671 169.794 282.366 165.426 280.54 165.225C278.713 165.023 265.46 169.287 265.46 169.287Z" fill="#92E3A9" stroke="#263238" stroke-width="0.65" stroke-linecap="round" stroke-linejoin="round"/>
<path d="M253.279 210.399V210.516C253.032 212.199 252.857 213.714 252.733 215.098C260.237 216.615 267.901 217.195 275.548 216.827C283.348 216.353 287.677 216.067 289.881 215.924C289.913 214.591 289.946 213.044 289.978 211.335C284.765 211.9 264.42 213.662 253.279 210.399Z" fill="white" stroke="#263238" stroke-width="0.65" stroke-linecap="round" stroke-linejoin="round"/>
<path d="M277.784 189.482C278.122 187.597 279.812 178.393 282.002 172.498L285.571 174.857L289.12 174.948C289.12 174.948 281.157 167.935 278.908 167.33C278.456 167.264 277.996 167.264 277.543 167.33C273.071 168.429 265.46 170.886 265.46 170.886C265.46 170.886 258.141 174.24 257.66 175.436C257.5 176.106 257.381 176.785 257.302 177.47L259.135 176.43L256.925 187.994C256.568 187.909 256.217 187.818 255.879 187.721L255.339 192.394C262.717 193.853 270.246 194.408 277.758 194.045C283.783 193.675 287.742 193.395 290.244 193.259C290.244 191.731 290.244 190.217 290.244 188.741C287.391 189.008 282.847 189.352 277.784 189.482ZM259.012 188.442L261.716 174.981C265.096 173.115 268.989 171.081 270.686 170.535C272.772 169.891 274.917 169.455 277.088 169.235L278.967 170.483C278.752 171.035 274.742 181.429 273.676 189.489L274.222 189.534C269.13 189.617 264.04 189.252 259.012 188.442Z" fill="white" stroke="#263238" stroke-width="0.65" stroke-linecap="round" stroke-linejoin="round"/>
<path d="M258.622 218.505C258.674 219.428 258.752 220.325 258.849 221.196" stroke="#263238" stroke-width="0.65" stroke-miterlimit="10"/>
<path d="M260.923 198.426C259.87 204.568 258.407 209.307 258.544 216.476" stroke="#263238" stroke-width="0.65" stroke-miterlimit="10"/>
<path d="M262.717 189.268C262.717 189.268 261.957 192.44 261.105 197.14" stroke="#263238" stroke-width="0.65" stroke-miterlimit="10"/>
<path d="M254.605 220.617C254.605 220.617 248.332 219.668 247.975 220.377C247.617 221.085 247.975 230.777 248.566 231.394C249.158 232.012 253.188 232.818 254.371 232.103C255.554 231.388 256.262 230.92 256.503 230.328C256.743 229.737 256.737 222.275 256.262 221.326C256.094 221.05 255.844 220.834 255.547 220.707C255.25 220.58 254.921 220.549 254.605 220.617Z" fill="#263238" stroke="#263238" stroke-width="0.65" stroke-linecap="round" stroke-linejoin="round"/>
<path d="M262.067 221.8C262.067 221.8 261.125 231.394 262.659 231.986C264.384 232.514 266.185 232.755 267.989 232.701C268.587 232.577 270.719 232.226 271.07 231.277C271.421 230.328 271.427 222.866 271.187 222.177C270.946 221.488 262.659 220.851 262.067 221.8Z" fill="#263238" stroke="#263238" stroke-width="0.65" stroke-linecap="round" stroke-linejoin="round"/>
<path d="M276.991 222.866C276.991 222.866 277.465 233.643 277.706 234.118C277.946 234.592 282.444 237.556 283.27 237.433C284.095 237.309 290.732 236.607 291.07 235.301C291.408 233.994 292.253 223.458 291.544 222.301C290.836 221.144 289.289 220.643 287.872 220.526C286.455 220.409 278.2 221.566 278.2 221.566C277.871 221.589 277.563 221.737 277.339 221.978C277.115 222.219 276.99 222.537 276.991 222.866Z" fill="#263238" stroke="#263238" stroke-width="0.65" stroke-linecap="round" stroke-linejoin="round"/>
<path d="M268.508 166.596L265.46 169.287L265.356 172.394L262.918 187.643C262.918 187.643 277.355 168.832 277.55 168.526C278.492 167.882 279.478 167.304 280.501 166.797L279.584 163.034L278.057 163.443L268.508 166.596Z" fill="white" stroke="#263238" stroke-width="0.65" stroke-linecap="round" stroke-linejoin="round"/>
<path d="M265.46 169.287L267.501 173.323L267.819 170.236L269.568 174.519L275.437 169.735" stroke="#263238" stroke-width="0.65" stroke-linecap="round" stroke-linejoin="round"/>
<path d="M266.5 144.646C266.5 144.646 265.2 147.161 265.116 147.525C265.089 148.016 265.089 148.509 265.116 149.001C265.116 149.001 261.801 152.29 261.911 152.53C262.022 152.771 263.296 153.18 263.296 153.18C263.296 153.18 262.08 161.572 262.789 161.767C263.497 161.962 268.6 161.513 268.6 161.513L267.8 170.236L278.694 163.951L279.929 158.159C279.929 158.159 283.446 154.981 283.764 153.102C284.083 151.224 283.862 150.821 283.862 150.821L266.5 144.646Z" fill="white" stroke="#263238" stroke-width="0.65" stroke-linecap="round" stroke-linejoin="round"/>
<path d="M283.881 150.8L272.746 146.9L272.695 147.745L271.583 151.645C271.583 151.645 274.963 150.079 275.593 149.89C276.224 149.702 277.023 151.912 276.165 153.03C275.307 154.148 272.864 155.428 272.864 155.428C272.864 155.428 274.814 158.288 277.245 158.854C278.073 159.047 278.924 159.121 279.773 159.075L279.949 158.204C279.949 158.204 283.465 155.025 283.784 153.147C284.102 151.268 283.881 150.8 283.881 150.8Z" fill="#263238" stroke="#263238" stroke-width="0.65" stroke-linecap="round" stroke-linejoin="round"/>
<path d="M265.85 147.427C266.23 147.281 266.65 147.275 267.034 147.41C267.419 147.544 267.743 147.81 267.949 148.161" stroke="#263238" stroke-width="0.65" stroke-linecap="round" stroke-linejoin="round"/>
<path d="M266.591 149.559C266.507 150.04 266.279 150.397 266.084 150.365C265.889 150.332 265.785 149.916 265.87 149.435C265.954 148.954 266.182 148.597 266.377 148.636C266.572 148.675 266.669 149.084 266.591 149.559Z" fill="#263238"/>
<path d="M262.665 161.604L271.03 161.299L268.45 163.743L268.541 161.539L262.665 161.604Z" fill="#263238" stroke="#263238" stroke-width="0.65" stroke-linecap="round" stroke-linejoin="round"/>
<path d="M277.062 150.762L279.773 159.03L281.983 157.541L279.409 150.944L277.062 150.762Z" fill="white" stroke="#263238" stroke-width="0.65" stroke-linecap="round" stroke-linejoin="round"/>
<path d="M265.349 142.676C265.349 142.676 260.149 142.468 260.747 142.786C261.345 143.105 286.182 155.676 286.182 155.676C286.084 154.813 286.051 153.944 286.084 153.076C286.195 152.426 287.943 148.526 288.242 144.268C288.541 140.011 280.078 136.137 275.743 134.96C271.407 133.784 268.853 135.506 268.034 137.742C267.314 139.476 266.414 141.129 265.349 142.676Z" fill="#92E3A9" stroke="#263238" stroke-width="0.65" stroke-linecap="round" stroke-linejoin="round"/>
<path d="M272.252 146.121L267.91 143.651C267.91 143.651 271.641 137.996 271.68 137.242C271.702 136.772 271.749 136.303 271.823 135.838C271.823 135.838 272.122 134.649 276.12 135.838" stroke="#263238" stroke-width="0.65" stroke-linecap="round" stroke-linejoin="round"/>
<path d="M262.918 153.693C263.766 153.455 264.659 153.43 265.518 153.622C266.539 153.992 266.766 154.74 267.182 154.662C267.598 154.584 270.101 154.012 267.468 155.773C266.48 156.423 265.596 156.209 264.823 156.118C264.234 156.029 263.653 155.89 263.087 155.702C262.807 155.452 262.633 155.105 262.602 154.731C262.57 154.357 262.684 153.986 262.918 153.693Z" fill="#263238" stroke="#263238" stroke-width="0.65" stroke-linecap="round" stroke-linejoin="round"/>
<path d="M282.1 219.506C281.469 220.191 280.726 220.765 279.903 221.202C279.939 221.385 279.92 221.573 279.848 221.745C279.776 221.916 279.655 222.062 279.5 222.164" stroke="#263238" stroke-width="0.65" stroke-linecap="round" stroke-linejoin="round"/>
<path d="M304.59 194.253C302.393 188.767 298.896 183.912 295.964 178.783C295.088 177.081 294.045 175.47 292.851 173.973C291.637 172.468 289.91 171.464 288.002 171.152H287.904C287.212 171.085 286.513 171.167 285.854 171.391C285.195 171.615 284.591 171.977 284.082 172.452C283.093 173.425 282.497 174.727 282.405 176.112C281.933 179.412 282.54 182.777 284.134 185.706C285.798 188.722 288.385 191.049 290.803 193.506C291.512 194.227 292.201 194.955 292.851 195.722C288.622 201.091 284.388 206.462 280.15 211.836C279.887 212.144 279.668 212.487 279.5 212.856H279.331L275.743 214.923C275.743 214.923 273.091 216.723 273.045 217.62C272.948 219.525 273.656 220.318 274.235 221.234C274.948 221.998 275.744 222.68 276.607 223.269C277.179 223.575 278.557 224.114 279.487 223.341C280.416 222.567 283.185 221.8 283.341 220.565C283.497 219.33 282.106 219.486 282.106 219.486C283.018 218.73 283.599 217.648 283.725 216.47C284.133 216.385 284.53 216.254 284.908 216.08C286.113 215.458 287.229 214.675 288.223 213.753C292.922 209.853 297.973 206.33 302.744 202.508C303.696 201.851 304.489 200.989 305.064 199.986C305.903 198.251 305.331 196.093 304.59 194.253Z" fill="white" stroke="#263238" stroke-width="0.65" stroke-linecap="round" stroke-linejoin="round"/>
<path d="M304.59 194.253C302.232 192.922 299.608 192.134 296.907 191.946C294.768 191.898 292.657 192.437 290.803 193.506C288.385 191.036 285.798 188.709 284.134 185.706C282.54 182.777 281.933 179.412 282.405 176.112C282.497 174.727 283.093 173.425 284.082 172.452C284.591 171.977 285.195 171.615 285.854 171.391C286.512 171.167 287.212 171.085 287.904 171.152H288.002C289.91 171.464 291.637 172.468 292.851 173.973C294.045 175.47 295.088 177.081 295.964 178.783C298.896 183.912 302.393 188.767 304.59 194.253Z" fill="white" stroke="#263238" stroke-width="0.65" stroke-linecap="round" stroke-linejoin="round"/>
<path d="M291.044 197.653C291.044 197.653 294.846 194.799 298.018 195.118C301.19 195.436 304.668 198.127 305.168 197.965C305.669 197.802 307.073 196.385 306.598 194.799C306.24 193.337 305.761 191.907 305.168 190.522C304.375 188.78 301.054 187.831 297.882 188.624C294.71 189.417 289.646 193.057 289.809 194.162C290.106 195.363 290.519 196.533 291.044 197.653Z" fill="white" stroke="#263238" stroke-width="0.65" stroke-linecap="round" stroke-linejoin="round"/>
</svg>
