<svg width="446" height="298" viewBox="0 0 446 298" fill="none" xmlns="http://www.w3.org/2000/svg">
<path d="M375.901 83.5866C375.901 83.5866 314.781 20.9801 235.351 16.1454C155.922 11.3108 109.603 62.6246 87.6539 93.2261C65.7047 123.828 10.9419 174.814 17.3999 221.502C23.858 268.189 87.1722 303.613 177.871 288.051C268.569 272.488 294.866 266.583 336.189 278.393C377.512 290.203 431.181 272.488 432.251 205.404C433.322 138.32 375.901 83.5866 375.901 83.5866Z" fill="#92E3A9"/>
<path opacity="0.7" d="M375.901 83.5866C375.901 83.5866 314.781 20.9801 235.351 16.1454C155.922 11.3108 109.603 62.6246 87.6539 93.2261C65.7047 123.828 10.9419 174.814 17.3999 221.502C23.858 268.189 87.1722 303.613 177.871 288.051C268.569 272.488 294.866 266.583 336.189 278.393C377.512 290.203 431.181 272.488 432.251 205.404C433.322 138.32 375.901 83.5866 375.901 83.5866Z" fill="white"/>
<path d="M29.0911 271.888H416.766" stroke="#263238" stroke-width="0.594667" stroke-miterlimit="10"/>
<path d="M45.9796 172.507L53.8233 247.614" stroke="#263238" stroke-width="1.18933" stroke-miterlimit="10"/>
<path d="M52.5566 233.24L49.0065 229.488" stroke="#263238" stroke-width="1.18933" stroke-miterlimit="10"/>
<path d="M50.0828 230.612C50.0757 230.037 49.9457 229.471 49.7016 228.951C49.4575 228.431 49.1049 227.969 48.6675 227.597C47.7577 226.782 42.9587 224.766 42.5008 226.455C42.0072 228.293 46.9192 231.908 50.0828 230.612Z" fill="#92E3A9" stroke="#263238" stroke-width="0.594667" stroke-miterlimit="10"/>
<path d="M50.0828 230.612L45.5158 227.764" stroke="#263238" stroke-width="0.297333" stroke-miterlimit="10"/>
<path d="M53.4487 241.786L49.8985 238.033" stroke="#263238" stroke-width="1.18933" stroke-miterlimit="10"/>
<path d="M50.9748 239.157C50.9681 238.583 50.8382 238.016 50.5941 237.496C50.35 236.976 49.9972 236.515 49.5595 236.142C48.6497 235.328 43.8507 233.306 43.3928 234.995C42.8992 236.838 47.8112 240.448 50.9748 239.157Z" fill="#92E3A9" stroke="#263238" stroke-width="0.594667" stroke-miterlimit="10"/>
<path d="M50.9748 239.157L46.4078 236.309" stroke="#263238" stroke-width="0.297333" stroke-miterlimit="10"/>
<path d="M50.3802 212.397L46.83 208.645" stroke="#263238" stroke-width="1.18933" stroke-miterlimit="10"/>
<path d="M47.9064 209.769C47.8992 209.195 47.7698 208.63 47.5268 208.11C47.2837 207.59 46.9327 207.128 46.497 206.754C45.5812 205.939 40.7822 203.918 40.3244 205.612C39.8427 207.45 44.7427 211.06 47.9064 209.769Z" fill="#92E3A9" stroke="#263238" stroke-width="0.594667" stroke-miterlimit="10"/>
<path d="M47.9063 209.769L43.3393 206.921" stroke="#263238" stroke-width="0.297333" stroke-miterlimit="10"/>
<path d="M51.2722 220.937L47.722 217.185" stroke="#263238" stroke-width="1.18933" stroke-miterlimit="10"/>
<path d="M48.7983 218.309C48.7912 217.734 48.6612 217.168 48.4171 216.648C48.173 216.128 47.8204 215.666 47.383 215.294C46.4732 214.479 41.6742 212.463 41.2163 214.152C40.7228 215.989 45.6347 219.605 48.7983 218.309Z" fill="#92E3A9" stroke="#263238" stroke-width="0.594667" stroke-miterlimit="10"/>
<path d="M48.7983 218.308L44.2313 215.46" stroke="#263238" stroke-width="0.297333" stroke-miterlimit="10"/>
<path d="M48.9351 198.518L45.379 194.766" stroke="#263238" stroke-width="1.18933" stroke-miterlimit="10"/>
<path d="M46.4613 195.89C46.4542 195.315 46.3242 194.749 46.0801 194.229C45.8359 193.709 45.4834 193.247 45.046 192.875C44.1362 192.066 39.3313 190.044 38.8793 191.733C38.3798 193.6 43.2977 197.168 46.4613 195.89Z" fill="#92E3A9" stroke="#263238" stroke-width="0.594667" stroke-miterlimit="10"/>
<path d="M46.4613 195.889L41.8883 193.041" stroke="#263238" stroke-width="0.297333" stroke-miterlimit="10"/>
<path d="M47.4782 184.585L43.928 180.833" stroke="#263238" stroke-width="1.18933" stroke-miterlimit="10"/>
<path d="M45.0044 181.956C44.9972 181.382 44.8672 180.816 44.6231 180.296C44.379 179.776 44.0264 179.314 43.5891 178.941C42.6792 178.127 37.8803 176.105 37.4224 177.8C36.9288 179.637 41.8407 183.247 45.0044 181.956Z" fill="#92E3A9" stroke="#263238" stroke-width="0.594667" stroke-miterlimit="10"/>
<path d="M45.0044 181.956L40.4373 179.108" stroke="#263238" stroke-width="0.297333" stroke-miterlimit="10"/>
<path d="M51.962 228.186L54.6618 223.779" stroke="#263238" stroke-width="1.18933" stroke-miterlimit="10"/>
<path d="M53.8411 225.117C53.7284 224.554 53.738 223.973 53.8693 223.414C54.0006 222.855 54.2506 222.331 54.6023 221.876C55.3218 220.889 59.6034 217.922 60.4003 219.498C61.2507 221.169 57.201 225.712 53.8411 225.117Z" fill="#92E3A9" stroke="#263238" stroke-width="0.594667" stroke-miterlimit="10"/>
<path d="M53.8411 225.105L57.9562 221.169" stroke="#263238" stroke-width="0.297333" stroke-miterlimit="10"/>
<path d="M49.613 205.707L52.3188 201.301" stroke="#263238" stroke-width="1.18933" stroke-miterlimit="10"/>
<path d="M51.4922 202.627C51.381 202.064 51.3914 201.483 51.5226 200.924C51.6539 200.366 51.903 199.841 52.2533 199.386C52.9788 198.399 57.2604 195.432 58.0513 197.008C58.9196 198.69 54.858 203.234 51.4922 202.627Z" fill="#92E3A9" stroke="#263238" stroke-width="0.594667" stroke-miterlimit="10"/>
<path d="M51.4922 202.627L55.6073 198.69" stroke="#263238" stroke-width="0.297333" stroke-miterlimit="10"/>
<path d="M48.5843 195.83L51.284 191.423" stroke="#263238" stroke-width="1.18933" stroke-miterlimit="10"/>
<path d="M50.4634 192.744C50.3506 192.18 50.3602 191.6 50.4916 191.04C50.6229 190.481 50.8729 189.957 51.2246 189.503C51.9501 188.522 56.2257 185.554 57.0226 187.124C57.8848 188.807 53.8233 193.356 50.4634 192.744Z" fill="#92E3A9" stroke="#263238" stroke-width="0.594667" stroke-miterlimit="10"/>
<path d="M50.4634 192.744L54.5785 188.813" stroke="#263238" stroke-width="0.297333" stroke-miterlimit="10"/>
<path d="M47.0738 181.35L49.7736 176.944" stroke="#263238" stroke-width="1.18933" stroke-miterlimit="10"/>
<path d="M48.953 178.264C48.8402 177.7 48.8498 177.12 48.9811 176.56C49.1125 176.001 49.3624 175.477 49.7141 175.023C50.4337 174.036 54.7153 171.068 55.5121 172.644C56.3744 174.327 52.3307 178.876 48.953 178.264Z" fill="#92E3A9" stroke="#263238" stroke-width="0.594667" stroke-miterlimit="10"/>
<path d="M48.9529 178.264L53.068 174.333" stroke="#263238" stroke-width="0.297333" stroke-miterlimit="10"/>
<path d="M45.9142 172.085C45.803 171.522 45.8134 170.941 45.9447 170.382C46.076 169.823 46.3251 169.299 46.6754 168.844C47.4009 167.863 51.6825 164.895 52.4793 166.465C53.3416 168.148 49.28 172.697 45.9142 172.085Z" fill="#92E3A9" stroke="#263238" stroke-width="0.594667" stroke-miterlimit="10"/>
<path d="M45.9142 172.085L50.0293 168.154" stroke="#263238" stroke-width="0.297333" stroke-miterlimit="10"/>
<path d="M46.158 172.257C45.5855 172.31 45.0083 172.239 44.4655 172.049C43.9228 171.86 43.4272 171.555 43.0122 171.157C42.1083 170.337 39.6048 165.77 41.2282 165.139C43.0182 164.461 47.1154 168.975 46.158 172.257Z" fill="#92E3A9" stroke="#263238" stroke-width="0.594667" stroke-miterlimit="10"/>
<path d="M46.158 172.257L42.6733 167.75" stroke="#263238" stroke-width="0.297333" stroke-miterlimit="10"/>
<path d="M66.6562 182.848L58.8601 257.967" stroke="#263238" stroke-width="1.18933" stroke-miterlimit="10"/>
<path d="M60.5846 243.641L57.8789 239.235" stroke="#263238" stroke-width="1.18933" stroke-miterlimit="10"/>
<path d="M58.7055 240.579C58.8167 240.015 58.8063 239.435 58.675 238.876C58.5438 238.317 58.2947 237.793 57.9443 237.338C57.2188 236.356 52.9372 233.389 52.1404 234.959C51.2781 236.624 55.3456 241.173 58.7055 240.579Z" fill="#92E3A9" stroke="#263238" stroke-width="0.594667" stroke-miterlimit="10"/>
<path d="M58.7055 240.555L54.8223 236.826" stroke="#263238" stroke-width="0.297333" stroke-miterlimit="10"/>
<path d="M62.7492 222.792L60.0435 218.386" stroke="#263238" stroke-width="1.18933" stroke-miterlimit="10"/>
<path d="M60.8701 219.712C60.9813 219.148 60.9709 218.568 60.8396 218.009C60.7083 217.45 60.4592 216.926 60.1089 216.471C59.3834 215.484 55.1018 212.522 54.305 214.092C53.4427 215.775 57.5043 220.324 60.8701 219.712Z" fill="#92E3A9" stroke="#263238" stroke-width="0.594667" stroke-miterlimit="10"/>
<path d="M60.8701 219.712L56.981 215.983" stroke="#263238" stroke-width="0.297333" stroke-miterlimit="10"/>
<path d="M61.8632 231.337L59.1574 226.931" stroke="#263238" stroke-width="1.18933" stroke-miterlimit="10"/>
<path d="M59.984 228.251C60.0952 227.688 60.0848 227.107 59.9535 226.548C59.8223 225.99 59.5731 225.465 59.2228 225.01C58.4973 224.029 54.2157 221.062 53.4189 222.632C52.5566 224.32 56.6182 228.864 59.984 228.251Z" fill="#92E3A9" stroke="#263238" stroke-width="0.594667" stroke-miterlimit="10"/>
<path d="M59.984 228.251L56.0949 224.523" stroke="#263238" stroke-width="0.297333" stroke-miterlimit="10"/>
<path d="M64.1883 208.912L61.4826 204.512" stroke="#263238" stroke-width="1.18933" stroke-miterlimit="10"/>
<path d="M62.3092 205.832C62.4204 205.269 62.41 204.689 62.2787 204.13C62.1475 203.571 61.8983 203.046 61.548 202.591C60.8225 201.604 56.5409 198.643 55.7441 200.213C54.8818 201.925 58.9493 206.445 62.3092 205.832Z" fill="#92E3A9" stroke="#263238" stroke-width="0.594667" stroke-miterlimit="10"/>
<path d="M62.3092 205.832L58.426 202.104" stroke="#263238" stroke-width="0.297333" stroke-miterlimit="10"/>
<path d="M65.6334 194.979L62.9336 190.573" stroke="#263238" stroke-width="1.18933" stroke-miterlimit="10"/>
<path d="M63.7542 191.893C63.8669 191.33 63.8573 190.749 63.726 190.19C63.5947 189.631 63.3447 189.106 62.993 188.652C62.2675 187.671 57.9859 184.704 57.1891 186.274C56.3268 187.963 60.3943 192.506 63.7542 191.893Z" fill="#92E3A9" stroke="#263238" stroke-width="0.594667" stroke-miterlimit="10"/>
<path d="M63.7542 191.893L59.8711 188.165" stroke="#263238" stroke-width="0.297333" stroke-miterlimit="10"/>
<path d="M61.0425 238.569L64.5927 234.816" stroke="#263238" stroke-width="1.18933" stroke-miterlimit="10"/>
<path d="M63.5164 235.94C63.5216 235.366 63.6502 234.8 63.8933 234.279C64.1365 233.759 64.4885 233.297 64.9257 232.925C65.8415 232.11 70.6405 230.089 71.0924 231.777C71.5919 233.615 66.68 237.23 63.5164 235.94Z" fill="#92E3A9" stroke="#263238" stroke-width="0.594667" stroke-miterlimit="10"/>
<path d="M63.5164 235.94L68.351 232.937" stroke="#263238" stroke-width="0.297333" stroke-miterlimit="10"/>
<path d="M63.3736 216.09L66.9238 212.332" stroke="#263238" stroke-width="1.18933" stroke-miterlimit="10"/>
<path d="M65.8474 213.456C65.8546 212.881 65.9845 212.315 66.2287 211.795C66.4728 211.275 66.8254 210.813 67.2627 210.441C68.1726 209.626 72.9715 207.604 73.4294 209.299C73.923 211.137 69.011 214.746 65.8474 213.456Z" fill="#92E3A9" stroke="#263238" stroke-width="0.594667" stroke-miterlimit="10"/>
<path d="M65.8474 213.456L70.6821 210.459" stroke="#263238" stroke-width="0.297333" stroke-miterlimit="10"/>
<path d="M64.4024 206.207L67.9526 202.454" stroke="#263238" stroke-width="1.18933" stroke-miterlimit="10"/>
<path d="M66.8702 203.578C66.8774 203.004 67.0074 202.438 67.2515 201.918C67.4956 201.398 67.8482 200.936 68.2855 200.564C69.1954 199.749 73.9943 197.727 74.4522 199.416C74.928 201.253 70.0398 204.899 66.8702 203.578Z" fill="#92E3A9" stroke="#263238" stroke-width="0.594667" stroke-miterlimit="10"/>
<path d="M66.8702 203.578L71.7108 200.575" stroke="#263238" stroke-width="0.297333" stroke-miterlimit="10"/>
<path d="M65.9009 191.727L69.457 187.969" stroke="#263238" stroke-width="1.18933" stroke-miterlimit="10"/>
<path d="M68.3867 189.098C68.3934 188.524 68.5233 187.958 68.7674 187.437C69.0116 186.917 69.3643 186.456 69.802 186.083C70.7118 185.263 75.5108 183.241 75.9687 184.936C76.4504 186.773 71.5384 190.389 68.3867 189.098Z" fill="#92E3A9" stroke="#263238" stroke-width="0.594667" stroke-miterlimit="10"/>
<path d="M68.3748 189.099L73.2153 186.095" stroke="#263238" stroke-width="0.297333" stroke-miterlimit="10"/>
<path d="M66.68 182.426C66.6871 181.852 66.8165 181.287 67.0596 180.767C67.3026 180.247 67.6536 179.785 68.0893 179.411C69.0051 178.596 73.8041 176.575 74.256 178.263C74.7555 180.101 69.8436 183.717 66.68 182.426Z" fill="#92E3A9" stroke="#263238" stroke-width="0.594667" stroke-miterlimit="10"/>
<path d="M66.68 182.426L71.5146 179.423" stroke="#263238" stroke-width="0.297333" stroke-miterlimit="10"/>
<path d="M66.8762 182.64C66.3063 182.574 65.7572 182.386 65.2659 182.09C64.7745 181.793 64.3524 181.395 64.0277 180.922C63.3141 179.929 61.8037 174.945 63.5342 174.666C65.4133 174.369 68.4937 179.631 66.8762 182.64Z" fill="#92E3A9" stroke="#263238" stroke-width="0.594667" stroke-miterlimit="10"/>
<path d="M66.8762 182.64L64.3964 177.52" stroke="#263238" stroke-width="0.297333" stroke-miterlimit="10"/>
<path d="M57.7243 152.259V247.251" stroke="#263238" stroke-width="1.18933" stroke-miterlimit="10"/>
<path d="M57.8016 232.967L54.6558 228.864" stroke="#263238" stroke-width="1.18933" stroke-miterlimit="10"/>
<path d="M55.6132 230.095C55.6658 229.522 55.5954 228.946 55.4067 228.403C55.218 227.861 54.9153 227.365 54.519 226.949C53.6984 226.045 49.1313 223.541 48.501 225.165C47.8171 226.949 52.3306 231.064 55.6132 230.095Z" fill="#92E3A9" stroke="#263238" stroke-width="0.594667" stroke-miterlimit="10"/>
<path d="M55.6132 230.095L51.3614 226.788" stroke="#263238" stroke-width="0.297333" stroke-miterlimit="10"/>
<path d="M57.8016 215.115L54.6558 211.018" stroke="#263238" stroke-width="1.18933" stroke-miterlimit="10"/>
<path d="M55.6132 212.243C55.6657 211.672 55.5953 211.096 55.4065 210.554C55.2178 210.013 54.9151 209.518 54.519 209.103C53.6984 208.193 49.1313 205.69 48.501 207.319C47.8171 209.103 52.3306 213.224 55.6132 212.243Z" fill="#92E3A9" stroke="#263238" stroke-width="0.594667" stroke-miterlimit="10"/>
<path d="M55.6132 212.243L51.3614 208.937" stroke="#263238" stroke-width="0.297333" stroke-miterlimit="10"/>
<path d="M57.8016 194.159L54.6558 190.056" stroke="#263238" stroke-width="1.18933" stroke-miterlimit="10"/>
<path d="M55.6132 191.287C55.6658 190.715 55.5954 190.138 55.4067 189.595C55.218 189.053 54.9153 188.557 54.519 188.141C53.6984 187.237 49.1313 184.733 48.501 186.357C47.8171 188.141 52.3306 192.244 55.6132 191.287Z" fill="#92E3A9" stroke="#263238" stroke-width="0.594667" stroke-miterlimit="10"/>
<path d="M55.6132 191.287L51.3614 187.98" stroke="#263238" stroke-width="0.297333" stroke-miterlimit="10"/>
<path d="M57.8016 180.208L54.6558 176.105" stroke="#263238" stroke-width="1.18933" stroke-miterlimit="10"/>
<path d="M55.6132 177.336C55.6658 176.764 55.5954 176.187 55.4067 175.644C55.218 175.102 54.9153 174.606 54.519 174.19C53.6984 173.286 49.1313 170.777 48.501 172.406C47.8171 174.19 52.3306 178.293 55.6132 177.336Z" fill="#92E3A9" stroke="#263238" stroke-width="0.594667" stroke-miterlimit="10"/>
<path d="M55.6132 177.336L51.3614 174.029" stroke="#263238" stroke-width="0.297333" stroke-miterlimit="10"/>
<path d="M57.8016 166.192L54.6558 162.094" stroke="#263238" stroke-width="1.18933" stroke-miterlimit="10"/>
<path d="M55.6132 163.326C55.6658 162.753 55.5954 162.177 55.4067 161.634C55.218 161.092 54.9153 160.596 54.519 160.18C53.6984 159.276 49.1313 156.766 48.501 158.396C47.8171 160.18 52.3306 164.283 55.6132 163.326Z" fill="#92E3A9" stroke="#263238" stroke-width="0.594667" stroke-miterlimit="10"/>
<path d="M55.6132 163.326L51.3614 160.019" stroke="#263238" stroke-width="0.297333" stroke-miterlimit="10"/>
<path d="M57.7302 238.42L60.876 234.317" stroke="#263238" stroke-width="1.18933" stroke-miterlimit="10"/>
<path d="M59.9186 235.548C59.866 234.976 59.9364 234.399 60.1252 233.857C60.3139 233.314 60.6165 232.818 61.0128 232.402C61.8335 231.498 66.4005 228.989 67.0308 230.618C67.7147 232.402 63.2012 236.505 59.9186 235.548Z" fill="#92E3A9" stroke="#263238" stroke-width="0.594667" stroke-miterlimit="10"/>
<path d="M59.9186 235.548L64.4202 232.063" stroke="#263238" stroke-width="0.297333" stroke-miterlimit="10"/>
<path d="M57.7302 210.03L60.876 205.927" stroke="#263238" stroke-width="1.18933" stroke-miterlimit="10"/>
<path d="M59.9186 207.158C59.866 206.586 59.9364 206.01 60.1252 205.467C60.3139 204.924 60.6165 204.428 61.0128 204.012C61.8335 203.109 66.4005 200.599 67.0308 202.228C67.7147 204.012 63.2012 208.116 59.9186 207.158Z" fill="#92E3A9" stroke="#263238" stroke-width="0.594667" stroke-miterlimit="10"/>
<path d="M59.9186 207.158L64.4202 203.674" stroke="#263238" stroke-width="0.297333" stroke-miterlimit="10"/>
<path d="M57.7302 196.014L60.876 191.911" stroke="#263238" stroke-width="1.18933" stroke-miterlimit="10"/>
<path d="M59.9186 193.142C59.866 192.57 59.9364 191.993 60.1252 191.451C60.3139 190.908 60.6165 190.412 61.0128 189.996C61.8335 189.092 66.4005 186.589 67.0308 188.212C67.7147 189.996 63.2012 194.099 59.9186 193.142Z" fill="#92E3A9" stroke="#263238" stroke-width="0.594667" stroke-miterlimit="10"/>
<path d="M59.9186 193.142L64.4202 189.657" stroke="#263238" stroke-width="0.297333" stroke-miterlimit="10"/>
<path d="M57.7302 177.496L60.876 173.393" stroke="#263238" stroke-width="1.18933" stroke-miterlimit="10"/>
<path d="M59.9186 174.624C59.866 174.052 59.9364 173.475 60.1252 172.933C60.3139 172.39 60.6165 171.894 61.0128 171.478C61.8335 170.574 66.4005 168.065 67.0308 169.694C67.7147 171.478 63.2012 175.582 59.9186 174.624Z" fill="#92E3A9" stroke="#263238" stroke-width="0.594667" stroke-miterlimit="10"/>
<path d="M59.9186 174.624L64.4202 171.14" stroke="#263238" stroke-width="0.297333" stroke-miterlimit="10"/>
<path d="M57.7302 162.933L60.876 158.83" stroke="#263238" stroke-width="1.18933" stroke-miterlimit="10"/>
<path d="M59.9186 160.061C59.866 159.489 59.9364 158.912 60.1252 158.369C60.3139 157.827 60.6165 157.331 61.0128 156.915C61.8335 156.011 66.4005 153.508 67.0308 155.131C67.7147 156.915 63.2012 161.018 59.9186 160.061Z" fill="#92E3A9" stroke="#263238" stroke-width="0.594667" stroke-miterlimit="10"/>
<path d="M59.9186 160.061L64.4202 156.576" stroke="#263238" stroke-width="0.297333" stroke-miterlimit="10"/>
<path d="M57.5459 153.603C57.4929 153.031 57.5626 152.455 57.7502 151.912C57.9379 151.37 58.2393 150.874 58.6342 150.457C59.4607 149.553 64.0218 147.05 64.6522 148.673C65.3361 150.457 60.8225 154.56 57.5459 153.603Z" fill="#92E3A9" stroke="#263238" stroke-width="0.594667" stroke-miterlimit="10"/>
<path d="M57.5459 153.603L62.0416 150.118" stroke="#263238" stroke-width="0.297333" stroke-miterlimit="10"/>
<path d="M57.76 153.799C57.1859 153.791 56.6201 153.661 56.101 153.415C55.5819 153.17 55.1215 152.816 54.751 152.378C53.9363 151.468 51.9204 146.663 53.6152 146.211C55.4527 145.717 59.0563 150.635 57.76 153.799Z" fill="#92E3A9" stroke="#263238" stroke-width="0.594667" stroke-miterlimit="10"/>
<path d="M57.7599 153.799L54.7688 148.958" stroke="#263238" stroke-width="0.297333" stroke-miterlimit="10"/>
<path d="M61.6312 271.888H51.5754L50.3147 246.478H62.8919L61.6312 271.888Z" fill="#263238" stroke="#263238" stroke-width="0.594667" stroke-miterlimit="10"/>
<path d="M383.031 172.507L390.868 247.614" stroke="#263238" stroke-width="1.18933" stroke-miterlimit="10"/>
<path d="M389.608 233.24L386.052 229.488" stroke="#263238" stroke-width="1.18933" stroke-miterlimit="10"/>
<path d="M387.128 230.612C387.121 230.037 386.991 229.471 386.747 228.951C386.503 228.431 386.15 227.969 385.713 227.597C384.803 226.782 379.998 224.766 379.546 226.455C379.052 228.293 383.97 231.908 387.128 230.612Z" fill="#92E3A9" stroke="#263238" stroke-width="0.594667" stroke-miterlimit="10"/>
<path d="M387.134 230.612L382.561 227.764" stroke="#263238" stroke-width="0.297333" stroke-miterlimit="10"/>
<path d="M390.5 241.786L386.944 238.033" stroke="#263238" stroke-width="1.18933" stroke-miterlimit="10"/>
<path d="M388.026 239.157C388.019 238.583 387.889 238.016 387.645 237.496C387.401 236.976 387.048 236.515 386.611 236.142C385.695 235.328 380.896 233.306 380.444 234.995C379.944 236.838 384.862 240.448 388.026 239.157Z" fill="#92E3A9" stroke="#263238" stroke-width="0.594667" stroke-miterlimit="10"/>
<path d="M388.026 239.157L383.453 236.309" stroke="#263238" stroke-width="0.297333" stroke-miterlimit="10"/>
<path d="M387.431 212.397L383.875 208.645" stroke="#263238" stroke-width="1.18933" stroke-miterlimit="10"/>
<path d="M384.957 209.769C384.95 209.195 384.82 208.628 384.576 208.108C384.332 207.588 383.979 207.127 383.542 206.754C382.632 205.939 377.827 203.918 377.375 205.612C376.882 207.45 381.776 211.06 384.957 209.769Z" fill="#92E3A9" stroke="#263238" stroke-width="0.594667" stroke-miterlimit="10"/>
<path d="M384.957 209.769L380.384 206.921" stroke="#263238" stroke-width="0.297333" stroke-miterlimit="10"/>
<path d="M388.323 220.937L384.767 217.185" stroke="#263238" stroke-width="1.18933" stroke-miterlimit="10"/>
<path d="M385.849 218.309C385.842 217.734 385.712 217.168 385.468 216.648C385.224 216.128 384.872 215.666 384.434 215.294C383.524 214.479 378.719 212.463 378.267 214.152C377.768 215.989 382.686 219.605 385.849 218.309Z" fill="#92E3A9" stroke="#263238" stroke-width="0.594667" stroke-miterlimit="10"/>
<path d="M385.849 218.308L381.276 215.46" stroke="#263238" stroke-width="0.297333" stroke-miterlimit="10"/>
<path d="M385.98 198.518L382.43 194.766" stroke="#263238" stroke-width="1.18933" stroke-miterlimit="10"/>
<path d="M383.506 195.89C383.499 195.316 383.37 194.75 383.127 194.23C382.884 193.71 382.533 193.248 382.097 192.875C381.181 192.066 376.382 190.044 375.924 191.733C375.431 193.6 380.343 197.168 383.506 195.89Z" fill="#92E3A9" stroke="#263238" stroke-width="0.594667" stroke-miterlimit="10"/>
<path d="M383.506 195.889L378.939 193.041" stroke="#263238" stroke-width="0.297333" stroke-miterlimit="10"/>
<path d="M384.529 184.585L380.973 180.833" stroke="#263238" stroke-width="1.18933" stroke-miterlimit="10"/>
<path d="M382.055 181.956C382.048 181.382 381.918 180.816 381.674 180.296C381.43 179.776 381.078 179.314 380.64 178.941C379.73 178.127 374.925 176.105 374.473 177.8C373.974 179.637 378.892 183.247 382.055 181.956Z" fill="#92E3A9" stroke="#263238" stroke-width="0.594667" stroke-miterlimit="10"/>
<path d="M382.055 181.956L377.483 179.108" stroke="#263238" stroke-width="0.297333" stroke-miterlimit="10"/>
<path d="M389.007 228.186L391.713 223.779" stroke="#263238" stroke-width="1.18933" stroke-miterlimit="10"/>
<path d="M390.886 225.117C390.775 224.554 390.785 223.974 390.917 223.415C391.048 222.856 391.297 222.331 391.647 221.876C392.373 220.889 396.655 217.922 397.445 219.498C398.314 221.169 394.264 225.712 390.886 225.117Z" fill="#92E3A9" stroke="#263238" stroke-width="0.594667" stroke-miterlimit="10"/>
<path d="M390.886 225.105L395.001 221.169" stroke="#263238" stroke-width="0.297333" stroke-miterlimit="10"/>
<path d="M386.664 205.707L389.364 201.301" stroke="#263238" stroke-width="1.18933" stroke-miterlimit="10"/>
<path d="M388.543 202.627C388.431 202.064 388.44 201.483 388.571 200.924C388.703 200.365 388.953 199.84 389.304 199.386C390.024 198.399 394.306 195.432 395.102 197.008C395.965 198.69 391.885 203.234 388.543 202.627Z" fill="#92E3A9" stroke="#263238" stroke-width="0.594667" stroke-miterlimit="10"/>
<path d="M388.543 202.627L392.658 198.69" stroke="#263238" stroke-width="0.297333" stroke-miterlimit="10"/>
<path d="M385.629 195.83L388.335 191.423" stroke="#263238" stroke-width="1.18933" stroke-miterlimit="10"/>
<path d="M387.509 192.744C387.397 192.18 387.408 191.6 387.539 191.041C387.67 190.482 387.919 189.958 388.27 189.503C388.995 188.522 393.277 185.554 394.068 187.124C394.936 188.807 390.874 193.356 387.509 192.744Z" fill="#92E3A9" stroke="#263238" stroke-width="0.594667" stroke-miterlimit="10"/>
<path d="M387.509 192.744L391.624 188.813" stroke="#263238" stroke-width="0.297333" stroke-miterlimit="10"/>
<path d="M384.119 181.35L386.825 176.944" stroke="#263238" stroke-width="1.18933" stroke-miterlimit="10"/>
<path d="M385.998 178.264C385.887 177.7 385.897 177.12 386.029 176.561C386.16 176.002 386.409 175.478 386.759 175.023C387.485 174.036 391.766 171.068 392.557 172.644C393.426 174.327 389.364 178.876 385.998 178.264Z" fill="#92E3A9" stroke="#263238" stroke-width="0.594667" stroke-miterlimit="10"/>
<path d="M385.998 178.264L390.113 174.333" stroke="#263238" stroke-width="0.297333" stroke-miterlimit="10"/>
<path d="M382.965 172.085C382.854 171.522 382.865 170.941 382.996 170.382C383.127 169.823 383.376 169.299 383.727 168.844C384.452 167.863 388.734 164.895 389.525 166.465C390.393 168.148 386.331 172.697 382.965 172.085Z" fill="#92E3A9" stroke="#263238" stroke-width="0.594667" stroke-miterlimit="10"/>
<path d="M382.965 172.085L387.08 168.154" stroke="#263238" stroke-width="0.297333" stroke-miterlimit="10"/>
<path d="M383.203 172.257C382.631 172.31 382.054 172.239 381.511 172.049C380.968 171.86 380.472 171.555 380.057 171.157C379.154 170.337 376.656 165.77 378.273 165.139C380.069 164.461 384.155 168.975 383.203 172.257Z" fill="#92E3A9" stroke="#263238" stroke-width="0.594667" stroke-miterlimit="10"/>
<path d="M383.203 172.257L379.724 167.75" stroke="#263238" stroke-width="0.297333" stroke-miterlimit="10"/>
<path d="M403.707 182.848L395.911 257.967" stroke="#263238" stroke-width="1.18933" stroke-miterlimit="10"/>
<path d="M397.636 243.641L394.93 239.235" stroke="#263238" stroke-width="1.18933" stroke-miterlimit="10"/>
<path d="M395.757 240.579C395.867 240.015 395.856 239.434 395.724 238.875C395.592 238.316 395.341 237.792 394.989 237.338C394.264 236.356 389.982 233.389 389.191 234.959C388.317 236.624 392.391 241.173 395.757 240.579Z" fill="#92E3A9" stroke="#263238" stroke-width="0.594667" stroke-miterlimit="10"/>
<path d="M395.757 240.555L391.867 236.826" stroke="#263238" stroke-width="0.297333" stroke-miterlimit="10"/>
<path d="M399.8 222.792L397.095 218.386" stroke="#263238" stroke-width="1.18933" stroke-miterlimit="10"/>
<path d="M397.915 219.712C398.028 219.149 398.018 218.568 397.887 218.009C397.756 217.449 397.506 216.925 397.154 216.471C396.429 215.484 392.147 212.522 391.356 214.092C390.488 215.775 394.555 220.324 397.915 219.712Z" fill="#92E3A9" stroke="#263238" stroke-width="0.594667" stroke-miterlimit="10"/>
<path d="M397.915 219.712L394.032 215.983" stroke="#263238" stroke-width="0.297333" stroke-miterlimit="10"/>
<path d="M398.914 231.337L396.209 226.931" stroke="#263238" stroke-width="1.18933" stroke-miterlimit="10"/>
<path d="M397.029 228.251C397.142 227.688 397.132 227.107 397.001 226.548C396.87 225.989 396.62 225.464 396.268 225.01C395.543 224.029 391.261 221.062 390.47 222.632C389.602 224.32 393.669 228.864 397.029 228.251Z" fill="#92E3A9" stroke="#263238" stroke-width="0.594667" stroke-miterlimit="10"/>
<path d="M397.029 228.251L393.146 224.523" stroke="#263238" stroke-width="0.297333" stroke-miterlimit="10"/>
<path d="M401.239 208.912L398.534 204.512" stroke="#263238" stroke-width="1.18933" stroke-miterlimit="10"/>
<path d="M399.36 205.832C399.471 205.269 399.46 204.688 399.328 204.129C399.195 203.57 398.945 203.046 398.593 202.591C397.868 201.604 393.586 198.643 392.795 200.213C391.933 201.925 395.994 206.445 399.36 205.832Z" fill="#92E3A9" stroke="#263238" stroke-width="0.594667" stroke-miterlimit="10"/>
<path d="M399.36 205.832L395.471 202.104" stroke="#263238" stroke-width="0.297333" stroke-miterlimit="10"/>
<path d="M402.684 194.979L399.979 190.573" stroke="#263238" stroke-width="1.18933" stroke-miterlimit="10"/>
<path d="M400.805 191.893C400.916 191.33 400.905 190.749 400.773 190.19C400.64 189.631 400.39 189.107 400.038 188.652C399.319 187.671 395.037 184.704 394.24 186.274C393.378 187.963 397.44 192.506 400.805 191.893Z" fill="#92E3A9" stroke="#263238" stroke-width="0.594667" stroke-miterlimit="10"/>
<path d="M400.805 191.893L396.916 188.165" stroke="#263238" stroke-width="0.297333" stroke-miterlimit="10"/>
<path d="M398.094 238.569L401.644 234.816" stroke="#263238" stroke-width="1.18933" stroke-miterlimit="10"/>
<path d="M400.562 235.94C400.569 235.366 400.699 234.799 400.943 234.279C401.187 233.759 401.539 233.298 401.977 232.925C402.887 232.11 407.686 230.089 408.144 231.777C408.637 233.615 403.731 237.23 400.562 235.94Z" fill="#92E3A9" stroke="#263238" stroke-width="0.594667" stroke-miterlimit="10"/>
<path d="M400.562 235.94L405.402 232.937" stroke="#263238" stroke-width="0.297333" stroke-miterlimit="10"/>
<path d="M400.425 216.09L403.975 212.332" stroke="#263238" stroke-width="1.18933" stroke-miterlimit="10"/>
<path d="M402.899 213.456C402.904 212.882 403.032 212.315 403.275 211.795C403.519 211.275 403.871 210.813 404.308 210.441C405.218 209.626 410.017 207.604 410.475 209.299C410.974 211.137 406.062 214.746 402.899 213.456Z" fill="#92E3A9" stroke="#263238" stroke-width="0.594667" stroke-miterlimit="10"/>
<path d="M402.899 213.456L407.733 210.459" stroke="#263238" stroke-width="0.297333" stroke-miterlimit="10"/>
<path d="M401.448 206.207L404.998 202.454" stroke="#263238" stroke-width="1.18933" stroke-miterlimit="10"/>
<path d="M403.921 203.578C403.929 203.004 404.059 202.438 404.303 201.918C404.547 201.398 404.899 200.936 405.337 200.564C406.247 199.749 411.045 197.727 411.503 199.416C411.997 201.253 407.085 204.899 403.921 203.578Z" fill="#92E3A9" stroke="#263238" stroke-width="0.594667" stroke-miterlimit="10"/>
<path d="M403.921 203.578L408.756 200.575" stroke="#263238" stroke-width="0.297333" stroke-miterlimit="10"/>
<path d="M402.952 191.727L406.502 187.969" stroke="#263238" stroke-width="1.18933" stroke-miterlimit="10"/>
<path d="M405.426 189.098C405.431 188.524 405.559 187.958 405.802 187.437C406.046 186.917 406.398 186.455 406.835 186.083C407.751 185.263 412.55 183.241 413.002 184.936C413.501 186.773 408.59 190.389 405.426 189.098Z" fill="#92E3A9" stroke="#263238" stroke-width="0.594667" stroke-miterlimit="10"/>
<path d="M405.426 189.099L410.261 186.095" stroke="#263238" stroke-width="0.297333" stroke-miterlimit="10"/>
<path d="M403.725 182.426C403.732 181.852 403.862 181.285 404.106 180.765C404.351 180.245 404.703 179.784 405.14 179.411C406.05 178.596 410.849 176.575 411.307 178.263C411.807 180.101 406.895 183.717 403.725 182.426Z" fill="#92E3A9" stroke="#263238" stroke-width="0.594667" stroke-miterlimit="10"/>
<path d="M403.725 182.426L408.566 179.423" stroke="#263238" stroke-width="0.297333" stroke-miterlimit="10"/>
<path d="M403.927 182.64C403.357 182.574 402.807 182.386 402.314 182.09C401.822 181.793 401.399 181.395 401.073 180.922C400.359 179.929 398.855 174.945 400.579 174.666C402.464 174.369 405.563 179.631 403.927 182.64Z" fill="#92E3A9" stroke="#263238" stroke-width="0.594667" stroke-miterlimit="10"/>
<path d="M403.927 182.64L401.448 177.52" stroke="#263238" stroke-width="0.297333" stroke-miterlimit="10"/>
<path d="M394.775 152.259V247.251" stroke="#263238" stroke-width="1.18933" stroke-miterlimit="10"/>
<path d="M394.847 232.967L391.707 228.864" stroke="#263238" stroke-width="1.18933" stroke-miterlimit="10"/>
<path d="M392.664 230.095C392.717 229.522 392.647 228.946 392.458 228.403C392.269 227.861 391.966 227.365 391.57 226.949C390.744 226.045 386.182 223.541 385.552 225.165C384.868 226.949 389.382 231.064 392.664 230.095Z" fill="#92E3A9" stroke="#263238" stroke-width="0.594667" stroke-miterlimit="10"/>
<path d="M392.664 230.095L388.412 226.788" stroke="#263238" stroke-width="0.297333" stroke-miterlimit="10"/>
<path d="M394.847 215.115L391.707 211.018" stroke="#263238" stroke-width="1.18933" stroke-miterlimit="10"/>
<path d="M392.664 212.243C392.717 211.672 392.646 211.096 392.458 210.554C392.269 210.013 391.966 209.518 391.57 209.103C390.744 208.193 386.182 205.69 385.552 207.319C384.868 209.103 389.382 213.224 392.664 212.243Z" fill="#92E3A9" stroke="#263238" stroke-width="0.594667" stroke-miterlimit="10"/>
<path d="M392.664 212.243L388.412 208.937" stroke="#263238" stroke-width="0.297333" stroke-miterlimit="10"/>
<path d="M394.847 194.159L391.707 190.056" stroke="#263238" stroke-width="1.18933" stroke-miterlimit="10"/>
<path d="M392.664 191.287C392.717 190.715 392.647 190.138 392.458 189.595C392.269 189.053 391.966 188.557 391.57 188.141C390.744 187.237 386.182 184.733 385.552 186.357C384.868 188.141 389.382 192.244 392.664 191.287Z" fill="#92E3A9" stroke="#263238" stroke-width="0.594667" stroke-miterlimit="10"/>
<path d="M392.664 191.287L388.412 187.98" stroke="#263238" stroke-width="0.297333" stroke-miterlimit="10"/>
<path d="M394.847 180.208L391.707 176.105" stroke="#263238" stroke-width="1.18933" stroke-miterlimit="10"/>
<path d="M392.664 177.336C392.717 176.764 392.647 176.187 392.458 175.644C392.269 175.102 391.966 174.606 391.57 174.19C390.744 173.286 386.182 170.777 385.552 172.406C384.868 174.19 389.382 178.293 392.664 177.336Z" fill="#92E3A9" stroke="#263238" stroke-width="0.594667" stroke-miterlimit="10"/>
<path d="M392.664 177.336L388.412 174.029" stroke="#263238" stroke-width="0.297333" stroke-miterlimit="10"/>
<path d="M394.847 166.192L391.707 162.094" stroke="#263238" stroke-width="1.18933" stroke-miterlimit="10"/>
<path d="M392.664 163.326C392.717 162.753 392.647 162.177 392.458 161.634C392.269 161.092 391.966 160.596 391.57 160.18C390.744 159.276 386.182 156.766 385.552 158.396C384.868 160.18 389.382 164.283 392.664 163.326Z" fill="#92E3A9" stroke="#263238" stroke-width="0.594667" stroke-miterlimit="10"/>
<path d="M392.664 163.326L388.412 160.019" stroke="#263238" stroke-width="0.297333" stroke-miterlimit="10"/>
<path d="M394.781 238.42L397.927 234.317" stroke="#263238" stroke-width="1.18933" stroke-miterlimit="10"/>
<path d="M396.97 235.548C396.917 234.976 396.988 234.399 397.176 233.857C397.365 233.314 397.668 232.818 398.064 232.402C398.885 231.498 403.452 228.989 404.076 230.618C404.76 232.402 400.246 236.505 396.97 235.548Z" fill="#92E3A9" stroke="#263238" stroke-width="0.594667" stroke-miterlimit="10"/>
<path d="M396.97 235.548L401.471 232.063" stroke="#263238" stroke-width="0.297333" stroke-miterlimit="10"/>
<path d="M394.781 210.03L397.927 205.927" stroke="#263238" stroke-width="1.18933" stroke-miterlimit="10"/>
<path d="M396.97 207.158C396.917 206.586 396.988 206.01 397.176 205.467C397.365 204.924 397.668 204.428 398.064 204.012C398.885 203.109 403.452 200.599 404.076 202.228C404.76 204.012 400.246 208.116 396.97 207.158Z" fill="#92E3A9" stroke="#263238" stroke-width="0.594667" stroke-miterlimit="10"/>
<path d="M396.97 207.158L401.471 203.674" stroke="#263238" stroke-width="0.297333" stroke-miterlimit="10"/>
<path d="M394.781 196.014L397.927 191.911" stroke="#263238" stroke-width="1.18933" stroke-miterlimit="10"/>
<path d="M396.97 193.142C396.917 192.57 396.988 191.993 397.176 191.451C397.365 190.908 397.668 190.412 398.064 189.996C398.885 189.092 403.452 186.589 404.076 188.212C404.76 189.996 400.246 194.099 396.97 193.142Z" fill="#92E3A9" stroke="#263238" stroke-width="0.594667" stroke-miterlimit="10"/>
<path d="M396.97 193.142L401.471 189.657" stroke="#263238" stroke-width="0.297333" stroke-miterlimit="10"/>
<path d="M394.781 177.496L397.927 173.393" stroke="#263238" stroke-width="1.18933" stroke-miterlimit="10"/>
<path d="M396.97 174.624C396.917 174.052 396.988 173.475 397.176 172.933C397.365 172.39 397.668 171.894 398.064 171.478C398.885 170.574 403.452 168.065 404.076 169.694C404.76 171.478 400.246 175.582 396.97 174.624Z" fill="#92E3A9" stroke="#263238" stroke-width="0.594667" stroke-miterlimit="10"/>
<path d="M396.97 174.624L401.471 171.14" stroke="#263238" stroke-width="0.297333" stroke-miterlimit="10"/>
<path d="M394.781 162.933L397.927 158.83" stroke="#263238" stroke-width="1.18933" stroke-miterlimit="10"/>
<path d="M396.97 160.061C396.917 159.489 396.988 158.912 397.176 158.369C397.365 157.827 397.668 157.331 398.064 156.915C398.885 156.011 403.452 153.508 404.076 155.131C404.76 156.915 400.246 161.018 396.97 160.061Z" fill="#92E3A9" stroke="#263238" stroke-width="0.594667" stroke-miterlimit="10"/>
<path d="M396.97 160.061L401.471 156.576" stroke="#263238" stroke-width="0.297333" stroke-miterlimit="10"/>
<path d="M394.591 153.603C394.538 153.031 394.609 152.454 394.798 151.911C394.986 151.369 395.289 150.873 395.685 150.457C396.506 149.553 401.073 147.05 401.703 148.673C402.387 150.457 397.874 154.56 394.591 153.603Z" fill="#92E3A9" stroke="#263238" stroke-width="0.594667" stroke-miterlimit="10"/>
<path d="M394.591 153.603L399.093 150.118" stroke="#263238" stroke-width="0.297333" stroke-miterlimit="10"/>
<path d="M394.811 153.799C394.236 153.791 393.669 153.661 393.149 153.416C392.629 153.17 392.168 152.816 391.796 152.378C390.987 151.468 388.971 146.663 390.66 146.211C392.48 145.717 396.107 150.635 394.811 153.799Z" fill="#92E3A9" stroke="#263238" stroke-width="0.594667" stroke-miterlimit="10"/>
<path d="M394.811 153.799L391.82 148.958" stroke="#263238" stroke-width="0.297333" stroke-miterlimit="10"/>
<path d="M398.682 271.888H388.621L387.366 246.478H399.937L398.682 271.888Z" fill="#263238" stroke="#263238" stroke-width="0.594667" stroke-miterlimit="10"/>
<path d="M402.589 71.0985C402.591 67.7197 401.778 64.3903 400.221 61.392C398.663 58.3937 396.406 55.8148 393.64 53.8736C390.875 51.9324 387.682 50.686 384.333 50.2399C380.984 49.7938 377.576 50.1611 374.399 51.3108C371.222 52.4605 368.369 54.3586 366.08 56.8446C363.792 59.3306 362.136 62.3313 361.253 65.5927C360.371 68.8541 360.286 72.2802 361.008 75.581C361.729 78.8819 363.236 81.9603 365.399 84.5558C368.497 88.2689 370.193 92.9515 370.192 97.7871V100.665H392.896V97.7871C392.883 92.9592 394.567 88.2803 397.654 84.5677C400.832 80.7984 402.58 76.0291 402.589 71.0985Z" fill="white" stroke="#263238" stroke-width="0.594667" stroke-linecap="round" stroke-linejoin="round"/>
<path d="M392.896 100.671H370.162V106.297H392.896V100.671Z" fill="#92E3A9" stroke="#263238" stroke-width="0.594667" stroke-linecap="round" stroke-linejoin="round"/>
<path d="M370.162 106.309H392.896V109.121C392.896 109.867 392.6 110.583 392.072 111.11C391.545 111.638 390.829 111.934 390.083 111.934H372.969C372.223 111.934 371.508 111.638 370.98 111.11C370.453 110.583 370.156 109.867 370.156 109.121V106.309H370.162Z" fill="#92E3A9" stroke="#263238" stroke-width="0.594667" stroke-linecap="round" stroke-linejoin="round"/>
<path d="M373.028 111.928H390.024V113.712C390.024 114.723 389.622 115.693 388.908 116.408C388.193 117.122 387.223 117.524 386.212 117.524H376.84C375.829 117.524 374.86 117.122 374.145 116.408C373.43 115.693 373.028 114.723 373.028 113.712V111.928Z" fill="#263238" stroke="#263238" stroke-width="0.594667" stroke-linecap="round" stroke-linejoin="round"/>
<path d="M405.545 71.2114H415.178" stroke="#263238" stroke-width="0.594667" stroke-linecap="round" stroke-linejoin="round"/>
<path d="M346.976 71.2114H356.735" stroke="#263238" stroke-width="0.594667" stroke-linecap="round" stroke-linejoin="round"/>
<path d="M381.08 46.7707V37.1133" stroke="#263238" stroke-width="0.594667" stroke-linecap="round" stroke-linejoin="round"/>
<path d="M398.54 53.7462L405.188 47.0978" stroke="#263238" stroke-width="0.594667" stroke-linecap="round" stroke-linejoin="round"/>
<path d="M356.967 95.3192L363.71 88.5757" stroke="#263238" stroke-width="0.594667" stroke-linecap="round" stroke-linejoin="round"/>
<path d="M363.425 53.5559L356.967 47.0978" stroke="#263238" stroke-width="0.594667" stroke-linecap="round" stroke-linejoin="round"/>
<path d="M405.188 95.3193L398.76 88.891" stroke="#263238" stroke-width="0.594667" stroke-linecap="round" stroke-linejoin="round"/>
<path d="M257.223 64.0339L229.387 25.5411L201.544 64.0339H212.998V106.796H245.776V64.0339H257.223Z" fill="#92E3A9" stroke="#263238" stroke-width="0.594667" stroke-linecap="round" stroke-linejoin="round"/>
<path d="M233.769 129.82C249.415 127.291 260.05 112.557 257.521 96.9102C254.992 81.2634 240.258 70.629 224.612 73.1576C208.965 75.6862 198.33 90.4203 200.859 106.067C203.388 121.714 218.122 132.348 233.769 129.82Z" fill="white" stroke="#263238" stroke-width="0.594667" stroke-linecap="round" stroke-linejoin="round"/>
<path d="M251.044 112.508C257.128 100.444 252.28 85.7318 240.215 79.6482C228.151 73.5646 213.439 78.413 207.356 90.4773C201.272 102.542 206.12 117.253 218.185 123.337C230.249 129.421 244.961 124.572 251.044 112.508Z" fill="white" stroke="#263238" stroke-width="0.594667" stroke-linecap="round" stroke-linejoin="round"/>
<path d="M87.1784 80.8143C97.3318 78.9728 104.07 69.2489 102.228 59.0955C100.387 48.942 90.663 42.2038 80.5096 44.0454C70.3561 45.8869 63.6179 55.6108 65.4595 65.7643C67.301 75.9177 77.0249 82.6559 87.1784 80.8143Z" fill="white" stroke="#263238" stroke-width="0.594667" stroke-linecap="round" stroke-linejoin="round"/>
<path d="M89.1227 44.5228L83.848 62.4342H102.532C102.531 58.4011 101.223 54.477 98.8063 51.2484C96.3892 48.0199 92.992 45.6605 89.1227 44.5228Z" fill="#92E3A9" stroke="#263238" stroke-width="0.594667" stroke-linecap="round" stroke-linejoin="round"/>
<path d="M95.45 50.648L102.865 41.9064H109.228" stroke="#263238" stroke-width="0.297333" stroke-linecap="round" stroke-linejoin="round"/>
<path d="M113.736 42.168H123.274" stroke="#263238" stroke-width="0.297333" stroke-linecap="round" stroke-linejoin="round"/>
<path d="M113.736 44.5526H123.274" stroke="#263238" stroke-width="0.297333" stroke-linecap="round" stroke-linejoin="round"/>
<path d="M113.736 46.9373H123.274" stroke="#263238" stroke-width="0.297333" stroke-linecap="round" stroke-linejoin="round"/>
<path d="M113.736 49.3219H123.274" stroke="#263238" stroke-width="0.297333" stroke-linecap="round" stroke-linejoin="round"/>
<path d="M65.9723 100.874H60.537V117.09H65.9723V100.874Z" fill="#263238" stroke="#263238" stroke-width="0.297333" stroke-linecap="round" stroke-linejoin="round"/>
<path d="M74.5117 106.707H69.0764V117.09H74.5117V106.707Z" fill="#92E3A9" stroke="#263238" stroke-width="0.594667" stroke-linecap="round" stroke-linejoin="round"/>
<path d="M83.0571 97.3234H77.6218V117.09H83.0571V97.3234Z" fill="#263238" stroke="#263238" stroke-width="0.297333" stroke-linecap="round" stroke-linejoin="round"/>
<path d="M91.6025 101.415H86.1672V117.096H91.6025V101.415Z" fill="#92E3A9" stroke="#263238" stroke-width="0.594667" stroke-linecap="round" stroke-linejoin="round"/>
<path d="M100.142 97.8287H94.7066V117.09H100.142V97.8287Z" fill="#263238" stroke="#263238" stroke-width="0.297333" stroke-linecap="round" stroke-linejoin="round"/>
<path d="M108.687 86.4171H103.252V117.096H108.687V86.4171Z" fill="#92E3A9" stroke="#263238" stroke-width="0.594667" stroke-linecap="round" stroke-linejoin="round"/>
<path d="M114.794 86.0961H117.976" stroke="#263238" stroke-width="0.297333" stroke-linecap="round" stroke-linejoin="round"/>
<path d="M114.794 92.2924H117.976" stroke="#263238" stroke-width="0.297333" stroke-linecap="round" stroke-linejoin="round"/>
<path d="M114.794 98.4949H117.976" stroke="#263238" stroke-width="0.297333" stroke-linecap="round" stroke-linejoin="round"/>
<path d="M114.794 104.697H117.976" stroke="#263238" stroke-width="0.297333" stroke-linecap="round" stroke-linejoin="round"/>
<path d="M114.794 110.9H117.976" stroke="#263238" stroke-width="0.297333" stroke-linecap="round" stroke-linejoin="round"/>
<path d="M114.794 117.096H117.976" stroke="#263238" stroke-width="0.297333" stroke-linecap="round" stroke-linejoin="round"/>
<path d="M63.6472 94.8971L71.9725 99.934L80.6368 90.6572L89.194 91.3767L97.4837 88.0882L106.868 75.7429" stroke="#263238" stroke-width="0.594667" stroke-linecap="round" stroke-linejoin="round"/>
<path d="M64.6938 94.8852C64.6938 94.6768 64.6319 94.473 64.516 94.2998C64.4001 94.1266 64.2353 93.9917 64.0427 93.9122C63.85 93.8327 63.638 93.8122 63.4337 93.8533C63.2294 93.8944 63.0418 93.9952 62.8949 94.143C62.7479 94.2908 62.6481 94.4789 62.6082 94.6835C62.5683 94.8881 62.5899 95.0999 62.6705 95.2921C62.7511 95.4843 62.8869 95.6483 63.0608 95.7633C63.2347 95.8782 63.4388 95.9389 63.6472 95.9378C63.7851 95.9378 63.9217 95.9105 64.0491 95.8575C64.1765 95.8045 64.2921 95.7269 64.3894 95.6291C64.4866 95.5313 64.5636 95.4152 64.6159 95.2875C64.6681 95.1599 64.6946 95.0231 64.6938 94.8852Z" fill="#263238"/>
<path d="M73.025 99.9339C73.025 99.7257 72.9633 99.5222 72.8477 99.3491C72.732 99.176 72.5676 99.0411 72.3753 98.9615C72.183 98.8818 71.9713 98.861 71.7671 98.9016C71.563 98.9422 71.3754 99.0424 71.2282 99.1896C71.081 99.3368 70.9808 99.5244 70.9401 99.7286C70.8995 99.9327 70.9204 100.144 71 100.337C71.0797 100.529 71.2146 100.693 71.3877 100.809C71.5608 100.925 71.7643 100.986 71.9725 100.986C72.1109 100.987 72.2482 100.961 72.3762 100.908C72.5043 100.855 72.6206 100.778 72.7185 100.68C72.8164 100.582 72.8939 100.466 72.9465 100.338C72.9991 100.21 73.0258 100.072 73.025 99.9339Z" fill="#263238"/>
<path d="M81.6834 90.6572C81.6834 90.4487 81.6215 90.245 81.5056 90.0718C81.3897 89.8986 81.225 89.7637 81.0323 89.6842C80.8396 89.6047 80.6277 89.5842 80.4233 89.6253C80.219 89.6664 80.0315 89.7672 79.8845 89.915C79.7375 90.0628 79.6378 90.2509 79.5978 90.4555C79.5579 90.6601 79.5796 90.8719 79.6602 91.0641C79.7407 91.2563 79.8766 91.4203 80.0504 91.5352C80.2243 91.6502 80.4284 91.7109 80.6368 91.7097C80.7748 91.7097 80.9113 91.6825 81.0387 91.6295C81.1661 91.5765 81.2817 91.4989 81.379 91.4011C81.4763 91.3033 81.5532 91.1872 81.6055 91.0595C81.6577 90.9318 81.6842 90.7951 81.6834 90.6572Z" fill="#263238"/>
<path d="M90.2407 91.3766C90.2407 91.1682 90.1788 90.9645 90.0629 90.7913C89.9469 90.618 89.7822 90.4831 89.5895 90.4036C89.3969 90.3242 89.1849 90.3037 88.9806 90.3448C88.7762 90.3859 88.5887 90.4867 88.4417 90.6345C88.2948 90.7823 88.195 90.9704 88.1551 91.175C88.1151 91.3795 88.1368 91.5913 88.2174 91.7836C88.298 91.9758 88.4338 92.1398 88.6077 92.2547C88.7816 92.3696 88.9856 92.4304 89.1941 92.4292C89.332 92.4292 89.4686 92.4019 89.596 92.349C89.7233 92.296 89.839 92.2184 89.9362 92.1206C90.0335 92.0227 90.1105 91.9067 90.1627 91.779C90.215 91.6513 90.2415 91.5146 90.2407 91.3766Z" fill="#263238"/>
<path d="M98.5363 87.9217C98.5363 87.7135 98.4745 87.51 98.3589 87.3369C98.2432 87.1638 98.0788 87.0289 97.8865 86.9493C97.6942 86.8696 97.4825 86.8488 97.2784 86.8894C97.0742 86.93 96.8866 87.0302 96.7394 87.1774C96.5922 87.3246 96.492 87.5122 96.4514 87.7164C96.4108 87.9205 96.4316 88.1322 96.5113 88.3245C96.5909 88.5168 96.7258 88.6812 96.8989 88.7969C97.072 88.9125 97.2755 88.9743 97.4837 88.9743C97.7629 88.9743 98.0306 88.8634 98.228 88.666C98.4254 88.4686 98.5363 88.2008 98.5363 87.9217Z" fill="#263238"/>
<path d="M107.914 75.7429C107.914 75.5344 107.852 75.3307 107.736 75.1575C107.62 74.9842 107.456 74.8493 107.263 74.7699C107.07 74.6904 106.858 74.6699 106.654 74.711C106.45 74.7521 106.262 74.8529 106.115 75.0007C105.968 75.1485 105.868 75.3366 105.829 75.5412C105.789 75.7457 105.81 75.9576 105.891 76.1498C105.971 76.342 106.107 76.506 106.281 76.6209C106.455 76.7359 106.659 76.7966 106.868 76.7954C107.146 76.7938 107.412 76.6823 107.608 76.485C107.804 76.2878 107.914 76.021 107.914 75.7429Z" fill="#263238"/>
<path d="M315.167 246.18H318.557V213.521H315.167V246.18Z" fill="#263238" stroke="#263238" stroke-width="0.594667" stroke-linecap="round" stroke-linejoin="round"/>
<path d="M332.048 214.668L338.026 215.367L341.819 182.929L335.842 182.23L332.048 214.668Z" fill="#263238" stroke="#263238" stroke-width="0.594667" stroke-linecap="round" stroke-linejoin="round"/>
<path d="M312.557 247.518V242.012H321.162V247.566L355.581 261.38V267.898H353.232V262.944L316.737 254.636L281.206 262.944V267.898H278.922V261.38L312.557 247.518Z" fill="#8C8C8C" stroke="#263238" stroke-width="0.594667" stroke-linecap="round" stroke-linejoin="round"/>
<path d="M308.388 223.951H325.336V213.521H308.388V223.951Z" fill="#263238" stroke="#263238" stroke-width="0.594667" stroke-linecap="round" stroke-linejoin="round"/>
<path d="M355.611 268.159C355.611 267.437 355.825 266.731 356.226 266.13C356.628 265.53 357.199 265.062 357.866 264.785C358.534 264.509 359.268 264.437 359.976 264.579C360.685 264.72 361.335 265.068 361.846 265.58C362.356 266.091 362.704 266.742 362.844 267.451C362.984 268.159 362.911 268.894 362.634 269.561C362.356 270.228 361.887 270.798 361.286 271.198C360.685 271.599 359.978 271.812 359.256 271.811C358.777 271.811 358.302 271.716 357.86 271.533C357.417 271.349 357.015 271.08 356.676 270.741C356.338 270.402 356.069 269.999 355.886 269.556C355.704 269.113 355.61 268.639 355.611 268.159Z" fill="#263238" stroke="#263238" stroke-width="0.594667" stroke-linecap="round" stroke-linejoin="round"/>
<path d="M357.662 268.159C357.662 267.85 357.754 267.547 357.926 267.29C358.098 267.033 358.342 266.833 358.628 266.714C358.914 266.596 359.228 266.565 359.531 266.625C359.835 266.686 360.113 266.835 360.332 267.053C360.551 267.272 360.7 267.551 360.76 267.854C360.821 268.157 360.79 268.472 360.671 268.758C360.553 269.043 360.352 269.288 360.095 269.46C359.838 269.631 359.536 269.723 359.226 269.723C358.811 269.723 358.414 269.558 358.12 269.265C357.827 268.972 357.662 268.574 357.662 268.159Z" fill="white" stroke="#263238" stroke-width="0.594667" stroke-linecap="round" stroke-linejoin="round"/>
<path d="M271.358 268.159C271.358 267.437 271.572 266.731 271.974 266.131C272.375 265.53 272.945 265.062 273.612 264.786C274.279 264.509 275.014 264.437 275.722 264.578C276.43 264.719 277.081 265.067 277.591 265.577C278.102 266.088 278.45 266.738 278.591 267.447C278.732 268.155 278.659 268.889 278.383 269.556C278.107 270.224 277.639 270.794 277.038 271.195C276.438 271.596 275.732 271.81 275.01 271.81C274.041 271.81 273.112 271.426 272.428 270.741C271.743 270.056 271.358 269.127 271.358 268.159Z" fill="#263238" stroke="#263238" stroke-width="0.594667" stroke-linecap="round" stroke-linejoin="round"/>
<path d="M275.01 269.723C275.873 269.723 276.574 269.023 276.574 268.159C276.574 267.295 275.873 266.595 275.01 266.595C274.146 266.595 273.446 267.295 273.446 268.159C273.446 269.023 274.146 269.723 275.01 269.723Z" fill="white" stroke="#263238" stroke-width="0.594667" stroke-linecap="round" stroke-linejoin="round"/>
<path d="M315.292 268.088H318.159L319.598 248.529H313.859L315.292 268.088Z" fill="#8C8C8C" stroke="#263238" stroke-width="0.594667" stroke-linecap="round" stroke-linejoin="round"/>
<path d="M315.429 271.995H318.295V263.913H315.429V271.995Z" fill="#263238" stroke="#263238" stroke-width="0.594667" stroke-linecap="round" stroke-linejoin="round"/>
<path d="M339.436 198.512C341.108 198.673 342.796 198.504 344.403 198.013C346.01 197.522 347.504 196.72 348.801 195.651C350.098 194.582 351.171 193.269 351.96 191.785C352.749 190.302 353.238 188.677 353.399 187.005L357.395 145.432C357.719 142.055 356.69 138.687 354.532 136.068C352.374 133.45 349.265 131.796 345.888 131.469C342.51 131.146 339.142 132.177 336.524 134.336C333.906 136.495 332.252 139.604 331.925 142.982L327.923 184.609C327.613 187.977 328.651 191.332 330.809 193.937C332.966 196.543 336.068 198.188 339.436 198.512Z" fill="#8C8C8C" stroke="#263238" stroke-width="0.594667" stroke-linecap="round" stroke-linejoin="round"/>
<path d="M336.403 198.22C339.78 198.545 343.148 197.515 345.767 195.358C348.385 193.2 350.039 190.091 350.366 186.714L354.368 145.087C354.683 141.714 353.647 138.355 351.489 135.744C349.331 133.134 346.226 131.485 342.855 131.16C341.183 130.999 339.495 131.169 337.888 131.661C336.282 132.153 334.788 132.956 333.492 134.025C332.196 135.094 331.123 136.408 330.335 137.892C329.547 139.376 329.058 141 328.898 142.673L324.896 184.263C324.571 187.64 325.601 191.007 327.759 193.625C329.917 196.242 333.026 197.895 336.403 198.22Z" fill="#8C8C8C" stroke="#263238" stroke-width="0.594667" stroke-linecap="round" stroke-linejoin="round"/>
<path d="M280.736 216.792L340.417 218.362C340.748 218.372 341.078 218.317 341.388 218.2C341.698 218.082 341.981 217.905 342.223 217.678C342.464 217.451 342.658 217.179 342.794 216.877C342.93 216.575 343.006 216.249 343.016 215.918L343.319 206.367C343.329 206.036 343.274 205.706 343.157 205.396C343.04 205.086 342.862 204.803 342.635 204.561C342.408 204.32 342.136 204.126 341.834 203.99C341.532 203.854 341.206 203.779 340.875 203.769L281.2 202.199C280.869 202.188 280.539 202.242 280.23 202.359C279.92 202.475 279.636 202.652 279.395 202.878C279.153 203.105 278.959 203.377 278.823 203.678C278.687 203.98 278.611 204.306 278.601 204.637L278.304 214.193C278.283 214.86 278.527 215.508 278.983 215.995C279.439 216.482 280.069 216.769 280.736 216.792Z" fill="#8C8C8C" stroke="#263238" stroke-width="0.594667" stroke-linecap="round" stroke-linejoin="round"/>
<path d="M305.689 217.254L340.424 218.351C341.816 218.395 342.98 217.303 343.024 215.911L343.326 206.359C343.37 204.967 342.277 203.803 340.886 203.759L306.151 202.662C304.759 202.618 303.595 203.71 303.551 205.102L303.249 214.654C303.205 216.046 304.298 217.21 305.689 217.254Z" fill="#8C8C8C" stroke="#263238" stroke-width="0.594667" stroke-linecap="round" stroke-linejoin="round"/>
<path d="M276.758 257.657L276.466 259.858C276.466 259.858 273.826 265.138 272.797 266.018C271.769 266.898 265.316 269.681 264.145 270.121C262.974 270.562 265.025 271.906 267.814 272.03C270.603 272.155 275.735 272.179 277.495 271.739C279.255 271.299 282.627 268.801 283.365 268.659L283.959 270.562C283.959 270.562 287.188 269.372 288.36 269.099C289.531 268.825 291.44 267.315 291.44 267.315C290.774 265.266 289.991 263.257 289.097 261.297C288.555 260.313 287.861 259.422 287.04 258.656L284.845 256.04L276.758 257.657Z" fill="#263238" stroke="#263238" stroke-width="0.594667" stroke-linecap="round" stroke-linejoin="round"/>
<path d="M294.509 173.857L289.668 176.788L279.107 179.869C279.107 179.869 245.663 186.03 243.754 188.248C241.845 190.466 242.565 192.357 244.194 195.146C245.823 197.935 274.141 259.709 274.141 259.709L285.88 257.36L266.22 198.208C266.22 198.208 303.191 205.689 309.631 204.512C316.071 203.334 324.301 196.448 325.764 191.167C327.227 185.887 320.484 177.49 320.484 177.49L294.509 173.857Z" fill="#92E3A9" stroke="#263238" stroke-width="0.594667" stroke-linecap="round" stroke-linejoin="round"/>
<path d="M257.901 192.47C257.901 192.47 265.293 196.038 266.619 200.052" stroke="#263238" stroke-width="0.594667" stroke-linecap="round" stroke-linejoin="round"/>
<path d="M332.793 124.862L316.951 123.394L293.777 175.909L309.03 178.549L332.793 124.862Z" fill="white" stroke="#263238" stroke-width="0.594667" stroke-linecap="round" stroke-linejoin="round"/>
<path d="M317.243 128.299C317.243 128.299 294.069 175.165 293.765 175.908C293.462 176.652 286.873 178.549 285.404 178.84C283.936 179.132 279.095 179.869 279.095 179.869L287.313 174.297L293.171 159.186L286.035 155.541C286.035 155.541 299.236 135.739 302.168 128.989C305.1 122.24 306.253 120.456 309.179 120.313C312.105 120.17 320.478 120.753 320.478 120.753L317.243 128.299Z" fill="#92E3A9" stroke="#263238" stroke-width="0.594667" stroke-linecap="round" stroke-linejoin="round"/>
<path d="M314.02 138.207L314.311 141.584C314.311 141.584 298.909 169.159 298.766 169.748C298.624 170.337 299.956 174.44 299.956 174.44L305.385 170.479L315.649 142.173L318.438 140.556V135.317L314.02 138.207Z" fill="#263238" stroke="#263238" stroke-width="0.594667" stroke-linecap="round" stroke-linejoin="round"/>
<path d="M320.145 87.5173C320.145 87.5173 314.698 100.707 313.49 104.703C312.283 108.699 311.433 115.229 311.706 115.954C311.98 116.68 313.49 119.219 316.303 119.344C319.116 119.469 321.507 119.463 321.507 119.463L317.273 128.3C317.273 128.3 317.754 135.198 318.462 135.317C319.17 135.436 329.838 127.211 330.082 126.843C330.325 126.474 337.099 111.976 337.099 111.976C337.099 111.976 343.152 108.949 343.515 106.285C343.634 105.54 343.55 104.776 343.273 104.074C342.996 103.373 342.535 102.758 341.939 102.295V99.0241L344.603 91.0377C344.603 91.0377 337.949 86.6848 330.563 84.8651C323.178 83.0454 321.608 84.2704 321.608 84.2704L320.145 87.5173Z" fill="white" stroke="#263238" stroke-width="0.594667" stroke-linecap="round" stroke-linejoin="round"/>
<path d="M332.365 80.1375C332.365 80.1375 321.477 77.2296 316.636 81.4695C311.796 85.7095 324.379 92.5065 328.494 93.1012C332.609 93.6959 337.693 92.8574 336.48 93.9516C335.267 95.0458 332.609 96.7346 333.941 97.8229C334.777 98.4943 335.717 99.0246 336.724 99.3928C336.724 99.3928 331.039 111.881 330.07 113.308C329.1 114.735 327.287 114.64 326.198 114.277C325.11 113.915 319.907 110.65 318.212 110.043C316.517 109.437 313.371 107.623 312.646 109.562C311.92 111.5 310.101 119.724 312.765 121.538C315.429 123.352 328.375 118.755 330.314 117.423C332.252 116.091 332.853 113.671 333.216 113.189C333.578 112.707 338.782 104.114 339.263 103.508C339.745 102.901 341.927 102.319 341.927 102.319C341.927 102.319 346.286 93.6007 346.649 90.2171C347.012 86.8334 335.636 80.0185 332.365 80.1375Z" fill="#263238" stroke="#263238" stroke-width="0.594667" stroke-linecap="round" stroke-linejoin="round"/>
<path d="M320.995 96.9546L320.751 102.307C320.751 102.307 315.066 108.717 315.066 109.443C315.066 110.168 321.84 109.324 321.84 109.324" stroke="#263238" stroke-width="0.594667" stroke-linecap="round" stroke-linejoin="round"/>
<path d="M320.145 95.7473C319.937 95.3418 319.593 95.0223 319.173 94.8451C318.754 94.6678 318.285 94.6441 317.849 94.778" stroke="#263238" stroke-width="0.594667" stroke-linecap="round" stroke-linejoin="round"/>
<path d="M325.229 98.7683C325.229 98.7683 328.738 98.4056 329.826 101.07" stroke="#263238" stroke-width="0.594667" stroke-linecap="round" stroke-linejoin="round"/>
<path d="M315.768 112.202C315.768 112.202 318.914 114.141 320.971 114.141" stroke="white" stroke-width="0.594667" stroke-linecap="round" stroke-linejoin="round"/>
<path d="M326.424 104.013C326.091 104.673 325.485 105.03 325.069 104.822C324.652 104.614 324.581 103.906 324.914 103.252C325.247 102.598 325.854 102.235 326.27 102.443C326.686 102.652 326.757 103.359 326.424 104.013Z" fill="#263238"/>
<path d="M318.848 101.07C318.521 101.724 317.909 102.087 317.493 101.872C317.076 101.658 317.005 100.963 317.338 100.303C317.671 99.6424 318.277 99.2856 318.694 99.4997C319.11 99.7138 319.181 100.41 318.848 101.07Z" fill="#263238"/>
<path d="M266.345 252.751L265.316 258.912L263.116 259.507C263.116 259.507 261.059 261.986 260.625 262.581C260.19 263.176 254.755 267.124 253.292 267.862C251.829 268.599 248.154 268.885 248.303 269.913C248.452 270.942 256.224 271.822 261.213 271.965C266.203 272.108 268.986 270.502 268.986 270.502L269.426 271.525L274.558 271.085C274.558 271.085 274.266 266.244 274.415 264.193C274.462 262.524 274.362 260.855 274.118 259.203L273.826 254.951L266.345 252.751Z" fill="#263238" stroke="#263238" stroke-width="0.594667" stroke-linecap="round" stroke-linejoin="round"/>
<path d="M307.568 180.749C307.568 180.749 265.905 185.881 265.025 186.91C264.145 187.939 264.876 218.302 264.876 218.302L260.036 253.839L274.998 258.418C274.998 258.418 279.696 228.453 281.307 220.36C282.409 214.342 283.193 208.27 283.656 202.169C283.656 202.169 306.687 207.45 314.579 203.049C322.47 198.648 320.882 193.219 320.882 193.219" fill="#92E3A9"/>
<path d="M307.568 180.749C307.568 180.749 265.905 185.881 265.025 186.91C264.145 187.939 264.876 218.302 264.876 218.302L260.036 253.839L274.998 258.418C274.998 258.418 279.696 228.453 281.307 220.36C282.409 214.342 283.193 208.27 283.656 202.169C283.656 202.169 306.687 207.45 314.579 203.049C322.47 198.648 320.882 193.219 320.882 193.219" stroke="#263238" stroke-width="0.594667" stroke-linecap="round" stroke-linejoin="round"/>
<path d="M265.673 217.113C265.673 217.113 267.57 208.585 267.945 204.03" stroke="#263238" stroke-width="0.594667" stroke-linecap="round" stroke-linejoin="round"/>
<path d="M280.558 197.263C280.106 196.658 279.563 196.128 278.946 195.693" stroke="#263238" stroke-width="0.594667" stroke-linecap="round" stroke-linejoin="round"/>
<path d="M283.656 202.169C283.656 202.169 282.812 200.516 281.706 198.845" stroke="#263238" stroke-width="0.594667" stroke-linecap="round" stroke-linejoin="round"/>
<path d="M332.211 122.073C332.211 122.073 315.631 152.568 312.111 160.358C308.59 168.148 303.875 178.989 303.875 180.161C303.875 181.332 300.794 211.41 301.823 211.993C302.852 212.576 318.248 207.592 325.437 204.809C332.627 202.026 332.918 199.969 333.507 198.351C334.096 196.734 333.947 175.909 333.947 175.909C333.947 175.909 348.909 133.366 348.76 131.463C348.611 129.56 332.211 122.073 332.211 122.073Z" fill="#92E3A9" stroke="#263238" stroke-width="0.594667" stroke-linecap="round" stroke-linejoin="round"/>
<path d="M319.61 152.925C316.892 155.589 314.608 157.575 314.608 157.575" stroke="#263238" stroke-width="0.594667" stroke-linecap="round" stroke-linejoin="round"/>
<path d="M337.491 125.445C337.491 125.445 330.599 138.944 327.073 144.373C325.333 146.861 323.37 149.186 321.209 151.319" stroke="#263238" stroke-width="0.594667" stroke-linecap="round" stroke-linejoin="round"/>
<path d="M315.441 122.615C315.441 122.615 308.305 134.544 306.247 141.584C304.19 148.625 303.75 152.288 303.75 152.288" stroke="#263238" stroke-width="0.594667" stroke-linecap="round" stroke-linejoin="round"/>
<path d="M311.671 139.676L318.45 135.317L318.712 145.545" stroke="#263238" stroke-width="0.594667" stroke-linecap="round" stroke-linejoin="round"/>
<path d="M326.133 185.506L328.399 185.149" stroke="#263238" stroke-width="0.594667" stroke-linecap="round" stroke-linejoin="round"/>
<path d="M327.661 182.509L311.671 184.418V187.79L323.088 185.988" stroke="#263238" stroke-width="0.594667" stroke-linecap="round" stroke-linejoin="round"/>
<path d="M305.367 127.205C305.367 127.205 308.008 121.633 309.328 121.485C310.648 121.336 313.58 121.485 313.58 122.674C313.58 123.863 311.968 123.994 311.968 123.994H309.768L308.739 126.634L305.367 127.205Z" fill="white" stroke="#263238" stroke-width="0.594667" stroke-linecap="round" stroke-linejoin="round"/>
<path d="M301.698 137.767L302.727 132.046C302.727 132.046 303.167 127.063 303.916 126.765C304.666 126.468 311.397 126.622 311.397 126.622C311.397 126.622 311.546 132.486 310.957 133.955C310.368 135.424 307.728 136.006 307.728 136.006C307.485 136.921 307.142 137.807 306.705 138.647C306.265 139.241 304.648 139.967 304.648 139.967L304.208 141.156L300.396 138.659L301.698 137.767Z" fill="white" stroke="#263238" stroke-width="0.594667" stroke-linecap="round" stroke-linejoin="round"/>
<path d="M307.71 136.012L306.979 133.223L309.768 133.075" fill="white"/>
<path d="M307.71 136.012L306.979 133.223L309.768 133.075" stroke="#263238" stroke-width="0.594667" stroke-linecap="round" stroke-linejoin="round"/>
<path d="M300.229 137.332L306.247 141.584L303.898 144.076L298.766 139.384L300.229 137.332Z" fill="white" stroke="#263238" stroke-width="0.594667" stroke-linecap="round" stroke-linejoin="round"/>
<path d="M298.766 139.384L305.659 144.516L292.457 164.616C290.895 164.948 289.272 164.845 287.765 164.318C285.268 163.438 282.925 158.455 282.925 157.866C282.925 157.278 298.766 139.384 298.766 139.384Z" fill="#92E3A9" stroke="#263238" stroke-width="0.594667" stroke-linecap="round" stroke-linejoin="round"/>
<path d="M293.486 162.707C293.486 162.707 291.286 158.598 291.137 157.426C290.988 156.255 290.846 153.906 290.108 153.026C289.371 152.146 288.497 151.557 288.205 150.237C287.914 148.917 286.588 149.505 286.421 150.831C286.255 152.158 287.444 153.472 287.444 153.472C287.444 153.472 283.781 152.282 283.192 152.592C282.603 152.901 281.408 153.323 281.723 154.376C281.919 155.021 282.168 155.65 282.467 156.255C282.467 156.255 280.124 159.335 280.124 160.798C280.124 162.261 281.735 164.616 282.913 165.496C284.09 166.376 288.193 167.28 288.193 167.28L293.486 162.707Z" fill="white" stroke="#263238" stroke-width="0.594667" stroke-linecap="round" stroke-linejoin="round"/>
<path d="M335.808 132.521L322.529 160.066L290.108 161.85C289.291 162.049 288.543 162.468 287.949 163.063C287.354 163.658 286.934 164.405 286.736 165.222C286.396 166.564 286.247 167.948 286.296 169.331C286.296 169.331 307.859 171.972 314.608 172.412C321.358 172.852 329.57 173.732 330.599 172.703C331.628 171.674 343.801 146.449 343.801 146.449" fill="#92E3A9"/>
<path d="M335.808 132.521L322.529 160.066L290.108 161.85C289.291 162.049 288.543 162.468 287.949 163.063C287.354 163.658 286.934 164.405 286.736 165.222C286.396 166.564 286.247 167.948 286.296 169.331C286.296 169.331 307.859 171.972 314.608 172.412C321.358 172.852 329.57 173.732 330.599 172.703C331.628 171.674 343.801 146.449 343.801 146.449" stroke="#263238" stroke-width="0.594667" stroke-linecap="round" stroke-linejoin="round"/>
<path d="M141.751 213.527H138.361V246.186H141.751V213.527Z" fill="#263238" stroke="#263238" stroke-width="0.594667" stroke-linecap="round" stroke-linejoin="round"/>
<path d="M121.097 182.237L115.119 182.936L118.913 215.374L124.89 214.675L121.097 182.237Z" fill="#263238" stroke="#263238" stroke-width="0.594667" stroke-linecap="round" stroke-linejoin="round"/>
<path d="M144.361 247.518V242.012H135.756V247.566L101.337 261.38V267.898H103.686V262.944L140.181 254.636L175.712 262.944V267.898H177.996V261.38L144.361 247.518Z" fill="#8C8C8C" stroke="#263238" stroke-width="0.594667" stroke-linecap="round" stroke-linejoin="round"/>
<path d="M148.53 213.527H131.582V223.958H148.53V213.527Z" fill="#263238" stroke="#263238" stroke-width="0.594667" stroke-linecap="round" stroke-linejoin="round"/>
<path d="M101.337 268.159C101.337 267.437 101.123 266.731 100.722 266.131C100.321 265.53 99.7503 265.062 99.0832 264.786C98.416 264.51 97.6818 264.437 96.9736 264.578C96.2653 264.719 95.6147 265.067 95.1041 265.577C94.5934 266.088 94.2457 266.739 94.1048 267.447C93.9639 268.155 94.0362 268.889 94.3126 269.557C94.5889 270.224 95.0569 270.794 95.6574 271.195C96.2578 271.596 96.9637 271.811 97.6859 271.811C98.6543 271.811 99.583 271.426 100.268 270.741C100.952 270.056 101.337 269.128 101.337 268.159Z" fill="#263238" stroke="#263238" stroke-width="0.594667" stroke-linecap="round" stroke-linejoin="round"/>
<path d="M99.2499 268.159C99.2499 267.85 99.1581 267.547 98.9863 267.29C98.8144 267.033 98.5702 266.833 98.2844 266.714C97.9986 266.596 97.6842 266.565 97.3808 266.625C97.0774 266.686 96.7987 266.835 96.58 267.053C96.3613 267.272 96.2123 267.551 96.152 267.854C96.0916 268.157 96.1226 268.472 96.241 268.758C96.3593 269.043 96.5598 269.288 96.817 269.46C97.0742 269.631 97.3766 269.723 97.6859 269.723C98.1007 269.723 98.4985 269.558 98.7918 269.265C99.0851 268.972 99.2499 268.574 99.2499 268.159Z" fill="white" stroke="#263238" stroke-width="0.594667" stroke-linecap="round" stroke-linejoin="round"/>
<path d="M185.536 268.159C185.536 267.437 185.322 266.731 184.921 266.131C184.519 265.53 183.949 265.062 183.282 264.786C182.615 264.51 181.881 264.437 181.172 264.578C180.464 264.719 179.814 265.067 179.303 265.577C178.792 266.088 178.445 266.739 178.304 267.447C178.163 268.155 178.235 268.889 178.511 269.557C178.788 270.224 179.256 270.794 179.856 271.195C180.457 271.596 181.163 271.811 181.885 271.811C182.853 271.811 183.782 271.426 184.467 270.741C185.151 270.056 185.536 269.128 185.536 268.159Z" fill="#263238" stroke="#263238" stroke-width="0.594667" stroke-linecap="round" stroke-linejoin="round"/>
<path d="M181.909 269.723C182.772 269.723 183.472 269.023 183.472 268.159C183.472 267.295 182.772 266.595 181.909 266.595C181.045 266.595 180.345 267.295 180.345 268.159C180.345 269.023 181.045 269.723 181.909 269.723Z" fill="white" stroke="#263238" stroke-width="0.594667" stroke-linecap="round" stroke-linejoin="round"/>
<path d="M141.62 268.088H138.754L137.32 248.529H143.059L141.62 268.088Z" fill="#8C8C8C" stroke="#263238" stroke-width="0.594667" stroke-linecap="round" stroke-linejoin="round"/>
<path d="M141.489 263.913H138.623V271.995H141.489V263.913Z" fill="#263238" stroke="#263238" stroke-width="0.594667" stroke-linecap="round" stroke-linejoin="round"/>
<path d="M117.482 198.512C115.81 198.673 114.122 198.504 112.515 198.013C110.908 197.522 109.414 196.72 108.117 195.651C106.821 194.583 105.747 193.269 104.958 191.785C104.169 190.302 103.681 188.678 103.52 187.005L99.5175 145.378C99.3559 143.706 99.5254 142.018 100.016 140.411C100.507 138.804 101.31 137.31 102.378 136.013C103.447 134.717 104.76 133.643 106.244 132.854C107.727 132.065 109.352 131.577 111.024 131.416C114.402 131.093 117.77 132.124 120.388 134.282C123.006 136.441 124.66 139.551 124.987 142.928L128.989 184.555C129.314 187.932 128.284 191.299 126.126 193.916C123.968 196.534 120.859 198.187 117.482 198.512Z" fill="#8C8C8C" stroke="#263238" stroke-width="0.594667" stroke-linecap="round" stroke-linejoin="round"/>
<path d="M120.515 198.22C117.138 198.545 113.77 197.515 111.152 195.358C108.533 193.2 106.879 190.091 106.552 186.714L102.55 145.087C102.235 141.715 103.27 138.357 105.427 135.746C107.583 133.136 110.687 131.487 114.057 131.16C117.435 130.835 120.804 131.866 123.423 134.025C126.041 136.184 127.695 139.294 128.02 142.673L132.016 184.258C132.341 187.634 131.312 191.001 129.155 193.619C126.999 196.237 123.891 197.892 120.515 198.22Z" fill="#8C8C8C" stroke="#263238" stroke-width="0.594667" stroke-linecap="round" stroke-linejoin="round"/>
<path d="M178.245 216.792L116.501 218.362C116.17 218.372 115.84 218.317 115.53 218.2C115.22 218.082 114.937 217.905 114.695 217.678C114.454 217.451 114.26 217.179 114.124 216.877C113.988 216.575 113.912 216.249 113.902 215.918L113.581 206.367C113.56 205.699 113.806 205.051 114.263 204.563C114.72 204.076 115.352 203.79 116.019 203.769L177.805 202.199C178.136 202.188 178.466 202.242 178.776 202.359C179.086 202.475 179.369 202.652 179.611 202.878C179.852 203.105 180.047 203.377 180.183 203.678C180.319 203.98 180.394 204.306 180.404 204.637L180.707 214.193C180.718 214.526 180.662 214.857 180.544 215.168C180.425 215.479 180.246 215.764 180.018 216.005C179.789 216.247 179.514 216.441 179.21 216.576C178.906 216.711 178.578 216.784 178.245 216.792Z" fill="#8C8C8C" stroke="#263238" stroke-width="0.594667" stroke-linecap="round" stroke-linejoin="round"/>
<path d="M150.783 202.668L116.048 203.765C114.656 203.809 113.564 204.973 113.608 206.365L113.91 215.917C113.954 217.308 115.118 218.401 116.509 218.357L151.244 217.259C152.636 217.215 153.729 216.052 153.685 214.66L153.383 205.108C153.339 203.716 152.175 202.624 150.783 202.668Z" fill="#8C8C8C" stroke="#263238" stroke-width="0.594667" stroke-linecap="round" stroke-linejoin="round"/>
<path d="M186.131 197.341C186.131 197.341 186.66 207.545 188.063 216.685C189.467 225.825 191.792 253.554 191.792 253.554C192.523 256.339 193.519 259.047 194.765 261.642C195.597 263.365 196.662 264.966 197.929 266.399C197.929 266.399 202.502 270.972 202.323 271.674C202.145 272.376 199.279 272.304 196.466 271.775C193.653 271.246 193.076 270.586 191.495 269.521C189.913 268.457 186.315 267.095 184.733 266.548C183.151 266.001 182.628 264.621 183.157 263.039C183.687 261.458 185.447 257.765 185.447 255.481C185.447 253.198 184.037 242.363 180.184 235.149C176.331 227.936 174.029 215.454 174.029 215.454L186.131 197.341Z" fill="white" stroke="#263238" stroke-width="0.594667" stroke-linecap="round" stroke-linejoin="round"/>
<path d="M187.064 263.568C185.946 262.7 184.9 261.784 184.008 260.922C183.675 261.772 183.365 262.522 183.193 263.039C182.664 264.621 183.193 266.012 184.769 266.548C186.345 267.083 189.948 268.451 191.53 269.521C193.112 270.591 193.689 271.246 196.502 271.775C199.314 272.304 202.187 272.369 202.359 271.674C202.532 270.978 197.965 266.399 197.965 266.399L195.681 267.458C195.681 267.458 190.228 266.03 187.064 263.568Z" fill="#92E3A9" stroke="#263238" stroke-width="0.594667" stroke-linecap="round" stroke-linejoin="round"/>
<path d="M118.672 176.384C118.672 176.384 117.09 182.581 117.952 186.494C118.814 190.406 124.725 199.457 134.954 201.622C145.182 203.786 170.889 203.079 170.889 203.079C170.889 203.079 164.693 212.492 162.386 223.827C160.863 231.331 156.195 241.833 155.476 243.421C154.756 245.009 146.252 247.887 146.556 249.183C146.859 250.48 147.852 258.543 150.011 261.862C152.169 265.18 155.773 266.619 157.212 267.047C158.651 267.475 158.942 267.475 158.942 266.036C158.942 264.597 157.932 262.581 157.932 261.279C157.932 259.976 157.789 251.169 158.366 250.04C158.942 248.91 177.805 219.17 180.684 214.294C183.562 209.418 188.034 199.885 189.33 198.304C190.626 196.722 192.208 194.557 190.912 191.822C189.615 189.086 159.852 179.928 159.852 179.928L158.288 174.392L143.422 173.53L118.672 176.384Z" fill="white" stroke="#263238" stroke-width="0.594667" stroke-linecap="round" stroke-linejoin="round"/>
<path d="M159.852 179.923L158.288 174.386L143.422 173.524L118.642 176.402C118.642 176.402 117.024 182.604 117.922 186.511C119.35 192.69 124.696 199.475 134.924 201.64C145.152 203.804 170.86 203.097 170.86 203.097C170.86 203.097 173.298 190.912 178.061 186.161C172.34 184.21 159.852 179.923 159.852 179.923Z" fill="#263238" stroke="#263238" stroke-width="0.594667" stroke-linecap="round" stroke-linejoin="round"/>
<path d="M170.889 203.055C174.32 202.146 177.65 200.891 180.826 199.309L170.889 203.055Z" fill="white"/>
<path d="M170.889 203.055C174.32 202.146 177.65 200.891 180.826 199.309" stroke="#263238" stroke-width="0.594667" stroke-linecap="round" stroke-linejoin="round"/>
<path d="M151.438 256.076C150.415 253.697 150.48 248.94 150.611 246.395C148.435 247.471 146.395 248.512 146.544 249.16C146.829 250.456 147.84 258.52 149.999 261.838C152.157 265.156 155.761 266.595 157.2 267.024C158.639 267.452 158.931 267.452 158.931 266.013C158.931 264.573 157.926 262.564 157.92 261.255C156.413 261.063 154.921 260.771 153.454 260.381C153.454 260.381 152.877 259.388 151.438 256.076Z" fill="#92E3A9" stroke="#263238" stroke-width="0.594667" stroke-linecap="round" stroke-linejoin="round"/>
<path d="M149.356 119.338L144.891 121.211C144.891 121.211 148.494 154.946 148.351 159.704C148.209 164.461 147.917 173.976 147.917 173.976C147.917 173.976 154.114 175.849 158.288 174.41L158.003 158.134C158.003 158.134 161.03 142.571 159.876 137.529C158.722 132.486 155.119 123.554 155.119 123.554C155.119 123.554 153.424 119.48 149.356 119.338Z" fill="white" stroke="#263238" stroke-width="0.594667" stroke-linecap="round" stroke-linejoin="round"/>
<path d="M148.072 133.89L152.401 127.295L157.723 135.025C157.723 135.025 155.422 124.22 155.131 123.501C154.441 122.145 153.397 121 152.11 120.189C150.379 119.035 148.357 118.999 147.21 118.892C146.062 118.785 144.902 121.199 144.902 121.199L148.072 133.89Z" fill="white" stroke="#263238" stroke-width="0.594667" stroke-linecap="round" stroke-linejoin="round"/>
<path d="M146.05 118.809C146.05 118.809 131.57 121.978 130.327 122.882C129.084 123.786 128.543 126.73 128.852 127.859C129.162 128.989 132.474 153.43 132.474 153.43L115.823 177.752C115.823 177.752 121.258 182.277 126.349 183.181C131.439 184.085 142.298 182.729 146.145 181.147L149.993 179.566C149.993 179.566 151.777 150.035 149.88 138.379C147.983 126.724 146.05 118.809 146.05 118.809Z" fill="#92E3A9" stroke="#263238" stroke-width="0.594667" stroke-linecap="round" stroke-linejoin="round"/>
<path d="M190.513 156.368L196.169 153.882C196.169 153.882 197.869 150.148 198.095 149.809C198.321 149.47 200.242 148.905 201.146 148.108C202.05 147.311 203.299 145.961 203.638 145.848C203.977 145.735 204.542 146.752 203.638 148.108C202.953 149.069 202.154 149.943 201.259 150.713L206.807 148.679C206.807 148.679 208.954 145.057 209.519 146.639C210.084 148.221 207.14 153.091 206.468 154.673C205.796 156.255 205.106 157.052 203.864 157.278C202.621 157.504 198.773 158.182 197.982 158.295C197.191 158.408 192.321 161.232 192.321 161.232L190.513 156.368Z" fill="white" stroke="#263238" stroke-width="0.594667" stroke-linecap="round" stroke-linejoin="round"/>
<path d="M198.363 155.238C199.368 154.387 200.528 153.543 201.146 153.543C202.395 153.543 205.106 153.769 205.106 153.769C205.106 153.769 206.694 150.147 207.485 149.606C208.276 149.065 208.954 149.832 208.276 150.962" fill="white"/>
<path d="M198.363 155.238C199.368 154.387 200.528 153.543 201.146 153.543C202.395 153.543 205.106 153.769 205.106 153.769C205.106 153.769 206.694 150.147 207.485 149.606C208.276 149.065 208.954 149.832 208.276 150.962" stroke="#263238" stroke-width="0.594667" stroke-linecap="round" stroke-linejoin="round"/>
<path d="M153.632 121.526C153.632 121.526 157.254 137.249 157.141 143.131C157.028 149.012 155.208 151.973 155.553 153.995C155.898 156.017 156.683 179.792 156.683 179.792L159.852 179.905C159.852 179.905 159.061 170.854 159.174 169.153C159.287 167.452 160.417 160.667 160.417 160.667C160.417 160.667 166.079 171.871 166.869 172.436C167.66 173.001 193.909 161.803 193.909 161.803L191.982 155.351L171.96 159.424C171.96 159.424 167.999 146.3 167.434 143.47C166.869 140.639 166.417 130.69 164.83 128.199C163.242 125.707 153.632 121.526 153.632 121.526Z" fill="#92E3A9" stroke="#263238" stroke-width="0.594667" stroke-linecap="round" stroke-linejoin="round"/>
<path d="M160.417 160.667C160.417 160.667 161.095 157.843 162.231 150.374C162.914 145.914 162.952 141.38 162.344 136.91" stroke="#263238" stroke-width="0.594667" stroke-linecap="round" stroke-linejoin="round"/>
<path d="M159.18 130.333C159.722 134.407 160.126 139.438 159.4 142.227C158.572 145.392 157.513 148.493 156.231 151.503" stroke="#263238" stroke-width="0.594667" stroke-linecap="round" stroke-linejoin="round"/>
<path d="M158.181 124.024C158.181 124.024 158.52 125.731 158.895 128.187" stroke="#263238" stroke-width="0.594667" stroke-linecap="round" stroke-linejoin="round"/>
<path d="M147.358 146.026C148.827 149.666 150.124 153.216 150.124 153.216" stroke="#263238" stroke-width="0.594667" stroke-linecap="round" stroke-linejoin="round"/>
<path d="M140.508 120.616C140.508 120.616 143.107 136.571 145.146 140.871C145.563 141.745 146.014 142.78 146.472 143.844" stroke="#263238" stroke-width="0.594667" stroke-linecap="round" stroke-linejoin="round"/>
<path d="M172.638 152.978L177.05 151.729C177.05 151.729 179.881 148.108 180.559 147.204C181.237 146.3 182.818 146.3 183.954 145.622C185.09 144.944 186.553 142.453 187.118 142.905C187.683 143.356 187.118 145.396 186.523 145.961C185.766 146.574 184.971 147.14 184.144 147.656C183.693 147.995 189.461 146.639 189.461 146.639C189.461 146.639 193.195 143.356 193.421 144.26C193.647 145.164 191.721 148.334 191.721 148.334C191.721 148.334 189.009 150.933 187.647 152.062C186.285 153.192 183.009 153.65 182.105 153.846C181.201 154.043 179.619 154.298 179.619 154.298L172.828 156.784L172.638 152.978Z" fill="white" stroke="#263238" stroke-width="0.594667" stroke-linecap="round" stroke-linejoin="round"/>
<path d="M190.852 149C190.852 149 188.474 150.13 187.231 150.695L190.852 149Z" fill="white"/>
<path d="M190.852 149C190.852 149 188.474 150.13 187.231 150.695" stroke="#263238" stroke-width="0.594667" stroke-linecap="round" stroke-linejoin="round"/>
<path d="M184.18 147.656L182.14 148.108" stroke="#263238" stroke-width="0.594667" stroke-linecap="round" stroke-linejoin="round"/>
<path d="M132.813 121.978C132.813 121.978 126.141 124.238 125.118 125.939C124.095 127.64 127.722 141.549 130.44 149.244C133.158 156.939 140.395 169.831 141.299 170.283C142.203 170.735 165.853 162.368 171.264 160.667C176.675 158.967 177.597 158.069 177.597 158.069L175.219 151.955L148.072 156.82L139.747 130.69" fill="#92E3A9"/>
<path d="M132.813 121.978C132.813 121.978 126.141 124.238 125.118 125.939C124.095 127.64 127.722 141.549 130.44 149.244C133.158 156.939 140.395 169.831 141.299 170.283C142.203 170.735 165.853 162.368 171.264 160.667C176.675 158.967 177.597 158.069 177.597 158.069L175.219 151.955L148.072 156.82L139.747 130.69" stroke="#263238" stroke-width="0.594667" stroke-linecap="round" stroke-linejoin="round"/>
<path d="M165.597 87.5232C165.597 87.5232 168.237 89.3072 166.899 91.228C165.561 93.1487 162.736 93.2796 162.736 93.2796L160.269 89.3904C160.269 89.3904 163.206 85.9057 165.597 87.5232Z" fill="#263238" stroke="#263238" stroke-width="0.594667" stroke-linecap="round" stroke-linejoin="round"/>
<path d="M162.826 89.8423C162.826 89.8423 166.875 99.4521 166.649 100.279C166.423 101.105 164.538 102.396 165.395 103.65C166.251 104.905 168.76 107.415 168.695 107.766C168.63 108.116 165.561 109.906 165.561 109.906C165.561 109.906 163.414 117.637 162.54 118.767C161.666 119.897 154.286 118.523 154.286 118.523L152.728 127.181L143.963 119.011L140.686 115.918C140.686 115.918 137.749 102.729 143.981 94.8018C150.213 86.8749 162.826 89.8423 162.826 89.8423Z" fill="white" stroke="#263238" stroke-width="0.594667" stroke-linecap="round" stroke-linejoin="round"/>
<path d="M162.267 103.383C162.267 104.192 161.934 104.846 161.559 104.84C161.184 104.834 160.893 104.168 160.911 103.353C160.929 102.538 161.238 101.89 161.613 101.896C161.987 101.902 162.279 102.568 162.267 103.383Z" fill="#263238"/>
<path d="M162.285 111.839C161.584 111.806 160.897 111.631 160.267 111.324C159.636 111.018 159.074 110.586 158.615 110.055C158.615 110.055 158.395 113.534 159.478 113.736C160.56 113.938 162.285 111.839 162.285 111.839Z" fill="#263238" stroke="#263238" stroke-width="0.594667" stroke-linecap="round" stroke-linejoin="round"/>
<path d="M160.007 100.16C160.007 100.16 162.261 98.2511 164.277 100.487" stroke="#263238" stroke-width="0.594667" stroke-linecap="round" stroke-linejoin="round"/>
<path d="M154.286 118.523L150.629 117.649L153.382 122.757L154.286 118.523Z" fill="#263238" stroke="#263238" stroke-width="0.594667" stroke-linecap="round" stroke-linejoin="round"/>
<path d="M162.826 89.8424C162.826 89.8424 162.029 92.3459 158.134 95.6166C154.239 98.8873 150.754 100.969 150.766 101.872C150.778 102.776 151.361 103.621 150.576 103.841C149.936 103.923 149.286 103.813 148.708 103.526C148.708 103.526 146.817 108.919 146.532 112.725C146.416 115.237 146.798 117.747 147.656 120.111C147.656 120.111 139.265 120.563 134.424 116.888C129.584 113.213 128.222 109.05 128.757 105.44C129.292 101.831 130.827 90.4311 138.272 84.8472C145.717 79.2633 156.385 79.4952 160.007 81.7728C163.628 84.0503 166.251 85.7213 165.585 87.5232C164.919 89.325 162.826 89.8424 162.826 89.8424Z" fill="#263238" stroke="#263238" stroke-width="0.594667" stroke-linecap="round" stroke-linejoin="round"/>
<path d="M145.241 203.418C145.019 203.419 144.8 203.37 144.599 203.275C144.175 203.043 143.849 202.665 143.684 202.211C143.519 201.756 143.525 201.257 143.701 200.807C146.389 193.469 149.469 180.38 146.312 176.473C145.574 175.879 141.132 174.689 117.203 177.163L115.46 177.342C113.789 177.484 112.362 179.899 111.994 180.731C111.915 180.944 111.792 181.137 111.632 181.298C111.473 181.459 111.281 181.584 111.069 181.664C110.857 181.745 110.63 181.779 110.404 181.765C110.178 181.751 109.958 181.688 109.758 181.582C109.348 181.319 109.047 180.918 108.91 180.452C108.772 179.985 108.807 179.485 109.008 179.042C109.24 178.519 111.387 173.904 115.205 173.571L116.9 173.399C142.399 170.747 147.287 172.085 148.774 173.916C154.387 180.862 147.584 200.082 146.782 202.252C146.677 202.582 146.473 202.871 146.197 203.08C145.921 203.289 145.587 203.407 145.241 203.418Z" fill="white" stroke="#263238" stroke-width="0.594667" stroke-linecap="round" stroke-linejoin="round"/>
<path d="M250.367 147.537H211.291L202.252 178.156H241.328L250.367 147.537Z" fill="#D9D9D9" stroke="#263238" stroke-width="0.594667" stroke-linecap="round" stroke-linejoin="round"/>
<path d="M173.666 176.479L173.173 178.156H241.328L241.827 176.479H173.666Z" fill="#D9D9D9" stroke="#263238" stroke-width="0.594667" stroke-linecap="round" stroke-linejoin="round"/>
<path d="M202.817 176.479L202.323 178.156H241.328L241.827 176.479H202.817Z" fill="#263238" stroke="#263238" stroke-width="0.594667" stroke-linecap="round" stroke-linejoin="round"/>
<path d="M240.769 182.753H234.156V271.168H240.769V182.753Z" fill="white" stroke="#263238" stroke-width="0.594667" stroke-linecap="round" stroke-linejoin="round"/>
<path d="M240.769 182.753H234.156V197.358H240.769V182.753Z" fill="#263238" stroke="#263238" stroke-width="0.594667" stroke-linecap="round" stroke-linejoin="round"/>
<path d="M321.102 178.174H153.228V183.086H321.102V178.174Z" fill="white" stroke="#263238" stroke-width="0.594667" stroke-linecap="round" stroke-linejoin="round"/>
<path d="M271.965 271.888H202.389C209.272 268.65 216.785 266.973 224.392 266.976H250.039C257.646 266.972 265.159 268.649 272.042 271.888H271.965Z" fill="white" stroke="#263238" stroke-width="0.594667" stroke-linecap="round" stroke-linejoin="round"/>
</svg>
