<svg width="313" height="313" viewBox="0 0 313 313" fill="none" xmlns="http://www.w3.org/2000/svg">
<path d="M299.203 140.988C297.294 103.496 281.656 66.1055 253.474 40.8213C209.159 1.07034 122.84 1.9217 77.361 39.3189C61.5858 52.2897 52.3023 69.4295 48.6715 89.3113C44.7903 110.589 49.8671 133.707 41.5163 154.202C34.3423 171.799 16.6578 182.592 10.1036 200.395C2.27859 221.654 6.46027 248.66 23.4499 264.46C45.2097 284.698 84.0467 292.498 112.661 295.447C200.057 304.455 292.204 253.686 299.034 158.804C299.46 152.882 299.516 146.928 299.215 141L299.203 140.988Z" fill="#92E3A9"/>
<path opacity="0.7" d="M299.203 140.988C297.294 103.496 281.656 66.1055 253.474 40.8213C209.159 1.07034 122.84 1.9217 77.361 39.3189C61.5858 52.2897 52.3023 69.4295 48.6715 89.3113C44.7903 110.589 49.8671 133.707 41.5163 154.202C34.3423 171.799 16.6578 182.592 10.1036 200.395C2.27859 221.654 6.46027 248.66 23.4499 264.46C45.2097 284.698 84.0467 292.498 112.661 295.447C200.057 304.455 292.204 253.686 299.034 158.804C299.46 152.882 299.516 146.928 299.215 141L299.203 140.988Z" fill="white"/>
<path d="M17.841 121.162C16.8644 122.715 16.0006 124.161 16.0006 124.161C16.0006 124.161 13.9911 127.898 13.1272 129.914L12.2633 131.923" stroke="#263238" stroke-width="0.626" stroke-linecap="round" stroke-linejoin="round"/>
<path d="M280.999 132.781H170.385C170.385 132.781 153.132 128.468 148.537 127.028C143.936 125.588 137.614 125.876 135.31 126.452C133.012 127.028 126.396 127.604 126.396 127.604L117.193 123.291L113.456 120.129L107.422 113.519L102.245 105.468L97.0676 102.019L89.8811 99.1458L71.483 90.5195H49.3476L41.0093 90.8075L34.3987 96.8421L22.3232 104.317C22.3232 104.317 21.1713 116.68 20.3137 117.544" stroke="#263238" stroke-width="0.626" stroke-linecap="round" stroke-linejoin="round"/>
<path d="M292.855 132.781H286.32" stroke="#263238" stroke-width="0.626" stroke-linecap="round" stroke-linejoin="round"/>
<path d="M68.0399 282.289H289.794" stroke="#263238" stroke-width="0.626" stroke-linecap="round" stroke-linejoin="round"/>
<path d="M27.6253 282.289H61.1226" stroke="#263238" stroke-width="0.626" stroke-linecap="round" stroke-linejoin="round"/>
<path d="M198.611 105.35C198.611 105.35 201.084 85.2988 191.193 77.887C181.308 70.4689 139.836 41.0844 139.836 41.0844L132.305 33.0028C131.961 31.8635 132.862 30.7367 134.052 30.8118L145.332 34.7681C145.332 34.7681 194.492 58.6625 201.084 64.1525C207.676 69.6426 210.699 80.0842 211.244 86.676C211.795 93.2678 211.795 106.176 211.795 106.176L198.611 105.35Z" fill="#263238" stroke="#263238" stroke-width="0.626" stroke-linecap="round" stroke-linejoin="round"/>
<path d="M95.1646 42.9812L121.713 23.7817" stroke="#263238" stroke-width="3.756" stroke-linecap="round" stroke-linejoin="round"/>
<path d="M91.1268 51.8079L72.3155 52.4526C71.0886 52.4965 70.1183 53.4981 70.1183 54.725C70.1183 55.952 71.0197 56.8597 72.1403 56.9849L73.868 69.2294C73.4048 69.6489 73.1106 70.2436 73.1106 70.9134C73.1106 72.2843 74.3125 73.3423 75.6709 73.167L83.9904 72.3782C84.7291 72.2843 85.2675 71.627 85.2111 70.8821C85.1548 70.1309 84.5163 69.555 83.7651 69.58L78.0247 68.9415L75.1701 56.6656L91.3459 54.6123C92.0846 54.5184 92.623 53.8611 92.5666 53.1162C92.5103 52.365 91.8718 51.7891 91.1206 51.8141L91.1268 51.8079Z" fill="#263238" stroke="#263238" stroke-width="0.626" stroke-linecap="round" stroke-linejoin="round"/>
<path d="M77.2171 56.1897L95.1645 42.9811" stroke="#263238" stroke-width="1.878" stroke-linecap="round" stroke-linejoin="round"/>
<path d="M130.771 18.5608L118.965 23.2308L121.438 26.5298L130.771 18.5608Z" fill="white" stroke="#263238" stroke-width="0.626" stroke-linecap="round" stroke-linejoin="round"/>
<path d="M118.784 63.2323L113.988 64.1337L106.946 63.683L105.469 65.1604L91.058 59.7893H81.017C81.017 59.7893 79.3706 61.1352 78.9199 62.9381C78.4691 64.7347 79.5208 66.982 80.1218 70.4313C80.7227 73.8806 79.3706 77.3236 80.4223 80.7728C81.2235 83.4145 83.7901 87.6275 89.2489 88.2473L89.2614 88.266H89.3866C90.1816 88.3474 91.033 88.3537 91.9532 88.266H99.9034V86.0187H98.9143C106.232 81.7369 110.646 72.4908 111.29 71.3327L112.786 71.483L128.825 63.2386H118.784V63.2323Z" fill="#263238" stroke="#263238" stroke-width="0.626" stroke-linecap="round" stroke-linejoin="round"/>
<path d="M78.6819 64.3089L141.213 34.4925L145.514 21.5969C145.839 20.6141 145.157 19.5874 144.124 19.5123L130.784 18.5608L76.6662 60.9347C75.9212 61.5357 75.7147 62.5874 76.1716 63.4262C76.6599 64.3151 77.7366 64.697 78.6756 64.3089H78.6819Z" fill="#92E3A9" stroke="#263238" stroke-width="0.626" stroke-linecap="round" stroke-linejoin="round"/>
<path d="M146.152 21.3092C146.152 20.0948 145.169 19.1119 143.955 19.1119C142.741 19.1119 141.758 20.0948 141.758 21.3092C141.758 22.5236 142.741 23.5065 143.955 23.5065C145.169 23.5065 146.152 22.5236 146.152 21.3092Z" fill="#92E3A9" stroke="#263238" stroke-width="0.626" stroke-linecap="round" stroke-linejoin="round"/>
<path d="M74.4064 54.8188L76.6975 71.0635H81.092L77.2735 54.6248L74.4064 54.8188Z" fill="#92E3A9" stroke="#263238" stroke-width="0.626" stroke-linecap="round" stroke-linejoin="round"/>
<path d="M93.6934 51.8077L74.8821 52.4525C73.6552 52.4963 72.6849 53.4979 72.6849 54.7248C72.6849 56.0958 73.8868 57.1537 75.2452 56.9784L93.9188 54.6059C94.6575 54.512 95.1958 53.8547 95.1395 53.1097C95.0832 52.3585 94.4446 51.7826 93.6934 51.8077Z" fill="#92E3A9" stroke="#263238" stroke-width="0.626" stroke-linecap="round" stroke-linejoin="round"/>
<path d="M86.338 69.5736L77.8744 68.6283C76.6475 68.6721 75.6772 69.6737 75.6772 70.9007C75.6772 72.2716 76.8791 73.3296 78.2375 73.1543L86.5571 72.3655C87.2957 72.2716 87.8341 71.6143 87.7778 70.8694C87.7214 70.1182 87.0829 69.5423 86.3317 69.5673L86.338 69.5736Z" fill="#92E3A9" stroke="#263238" stroke-width="0.626" stroke-linecap="round" stroke-linejoin="round"/>
<path d="M78.3189 71.771L86.2691 59.7205C87.0516 58.7752 86.9389 57.3855 86.0249 56.5717C84.9983 55.664 83.4082 55.8581 82.6383 56.9911L76.0778 70.087C75.6584 70.7005 75.7898 71.5394 76.3845 71.9963C76.9855 72.4533 77.8369 72.3594 78.3189 71.7772V71.771Z" fill="#92E3A9" stroke="#263238" stroke-width="0.626" stroke-linecap="round" stroke-linejoin="round"/>
<path d="M91.058 59.7831C91.058 59.7831 89.4116 61.129 88.9609 62.9319C88.5101 64.7285 89.5618 66.9758 90.1628 70.4251C90.7637 73.8743 89.4116 77.3173 90.4633 80.7666C91.5149 84.2159 95.5589 90.3569 105.149 87.6589C114.74 84.9608 120.586 72.6724 121.331 71.3265L122.827 71.4768L128.825 63.2323L124.029 64.1338L116.987 63.6831L114.289 66.3811L91.058 59.7893V59.7831Z" fill="#92E3A9" stroke="#263238" stroke-width="0.626" stroke-linecap="round" stroke-linejoin="round"/>
<path d="M156.813 32.0762L186.254 56.7343" stroke="#263238" stroke-width="3.756" stroke-linecap="round" stroke-linejoin="round"/>
<path d="M143.955 21.3091L156.813 32.0763" stroke="#263238" stroke-width="1.878" stroke-linecap="round" stroke-linejoin="round"/>
<path d="M194.792 83.0011L196.852 110.702" stroke="#263238" stroke-width="3.756" stroke-linecap="round" stroke-linejoin="round"/>
<path d="M193.321 66.2933L194.792 83.0013" stroke="#263238" stroke-width="1.878" stroke-linecap="round" stroke-linejoin="round"/>
<path d="M202.455 105.35C202.455 105.35 204.927 85.2988 195.037 77.887C185.152 70.4689 143.68 41.0844 143.68 41.0844L136.149 33.0028C135.804 31.8635 136.706 30.7367 137.895 30.8118L149.176 34.7681C149.176 34.7681 198.336 58.6625 204.927 64.1525C211.519 69.6426 214.543 80.0842 215.087 86.676C215.638 93.2678 215.638 106.176 215.638 106.176L202.455 105.35Z" fill="#92E3A9" stroke="#263238" stroke-width="0.626" stroke-linecap="round" stroke-linejoin="round"/>
<path d="M200.865 92.7419C200.433 92.6731 200.088 92.3162 200.051 91.8593L197.947 65.4546C197.904 64.9225 198.304 64.453 198.836 64.4092C199.368 64.3653 199.838 64.766 199.882 65.2981L201.985 91.7028C202.029 92.2349 201.628 92.7044 201.096 92.7482C201.021 92.7544 200.94 92.7482 200.871 92.7419H200.865Z" fill="white" stroke="#263238" stroke-width="0.626" stroke-linecap="round" stroke-linejoin="round"/>
<path d="M200.351 65.8179C200.476 65.0041 199.926 64.2403 199.112 64.1151C198.298 63.9899 197.534 64.5408 197.409 65.3546C197.284 66.1684 197.835 66.9321 198.649 67.0573C199.462 67.1825 200.226 66.6317 200.351 65.8179Z" fill="#263238" stroke="#263238" stroke-width="0.626" stroke-linecap="round" stroke-linejoin="round"/>
<path d="M232.234 112.724H200.401V116.211H232.234V112.724Z" fill="#263238" stroke="#263238" stroke-width="0.626" stroke-linecap="round" stroke-linejoin="round"/>
<path d="M245.286 117.306H230.462V132.787H245.286V117.306Z" fill="#263238" stroke="#263238" stroke-width="0.626" stroke-linecap="round" stroke-linejoin="round"/>
<path d="M230.443 116.111H202.198V118.94H230.443V116.111Z" fill="#263238" stroke="#263238" stroke-width="0.626" stroke-linecap="round" stroke-linejoin="round"/>
<path d="M226.681 118.27H205.954V122.001H226.681V118.27Z" fill="#263238" stroke="#263238" stroke-width="0.626" stroke-linecap="round" stroke-linejoin="round"/>
<path d="M236.947 121.813H195.688V125.444H236.947V121.813Z" fill="#263238" stroke="#263238" stroke-width="0.626" stroke-linecap="round" stroke-linejoin="round"/>
<path d="M240.954 91.5776C240.954 93.6246 239.295 95.2836 237.248 95.2836C235.201 95.2836 233.542 93.6246 233.542 91.5776C233.542 89.5306 235.201 87.8717 237.248 87.8717C239.295 87.8717 240.954 89.5306 240.954 91.5776Z" fill="#263238" stroke="#263238" stroke-width="0.626" stroke-linecap="round" stroke-linejoin="round"/>
<path d="M261.011 96.16L259.17 92.7608C258.557 91.634 257.38 90.9266 256.097 90.9266H241.173L236.378 95.9409L261.011 96.16Z" fill="#263238" stroke="#263238" stroke-width="0.626" stroke-linecap="round" stroke-linejoin="round"/>
<path d="M206.073 94.6324H261.418C263.12 94.6324 264.504 96.0159 264.504 97.7186V113.6H206.079V94.6324H206.073Z" fill="#92E3A9" stroke="#263238" stroke-width="0.626" stroke-linecap="round" stroke-linejoin="round"/>
<path d="M219.563 80.4473H197.822C196.307 86.7386 195.249 95.1896 194.567 107.29L194.392 110.702H206.085V103.121C208.445 101.475 210.968 100.11 213.203 99.7657C219.814 98.7515 221.341 94.9329 221.341 94.9329L219.563 80.441V80.4473Z" fill="#263238" stroke="#263238" stroke-width="0.626" stroke-linecap="round" stroke-linejoin="round"/>
<path d="M206.211 80.4473C204.558 87.3145 203.444 96.742 202.78 110.702H207.719C207.719 110.702 211.062 105.556 221.592 103.058C228.096 101.512 231.119 96.6544 231.119 96.6544L227.945 80.4473H206.204H206.211Z" fill="#263238" stroke="#263238" stroke-width="0.626" stroke-linecap="round" stroke-linejoin="round"/>
<path d="M196.32 101.681H201.628C201.628 101.681 202.649 89.0423 204.383 82.413H198.874C198.874 82.413 196.708 93.4243 196.32 101.681Z" fill="white" stroke="#263238" stroke-width="0.626" stroke-linecap="round" stroke-linejoin="round"/>
<path d="M220.471 98.1443L218.781 82.413H207.162C206.699 85.1611 205.403 93.0675 205.059 98.1443H220.471Z" fill="white" stroke="#263238" stroke-width="0.626" stroke-linecap="round" stroke-linejoin="round"/>
<path d="M227.507 98.1443L225.617 82.413H221.291L222.994 98.1443H227.507Z" fill="white" stroke="#263238" stroke-width="0.626" stroke-linecap="round" stroke-linejoin="round"/>
<path d="M194.079 104.88H188.413V113.6H194.079V104.88Z" fill="#92E3A9" stroke="#263238" stroke-width="0.626" stroke-linecap="round" stroke-linejoin="round"/>
<path d="M264.498 110.702H194.392V113.594H264.498V110.702Z" fill="#92E3A9" stroke="#263238" stroke-width="0.626" stroke-linecap="round" stroke-linejoin="round"/>
<path d="M203.018 110.702H194.392V113.594H203.018V110.702Z" fill="#92E3A9" stroke="#263238" stroke-width="0.626" stroke-linecap="round" stroke-linejoin="round"/>
<path d="M231.795 98.7704V110.107" stroke="#263238" stroke-width="0.626" stroke-linecap="round" stroke-linejoin="round"/>
<path d="M243.57 96.1599V110.326" stroke="#263238" stroke-width="0.626" stroke-linecap="round" stroke-linejoin="round"/>
<path d="M261.011 96.1599V110.545" stroke="#263238" stroke-width="0.626" stroke-linecap="round" stroke-linejoin="round"/>
<path d="M244.002 102.914H263.847" stroke="#263238" stroke-width="0.626" stroke-linecap="round" stroke-linejoin="round"/>
<path d="M183.568 117.306H197.134V132.787H183.568C182.873 132.787 182.31 132.224 182.31 131.529V118.571C182.31 117.876 182.873 117.313 183.568 117.313V117.306Z" fill="#C4C4C4" stroke="#263238" stroke-width="0.626" stroke-linecap="round" stroke-linejoin="round"/>
<path d="M182.373 120.136H196.971" stroke="#263238" stroke-width="0.626" stroke-linecap="round" stroke-linejoin="round"/>
<path d="M182.373 122.909H196.971" stroke="#263238" stroke-width="0.626" stroke-linecap="round" stroke-linejoin="round"/>
<path d="M182.373 125.676H196.971" stroke="#263238" stroke-width="0.626" stroke-linecap="round" stroke-linejoin="round"/>
<path d="M182.373 128.449H196.971" stroke="#263238" stroke-width="0.626" stroke-linecap="round" stroke-linejoin="round"/>
<path d="M182.373 130.49H196.971" stroke="#263238" stroke-width="0.626" stroke-linecap="round" stroke-linejoin="round"/>
<path d="M182.373 131.804H196.971" stroke="#263238" stroke-width="0.626" stroke-linecap="round" stroke-linejoin="round"/>
<path d="M182.373 118.533H196.971" stroke="#263238" stroke-width="0.626" stroke-linecap="round" stroke-linejoin="round"/>
<path d="M235.651 117.306H248.785C249.718 117.306 250.475 118.064 250.475 118.996V131.122C250.475 132.042 249.73 132.787 248.81 132.787H235.651V117.306Z" fill="#C4C4C4" stroke="#263238" stroke-width="0.626" stroke-linecap="round" stroke-linejoin="round"/>
<path d="M235.714 120.136H250.312" stroke="#263238" stroke-width="0.626" stroke-linecap="round" stroke-linejoin="round"/>
<path d="M235.714 122.909H250.312" stroke="#263238" stroke-width="0.626" stroke-linecap="round" stroke-linejoin="round"/>
<path d="M235.714 125.676H250.312" stroke="#263238" stroke-width="0.626" stroke-linecap="round" stroke-linejoin="round"/>
<path d="M235.714 128.449H250.312" stroke="#263238" stroke-width="0.626" stroke-linecap="round" stroke-linejoin="round"/>
<path d="M235.714 130.49H250.312" stroke="#263238" stroke-width="0.626" stroke-linecap="round" stroke-linejoin="round"/>
<path d="M235.714 131.804H250.312" stroke="#263238" stroke-width="0.626" stroke-linecap="round" stroke-linejoin="round"/>
<path d="M235.714 118.533H250.312" stroke="#263238" stroke-width="0.626" stroke-linecap="round" stroke-linejoin="round"/>
<path d="M245.605 97.0426H257.987" stroke="#263238" stroke-width="0.626" stroke-linecap="round" stroke-linejoin="round"/>
<path d="M245.605 98.282H257.987" stroke="#263238" stroke-width="0.626" stroke-linecap="round" stroke-linejoin="round"/>
<path d="M245.605 99.5216H257.987" stroke="#263238" stroke-width="0.626" stroke-linecap="round" stroke-linejoin="round"/>
<path d="M245.605 100.761H257.987" stroke="#263238" stroke-width="0.626" stroke-linecap="round" stroke-linejoin="round"/>
<path d="M63.2823 247.959L67.439 254.538H153.683L161.996 251.076H180.351C180.351 251.076 185.546 258.695 200.783 257.655V242.068H60.1649L63.2823 247.959Z" fill="#263238" stroke="#263238" stroke-width="0.626" stroke-linecap="round" stroke-linejoin="round"/>
<path d="M233.755 213.159H56.5403V246.469H233.755V213.159Z" fill="#263238" stroke="#263238" stroke-width="0.626" stroke-linecap="round" stroke-linejoin="round"/>
<path d="M187.975 219.989H157.42V246.575H187.975V219.989Z" fill="#92E3A9" stroke="#263238" stroke-width="0.626" stroke-linecap="round" stroke-linejoin="round"/>
<path d="M84.3911 198.141L41.4412 205.854V246.469H56.5403V226.437H130.358V202.167L84.3911 198.141Z" fill="#92E3A9" stroke="#263238" stroke-width="0.626" stroke-linecap="round" stroke-linejoin="round"/>
<path d="M41.4725 238.637H56.6718" stroke="#263238" stroke-width="0.626" stroke-linecap="round" stroke-linejoin="round"/>
<path d="M56.5403 226.437V218.092H79.4018" stroke="#263238" stroke-width="0.626" stroke-linecap="round" stroke-linejoin="round"/>
<path d="M85.8997 159.624L88.8294 189.108L82.1562 195.393V213.985H131.523V189.108H131.598V159.624H85.8997Z" fill="#92E3A9" stroke="#263238" stroke-width="0.626" stroke-linecap="round" stroke-linejoin="round"/>
<path d="M102.357 185.334H90.0877L87.9154 163.818H102.357V185.334Z" fill="white" stroke="#263238" stroke-width="0.626" stroke-linecap="round" stroke-linejoin="round"/>
<path d="M128.461 163.818H104.348V200.408H128.461V163.818Z" fill="#92E3A9" stroke="#263238" stroke-width="0.626" stroke-linecap="round" stroke-linejoin="round"/>
<path d="M126.79 166.122H106.019V185.521H126.79V166.122Z" fill="white" stroke="#263238" stroke-width="0.626" stroke-linecap="round" stroke-linejoin="round"/>
<path d="M80.1718 215.269H78.6256V226.468H80.1718V215.269Z" fill="#92E3A9" stroke="#263238" stroke-width="0.626" stroke-linecap="round" stroke-linejoin="round"/>
<path d="M97.3117 186.711H78.8384V213.992H80.3221V201.178H85.5304V214.643H87.014V201.178H101.506V213.879H102.99V191.719L97.3242 186.717L97.3117 186.711ZM80.3221 199.65V188.238H85.5304V199.65H80.3221ZM87.0077 199.65V188.238H96.7671L101.5 192.42V199.65H87.0077Z" fill="#92E3A9" stroke="#263238" stroke-width="0.626" stroke-linecap="round" stroke-linejoin="round"/>
<path d="M139.241 221.447H140.606L134.296 213.159H78.6256V217.159H134.296L139.241 221.447Z" fill="#92E3A9" stroke="#263238" stroke-width="0.626" stroke-linecap="round" stroke-linejoin="round"/>
<path d="M59.5076 245.774H37.8793V252.341H59.5076V245.774Z" fill="#92E3A9" stroke="#263238" stroke-width="0.626" stroke-linecap="round" stroke-linejoin="round"/>
<path d="M280.041 156.287H139.579V150.653L104.58 139.397L85.2424 139.059V152.569H82.2877V156.625H85.2424C85.2424 156.625 133.169 158.059 131.598 159.63L134.296 213.159H233.755L291.71 182.635L280.041 156.287Z" fill="#92E3A9" stroke="#263238" stroke-width="0.626" stroke-linecap="round" stroke-linejoin="round"/>
<path d="M165.571 173.377L174.76 209.597H185.227L176.037 173.377H165.571Z" fill="#263238" stroke="#263238" stroke-width="0.626" stroke-linecap="round" stroke-linejoin="round"/>
<path d="M283.196 183.593L280.68 173.377H270.219L273.944 188.376L283.196 183.593Z" fill="#263238" stroke="#263238" stroke-width="0.626" stroke-linecap="round" stroke-linejoin="round"/>
<path d="M264.679 193.115L259.752 173.377H249.286L255.427 197.897L264.679 193.115Z" fill="#263238" stroke="#263238" stroke-width="0.626" stroke-linecap="round" stroke-linejoin="round"/>
<path d="M144.644 173.377L153.833 209.597H164.3L155.11 173.377H144.644Z" fill="#263238" stroke="#263238" stroke-width="0.626" stroke-linecap="round" stroke-linejoin="round"/>
<path d="M246.137 202.73L238.825 173.377H228.359L236.891 207.513L246.137 202.73Z" fill="#263238" stroke="#263238" stroke-width="0.626" stroke-linecap="round" stroke-linejoin="round"/>
<path d="M186.504 173.377L195.688 209.597H206.154L196.965 173.377H186.504Z" fill="#263238" stroke="#263238" stroke-width="0.626" stroke-linecap="round" stroke-linejoin="round"/>
<path d="M207.431 173.377L216.621 209.597H227.082L217.892 173.377H207.431Z" fill="#263238" stroke="#263238" stroke-width="0.626" stroke-linecap="round" stroke-linejoin="round"/>
<path d="M164.275 173.377L173.458 209.597H183.925L174.735 173.377H164.275Z" fill="#92E3A9" stroke="#263238" stroke-width="0.626" stroke-linecap="round" stroke-linejoin="round"/>
<path d="M282.107 184.119L279.378 173.377H268.917L272.855 188.902L282.107 184.119Z" fill="#92E3A9" stroke="#263238" stroke-width="0.626" stroke-linecap="round" stroke-linejoin="round"/>
<path d="M263.602 193.684L258.45 173.377H247.99L254.35 198.467L263.602 193.684Z" fill="#92E3A9" stroke="#263238" stroke-width="0.626" stroke-linecap="round" stroke-linejoin="round"/>
<path d="M143.341 173.377L152.531 209.597H162.998L153.808 173.377H143.341Z" fill="#92E3A9" stroke="#263238" stroke-width="0.626" stroke-linecap="round" stroke-linejoin="round"/>
<path d="M245.098 203.256L237.523 173.377H227.056L235.852 208.039L245.098 203.256Z" fill="#92E3A9" stroke="#263238" stroke-width="0.626" stroke-linecap="round" stroke-linejoin="round"/>
<path d="M185.202 173.377L194.392 209.597H204.852L195.663 173.377H185.202Z" fill="#92E3A9" stroke="#263238" stroke-width="0.626" stroke-linecap="round" stroke-linejoin="round"/>
<path d="M206.129 173.377L215.319 209.597H225.779L216.596 173.377H206.129Z" fill="#92E3A9" stroke="#263238" stroke-width="0.626" stroke-linecap="round" stroke-linejoin="round"/>
<path d="M135.66 173.377H284.968" stroke="#263238" stroke-width="0.626" stroke-linecap="round" stroke-linejoin="round"/>
<path d="M134.646 166.416H137L134.164 154.378H104.886L106.708 156.669H132.355L134.646 166.416Z" fill="#92E3A9" stroke="#263238" stroke-width="0.626" stroke-linecap="round" stroke-linejoin="round"/>
<path d="M59.5076 245.774L88.4851 233.022V243.47L59.5076 252.341V245.774Z" fill="#92E3A9" stroke="#263238" stroke-width="0.626" stroke-linecap="round" stroke-linejoin="round"/>
<path d="M110.101 282.288C127.467 282.288 141.545 268.211 141.545 250.844C141.545 233.478 127.467 219.401 110.101 219.401C92.7348 219.401 78.6569 233.478 78.6569 250.844C78.6569 268.211 92.7348 282.288 110.101 282.288Z" fill="#263238" stroke="#263238" stroke-width="0.626" stroke-linecap="round" stroke-linejoin="round"/>
<path d="M121.03 261.773C127.066 255.737 127.066 245.951 121.03 239.915C114.994 233.879 105.208 233.879 99.1723 239.915C93.1364 245.951 93.1364 255.737 99.1723 261.773C105.208 267.809 114.994 267.809 121.03 261.773Z" fill="#92E3A9" stroke="#263238" stroke-width="0.626" stroke-linecap="round" stroke-linejoin="round"/>
<path d="M110.101 261.975C116.248 261.975 121.231 256.991 121.231 250.844C121.231 244.697 116.248 239.714 110.101 239.714C103.954 239.714 98.9706 244.697 98.9706 250.844C98.9706 256.991 103.954 261.975 110.101 261.975Z" fill="#92E3A9" stroke="#263238" stroke-width="0.626" stroke-linecap="round" stroke-linejoin="round"/>
<path d="M145.113 219.989V256.892H157.414V219.989H145.113ZM155.974 255.339H146.559V248.365H155.974V255.339ZM155.974 246.957H146.559V239.414H155.974V246.957ZM155.974 238.005H146.559V230.462H155.974V238.005ZM155.974 229.053H146.559V221.548H155.974V229.053Z" fill="#92E3A9" stroke="#263238" stroke-width="0.626" stroke-linecap="round" stroke-linejoin="round"/>
<path d="M221.886 282.288C239.252 282.288 253.33 268.211 253.33 250.844C253.33 233.478 239.252 219.401 221.886 219.401C204.52 219.401 190.442 233.478 190.442 250.844C190.442 268.211 204.52 282.288 221.886 282.288Z" fill="#263238" stroke="#263238" stroke-width="0.626" stroke-linecap="round" stroke-linejoin="round"/>
<path d="M232.418 262.176C238.663 256.358 239.01 246.577 233.192 240.332C227.373 234.086 217.593 233.739 211.348 239.557C205.102 245.376 204.755 255.156 210.573 261.402C216.392 267.648 226.172 267.994 232.418 262.176Z" fill="#92E3A9" stroke="#263238" stroke-width="0.626" stroke-linecap="round" stroke-linejoin="round"/>
<path d="M221.886 261.975C228.033 261.975 233.016 256.991 233.016 250.844C233.016 244.697 228.033 239.714 221.886 239.714C215.739 239.714 210.755 244.697 210.755 250.844C210.755 256.991 215.739 261.975 221.886 261.975Z" fill="#92E3A9" stroke="#263238" stroke-width="0.626" stroke-linecap="round" stroke-linejoin="round"/>
<path d="M107.19 165.32H101.662V183.975H107.19V165.32Z" fill="#263238" stroke="#263238" stroke-width="0.626" stroke-linecap="round" stroke-linejoin="round"/>
</svg>
