<svg width="72" height="37" viewBox="0 0 72 37" fill="none" xmlns="http://www.w3.org/2000/svg">
<path d="M66.963 22.3027C66.9518 21.2941 66.93 20.3415 66.9411 19.3893C66.9428 19.2468 67.0979 18.9838 67.1841 18.9829C68.409 18.9705 69.6596 18.8251 70.7319 19.6631C71.8347 20.525 72.2739 21.9542 71.8275 23.3924C71.4774 24.5199 70.3216 25.5807 68.952 25.6063C68.3201 25.6181 67.6879 25.6083 66.9629 25.6083C66.9629 24.508 66.9629 23.4334 66.963 22.3027ZM67.7399 22.8074C67.7399 23.4879 67.7399 24.1685 67.7399 24.8429C69.1088 25.006 70.2382 24.7533 70.8899 23.5313C71.3808 22.6108 71.316 21.6439 70.7227 20.7769C70.1149 19.8886 68.9272 19.5234 67.7399 19.8147C67.7399 20.7656 67.7399 21.7304 67.7399 22.8074Z" fill="#3CADDB"/>
<path d="M57.4432 19.2319C59.3716 20.0868 59.7943 22.0013 59.2442 23.4575C58.47 25.5072 56.8761 25.8203 54.4591 25.5597C54.4591 23.3895 54.4591 21.2154 54.4591 18.985C55.4672 18.9508 56.4468 18.8889 57.4432 19.2319ZM55.9956 19.7122C55.742 19.7248 55.4884 19.7374 55.2269 19.7504C55.2269 21.4787 55.2269 23.1488 55.2269 24.8544C56.1502 24.9385 57.0128 24.9156 57.7393 24.2973C58.661 23.5131 58.8531 22.4964 58.4957 21.4031C58.1292 20.2817 57.2429 19.7872 55.9956 19.7122Z" fill="#39ABDB"/>
<path d="M50.05 24.9441C51.4105 24.9865 51.9543 24.4752 51.9665 23.1591C51.9793 21.781 51.9694 20.4027 51.9694 19.0397C52.7431 18.8434 52.7812 18.8705 52.7809 19.5656C52.7803 20.8352 52.7895 22.1049 52.7755 23.3743C52.7644 24.3896 52.3931 25.1977 51.3762 25.578C50.3426 25.9645 49.1369 25.7548 48.5471 24.9822C48.2597 24.6057 48.0373 24.0857 48.0138 23.6192C47.9434 22.2224 47.9868 20.8199 47.9826 19.4197C47.9818 19.16 47.981 18.949 48.3536 18.9478C48.7307 18.9465 48.7739 19.1312 48.7715 19.4355C48.7614 20.7236 48.7567 22.012 48.7685 23.3001C48.7769 24.2109 49.1328 24.6639 50.05 24.9441Z" fill="#3CADDB"/>
<path d="M43.7477 15.6208C43.3208 15.5558 43.1031 15.7104 42.9786 16.07C42.8446 16.4568 42.7167 16.8635 42.4865 17.1916C42.3664 17.3628 42.032 17.3837 41.7944 17.4724C41.7622 17.2864 41.6469 17.064 41.7102 16.92C42.5572 14.9933 43.4288 13.0774 44.2953 11.1593C44.3792 10.9735 44.4691 10.7904 44.6157 10.4801C45.6371 12.8368 46.6161 15.0958 47.5972 17.3595C46.867 17.5914 46.7422 17.5828 46.5481 16.9109C46.2504 15.8802 45.6894 15.3812 44.5831 15.6157C44.3332 15.6687 44.0622 15.6214 43.7477 15.6208ZM45.1649 13.6289C44.9821 13.2149 44.7993 12.801 44.5776 12.2989C44.1903 13.2026 43.8482 14.0008 43.4849 14.8484C44.2479 14.8484 44.9206 14.8484 45.6684 14.8484C45.4917 14.4237 45.343 14.0665 45.1649 13.6289Z" fill="#39ABDB"/>
<path d="M63.1559 18.8541C64.136 21.0885 65.0946 23.2932 66.0545 25.5008C65.3637 25.7496 65.2451 25.7018 64.9974 25.1133C64.4252 23.7537 64.4155 23.8572 62.9718 23.7214C61.7909 23.6103 61.3116 24.1637 61.0515 25.1368C60.895 25.7222 60.5154 25.6894 60.0042 25.5592C60.3339 24.7884 60.6388 24.0525 60.9622 23.3248C61.5916 21.9083 62.2286 20.4952 62.8721 19.085C62.92 18.9801 63.0451 18.9105 63.1559 18.8541ZM62.0677 23.0091C62.7404 23.0091 63.413 23.0091 64.1427 23.0091C63.775 22.1449 63.4381 21.3532 63.1012 20.5614C63.0549 20.5613 63.0086 20.5612 62.9623 20.5611C62.6487 21.3508 62.3351 22.1404 62.0677 23.0091Z" fill="#39ABDB"/>
<path d="M39.7387 21.2811C39.2827 22.4233 39.5361 23.6685 40.46 24.3604C41.4411 25.0951 42.3765 25.3926 44.1134 24.2485C44.3655 24.9039 44.2733 25.1441 43.665 25.4168C42.0587 26.1369 40.19 25.6496 39.281 24.2734C38.3102 22.8037 38.552 20.8575 39.8512 19.6844C40.8826 18.753 42.7016 18.5794 43.8899 19.299C44.2532 19.519 44.2636 19.5548 44.1796 20.3911C42.4208 19.2336 40.8695 19.1792 39.7387 21.2811Z" fill="#3CADDB"/>
<path d="M45.5232 25.0816C45.524 23.1799 45.5244 21.3311 45.5259 19.4822C45.5261 19.2254 45.4642 18.955 45.8885 18.9469C46.3174 18.9386 46.3116 19.1829 46.3107 19.487C46.3052 21.5024 46.3079 23.5179 46.3079 25.5216C45.6325 25.7314 45.56 25.6927 45.5232 25.0816Z" fill="#3CADDB"/>
<path d="M41.0331 17.4679C40.9839 17.4674 40.9347 17.4669 40.8217 17.4401C40.6254 17.4315 40.4927 17.4492 40.3601 17.467C39.8762 17.4664 39.3922 17.4658 38.8536 17.4281C38.7711 17.3424 38.7433 17.2937 38.7155 17.245C38.7134 17.1991 38.7112 17.1532 38.7326 17.0531C38.7441 16.9313 38.7321 16.8639 38.7201 16.7965C38.7174 16.7506 38.7147 16.7048 38.7341 16.6042C38.7445 16.4823 38.7328 16.415 38.7212 16.3477C38.7187 14.6315 38.7162 12.9153 38.7381 11.1309C38.782 11.0347 38.7979 11.0049 38.8455 10.9735C38.9276 10.9762 38.9745 10.9786 39.0187 11.0326C39.015 12.7143 39.013 14.3443 39.0146 15.9744C39.0148 16.2046 38.9435 16.4943 39.3447 16.5077C39.5807 16.9642 39.9232 16.8128 40.253 16.7273C40.3003 16.7249 40.3476 16.7225 40.4635 16.7475C40.8036 16.8266 41.0751 16.8783 41.3466 16.93C41.3481 17.0091 41.3496 17.0882 41.3206 17.2234C41.2045 17.3423 41.1188 17.4051 41.0331 17.4679Z" fill="#39ABDB"/>
<path d="M40.2071 16.7136C39.9234 16.8128 39.5809 16.9642 39.3467 16.5088C39.3454 16.4661 39.3452 16.4639 39.3807 16.4336C39.4251 14.5984 39.4341 12.7935 39.4549 10.9775C39.4668 10.9665 39.4905 10.9443 39.4905 10.9443C39.5128 11.5901 39.5477 12.2358 39.5545 12.8818C39.5654 13.9209 39.5547 14.9602 39.5594 15.9993C39.5612 16.3964 39.621 16.7583 40.2071 16.7136Z" fill="#86CEEC"/>
<path d="M41.3498 16.8846C41.075 16.8783 40.8035 16.8266 40.4989 16.7503C40.7616 16.7636 41.0573 16.8014 41.3498 16.8846Z" fill="#86CEEC"/>
<path d="M40.3854 17.4903C40.4928 17.4493 40.6255 17.4315 40.785 17.4371C40.6782 17.4781 40.5444 17.4959 40.3854 17.4903Z" fill="#86CEEC"/>
<path d="M41.0573 17.4902C41.119 17.4051 41.2047 17.3423 41.318 17.2629C41.2575 17.3349 41.1694 17.4237 41.0573 17.4902Z" fill="#86CEEC"/>
<path d="M38.8105 10.9732C38.798 11.0049 38.7821 11.0347 38.7439 11.0795C38.6287 10.7486 38.8185 10.7352 39.0692 10.8315C38.98 10.9011 38.8953 10.9371 38.8105 10.9732Z" fill="#86CEEC"/>
<path d="M38.8455 10.9735C38.8952 10.9371 38.9802 10.9011 39.1015 10.8549C39.1876 10.8447 39.2371 10.8447 39.3206 10.8769C39.3547 10.9091 39.3481 10.9631 39.3074 10.9678C39.185 10.9753 39.1033 10.9781 39.0217 10.981C38.9748 10.9786 38.9276 10.9762 38.8455 10.9735Z" fill="#3CADDB"/>
<path d="M38.7049 16.8358C38.7321 16.8639 38.744 16.9313 38.7365 17.0188C38.7079 16.9842 38.6988 16.9296 38.7049 16.8358Z" fill="#86CEEC"/>
<path d="M38.7028 17.2781C38.7434 17.2937 38.7712 17.3423 38.8035 17.4192C38.7687 17.402 38.7293 17.3566 38.7028 17.2781Z" fill="#86CEEC"/>
<path d="M38.7055 16.3871C38.7328 16.415 38.7444 16.4823 38.7372 16.5699C38.7088 16.5356 38.6993 16.481 38.7055 16.3871Z" fill="#86CEEC"/>
<path d="M39.3478 10.9631C39.3478 10.9631 39.3544 10.9091 39.3572 10.8819C39.3941 10.868 39.4282 10.8811 39.4763 10.9192C39.4902 10.9443 39.4666 10.9665 39.4338 10.9702C39.4011 10.9738 39.3569 10.9764 39.3555 10.9725C39.3542 10.9685 39.3478 10.9631 39.3478 10.9631Z" fill="#86CEEC"/>
<path d="M67.74 22.7514C67.74 21.7304 67.7399 20.7656 67.7399 19.8147C68.9272 19.5234 70.1149 19.8886 70.7227 20.7769C71.316 21.6439 71.3808 22.6108 70.8899 23.5313C70.2382 24.7533 69.1088 25.006 67.7399 24.8429C67.7399 24.1685 67.74 23.488 67.74 22.7514Z" fill="#F7FDFD"/>
<path d="M56.0468 19.7132C57.243 19.7872 58.1292 20.2817 58.4957 21.4031C58.8531 22.4964 58.661 23.5131 57.7393 24.2973C57.0128 24.9156 56.1502 24.9385 55.2269 24.8544C55.2269 23.1488 55.2269 21.4787 55.2269 19.7504C55.4884 19.7374 55.7421 19.7248 56.0468 19.7132Z" fill="#F5FDFD"/>
<path d="M45.1798 13.6691C45.3432 14.0665 45.4917 14.4237 45.6684 14.8484C44.9206 14.8484 44.2479 14.8484 43.4849 14.8484C43.8482 14.0008 44.1903 13.2026 44.5776 12.2989C44.7993 12.801 44.9823 13.2149 45.1798 13.6691Z" fill="#EFFBFC"/>
<path d="M62.0444 22.9695C62.3349 22.1404 62.6487 21.3508 62.9623 20.5611C63.0086 20.5612 63.0549 20.5613 63.1012 20.5614C63.4381 21.3532 63.775 22.1449 64.1427 23.0091C63.413 23.0091 62.7402 23.0091 62.0444 22.9695Z" fill="#EFFBFC"/>
<path d="M39.0187 11.0326C39.1031 10.9781 39.185 10.9753 39.3074 10.9678C39.3481 10.9631 39.3543 10.9685 39.3517 11.0245C39.3478 12.875 39.3464 14.6694 39.345 16.4639C39.345 16.4639 39.3452 16.4661 39.3434 16.4651C38.9436 16.4943 39.0148 16.2046 39.0146 15.9744C39.013 14.3443 39.015 12.7143 39.0187 11.0326Z" fill="#2893E7"/>
<path d="M39.3807 16.4336C39.3466 14.6695 39.3478 12.875 39.3531 11.0285C39.3569 10.9764 39.4012 10.9739 39.422 10.9812C39.4339 12.7935 39.4251 14.5984 39.3807 16.4336Z" fill="#3CADDB"/>
<path d="M19.9112 32.4288C19.8956 32.552 19.8996 32.682 19.8605 32.7973C19.7731 33.0542 19.5883 33.3015 19.5803 33.557C19.5652 34.0392 19.2894 34.0769 18.9218 34.105C18.5964 34.1298 18.2736 34.2094 17.9538 34.283C17.5937 34.3658 17.6042 34.5783 17.7435 34.8683C17.8784 35.1491 17.9626 35.4542 18.1192 35.8871C17.4428 35.6971 16.8113 36.2828 16.4252 35.4968C16.2076 35.6733 16.0077 35.8638 15.778 36.0064C15.6972 36.0566 15.5433 35.9892 15.4487 35.9317C15.4964 35.8837 15.5182 35.8795 15.5744 35.8717C15.7356 35.7389 15.8622 35.6096 16.0202 35.4713C16.1054 35.3973 16.1591 35.3325 16.2492 35.2524C16.4962 34.9743 16.707 34.7115 16.9557 34.4468C17.097 34.3975 17.2003 34.3501 17.3247 34.2724C17.6155 33.9552 17.8853 33.6682 18.1535 33.3767C18.1521 33.3721 18.1578 33.3645 18.2009 33.3562C18.3251 33.0391 18.4763 32.7303 18.4769 32.4212C18.4855 28.3537 18.472 24.2862 18.4684 20.2186C18.4682 20.0181 18.5087 19.8175 18.5703 19.6336C18.8304 19.7096 19.0505 19.769 19.3006 19.8365C19.3548 19.5212 19.3975 19.2725 19.4383 19.035C19.0939 19.177 18.8149 19.2919 18.5155 19.374C18.3397 19.162 18.1843 18.9829 18.0254 18.8167C18.0219 18.8297 18.0234 18.8029 18.0103 18.7683C17.1409 18.1659 16.2846 17.5981 15.4257 17.0313C15.4232 17.0324 15.4267 17.0362 15.4166 17.0079C15.3703 16.9656 15.3342 16.9514 15.2823 16.9106C15.2112 16.8596 15.1558 16.8354 15.082 16.7806C14.9619 16.6916 14.8603 16.6332 14.7377 16.5431C14.2819 16.2198 13.847 15.9281 13.3765 15.6125C13.3309 15.7851 13.3052 15.8372 13.3051 15.8894C13.3017 21.7926 13.2967 27.6959 13.3116 33.5991C13.3121 33.8272 13.4548 34.1022 13.6174 34.2737C14.1176 34.8014 14.6597 35.2893 15.1814 35.8188C15.1774 35.8448 15.1736 35.8974 15.1736 35.8974C14.8127 35.7538 14.329 36.0546 14.051 35.587C14.0326 35.5561 13.8611 35.5614 13.8472 35.5907C13.5596 36.1985 13.0413 35.6495 12.6831 35.877C12.6293 35.8481 12.5754 35.8192 12.5215 35.7903C12.6341 35.4136 12.7128 35.0219 12.8695 34.6645C13.0117 34.3405 12.9374 34.1258 12.5837 34.0988C12.0944 34.0615 11.6048 34.029 11.1421 33.9963C11.1421 33.5191 11.1421 33.0156 11.1506 32.4569C11.1591 32.4018 11.1788 32.3811 11.2138 32.3945C11.5692 32.6946 11.8896 32.9814 12.2959 33.3451C12.2959 26.5394 12.2959 19.8728 12.2959 13.0772C10.517 14.148 8.83112 15.1629 7.13374 16.1681C7.12222 16.1585 7.09937 16.1389 7.10358 16.0967C7.18331 15.723 7.25882 15.3916 7.32514 15.1005C7.52226 15.0199 7.80925 14.988 7.85289 14.8678C7.96057 14.5711 8.10403 14.6082 8.35703 14.622C8.79573 14.646 9.18465 14.4868 9.35297 14.0167C9.35297 14.0167 9.35277 14.0169 9.39259 14.0129C9.94267 13.595 10.4529 13.1811 10.9745 12.7579C11.0045 12.8554 11.0543 13.0171 11.1206 13.2325C11.2921 12.9821 11.4314 12.7788 11.565 12.5837C12.1693 12.8414 12.6762 12.4927 12.7267 11.8839C12.7852 11.1788 12.6367 10.4947 12.754 9.75665C12.8911 8.89398 13.2976 8.41962 13.8963 7.96198C14.0738 7.82628 14.2602 7.70218 14.4428 7.57264C14.501 7.65422 14.559 7.73593 14.5442 7.71508C14.8677 7.5896 15.1088 7.44727 15.366 7.40617C15.9649 7.31044 16.1715 7.09793 16.1994 6.46271C16.2053 6.32915 16.2459 6.19711 16.2521 6.16406C16.8469 6.16406 17.3525 6.16406 17.9399 6.16406C17.9555 6.03325 17.9469 5.8456 18.0077 5.68411C18.0504 5.57083 18.1885 5.41297 18.2828 5.41378C18.6604 5.41703 19.0375 5.47444 19.4005 5.5104C19.4181 5.71897 19.3852 5.97157 19.4683 6.17725C19.6389 6.59966 19.549 6.78437 19.0876 6.87092C18.6328 6.95621 18.6341 7.00827 18.7728 7.44391C18.9244 7.3616 19.0781 7.27808 19.3053 7.1547C19.3185 7.41147 19.3349 7.58927 19.3355 7.76712C19.3383 8.62537 19.3427 9.48369 19.3333 10.3418C19.3305 10.6019 19.3753 10.7883 19.6794 10.8238C19.671 14.1491 19.671 17.4231 19.671 20.7767C20.3104 20.5603 20.8476 20.3529 21.4001 20.201C21.7414 20.1071 21.8196 19.9226 21.8182 19.5983C21.8081 17.2091 21.8037 14.8197 21.8234 12.4306C21.8265 12.0537 21.6848 11.8582 21.3767 11.6918C20.8368 11.4004 20.3134 11.0784 19.8089 10.7378C20.057 10.759 20.2947 10.778 20.4982 10.8716C20.8672 11.0413 21.4521 10.8467 21.5741 10.4985C21.6845 10.1836 21.8404 9.88475 21.9521 9.57026C22.0147 9.39423 22.0284 9.20084 22.0706 8.98156C22.7019 8.84775 22.6838 9.59018 23.0335 9.88206C23.09 9.62574 23.083 9.31705 23.1788 9.28092C23.6104 9.11814 24.0712 9.03264 24.567 8.90782C24.4666 9.42155 24.3997 9.7639 24.327 10.136C24.3628 10.1644 24.4275 10.2022 24.4744 10.2556C24.7579 10.578 25.2219 10.7667 25.1722 11.3275C25.1098 12.0306 25.0611 12.7381 25.0655 13.4433C25.0752 14.9904 25.1146 16.5376 25.1563 18.0843C25.1866 19.2102 25.1968 19.2095 24.253 19.455C24.2379 19.4589 24.237 19.5173 24.2433 19.4897C24.4608 19.6523 24.6564 19.7985 24.8462 19.9506C24.8405 19.9565 24.8288 19.9681 24.7858 19.9657C24.342 20.1073 23.9414 20.2514 23.528 20.3889C23.5152 20.3824 23.4931 20.4006 23.4489 20.4003C22.6749 20.6454 21.9451 20.8908 21.2166 21.1384C21.2178 21.1406 21.2165 21.1453 21.1756 21.1462C21.0381 21.1953 20.9416 21.2433 20.8343 21.2846C20.8235 21.2779 20.8027 21.2925 20.7607 21.2909C20.646 21.3251 20.5731 21.3609 20.4903 21.3893C20.4803 21.3819 20.4581 21.3932 20.4196 21.3931C20.2893 21.4322 20.1976 21.4714 20.0704 21.5119C19.9908 21.5293 19.9466 21.5454 19.8559 21.5639C19.7581 21.7324 19.6624 21.8983 19.6619 22.0645C19.6518 25.3595 19.6497 28.6546 19.661 31.9497C19.6615 32.0971 19.8031 32.244 19.8869 32.4006C19.895 32.41 19.9112 32.4288 19.9112 32.4288ZM13.3626 9.17415C13.3434 10.7232 13.3393 12.2726 13.2955 13.8209C13.2832 14.2529 13.4438 14.5015 13.7891 14.7317C15.0787 15.5915 16.3506 16.4777 17.6299 17.353C17.8691 17.5167 18.1114 17.6757 18.4293 17.8884C18.4293 13.9253 18.4293 10.0752 18.4293 6.12405C16.7086 7.1444 15.0608 8.12147 13.3626 9.17415ZM22.9084 19.6785C23.4217 19.5058 23.9475 19.3616 24.4416 19.145C24.6114 19.0705 24.81 18.8163 24.812 18.6421C24.8379 16.3247 24.8332 14.0069 24.8278 11.6892C24.8275 11.5511 24.8006 11.3402 24.7117 11.2866C23.9265 10.8137 23.1244 10.3687 22.2944 9.89669C22.2944 13.2808 22.2944 16.5548 22.2944 19.8701C22.5074 19.8055 22.6656 19.7576 22.9084 19.6785ZM19.3379 22.6402C19.3237 22.4753 19.3094 22.3103 19.2952 22.1454C19.23 22.1378 19.1649 22.1302 19.0997 22.1226C18.9545 22.6438 18.7123 23.1607 18.689 23.6873C18.6603 24.3378 18.869 24.9955 18.8781 25.6514C18.9062 27.6863 18.8985 29.7219 18.8822 31.757C18.8773 32.3686 18.7989 32.9797 18.7439 33.73C18.9154 33.5836 19.0381 33.516 19.1084 33.4126C19.4674 32.885 19.349 32.2934 19.3457 31.7058C19.3289 28.7184 19.3379 25.7308 19.3379 22.6402ZM19.3376 16.5045C19.2006 15.9519 18.9411 15.4497 18.9803 14.8305C19.0533 13.6789 19.0083 12.5192 18.9951 11.3631C18.9925 11.1405 18.9103 10.9189 18.8473 10.611C18.7236 10.7442 18.7013 10.757 18.7015 10.7695C18.7308 12.6497 18.7556 14.5301 18.7994 16.41C18.8059 16.6912 19.1181 16.7809 19.3376 16.5045ZM19.3021 20.7753C19.2948 20.6717 19.2875 20.568 19.278 20.4316C18.7206 20.5562 18.8815 20.9689 18.9314 21.2706C18.9465 21.3614 19.257 21.4033 19.4322 21.4676C19.3994 21.2603 19.3666 21.053 19.3021 20.7753Z" fill="#EFFBFC"/>
<path d="M3.96826 25.9085C4.04979 25.681 4.13132 25.4534 4.21285 25.2258C4.2705 25.2335 4.32815 25.2411 4.3858 25.2488C4.18508 24.7734 3.31216 24.5839 3.78612 23.8106C4.55005 24.6583 5.26683 25.543 6.28944 26.2048C6.39951 25.5288 5.88053 25.3616 5.58763 25.0723C3.71635 23.224 2.34173 21.0922 1.78081 18.5112C2.31479 19.4031 2.98074 18.8382 3.63048 18.6743C3.63048 19.2056 3.64689 19.6849 3.61986 20.1616C3.61235 20.2941 3.49352 20.435 3.39495 20.5443C3.22448 20.7332 3.13143 20.8642 3.38859 21.0883C3.74472 21.3987 4.04698 21.7709 4.44872 22.1979C4.12706 22.183 3.90154 22.1726 3.67603 22.1622C3.66417 22.2213 3.65231 22.2804 3.64046 22.3394C3.97564 22.3873 4.31756 22.5013 4.64444 22.4679C5.16228 22.415 5.10967 22.7076 5.05499 23.019C5.03182 23.1509 4.94693 23.272 4.82582 23.5404C5.27241 23.5404 5.61532 23.5645 5.95351 23.5347C6.44767 23.4913 6.70075 23.2538 6.67249 22.6973C6.62896 21.8402 6.66849 20.9791 6.65577 20.1199C6.65241 19.8928 6.58666 19.6666 6.5726 19.5807C6.17983 19.5154 5.68114 19.4766 5.67994 19.4259C5.65503 18.3801 5.6855 17.3329 5.71253 16.2861C5.71344 16.2509 5.79298 16.2178 5.83587 16.1837C5.84858 16.2378 5.86129 16.292 5.874 16.3461C6.2825 16.277 6.69099 16.208 7.09949 16.1389C7.09949 16.1389 7.12233 16.1584 7.13339 16.2186C7.14267 20.1367 7.15517 23.9947 7.12691 27.8525C7.12132 28.6164 7.54989 28.9695 8.15362 29.276C8.22365 29.2817 8.26372 29.2841 8.31109 29.3278C8.66702 29.7675 9.01565 30.166 9.37776 30.5888C9.45626 30.6511 9.52127 30.6891 9.60958 30.756C10.0186 31.1354 10.4043 31.4858 10.8188 31.8439C10.8673 31.8545 10.8869 31.8574 10.9183 31.8907C10.943 31.9386 10.956 31.9561 10.9681 32.006C10.9994 32.117 11.0316 32.1956 11.0549 32.2837C11.0459 32.2933 11.0286 32.3128 11.0286 32.3128C10.3562 32.345 9.81852 32.0698 9.3219 31.5747C9.26975 31.6797 9.21228 31.7954 9.13647 31.9481C9.08356 31.868 9.03241 31.8265 9.03369 31.7867C9.04419 31.4605 9.09064 31.1328 9.06689 30.8098C9.05905 30.7033 8.88901 30.5415 8.77346 30.5221C8.36046 30.4527 7.93459 30.4573 7.5236 30.3804C7.40773 30.3587 7.22915 30.0615 7.24285 30.0472C7.60162 29.6725 7.16966 29.3358 7.18464 28.9815C7.18816 28.8985 6.88958 28.7996 6.72707 28.7134C6.56296 28.6265 6.25731 28.5496 6.2553 28.4627C6.24959 28.2164 6.29877 27.9072 6.45169 27.7325C6.72494 27.4202 6.78115 26.8049 6.43474 26.4831C6.21724 27.1615 5.71242 26.8845 5.31395 26.8791C5.32953 26.5849 5.34333 26.3243 5.35713 26.0637C5.28803 26.0618 5.21894 26.0598 5.14984 26.0579C5.15392 26.1202 5.14743 26.1856 5.16484 26.2439C5.18484 26.3108 5.22602 26.3714 5.29763 26.5132C5.0746 26.5398 4.90147 26.5605 4.68479 26.5813C4.64123 26.5815 4.64137 26.5817 4.64204 26.5404C4.60151 26.2062 4.56033 25.9133 4.51929 25.6215C4.28262 25.7446 4.12551 25.8266 3.96826 25.9085ZM3.35926 19.3229C3.32846 19.2907 3.29766 19.2584 3.26686 19.2261C3.25351 19.2389 3.22785 19.2621 3.22858 19.263C3.25733 19.297 3.28848 19.329 3.35926 19.3229Z" fill="#EFFBFC"/>
<path d="M3.52863 23.4368C3.35656 23.346 3.1827 23.2584 3.01296 23.1635C2.87174 23.0845 2.71121 22.901 2.6008 22.9289C1.96296 23.0895 1.84266 22.535 1.87098 22.2355C1.94109 21.4941 1.42129 21.1003 1.12667 20.5349C0.808202 20.6713 0.52141 20.794 0.143201 20.956C0.0228039 20.7195 -0.115139 20.4077 0.228716 20.0695C0.305308 19.9942 0.441879 19.8516 0.425795 19.829C0.00902903 19.2437 0.544426 18.7013 0.490712 18.1376C0.41194 17.3108 0.314926 16.485 0.264358 15.6565C0.21971 14.925 0.224132 14.1903 0.214246 13.4569C0.207361 12.9462 0.21292 12.4353 0.21292 11.9579C0.494275 11.9806 0.744644 12.0009 0.995016 12.0212C1.01632 11.9592 1.03763 11.8972 1.05893 11.8352C0.90354 11.6961 0.76579 11.5271 0.589667 11.4232C-0.128777 10.9992 -0.183124 10.6608 0.38514 10.0174C0.481607 9.90821 0.563576 9.78618 0.672899 9.64301C0.818398 9.74893 0.944235 9.84053 0.988006 9.87239C1.92678 9.45105 2.2863 8.71168 2.26681 7.7966C2.11503 7.68731 1.96198 7.60325 1.85189 7.48063C1.82192 7.44726 1.93908 7.21091 1.95865 7.2149C2.15163 7.25432 2.33484 7.3534 2.52789 7.37652C2.65977 7.39232 2.8649 7.35987 2.93034 7.2706C3.22935 6.86269 3.49059 6.42708 3.79571 5.95448C3.75679 5.83316 3.66672 5.5524 3.55907 5.21685C3.91381 5.27379 4.14595 5.31106 4.42614 5.35604C4.13108 4.91651 3.91069 4.5882 3.65376 4.20547C3.82465 4.0127 4.0133 3.7999 4.1706 3.62247C4.48022 3.77459 4.72485 3.89478 5.0382 4.04872C5.07328 4.12432 5.1479 4.28506 5.21842 4.43697C5.29357 4.42535 5.35119 4.43152 5.361 4.41274C5.65291 3.85365 6.21753 3.66819 6.7079 3.35453C7.29658 2.97799 7.28959 2.68029 6.88407 2.07961C7.02542 1.9843 7.16701 1.88883 7.37026 1.75177C7.47273 2.00533 7.55227 2.20214 7.65673 2.46063C7.73139 2.3225 7.80714 2.22726 7.83692 2.11933C7.95201 1.70222 8.22252 1.72728 8.52901 1.86695C9.1199 2.13622 9.66684 2.01083 10.0357 1.56767C9.96191 1.29776 9.78499 1.01057 9.8648 0.878312C10.1637 0.383059 10.4 1.06606 10.702 0.982006C10.8021 0.254692 11.1713 -0.010062 11.9524 0.0489647C12.1814 0.0662728 12.4152 0.0204629 12.696 0C12.6843 0.239219 12.6756 0.415876 12.6666 0.599774C12.9664 0.679611 13.2678 0.759894 13.5594 0.899401C12.8734 1.09502 12.1973 1.23141 11.51 1.32742C11.4148 1.21538 11.3307 1.14373 11.2466 1.07208C11.2197 1.215 11.1928 1.35792 11.1331 1.52275C9.85961 2.1395 8.54468 2.61733 7.39121 3.34952C2.50817 6.44914 0.0667719 12.0828 1.07555 17.7305C1.44879 19.8201 2.32326 21.7013 3.52863 23.4368ZM0.459768 10.5527C0.444291 10.4915 0.428813 10.4303 0.413337 10.3691C0.373029 10.3905 0.332721 10.4118 0.292414 10.4332C0.331832 10.4892 0.371252 10.5452 0.459768 10.5527ZM11.9036 0.543367C11.8473 0.549572 11.7909 0.555776 11.7346 0.561981C11.7476 0.612399 11.7605 0.662815 11.7735 0.713233C11.8216 0.679105 11.8697 0.644978 11.9036 0.543367ZM11.3493 0.598059C11.3489 0.642619 11.3484 0.68718 11.3479 0.731741C11.3664 0.731913 11.401 0.73332 11.4011 0.732077C11.4045 0.687734 11.4047 0.643146 11.3493 0.598059Z" fill="#EFFBFC"/>
<path d="M3.55613 23.4543C2.32346 21.7013 1.44879 19.8201 1.07555 17.7305C0.0667719 12.0828 2.50817 6.44914 7.39121 3.34952C8.54468 2.61733 9.8598 2.13947 11.1694 1.51489C11.2838 1.46622 11.3292 1.44729 11.4028 1.43099C11.4571 1.40991 11.4833 1.38621 11.5124 1.36394C11.5153 1.36536 11.5214 1.36777 11.5214 1.36777C12.1975 1.23138 12.8736 1.09499 13.5851 0.933946C13.7048 0.904806 13.7891 0.900312 13.9619 0.890349C15.3645 0.880982 16.6787 0.877083 17.9929 0.873182C18.0743 0.887655 18.1557 0.902128 18.3142 0.938253C18.8864 1.07011 19.3815 1.18032 19.8268 1.30322C19.5931 1.38891 19.4093 1.46191 19.1811 1.53625C18.6812 1.47708 18.2257 1.41656 17.7335 1.34465C17.6461 1.33462 17.5953 1.336 17.506 1.31204C16.4452 1.30459 15.4231 1.32246 14.359 1.33468C14.2338 1.34005 14.1504 1.35106 14.0215 1.35571C10.3392 1.8289 7.28424 3.42981 4.81715 6.13813C3.25729 7.8505 2.17791 9.82385 1.69157 12.1184C1.68407 12.1309 1.70045 12.1549 1.67464 12.1768C1.64451 12.2427 1.64019 12.2866 1.62348 12.3666C1.60855 12.4532 1.60602 12.5037 1.57558 12.5882C1.49052 13.7994 1.43336 14.9765 1.37205 16.2C1.38279 16.3999 1.3977 16.5535 1.40654 16.7519C1.4608 17.1086 1.52112 17.4204 1.57974 17.7739C1.59719 17.8966 1.61634 17.9776 1.63177 18.0924C1.65146 18.1634 1.67489 18.2005 1.68994 18.2714C1.70176 18.371 1.72194 18.437 1.74212 18.5029C2.34184 21.0922 3.71635 23.224 5.58763 25.0723C5.88053 25.3616 6.39951 25.5288 6.28944 26.2048C5.26683 25.543 4.55016 24.6583 3.79135 23.7631C3.70026 23.6523 3.64185 23.562 3.55613 23.4543Z" fill="#2893E7"/>
<path d="M31.0893 13.6894C31.0921 13.7719 31.0949 13.8545 31.102 14.0287C31.2358 15.9972 30.967 17.8267 30.4512 19.6269C30.4512 19.6269 30.4258 19.6583 30.3962 19.7065C30.2065 20.1241 30.0462 20.4936 29.8437 20.8541C29.7447 20.7219 29.6879 20.5986 29.6365 20.4361C29.938 19.2789 30.2341 18.1611 30.5427 17.0006C30.5604 16.8397 30.5656 16.7214 30.5954 16.5639C30.6048 15.6485 30.5895 14.7723 30.5791 13.8498C30.5663 13.6493 30.5486 13.4952 30.5368 13.2965C30.0883 10.3168 28.8033 7.79521 26.7324 5.67731C25.4425 4.35822 23.9736 3.28574 22.2407 2.57041C22.2286 2.55633 22.1914 2.55535 22.1686 2.52904C22.0679 2.45728 21.99 2.41184 21.9008 2.33046C21.8614 2.19936 21.8332 2.10419 21.8494 2.00764C22.3718 2.19579 22.9042 2.3062 23.3179 2.58965C24.5846 3.45735 25.8057 4.39151 27.0446 5.29982C27.0446 5.29982 27.078 5.26721 27.0753 5.31757C27.5174 5.86781 27.9624 6.36769 28.4073 6.86757C28.4073 6.86757 28.4222 6.91741 28.4419 6.9595C28.4776 7.03327 28.5032 7.05099 28.5384 7.05476C28.5384 7.05476 28.5355 7.06004 28.5409 7.09022C28.5772 7.14357 28.608 7.16674 28.6388 7.18991C28.6388 7.18991 28.6401 7.17784 28.6451 7.21959C29.2101 8.31683 29.7702 9.37231 30.3303 10.4278C30.3483 10.5244 30.3663 10.621 30.4134 10.7737C30.4678 10.8871 30.4932 10.9445 30.5186 11.0019C30.528 11.0494 30.5374 11.097 30.5603 11.2208C30.7456 12.0946 30.9174 12.892 31.0893 13.6894Z" fill="#2291E9"/>
<path d="M26.9541 25.2102C26.8955 25.5222 26.837 25.8342 26.7648 26.219C26.7716 26.2243 26.8656 26.298 27.0487 26.4416C26.7507 26.6135 26.5003 26.8843 26.266 26.8709C25.2878 26.8154 25.2059 26.9298 25.1309 27.8877C25.0981 28.307 24.7927 28.7984 24.4612 29.0814C23.7922 29.6527 23.7457 29.7641 24.4489 30.2591C24.2309 30.5121 24.2309 30.5121 23.823 30.2999C23.3138 30.3851 22.9571 30.4554 22.5973 30.502C22.2082 30.5524 22.1292 30.6653 22.4296 30.9757C22.5234 31.0727 22.4967 31.2861 22.5252 31.4463C22.3644 31.422 22.1973 31.4174 22.0446 31.3682C21.885 31.3167 21.7394 31.2222 21.5474 31.1265C21.5474 31.5796 21.5474 31.9056 21.5474 32.2003C21.0109 32.2763 20.5066 32.3478 19.9568 32.424C19.9114 32.4287 19.8952 32.41 19.9074 32.3697C20.5861 31.6808 21.2525 31.0321 21.9497 30.3661C22.0432 30.2783 22.1059 30.2079 22.1833 30.1404C22.198 30.1433 22.2277 30.1398 22.2626 30.1395C22.3543 30.0705 22.4112 30.0019 22.4882 29.9033C22.6846 29.7086 22.8609 29.5439 23.0579 29.3754C23.0884 29.3614 23.1078 29.3487 23.1059 29.3416C23.0993 29.3167 23.0854 29.2937 23.0685 29.2391C23.0585 29.1874 23.0544 29.1668 23.0543 29.1284C23.0584 29.1106 23.0449 29.0767 23.0769 29.0646C23.1391 29.0045 23.1693 28.9565 23.2097 28.9078C23.2199 28.9071 23.2394 28.9128 23.2785 28.9171C23.3436 28.9188 23.3696 28.9162 23.4298 28.9044C23.6669 28.6923 23.8699 28.4894 24.061 28.285C24.049 28.2834 24.0723 28.2901 24.1098 28.2826C24.6916 27.9425 24.8595 27.4741 24.8479 26.8283C24.8069 24.5422 24.8302 22.255 24.8291 19.9681C24.8291 19.9681 24.8407 19.9565 24.8872 19.9631C25.0117 20.2325 25.1605 20.497 25.1546 20.758C25.1353 21.613 25.0597 22.4667 25.0066 23.3083C25.2165 23.3496 25.345 23.375 25.6391 23.4329C25.3476 23.5723 25.207 23.6396 25.0344 23.7222C25.16 23.8575 25.2673 23.973 25.3998 24.1157C25.0893 24.4132 24.8001 24.7182 25.3008 24.9694C25.201 25.2744 25.1144 25.5391 25.0245 25.8141C25.3535 25.6928 25.5821 25.6085 25.7935 25.5602C25.7313 25.7831 25.6865 25.9699 25.6416 26.1567C25.6868 26.1726 25.732 26.1884 25.7773 26.2042C26.1695 25.8728 26.5618 25.5415 26.9541 25.2102ZM26.0767 26.5038C26.1346 26.5335 26.1925 26.5631 26.2504 26.5928C26.25 26.5085 26.2496 26.4242 26.2492 26.3399C26.1916 26.3701 26.1339 26.4004 26.0767 26.5038Z" fill="#EFFBFC"/>
<path d="M27.0523 5.25489C25.8057 4.39153 24.5846 3.45735 23.3179 2.58965C22.9042 2.3062 22.3718 2.19581 21.8362 1.99814C21.7788 1.99002 21.7471 1.99694 21.7326 1.96392C21.6397 1.88085 21.5612 1.83081 21.4522 1.75739C21.2502 1.68141 21.0788 1.6288 20.8824 1.56163C20.8196 1.5466 20.7817 1.54614 20.7171 1.51572C20.5403 1.4449 20.3903 1.40403 20.2052 1.34853C20.0721 1.31945 19.9742 1.30499 19.8763 1.29054C19.3812 1.18033 18.8861 1.07012 18.3553 0.935472C18.5185 0.867748 18.7173 0.824461 18.9645 0.770661C18.9475 0.799524 18.9763 0.770257 18.9825 0.736825C19.0256 0.501845 19.0642 0.0621592 19.1039 0.0622071C19.4707 0.0626453 19.8657 0.0725927 20.1955 0.213408C20.4758 0.33312 20.6809 0.629105 20.9247 0.852124C21.5423 0.582446 21.5423 0.582446 21.581 1.26886C21.6031 1.66085 22.1465 1.93589 22.7475 1.87285C23.1149 1.83431 23.4842 1.79847 23.8531 1.79294C24.6568 1.78089 24.8436 1.93549 25.0484 2.72642C25.3163 3.7609 25.4574 3.87524 26.4789 4.04975C26.6203 4.07391 26.7736 4.27351 26.8414 4.42717C26.9495 4.67253 26.9906 4.94749 27.0523 5.25489Z" fill="#EFFBFC"/>
<path d="M30.489 19.6208C30.9671 17.8267 31.2358 15.9972 31.1147 14.0682C31.4401 14.1113 31.7571 14.2065 32.1954 14.3381C32.1104 15.1797 32.0152 16.0265 31.9449 16.8753C31.9243 17.1243 31.9577 17.3817 31.9962 17.6306C32.0541 18.0037 32.1384 18.3728 32.2277 18.8257C31.847 18.7873 31.6379 18.7662 31.4001 18.7422C31.3642 18.9523 31.3339 19.1299 31.3174 19.2266C31.0198 19.3726 30.7732 19.4937 30.489 19.6208ZM31.5015 16.227C31.5323 16.2592 31.5631 16.2915 31.5939 16.3238C31.6072 16.311 31.6329 16.2878 31.6321 16.2869C31.6034 16.2529 31.5722 16.2209 31.5015 16.227Z" fill="#EFFBFC"/>
<path d="M15.5399 35.8754C15.5181 35.8796 15.4964 35.8838 15.4419 35.8941C15.357 35.8999 15.3047 35.8997 15.213 35.8985C15.1736 35.8975 15.1773 35.8449 15.2177 35.7868C15.2739 35.4696 15.3037 35.2104 15.3037 34.9512C15.3037 31.2776 15.2849 27.6039 15.3097 23.9305C15.3144 23.2316 15.2822 22.6047 14.7025 22.1272C14.7376 22.0939 14.7512 22.0801 14.8005 22.0797C14.9636 22.1889 15.091 22.2846 15.3082 22.4479C15.3082 21.3497 15.3082 20.3446 15.3082 19.3395C15.3698 19.3407 15.4314 19.3418 15.493 19.343C15.5052 19.5181 15.5268 19.6932 15.528 19.8684C15.5323 20.5037 15.5859 21.1454 15.515 21.7727C15.4349 22.4809 15.6629 22.998 16.1964 23.4289C16.161 23.4697 16.1464 23.4857 16.0964 23.488C15.9012 23.3687 15.7415 23.2631 15.5399 23.1297C15.5399 27.4244 15.5399 31.6499 15.5399 35.8754Z" fill="#A8E9FE"/>
<path d="M29.886 20.863C30.0462 20.4936 30.2065 20.1242 30.3972 19.7267C30.227 20.2772 30.6948 20.8553 30.3778 21.4755C30.2452 21.735 30.4921 22.1773 30.5295 22.5403C30.5438 22.6798 30.4553 22.83 30.3726 22.9835C30.3316 22.9916 30.3317 22.9918 30.3317 22.9918C30.4074 22.6136 30.1543 22.4379 29.8709 22.4761C29.7018 22.499 29.5684 22.7862 29.346 23.0366C29.0585 22.9798 28.7603 23.0623 28.7526 23.6105C28.7372 24.706 28.3173 25.0802 27.1152 25.0801C28.2198 23.784 29.2507 22.4561 29.886 20.863Z" fill="#EFFBFC"/>
<path d="M29.8437 20.8541C29.2507 22.4561 28.2198 23.7839 27.0673 25.0759C27.0145 25.1147 26.9872 25.1321 26.961 25.1863C26.5617 25.5415 26.1695 25.8728 25.7773 26.2042C25.732 26.1884 25.6868 26.1726 25.6416 26.1567C25.6865 25.9699 25.7312 25.783 25.7929 25.5583C25.8098 25.5204 25.8123 25.5176 25.8465 25.5113C27.5396 24.1332 28.7178 22.403 29.6311 20.4754C29.6879 20.5986 29.7447 20.7219 29.8437 20.8541Z" fill="#2893E7"/>
<path d="M31.1318 13.6727C30.9177 12.892 30.7458 12.0946 30.5763 11.2537C30.7211 11.3104 30.8634 11.4105 31.0478 11.5402C31.103 11.2998 31.1487 11.1003 31.1945 10.9008C31.244 10.8941 31.2935 10.8874 31.343 10.8807C31.4285 11.2729 31.5139 11.665 31.5993 12.0572C31.6559 12.0568 31.7124 12.0564 31.769 12.0559C31.8203 11.6374 31.8716 11.219 31.9229 10.8005C31.9619 10.8006 32.0008 10.8008 32.0398 10.8009C32.0685 10.9088 32.1164 11.0155 32.1228 11.1247C32.1544 11.6621 32.1985 12.2004 32.1935 12.738C32.1875 13.3911 31.7369 13.597 31.1318 13.6727Z" fill="#EFFBFC"/>
<path d="M30.3621 10.3995C29.7704 9.37232 29.2104 8.31684 28.6411 7.22397C28.9082 7.18658 29.1846 7.18658 29.4926 7.18658C29.4926 7.37503 29.4926 7.52807 29.4926 7.78592C29.7636 7.5397 29.97 7.35222 30.3035 7.04924C30.2726 7.73507 30.2487 8.26731 30.2247 8.79955C30.2386 8.79412 30.2524 8.78869 30.2663 8.78327C30.3088 9.31259 30.3513 9.84191 30.3621 10.3995Z" fill="#EFFBFC"/>
<path d="M17.9867 0.83195C16.6785 0.877108 15.3643 0.881007 14.0024 0.878193C14.337 0.615719 14.6257 0.0144229 15.2194 0.528204C15.2375 0.54389 15.3021 0.534146 15.3235 0.513726C15.8674 -0.00492072 16.5405 0.289328 17.1552 0.214707C17.6165 0.158703 17.9117 0.302933 17.9867 0.83195Z" fill="#EFFBFC"/>
<path d="M28.4236 6.83356C27.9625 6.3677 27.5175 5.86782 27.0586 5.33402C27.3734 5.33255 27.7021 5.36416 28.0306 5.39863C28.0655 5.40229 28.1015 5.41799 28.1321 5.4362C28.2411 5.50098 28.4979 6.64616 28.4236 6.83356Z" fill="#EFFBFC"/>
<path d="M4.64109 26.5815C4.63132 26.6549 4.64902 26.7661 4.60775 26.796C4.08978 27.1713 4.05874 26.4911 3.75735 26.37C3.57252 26.2957 3.5075 25.9797 3.92567 25.9098C3.96819 25.9086 3.96805 25.9084 3.9718 25.9484C4.19747 26.1861 4.41918 26.3837 4.64109 26.5815Z" fill="#EFFBFC"/>
<path d="M30.3317 22.9918C30.3402 23.0891 30.3487 23.1863 30.3573 23.2837C30.2108 23.2587 30.0642 23.2337 29.9177 23.2087C29.9195 23.1615 29.9214 23.1142 29.9232 23.067C30.0317 23.0421 30.1402 23.0172 30.2902 22.992C30.3318 22.9917 30.3317 22.9918 30.3317 22.9918Z" fill="#EFFBFC"/>
<path d="M30.5499 10.9856C30.4934 10.9445 30.468 10.8871 30.4423 10.7971C30.4884 10.8327 30.5347 10.901 30.5499 10.9856Z" fill="#EFFBFC"/>
<path d="M28.5313 7.0337C28.5032 7.051 28.4776 7.03328 28.4608 6.97747C28.4881 6.96566 28.5096 6.98543 28.5313 7.0337Z" fill="#EFFBFC"/>
<path d="M28.6324 7.16203C28.6082 7.16673 28.5774 7.14356 28.5441 7.09031C28.5698 7.08488 28.5978 7.10952 28.6324 7.16203Z" fill="#EFFBFC"/>
<path d="M11.1489 32.4118C11.1063 32.4066 11.0789 32.3851 11.0425 32.335C11.0285 32.3128 11.0458 32.2933 11.0808 32.2931C11.149 32.3136 11.17 32.3429 11.1788 32.3811C11.1788 32.3811 11.1591 32.4018 11.1489 32.4118Z" fill="#EFFBFC"/>
<path d="M25.8103 25.5223C25.5821 25.6085 25.3535 25.6928 25.0245 25.8141C25.1144 25.5391 25.201 25.2744 25.3008 24.9694C24.8001 24.7182 25.0893 24.4132 25.3998 24.1157C25.2673 23.973 25.16 23.8575 25.0344 23.7222C25.207 23.6396 25.3476 23.5723 25.6391 23.4329C25.345 23.375 25.2165 23.3496 25.0066 23.3083C25.0597 22.4667 25.1353 21.613 25.1546 20.758C25.1605 20.497 25.0117 20.2325 24.893 19.9572C24.6566 19.7985 24.4608 19.6523 24.2433 19.4897C24.237 19.5173 24.2379 19.4589 24.253 19.455C25.1968 19.2095 25.1866 19.2102 25.1563 18.0843C25.1146 16.5376 25.0752 14.9904 25.0655 13.4433C25.0611 12.7381 25.1098 12.0306 25.1722 11.3275C25.2219 10.7667 24.7579 10.578 24.4744 10.2556C24.4275 10.2022 24.3628 10.1644 24.327 10.136C24.3997 9.7639 24.4666 9.42155 24.567 8.90782C24.0712 9.03264 23.6104 9.11814 23.1788 9.28092C23.083 9.31705 23.09 9.62574 23.0335 9.88206C22.6838 9.59018 22.7019 8.84775 22.0706 8.98156C22.0284 9.20084 22.0147 9.39423 21.9521 9.57026C21.8404 9.88475 21.6845 10.1836 21.5741 10.4985C21.4521 10.8467 20.8672 11.0413 20.4982 10.8716C20.2947 10.778 20.0572 10.7589 19.7854 10.7412C19.7359 10.7761 19.6881 10.7724 19.6881 10.7724C19.3755 10.7883 19.3305 10.6019 19.3333 10.3418C19.3427 9.48369 19.3383 8.62537 19.3355 7.76712C19.3349 7.58927 19.3185 7.41147 19.3053 7.1547C19.0781 7.27808 18.9244 7.3616 18.7728 7.44391C18.6341 7.00827 18.6328 6.95621 19.0876 6.87092C19.549 6.78437 19.6389 6.59966 19.4683 6.17725C19.3852 5.97157 19.4181 5.71897 19.4005 5.5104C19.0375 5.47444 18.6604 5.41703 18.2828 5.41378C18.1885 5.41297 18.0504 5.57083 18.0077 5.68411C17.9469 5.8456 17.9555 6.03325 17.9399 6.16406C17.3525 6.16406 16.8469 6.16406 16.2521 6.16406C16.2459 6.19711 16.2053 6.32915 16.1994 6.46271C16.1715 7.09793 15.9649 7.31044 15.366 7.40617C15.1088 7.44727 14.8677 7.5896 14.5442 7.71508C14.559 7.73593 14.501 7.65422 14.4428 7.57264C14.2602 7.70218 14.0738 7.82628 13.8963 7.96198C13.2976 8.41962 12.8911 8.89398 12.754 9.75665C12.6367 10.4947 12.7852 11.1788 12.7267 11.8839C12.6762 12.4927 12.1693 12.8414 11.565 12.5837C11.4314 12.7788 11.2921 12.9821 11.1206 13.2325C11.0543 13.0171 11.0045 12.8554 10.9745 12.7579C10.4529 13.1811 9.94288 13.595 9.3926 13.9722C9.31314 13.8296 9.2737 13.7237 9.23426 13.6178C9.17912 13.6546 9.12398 13.6914 9.06884 13.7281C9.16364 13.8243 9.25817 13.9205 9.35297 14.0167C9.18465 14.4868 8.79573 14.646 8.35703 14.622C8.10403 14.6082 7.96057 14.5711 7.85289 14.8678C7.80925 14.988 7.52226 15.0199 7.32514 15.1005C7.25882 15.3916 7.18331 15.723 7.10358 16.0967C6.69088 16.208 6.2825 16.277 5.874 16.3461C5.86129 16.292 5.84858 16.2378 5.83587 16.1837C5.79298 16.2178 5.71344 16.2509 5.71253 16.2861C5.6855 17.3329 5.65503 18.3801 5.67994 19.4259C5.68114 19.4766 6.17983 19.5154 6.5726 19.5807C6.58666 19.6666 6.65241 19.8928 6.65577 20.1199C6.66849 20.9791 6.62896 21.8402 6.67249 22.6973C6.70075 23.2538 6.44767 23.4913 5.95351 23.5347C5.61532 23.5645 5.27241 23.5404 4.82582 23.5404C4.94693 23.272 5.03182 23.1509 5.05499 23.019C5.10967 22.7076 5.16228 22.415 4.64444 22.4679C4.31756 22.5013 3.97564 22.3873 3.64046 22.3394C3.65231 22.2804 3.66417 22.2213 3.67603 22.1622C3.90154 22.1726 4.12706 22.183 4.44872 22.1979C4.04698 21.7709 3.74472 21.3987 3.38859 21.0883C3.13143 20.8642 3.22448 20.7332 3.39495 20.5443C3.49352 20.435 3.61235 20.2941 3.61986 20.1616C3.64689 19.6849 3.63048 19.2056 3.63048 18.6743C2.98074 18.8382 2.31479 19.4031 1.78081 18.5112C1.72183 18.4369 1.70174 18.371 1.6923 18.2376C1.68052 18.1328 1.658 18.0957 1.63549 18.0585C1.61633 17.9775 1.59718 17.8966 1.61702 17.7463C1.69872 17.3226 1.94527 16.9171 1.41259 16.7071C1.39769 16.5535 1.38278 16.3999 1.40749 16.1682C1.53948 15.141 1.64342 14.1927 1.71573 13.242C1.73285 13.0169 1.64373 12.7837 1.60348 12.5543C1.60601 12.5037 1.60854 12.4532 1.64664 12.3432C1.68829 12.2408 1.69436 12.1978 1.70044 12.1549C1.70044 12.1549 1.68405 12.1309 1.73725 12.1196C2.0428 11.9925 2.29515 11.8766 2.62928 11.7232C2.86764 11.776 3.22085 11.8543 3.63964 11.9471C3.60039 11.4736 3.56371 11.0311 3.51434 10.4355C3.24007 10.6005 3.01223 10.7376 2.76186 10.8883C2.6898 10.8388 2.55771 10.7482 2.44452 10.6705C2.47902 10.4196 2.50915 10.2005 2.53953 9.98141C3.00488 10.1079 3.66878 9.72311 3.6184 9.30815C3.54813 8.72937 3.81491 8.42573 4.31412 8.22656C4.6149 8.49651 4.92203 8.47299 5.04929 8.08244C5.20055 7.61821 5.2532 7.12153 5.34428 6.6381C5.40622 6.30934 5.36537 5.91306 5.53843 5.66338C5.90296 5.13744 6.53499 5.05342 6.89966 5.23411C8.68671 5.23216 8.90549 3.25538 10.4316 3.03319C10.6268 3.08571 10.9058 3.16077 11.1849 3.23583C11.2018 3.18537 11.2187 3.1349 11.2356 3.08444C11.0929 3.00716 10.9503 2.92987 10.8252 2.86212C11.1976 2.55117 11.539 2.26615 12.0023 1.87928C11.9674 2.35412 11.9414 2.70758 11.9154 3.06104C11.8515 3.09679 11.7876 3.13254 11.7237 3.16829C11.9495 3.22841 12.1859 3.35377 12.3962 3.31943C12.4925 3.30372 12.5762 2.97798 12.597 2.78543C12.6301 2.47868 12.6059 2.16574 12.6059 1.76387C12.9104 1.76387 13.26 1.80827 13.5894 1.74601C13.7665 1.71255 13.9089 1.496 14.067 1.36207C14.1504 1.35105 14.2338 1.34004 14.3593 1.38093C14.5319 1.85082 14.8193 1.91856 15.2086 1.63283C15.5489 1.38308 15.8858 1.30739 16.2206 1.66C16.2832 1.72583 16.4266 1.78285 16.5023 1.75651C16.8556 1.63357 17.1982 1.47999 17.5445 1.33736C17.5953 1.33599 17.6461 1.33461 17.7597 1.37436C18.3523 1.6253 18.8741 1.89449 19.5022 1.63634C19.5831 1.65311 19.6284 1.66794 19.6789 1.72403C19.7435 2.12839 19.7986 2.49225 19.864 2.85424C19.8928 3.01411 19.9186 3.29178 19.9874 3.30537C20.2003 3.34745 20.4332 3.28834 20.6847 3.26618C20.5272 2.94587 20.4307 2.7496 20.3956 2.67826C20.8011 2.48662 21.0821 2.35382 21.3956 2.22167C21.4846 2.25033 21.5412 2.27834 21.5986 2.35337C21.7968 2.45204 21.9942 2.5037 22.1916 2.55535C22.1916 2.55535 22.2288 2.55633 22.2412 2.61541C22.2718 3.07784 22.3549 3.34771 22.8785 3.38806C23.6371 3.44652 23.6491 3.53193 23.3957 4.19534C23.364 4.27814 23.3722 4.38056 23.3787 4.47272C23.3989 4.76094 23.4272 5.04861 23.4523 5.3365C23.5005 5.36058 23.5486 5.38467 23.5968 5.40876C23.684 5.26008 23.7711 5.1114 23.8971 4.89654C24.0421 5.06017 24.1832 5.21937 24.3249 5.3794C24.8925 4.80654 25.3993 5.4969 25.9331 5.41564C25.9626 5.41114 26.0253 5.62424 26.0229 5.61847C25.7581 5.7764 25.4903 5.84277 25.4313 5.99181C25.3265 6.25631 26.0468 7.00227 26.3282 6.9108C26.4867 6.85927 26.5693 6.5743 26.7531 6.29117C27.184 6.33337 26.9329 6.84388 27.0615 7.116C27.1968 7.06243 27.3212 7.01321 27.5575 6.91966C27.506 7.2291 27.5461 7.5344 27.4237 7.62866C26.9186 8.01761 26.9475 8.45026 27.1737 8.89751C27.8165 8.92931 28.4303 8.95966 28.9882 8.98725C29.1469 9.79038 28.4728 10.5066 29.2316 11.0772C29.2594 11.0982 29.2851 11.1219 29.31 11.1428C29.4359 11.0964 29.5613 11.0502 29.7073 10.9964C29.6604 11.5084 29.6604 11.5084 28.6894 11.4957C29.1205 11.9927 29.5515 12.4897 29.9841 12.9885C29.816 13.1196 29.6828 13.2235 29.5495 13.3274C29.5708 13.3896 29.5921 13.4519 29.6134 13.5142C29.7646 13.4804 29.9151 13.4426 30.0673 13.4139C30.221 13.385 30.3764 13.365 30.531 13.3411C30.5488 13.4952 30.5665 13.6493 30.5426 13.8811C30.482 14.5242 30.4452 15.0898 30.4512 15.655C30.4546 15.9715 30.5287 16.2872 30.5709 16.6032C30.5658 16.7214 30.5606 16.8397 30.5009 16.9993C30.3756 16.9929 30.285 16.9593 30.2381 16.8942C30.1236 16.7353 30.0293 16.5618 29.9269 16.3942C29.838 16.6185 29.727 16.8373 29.6696 17.0694C29.6416 17.1826 29.7495 17.3258 29.7318 17.446C29.706 17.622 29.6444 17.8013 29.5593 17.9582C29.3819 18.2852 29.0707 18.5791 29.0095 18.9214C28.8851 19.617 28.8899 20.3356 28.8419 21.0448C28.8136 21.4629 28.3058 21.7927 27.9175 21.6447C27.3401 21.4245 26.9201 21.7415 26.9796 22.3302C27.0029 22.5609 26.9472 22.7988 26.9387 23.0339C26.9301 23.269 26.9221 23.5056 26.9381 23.7399C26.9589 24.0441 27.0639 24.3701 26.5285 24.259C26.385 24.2293 26.1033 24.3328 26.0621 24.442C25.9334 24.7834 25.8894 25.1567 25.8125 25.5176C25.8125 25.5176 25.8099 25.5204 25.8103 25.5223ZM21.7458 3.15523C21.6996 3.27184 21.6534 3.38846 21.6071 3.50507C21.6786 3.51554 21.7501 3.526 21.8216 3.53646C21.8216 3.41425 21.8216 3.29203 21.7458 3.15523ZM10.2087 13.1024C10.0841 13.1252 9.95955 13.148 9.835 13.1708C9.85724 13.2286 9.87948 13.2863 9.90172 13.3441C10.0039 13.2871 10.106 13.2302 10.2087 13.1024ZM4.18064 8.89962C4.19281 8.82545 4.20498 8.75127 4.21715 8.6771C4.1532 8.6844 4.08925 8.6917 4.0253 8.699C4.05499 8.77588 4.08468 8.85276 4.18064 8.89962ZM29.0752 17.9875C29.0747 18.0315 29.0742 18.0755 29.0738 18.1195C29.092 18.1197 29.1261 18.1211 29.1262 18.1198C29.1296 18.0761 29.1298 18.0321 29.0752 17.9875Z" fill="white"/>
<path d="M11.2138 32.3945C11.17 32.3429 11.1491 32.3136 11.0898 32.2836C11.0316 32.1956 10.9994 32.117 10.9913 31.9661C11.0224 31.2252 11.0371 30.5567 11.0347 29.8883C11.028 27.9935 11.0144 26.0987 11.0045 24.1531C11.0042 23.5528 11.0029 23.0033 11.0143 22.4005C11.0255 21.3995 11.0241 20.4519 11.0465 19.4726C11.0838 19.2319 11.0972 19.0229 11.1105 18.8139C10.9429 18.8213 10.7752 18.8286 10.6075 18.836C10.6285 19.0299 10.643 19.2248 10.6757 19.4168C10.6829 19.4592 10.7542 19.4908 10.7962 19.5791C10.7954 20.9631 10.8014 22.2955 10.784 23.6276C10.7819 23.7892 10.6537 23.9492 10.5852 24.1121C10.5866 24.1144 10.5914 24.1161 10.5884 24.0797C10.5103 23.9905 10.4354 23.9377 10.3613 23.8873C10.3623 23.8897 10.3669 23.8918 10.3639 23.8588C10.3232 23.808 10.2855 23.7903 10.2489 23.775C10.25 23.7774 10.2548 23.7796 10.2513 23.7472C10.2103 23.6966 10.1729 23.6784 10.1368 23.6626C10.138 23.665 10.1429 23.6675 10.1375 23.6359C10.0958 23.5855 10.0596 23.5667 10.0247 23.5503C10.0259 23.5525 10.0309 23.5543 10.0212 23.5179C9.36886 23.1673 9.847 22.4515 9.56586 22.0078C9.48832 22.0252 9.41078 22.0426 9.33324 22.0601C9.37306 22.2885 9.41288 22.5168 9.41546 22.753C9.15558 22.6033 8.93295 22.4458 8.69905 22.2635C8.66808 22.2061 8.64066 22.1827 8.58685 22.1428C8.5146 22.0874 8.46103 22.0576 8.38862 21.9908C7.91463 21.2874 8.20021 20.5433 8.14854 19.8348C8.13041 19.5862 8.12269 19.3369 8.11022 19.0879C8.03465 19.0763 7.95907 19.0646 7.8835 19.053C7.81814 19.2106 7.68724 19.3733 7.69902 19.5249C7.74438 20.1084 7.8025 20.6953 7.92293 21.2668C7.98553 21.5638 8.18827 21.8314 8.34263 22.1407C8.4099 22.2055 8.46225 22.2419 8.52744 22.2983C8.56351 22.3415 8.59 22.3601 8.63774 22.4065C8.88749 22.6591 9.11924 22.8792 9.37043 23.1421C9.40557 23.2573 9.43485 23.3297 9.43497 23.4021C9.43857 25.6828 9.44036 27.9634 9.43728 30.244C9.43714 30.3509 9.38968 30.4576 9.36426 30.5644C9.01564 30.166 8.66702 29.7676 8.32607 29.2761C8.33374 27.6938 8.33374 26.2044 8.33374 24.715C8.26371 24.7156 8.19368 24.7161 8.12364 24.7167C8.12364 26.2353 8.12364 27.754 8.12364 29.2726C7.54988 28.9695 7.12132 28.6164 7.12691 27.8525C7.15517 23.9947 7.14266 20.1367 7.1449 16.2283C8.83123 15.1629 10.517 14.148 12.2959 13.0772C12.2959 19.8728 12.2959 26.5394 12.2959 33.3451C11.8896 32.9814 11.5692 32.6946 11.2138 32.3945Z" fill="#0C8EF8"/>
<path d="M13.388 9.13632C15.061 8.12144 16.7086 7.1444 18.4293 6.12405C18.4293 10.0752 18.4293 13.9253 18.4293 17.8884C18.1114 17.6757 17.8691 17.5167 17.6299 17.353C16.3506 16.4777 15.0787 15.5915 13.7891 14.7317C13.4438 14.5015 13.2832 14.2529 13.2955 13.8209C13.3393 12.2726 13.3436 10.7231 13.388 9.13632Z" fill="#058DFB"/>
<path d="M16.2174 23.404C15.6631 22.998 15.4349 22.4809 15.515 21.7727C15.5859 21.1454 15.5323 20.5037 15.528 19.8684C15.5268 19.6932 15.5052 19.5181 15.493 19.343C15.4314 19.3418 15.3698 19.3407 15.3082 19.3395C15.3082 20.3446 15.3082 21.3497 15.3082 22.4479C15.091 22.2846 14.9638 22.1889 14.7875 22.0562C14.7156 21.9903 14.6867 21.9693 14.6328 21.9161C14.5838 21.542 14.554 21.208 14.5568 20.8479C14.6063 20.6119 14.6386 20.401 14.6217 20.194C14.6195 20.1664 14.2977 20.0972 14.2466 20.1553C14.1433 20.2727 14.095 20.4622 14.0832 20.6262C14.0776 20.7045 14.2073 20.7925 14.281 20.9241C14.3735 21.3302 14.0959 21.7859 14.5883 22.0594C14.627 22.105 14.6527 22.1275 14.6813 22.1468C15.2824 22.6047 15.3144 23.2316 15.3097 23.9305C15.2849 27.6039 15.3037 31.2776 15.3037 34.9512C15.3037 35.2104 15.2741 35.4696 15.2219 35.7608C14.6598 35.2894 14.1176 34.8014 13.6174 34.2737C13.4548 34.1022 13.3121 33.8272 13.3116 33.5991C13.2967 27.6959 13.3017 21.7926 13.3051 15.8894C13.3052 15.8372 13.3309 15.7851 13.3765 15.6125C13.847 15.9281 14.282 16.2198 14.7292 16.5523C14.7415 16.5931 14.7241 16.6111 14.6867 16.6074C14.5848 16.6447 14.5202 16.6857 14.4557 16.7266C14.5498 16.7582 14.6439 16.7898 14.7382 16.862C14.8878 17.0999 15.0372 17.2973 15.1866 17.4946C15.1866 17.4946 15.1868 17.4944 15.1397 17.4943C14.8066 17.3533 14.4054 17.8131 14.2056 17.3651C14.0752 17.0728 14.0631 16.7278 13.974 16.2883C13.8145 16.4415 13.6435 16.5289 13.6421 16.6187C13.6244 17.8287 13.6302 19.039 13.6302 20.3864C13.8401 20.106 13.9235 19.8697 14.0579 19.8358C14.7744 19.6548 14.9175 19.3221 14.4265 18.7496C14.4211 18.7433 14.4644 18.695 14.4553 18.7077C14.7304 18.7568 15.021 18.905 15.2275 18.8279C15.9007 18.5765 15.9968 18.5868 16.3873 19.2944C15.5896 19.7852 15.5404 19.8859 15.7141 20.7019C15.7764 20.7153 15.8484 20.7479 15.9173 20.7422C16.0641 20.7299 16.2096 20.6998 16.355 20.6735C16.8649 20.581 17.1247 20.76 17.0842 21.2629C17.0287 21.9531 16.9423 22.6451 16.8051 23.3234C16.6136 24.2699 16.5789 24.2711 15.631 24.051C15.6528 24.3219 15.5801 24.7011 15.7111 24.7945C16.0553 25.0399 15.9677 25.3443 15.9687 25.6414C15.9794 28.921 15.9832 32.2007 15.9889 35.4804C15.8623 35.6097 15.7356 35.7389 15.5744 35.8717C15.5399 31.6499 15.5399 27.4244 15.5399 23.1297C15.7415 23.2631 15.9014 23.3687 16.1113 23.5231C16.2548 23.6312 16.3483 23.6906 16.4493 23.7548C16.4493 22.9098 16.4493 22.1266 16.4493 21.3433C16.372 21.3438 16.2947 21.3443 16.2174 21.3448C16.2174 22.0312 16.2174 22.7176 16.2174 23.404ZM15.6358 30.6763C15.6358 31.768 15.6358 32.8598 15.6358 33.9515C15.6624 33.9508 15.689 33.9501 15.7155 33.9494C15.7155 31.0492 15.7155 28.149 15.7155 25.2488C15.689 25.2488 15.6624 25.2487 15.6358 25.2487C15.6358 27.0205 15.6358 28.7923 15.6358 30.6763Z" fill="#0C8DF6"/>
<path d="M16.0202 35.4713C15.9831 32.2007 15.9794 28.921 15.9687 25.6414C15.9677 25.3443 16.0553 25.0399 15.7111 24.7945C15.5801 24.7011 15.6528 24.3219 15.631 24.051C16.5789 24.2711 16.6136 24.2699 16.8051 23.3234C16.9423 22.6451 17.0287 21.9531 17.0842 21.2629C17.1247 20.76 16.8649 20.581 16.355 20.6735C16.2096 20.6998 16.0641 20.7299 15.9173 20.7422C15.8484 20.7479 15.7764 20.7153 15.7141 20.7019C15.5404 19.8859 15.5896 19.7852 16.3873 19.2944C15.9968 18.5868 15.9007 18.5765 15.2275 18.8279C15.021 18.905 14.7304 18.7568 14.4553 18.7077C14.4644 18.695 14.4211 18.7433 14.4265 18.7496C14.9175 19.3221 14.7744 19.6548 14.0579 19.8358C13.9235 19.8697 13.8401 20.106 13.6302 20.3864C13.6302 19.039 13.6244 17.8287 13.6421 16.6187C13.6435 16.5289 13.8145 16.4415 13.974 16.2883C14.0631 16.7278 14.0752 17.0728 14.2056 17.3651C14.4054 17.8131 14.8067 17.3533 15.1442 17.5352C15.3146 17.69 15.4815 17.9239 15.5446 17.8986C15.9695 17.7282 16.0712 18.0029 16.1886 18.2953C16.3387 18.6692 16.5273 18.7788 16.795 18.3788C16.8297 18.327 16.9387 18.3249 17.0919 18.2734C17.0215 18.4738 16.9375 18.5947 16.9499 18.7047C16.9699 18.8821 17.0534 19.0524 17.1102 19.2257C17.2576 19.1563 17.4048 19.0861 17.5527 19.0176C17.7093 18.9452 17.8667 18.8744 18.0237 18.8029C18.0237 18.8029 18.0222 18.8297 18.0165 18.8615C18.1164 19.3948 18.3099 19.8957 18.3134 20.3979C18.3392 24.1372 18.3317 27.8768 18.319 31.6162C18.318 31.9103 18.1988 32.2039 18.1174 32.5759C18.3111 32.759 18.3111 32.759 18.1581 33.3645C18.1581 33.3645 18.1523 33.3721 18.1132 33.3571C17.7552 33.5182 17.4363 33.6944 17.1122 33.8341C17.1107 33.7488 17.1143 33.7 17.1436 33.619C17.3475 33.3212 17.5258 33.0554 17.7514 32.719C17.7859 32.7591 17.7267 32.6222 17.6471 32.6091C17.1965 32.5351 17.1973 32.2343 17.2007 31.8752C17.2151 30.3454 17.2052 28.8154 17.2079 27.2855C17.2086 26.8783 17.5352 26.6249 18.0836 26.728C17.8423 26.1441 17.6302 25.6312 17.4182 25.1183C17.3686 25.1349 17.3191 25.1514 17.2695 25.168C17.2695 25.3181 17.2695 25.4682 17.2695 25.6657C17.1489 25.5995 17.0584 25.5068 16.998 25.5234C16.4774 25.6672 16.2139 26.2348 16.3836 26.7755C16.4269 26.9133 16.4185 27.0698 16.4195 27.2178C16.4232 27.7775 16.4308 28.3374 16.4189 28.8969C16.3938 30.0868 16.3149 31.2773 16.3392 32.4658C16.3585 33.4061 16.6552 34.3501 16.2131 35.2676C16.1594 35.3325 16.1054 35.3973 16.0202 35.4713ZM16.3936 24.9052C16.3796 25.0198 16.3656 25.1343 16.3516 25.2489C16.4662 25.2372 16.5807 25.2255 16.6952 25.2138C16.6226 25.1097 16.5499 25.0056 16.3936 24.9052ZM16.0539 20.28C15.9902 20.259 15.9265 20.2379 15.8628 20.2169C15.8752 20.3319 15.8877 20.4469 15.9001 20.5619C15.9347 20.5571 15.9692 20.5524 16.0038 20.5477C16.0262 20.4812 16.0486 20.4146 16.0539 20.28ZM16.7801 19.6943C16.7806 19.6501 16.781 19.6059 16.7815 19.5617C16.7631 19.5615 16.7288 19.5601 16.7287 19.5613C16.7254 19.6053 16.7252 19.6496 16.7801 19.6943ZM17.8156 19.5928C17.8461 19.6248 17.8766 19.6568 17.9072 19.6888C17.9204 19.6761 17.9458 19.6532 17.9451 19.6523C17.9166 19.6186 17.8858 19.5868 17.8156 19.5928Z" fill="#018CFE"/>
<path d="M22.8661 19.6941C22.6657 19.7576 22.5074 19.8055 22.2944 19.8701C22.2944 16.5548 22.2944 13.2808 22.2944 9.89669C23.1244 10.3687 23.9265 10.8137 24.7117 11.2866C24.8006 11.3402 24.8275 11.5511 24.8278 11.6892C24.8332 14.0069 24.8379 16.3247 24.812 18.6421C24.81 18.8163 24.6114 19.0705 24.4416 19.145C23.9475 19.3616 23.4218 19.5058 22.8661 19.6941Z" fill="#088CF7"/>
<path d="M19.6794 10.8238C19.6878 10.7724 19.7357 10.7761 19.7594 10.7727C20.3134 11.0784 20.8368 11.4004 21.3767 11.6918C21.6848 11.8582 21.8265 12.0537 21.8234 12.4306C21.8037 14.8197 21.8081 17.2091 21.8182 19.5983C21.8196 19.9226 21.7414 20.1071 21.4001 20.201C20.8476 20.3529 20.3104 20.5603 19.671 20.7767C19.671 17.4231 19.671 14.1491 19.6794 10.8238Z" fill="#068BF9"/>
<path d="M21.919 30.3835C21.2525 31.0321 20.5861 31.6808 19.8994 32.3603C19.8033 32.244 19.6615 32.0971 19.661 31.9497C19.6497 28.6546 19.6518 25.3595 19.6619 22.0645C19.6624 21.8983 19.7583 21.7324 19.8551 21.6145C19.9005 22.6433 19.9005 23.6239 19.9005 24.7219C20.3631 24.3346 20.8843 24.4821 20.8596 24.9019C20.8213 25.5514 21.6414 26.0685 21.0275 26.7736C21.4711 26.671 21.7546 26.4851 21.685 26.0616C21.6312 25.7346 21.4982 25.4207 21.3946 25.0817C21.5282 25.0671 21.6587 25.0527 21.8621 25.0304C21.7487 24.687 21.716 24.3487 21.5406 24.1197C21.3394 23.8569 21.336 23.6956 21.5177 23.439C21.8998 22.8998 21.7143 21.5995 21.2156 21.1363C21.9454 20.8908 22.6751 20.6454 23.4317 20.4366C23.1246 20.7651 22.7907 21.057 22.4248 21.3227C22.2155 21.2382 22.0396 21.1486 21.8603 21.1411C21.8081 21.1389 21.6619 21.4205 21.7016 21.4885C22.1207 22.2058 21.8801 22.9808 21.9046 23.7237C21.9485 25.0538 21.917 26.3864 21.917 27.7723C21.7427 27.6618 21.6363 27.5944 21.5118 27.4963C21.296 27.2681 21.1221 27.0364 20.896 26.88C20.4147 26.5469 20.3993 26.0799 20.4799 25.5891C20.5098 25.4068 20.6362 25.2404 20.7281 25.0465C20.4781 24.9728 20.295 24.9188 20.115 24.8657C19.827 25.6569 20.4038 26.8414 21.4535 27.6643C21.8674 27.9725 21.957 28.3529 21.9249 28.8153C21.8887 29.3356 21.9181 29.8606 21.919 30.3835Z" fill="#118CF0"/>
<path d="M22.4567 21.3488C22.7906 21.057 23.1244 20.7651 23.4757 20.4369C23.4932 20.4005 23.5153 20.3824 23.5787 20.3937C23.9204 20.3773 24.1987 20.3495 24.6483 20.3045C24.3517 20.5204 24.0321 20.6394 24.0227 20.7791C23.9798 21.4223 24.4264 20.7336 24.6098 21.0127C24.6098 22.1978 24.6526 23.4485 24.5973 24.6949C24.5459 25.8523 24.9017 27.0872 24.0592 28.1265C24.0342 28.1573 24.0665 28.2345 24.0721 28.2901C24.0721 28.2901 24.0489 28.2834 24.0158 28.2773C23.8389 28.2889 23.6952 28.3065 23.4517 28.3364C23.5429 26.9349 23.6311 25.5718 23.723 24.2089C23.7264 24.1581 23.7606 24.0705 23.7904 24.0661C24.3704 23.979 24.0946 23.4705 24.2085 23.1668C24.254 23.0456 24.1048 22.7895 23.9737 22.6774C23.7376 22.4756 23.4483 22.3361 23.2395 22.2067C23.5194 22.8462 22.8462 22.8288 22.3038 23.0646C22.5104 22.6942 22.0286 22.1357 22.9444 22.0877C22.7503 21.8166 22.6043 21.6127 22.456 21.3938C22.4536 21.3789 22.4567 21.3488 22.4567 21.3488ZM23.312 21.4937C23.4453 21.3179 23.5786 21.1421 23.7119 20.9662C23.6411 20.9307 23.5704 20.8951 23.4997 20.8596C23.4126 21.0698 23.3255 21.2801 23.312 21.4937ZM24.2293 21.735C24.1854 21.7346 24.1414 21.7341 24.0975 21.7336C24.0973 21.7518 24.0959 21.7859 24.0972 21.786C24.1409 21.7894 24.1849 21.7896 24.2293 21.735Z" fill="#018CFE"/>
<path d="M21.2166 21.1384C21.7141 21.5996 21.8998 22.8998 21.5177 23.439C21.336 23.6956 21.3394 23.8569 21.5406 24.1197C21.716 24.3487 21.7487 24.687 21.8621 25.0304C21.6587 25.0527 21.5282 25.0671 21.3946 25.0817C21.4982 25.4207 21.6312 25.7346 21.685 26.0616C21.7546 26.4851 21.4711 26.671 21.0275 26.7736C21.6414 26.0685 20.8213 25.5514 20.8596 24.9019C20.8843 24.4821 20.3631 24.3346 19.9005 24.7219C19.9005 23.6239 19.9005 22.6433 19.9015 21.6121C19.9468 21.5454 19.991 21.5293 20.094 21.5442C20.2546 21.5145 20.3565 21.4539 20.4584 21.3932C20.4584 21.3932 20.4806 21.3819 20.5341 21.3948C20.6594 21.3693 20.7312 21.3309 20.8029 21.2925C20.8029 21.2925 20.8237 21.2778 20.8809 21.2896C21.0309 21.2494 21.1238 21.1973 21.2167 21.1453C21.2167 21.1453 21.2178 21.1406 21.2166 21.1384Z" fill="#018CFE"/>
<path d="M16.2492 35.2524C16.6549 34.3501 16.3585 33.4061 16.3392 32.4658C16.3149 31.2773 16.3938 30.0868 16.4189 28.8969C16.4308 28.3374 16.4232 27.7775 16.4195 27.2178C16.4185 27.0698 16.4269 26.9133 16.3836 26.7755C16.2139 26.2348 16.4774 25.6672 16.998 25.5234C17.0584 25.5068 17.1489 25.5995 17.2695 25.6657C17.2695 25.4682 17.2695 25.3181 17.2695 25.168C17.3191 25.1514 17.3686 25.1349 17.4182 25.1183C17.6302 25.6312 17.8423 26.1441 18.0836 26.728C17.5352 26.6249 17.2086 26.8783 17.2079 27.2855C17.2052 28.8154 17.2151 30.3454 17.2007 31.8752C17.1973 32.2343 17.1965 32.5351 17.6471 32.6091C17.7267 32.6222 17.7859 32.7591 17.7514 32.719C17.5258 33.0554 17.3473 33.3212 17.1347 33.5669C17.1004 31.0952 17.1004 28.6436 17.1004 26.192C17.0249 26.1929 16.9495 26.1939 16.874 26.1948C16.874 26.5036 16.8739 26.8123 16.874 27.1211C16.8744 28.9314 16.8712 30.7417 16.8771 32.552C16.8792 33.1843 16.9035 33.8165 16.9177 34.4487C16.7069 34.7115 16.4962 34.9743 16.2492 35.2524ZM16.756 27.2995C16.7419 27.2476 16.7278 27.1957 16.6751 27.0017C16.6751 28.9373 16.6751 30.7282 16.6751 32.519C16.7022 32.5192 16.7294 32.5194 16.7566 32.5195C16.7566 30.81 16.7566 29.1004 16.756 27.2995Z" fill="#0C8DF6"/>
<path d="M19.338 22.6917C19.3381 25.7308 19.3289 28.7184 19.3457 31.7058C19.349 32.2934 19.4674 32.885 19.1084 33.4126C19.0381 33.516 18.9154 33.5836 18.7439 33.73C18.7989 32.9797 18.8773 32.3686 18.8822 31.757C18.8985 29.7219 18.9062 27.6863 18.8781 25.6514C18.869 24.9955 18.6603 24.3378 18.689 23.6873C18.7123 23.1607 18.9545 22.6438 19.0997 22.1226C19.1649 22.1302 19.23 22.1378 19.2952 22.1454C19.3094 22.3103 19.3238 22.4752 19.338 22.6917Z" fill="white"/>
<path d="M24.1098 28.2826C24.0667 28.2345 24.0342 28.1573 24.0592 28.1265C24.9017 27.0872 24.5459 25.8523 24.5973 24.6949C24.6526 23.4485 24.6098 22.1978 24.6098 21.0127C24.4264 20.7336 23.9798 21.4223 24.0227 20.7791C24.0321 20.6394 24.3517 20.5204 24.6483 20.3045C24.1987 20.3495 23.9205 20.3773 23.5915 20.4003C23.9416 20.2514 24.342 20.1073 24.7858 19.9657C24.8299 22.255 24.8069 24.5422 24.8479 26.8283C24.8595 27.4741 24.6916 27.9425 24.1098 28.2826Z" fill="#118CF0"/>
<path d="M19.3367 16.5483C19.1181 16.781 18.8059 16.6912 18.7994 16.41C18.7556 14.5301 18.7308 12.6497 18.7015 10.7695C18.7013 10.757 18.7236 10.7442 18.8473 10.611C18.9103 10.9189 18.9925 11.1405 18.9951 11.3631C19.0083 12.5192 19.0533 13.6789 18.9803 14.8305C18.9411 15.4497 19.2006 15.9519 19.3367 16.5483Z" fill="white"/>
<path d="M18.2009 33.3562C18.3108 32.759 18.3111 32.759 18.1174 32.5759C18.1988 32.2039 18.318 31.9103 18.319 31.6162C18.3317 27.8768 18.3392 24.1372 18.3134 20.3979C18.3099 19.8957 18.1161 19.3948 18.0197 18.8485C18.1843 18.9829 18.3397 19.162 18.5047 19.4082C18.5195 19.5226 18.5249 19.5697 18.5302 19.6169C18.5087 19.8175 18.4682 20.0181 18.4684 20.2186C18.472 24.2862 18.4855 28.3537 18.4769 32.4212C18.4763 32.7303 18.3251 33.0391 18.2009 33.3562Z" fill="#0C8DF6"/>
<path d="M16.9557 34.4468C16.9035 33.8165 16.8792 33.1843 16.8771 32.552C16.8712 30.7417 16.8744 28.9314 16.874 27.1211C16.8739 26.8123 16.874 26.5036 16.874 26.1948C16.9495 26.1939 17.0249 26.1929 17.1004 26.192C17.1004 28.6436 17.1007 31.0952 17.1093 33.599C17.1143 33.7 17.1106 33.7488 17.1044 33.8764C17.1691 34.0711 17.2364 34.1869 17.3038 34.3027C17.2005 34.3501 17.097 34.3975 16.9557 34.4468Z" fill="#A8E9FE"/>
<path d="M18.0103 18.7683C17.8664 18.8744 17.7093 18.9452 17.5527 19.0176C17.4048 19.0861 17.2576 19.1563 17.1102 19.2257C17.0534 19.0524 16.9699 18.8821 16.9499 18.7047C16.9375 18.5947 17.0215 18.4738 17.0919 18.2734C16.9387 18.3249 16.8297 18.327 16.795 18.3788C16.5273 18.7788 16.3387 18.6692 16.1886 18.2953C16.0712 18.0029 15.9695 17.7282 15.5446 17.8986C15.4815 17.9239 15.3145 17.69 15.1912 17.5352C15.1868 17.4944 15.1867 17.4945 15.2263 17.4941C15.32 17.3392 15.3742 17.1847 15.4284 17.0302C16.2847 17.5981 17.1409 18.1659 18.0103 18.7683ZM16.6079 18.1254C16.5409 18.0802 16.474 18.0351 16.407 17.99C16.3911 18.0338 16.3752 18.0777 16.3594 18.1215C16.441 18.1456 16.5226 18.1696 16.6079 18.1254Z" fill="#0C8DF6"/>
<path d="M19.3181 20.8105C19.3667 21.0529 19.3994 21.2603 19.4322 21.4676C19.257 21.4033 18.9465 21.3614 18.9314 21.2706C18.8815 20.9689 18.7206 20.5562 19.278 20.4316C19.2875 20.568 19.2949 20.6716 19.3181 20.8105Z" fill="white"/>
<path d="M18.5703 19.6336C18.5249 19.5697 18.5196 19.5225 18.5251 19.4411C18.815 19.2919 19.0939 19.177 19.4383 19.035C19.3975 19.2725 19.3548 19.5212 19.3006 19.8365C19.0505 19.769 18.8304 19.7096 18.5703 19.6336Z" fill="white"/>
<path d="M17.3247 34.2724C17.2362 34.1869 17.169 34.0711 17.1094 33.9129C17.4362 33.6944 17.7551 33.5182 18.1146 33.3616C17.8854 33.6682 17.6155 33.9552 17.3247 34.2724Z" fill="#0C8DF6"/>
<path d="M15.4257 17.0313C15.3741 17.1847 15.3201 17.3391 15.2263 17.4941C15.0373 17.2972 14.8878 17.0999 14.7835 16.862C14.9192 16.8181 15.0099 16.8146 15.1006 16.8112C15.156 16.8354 15.2114 16.8596 15.2962 16.9357C15.3594 17.0038 15.3931 17.02 15.4269 17.0362C15.4269 17.0362 15.4232 17.0324 15.4257 17.0313Z" fill="#018CFE"/>
<path d="M20.4196 21.3931C20.3562 21.4539 20.2544 21.5146 20.1292 21.5429C20.1977 21.4714 20.2893 21.4322 20.4196 21.3931Z" fill="#118CF0"/>
<path d="M15.082 16.7806C15.0098 16.8147 14.9193 16.8181 14.7827 16.7863C14.7326 16.7043 14.7284 16.6577 14.7242 16.6111C14.7242 16.6111 14.7416 16.5931 14.7502 16.584C14.8605 16.6332 14.9619 16.6916 15.082 16.7806Z" fill="#0C8DF6"/>
<path d="M21.1756 21.1462C21.1236 21.1973 21.0307 21.2494 20.8914 21.2964C20.9416 21.2433 21.0381 21.1953 21.1756 21.1462Z" fill="#118CF0"/>
<path d="M20.7607 21.2909C20.7309 21.3309 20.6593 21.3693 20.544 21.4022C20.5733 21.3609 20.646 21.3251 20.7607 21.2909Z" fill="#118CF0"/>
<path d="M15.4166 17.0079C15.393 17.02 15.3593 17.0038 15.3118 16.9625C15.3342 16.9514 15.3703 16.9656 15.4166 17.0079Z" fill="#0C8DF6"/>
<path d="M10.7898 31.8362C10.4041 31.4858 10.0185 31.1354 9.61608 30.7042C9.5994 28.2459 9.5994 25.8684 9.5994 23.4793C9.79531 23.5134 9.91302 23.5338 10.0307 23.5543C10.0307 23.5543 10.0258 23.5525 10.0161 23.5896C10.0518 23.6403 10.0973 23.6539 10.1428 23.6675C10.1428 23.6675 10.1379 23.665 10.1287 23.7019C10.1646 23.7523 10.2097 23.766 10.2547 23.7796C10.2547 23.7796 10.2499 23.7774 10.2415 23.8136C10.2777 23.8638 10.3222 23.8778 10.3668 23.8919C10.3668 23.8919 10.3621 23.8897 10.3475 23.9276C10.419 24.0157 10.5051 24.0659 10.5913 24.1162C10.5913 24.1162 10.5865 24.1144 10.5793 24.1565C10.6478 24.4193 10.7881 24.6396 10.7893 24.8606C10.8023 27.1857 10.793 29.511 10.7898 31.8362Z" fill="#108EF6"/>
<path d="M10.8188 31.8439C10.7931 29.511 10.8023 27.1857 10.7893 24.8606C10.7881 24.6396 10.6479 24.4193 10.578 24.1543C10.6536 23.9492 10.7819 23.7892 10.784 23.6276C10.8014 22.2955 10.7953 20.9631 10.8038 19.5508C10.8358 19.4434 10.8604 19.4161 10.885 19.3888C10.8996 19.4315 10.9143 19.4741 10.9271 19.5691C10.9508 20.5656 10.9762 21.5097 11.0016 22.4539C11.0029 23.0033 11.0042 23.5528 10.9795 24.1936C10.9442 24.5257 10.9272 24.7664 10.9264 25.0071C10.9182 27.2915 10.9128 29.5759 10.9066 31.8602C10.8869 31.8574 10.8673 31.8545 10.8188 31.8439Z" fill="#BBF8FD"/>
<path d="M10.0212 23.5179C9.91314 23.5338 9.79531 23.5134 9.5994 23.4793C9.5994 25.8684 9.59957 28.2459 9.59295 30.6752C9.52131 30.6891 9.45626 30.6511 9.37776 30.5888C9.38969 30.4576 9.43714 30.3509 9.43728 30.244C9.44036 27.9634 9.43857 25.6828 9.43497 23.4021C9.43485 23.3297 9.40562 23.2573 9.37426 23.1051C9.38997 22.932 9.42136 22.8386 9.45275 22.7452C9.41294 22.5169 9.37306 22.2885 9.33324 22.0601C9.41078 22.0426 9.48832 22.0252 9.56586 22.0078C9.847 22.4515 9.36886 23.1673 10.0212 23.5179Z" fill="#BBF8FD"/>
<path d="M8.15362 29.276C8.12365 27.7539 8.12364 26.2353 8.12364 24.7167C8.19368 24.7161 8.26371 24.7156 8.33374 24.715C8.33374 26.2044 8.33362 27.6938 8.31863 29.2348C8.26358 29.2841 8.22365 29.2817 8.15362 29.276Z" fill="#A8E9FE"/>
<path d="M10.9183 31.8907C10.9128 29.5758 10.9182 27.2915 10.9264 25.0071C10.9272 24.7664 10.9442 24.5257 10.9785 24.2445C11.0143 26.0987 11.028 27.9935 11.0347 29.8883C11.0371 30.5567 11.0224 31.2252 10.9922 31.9336C10.956 31.9561 10.943 31.9386 10.9183 31.8907Z" fill="#65AEE8"/>
<path d="M4.64204 26.5404C4.41946 26.3839 4.19754 26.1862 3.9718 25.9484C4.1253 25.8265 4.28262 25.7446 4.51929 25.6215C4.56033 25.9133 4.60151 26.2062 4.64204 26.5404Z" fill="white"/>
<path d="M3.33942 19.3421C3.28861 19.329 3.25733 19.297 3.22858 19.263C3.22785 19.2621 3.25351 19.2389 3.26686 19.2261C3.29766 19.2584 3.32859 19.2907 3.33942 19.3421Z" fill="white"/>
<path d="M11.3745 1.42836C11.3291 1.44729 11.2836 1.46622 11.2021 1.49298C11.1928 1.35789 11.2197 1.215 11.2466 1.07208C11.3307 1.14373 11.4148 1.21538 11.51 1.32742C11.5212 1.3678 11.5151 1.36536 11.485 1.3631C11.418 1.37129 11.3912 1.3938 11.3745 1.42836Z" fill="white"/>
<path d="M0.435392 10.5769C0.371425 10.5451 0.331832 10.4892 0.292414 10.4332C0.332721 10.4118 0.373029 10.3905 0.413337 10.3691C0.428813 10.4303 0.444465 10.4915 0.435392 10.5769Z" fill="white"/>
<path d="M11.9109 0.577075C11.8699 0.644944 11.8216 0.679105 11.7735 0.713233C11.7605 0.662815 11.7476 0.612399 11.7346 0.561981C11.7909 0.555776 11.8475 0.549538 11.9109 0.577075Z" fill="white"/>
<path d="M11.3774 0.598316C11.4047 0.643138 11.4045 0.687734 11.4011 0.732077C11.401 0.73332 11.3664 0.731913 11.3479 0.731741C11.3484 0.687181 11.3489 0.642611 11.3774 0.598316Z" fill="white"/>
<path d="M14.0215 1.35571C13.909 1.49601 13.7665 1.71255 13.5894 1.74601C13.26 1.80827 12.9104 1.76387 12.6059 1.76387C12.6059 2.16574 12.6301 2.47868 12.597 2.78543C12.5762 2.97798 12.4925 3.30372 12.3962 3.31943C12.1859 3.35377 11.9495 3.22841 11.7237 3.16829C11.7876 3.13254 11.8515 3.09679 11.9154 3.06104C11.9414 2.70758 11.9674 2.35412 12.0023 1.87928C11.539 2.26615 11.1976 2.55117 10.8252 2.86212C10.9503 2.92987 11.0929 3.00716 11.2356 3.08444C11.2187 3.1349 11.2018 3.18537 11.1849 3.23583C10.9058 3.16077 10.6268 3.08571 10.4316 3.03319C8.90549 3.25538 8.68671 5.23216 6.89966 5.23411C6.53499 5.05342 5.90296 5.13744 5.53843 5.66338C5.36537 5.91306 5.40622 6.30934 5.34428 6.6381C5.2532 7.12153 5.20055 7.61821 5.04929 8.08244C4.92203 8.47299 4.6149 8.49651 4.31412 8.22656C3.81491 8.42573 3.54813 8.72937 3.6184 9.30815C3.66878 9.72311 3.00488 10.1079 2.53953 9.98141C2.50915 10.2005 2.47902 10.4196 2.44452 10.6705C2.55771 10.7482 2.6898 10.8388 2.76186 10.8883C3.01223 10.7376 3.24007 10.6005 3.51434 10.4355C3.56371 11.0311 3.60039 11.4736 3.63964 11.9471C3.22085 11.8543 2.86764 11.776 2.62928 11.7232C2.29515 11.8766 2.04274 11.9925 1.74469 12.1072C2.17783 9.82385 3.25729 7.8505 4.81715 6.13813C7.28424 3.42981 10.3392 1.8289 14.0215 1.35571Z" fill="#EFFBFC"/>
<path d="M17.506 1.31204C17.1982 1.47999 16.8556 1.63357 16.5023 1.75651C16.4266 1.78285 16.2832 1.72583 16.2206 1.66C15.8858 1.30739 15.5489 1.38308 15.2086 1.63283C14.8193 1.91856 14.5319 1.85082 14.4012 1.38657C15.4231 1.32244 16.4452 1.30459 17.506 1.31204Z" fill="#EFFBFC"/>
<path d="M1.57558 12.5882C1.64374 12.7837 1.73285 13.0169 1.71573 13.242C1.64342 14.1927 1.53929 15.141 1.41146 16.1219C1.43316 14.9765 1.49052 13.7994 1.57558 12.5882Z" fill="#EFFBFC"/>
<path d="M20.7439 1.54566C20.7818 1.54612 20.8196 1.54659 20.8735 1.60217C20.7402 1.71586 20.5908 1.77444 20.4426 1.83036C20.4439 1.8277 20.4452 1.822 20.4281 1.78174C20.0869 1.68413 19.7629 1.62678 19.4022 1.57181C19.3188 1.56109 19.2721 1.548 19.2253 1.5349C19.4091 1.46191 19.5931 1.38891 19.8268 1.30322C19.9745 1.30498 20.0721 1.31944 20.227 1.38247C20.4373 1.46925 20.5906 1.50745 20.7439 1.54566Z" fill="#2291E9"/>
<path d="M19.1811 1.53625C19.2723 1.548 19.3191 1.5611 19.4112 1.58726C19.4565 1.60033 19.4665 1.63442 19.4665 1.63442C18.8742 1.8945 18.3523 1.62531 17.7964 1.38577C18.2257 1.41657 18.6812 1.47708 19.1811 1.53625Z" fill="#EFFBFC"/>
<path d="M1.40654 16.7519C1.94528 16.9171 1.69854 17.3226 1.61855 17.7046C1.52093 17.4204 1.4608 17.1086 1.40654 16.7519Z" fill="#EFFBFC"/>
<path d="M1.67464 12.1768C1.69438 12.1979 1.68805 12.2408 1.65879 12.3071C1.63994 12.2866 1.64451 12.2427 1.67464 12.1768Z" fill="#EFFBFC"/>
<path d="M11.4028 1.43099C11.3914 1.3938 11.418 1.37131 11.4822 1.36169C11.4831 1.38623 11.4571 1.40991 11.4028 1.43099Z" fill="#EFFBFC"/>
<path d="M1.63177 18.0924C1.65802 18.0957 1.68027 18.1328 1.70042 18.2038C1.67462 18.2005 1.65146 18.1634 1.63177 18.0924Z" fill="#EFFBFC"/>
<path d="M30.5368 13.2965C30.3762 13.365 30.221 13.385 30.0673 13.4139C29.9151 13.4426 29.7646 13.4804 29.6134 13.5142C29.5921 13.4519 29.5708 13.3896 29.5495 13.3274C29.6828 13.2235 29.816 13.1196 29.9841 12.9885C29.5515 12.4897 29.1205 11.9927 28.6894 11.4957C29.6604 11.5084 29.6604 11.5084 29.7073 10.9964C29.5613 11.0502 29.4359 11.0964 29.31 11.1428C29.2851 11.1219 29.2594 11.0982 29.2316 11.0772C28.4728 10.5066 29.1469 9.79038 28.9882 8.98725C28.4303 8.95966 27.8165 8.92931 27.1737 8.89751C26.9475 8.45026 26.9186 8.01761 27.4237 7.62866C27.5461 7.5344 27.506 7.2291 27.5575 6.91966C27.3212 7.01321 27.1968 7.06243 27.0615 7.116C26.9329 6.84388 27.184 6.33337 26.7531 6.29117C26.5693 6.5743 26.4867 6.85927 26.3282 6.9108C26.0468 7.00227 25.3265 6.25631 25.4313 5.99181C25.4903 5.84277 25.7581 5.7764 26.0229 5.61847C26.0253 5.62424 25.9626 5.41114 25.9331 5.41564C25.3993 5.4969 24.8925 4.80654 24.3249 5.3794C24.1832 5.21937 24.0421 5.06017 23.8971 4.89654C23.7711 5.1114 23.684 5.26008 23.5968 5.40876C23.5486 5.38467 23.5005 5.36058 23.4523 5.3365C23.4272 5.04861 23.3989 4.76094 23.3787 4.47272C23.3722 4.38056 23.364 4.27814 23.3957 4.19534C23.6491 3.53193 23.6371 3.44652 22.8785 3.38806C22.3549 3.34771 22.2717 3.07785 22.2532 2.6295C23.9737 3.28574 25.4425 4.35822 26.7324 5.67731C28.8033 7.79521 30.0883 10.3168 30.5368 13.2965Z" fill="#EFFBFC"/>
<path d="M25.8465 25.5113C25.8892 25.1567 25.9334 24.7834 26.0621 24.442C26.1033 24.3328 26.385 24.2293 26.5285 24.259C27.0639 24.3701 26.9589 24.0441 26.9381 23.7399C26.9221 23.5056 26.9301 23.269 26.9387 23.0339C26.9472 22.7988 27.0029 22.5609 26.9796 22.3302C26.9201 21.7415 27.3401 21.4245 27.9175 21.6447C28.3058 21.7927 28.8136 21.4629 28.8419 21.0448C28.8899 20.3356 28.8851 19.617 29.0095 18.9214C29.0707 18.5791 29.3819 18.2852 29.5593 17.9582C29.6444 17.8013 29.706 17.622 29.7318 17.446C29.7495 17.3258 29.6416 17.1826 29.6696 17.0694C29.727 16.8373 29.838 16.6185 29.9269 16.3942C30.0293 16.5618 30.1236 16.7353 30.2381 16.8942C30.285 16.9593 30.3756 16.9929 30.4883 17.0421C30.2343 18.1612 29.938 19.2789 29.6365 20.4361C28.7177 22.4031 27.5396 24.1332 25.8465 25.5113Z" fill="#EFFBFC"/>
<path d="M30.5954 16.5639C30.5285 16.2872 30.4546 15.9715 30.4512 15.655C30.4452 15.0898 30.4819 14.5242 30.5376 13.9275C30.5896 14.7724 30.6048 15.6485 30.5954 16.5639Z" fill="#EFFBFC"/>
<path d="M20.4414 1.83301C20.5908 1.77444 20.7402 1.71586 20.8985 1.61673C21.0788 1.62879 21.2503 1.6814 21.4106 1.76073C21.3271 1.82834 21.2547 1.86922 21.1822 1.9101C21.1921 1.93905 21.2019 1.96799 21.2118 1.99693C21.3902 1.99693 21.5687 1.99693 21.7471 1.99693C21.7471 1.99693 21.7788 1.99001 21.7919 1.99952C21.8332 2.1042 21.8613 2.19936 21.8608 2.32705C21.7539 2.34183 21.6757 2.32409 21.5975 2.30636C21.541 2.27835 21.4844 2.25034 21.3686 2.19328C21.02 2.05382 20.7307 1.94342 20.4414 1.83301Z" fill="#2893E7"/>
<path d="M21.5986 2.35337C21.6759 2.32408 21.7541 2.34182 21.8722 2.36297C21.9901 2.41184 22.0679 2.45728 22.1686 2.52904C21.994 2.5037 21.7968 2.45204 21.5986 2.35337Z" fill="#EFFBFC"/>
<path d="M22.4584 21.4087C22.6044 21.6127 22.7503 21.8166 22.9444 22.0877C22.0286 22.1357 22.5104 22.6942 22.3038 23.0646C22.8462 22.8288 23.5194 22.8462 23.2395 22.2067C23.4483 22.3361 23.7376 22.4756 23.9737 22.6774C24.1048 22.7895 24.254 23.0456 24.2085 23.1668C24.0946 23.4705 24.3704 23.979 23.7904 24.0661C23.7606 24.0705 23.7264 24.1581 23.723 24.2089C23.6311 25.5718 23.5429 26.9349 23.4517 28.3364C23.6952 28.3065 23.839 28.2889 24.0278 28.2789C23.8698 28.4894 23.6668 28.6923 23.4298 28.8539C23.3958 26.9995 23.3958 25.1863 23.3958 23.373C23.3342 23.3671 23.2726 23.3612 23.211 23.3553C23.1849 23.5028 23.1588 23.6504 23.1354 23.8401C23.151 23.9657 23.164 24.0492 23.1774 24.1701C23.1774 24.2821 23.1769 24.3568 23.1648 24.4757C23.1431 24.6102 23.1331 24.7006 23.0984 24.7575C23.0052 24.4253 22.9368 24.1265 22.8325 23.6711C22.6326 24.0551 22.3974 24.3035 22.3879 24.5603C22.3463 25.6878 22.37 26.8177 22.37 27.9467C22.417 27.9701 22.464 27.9935 22.511 28.0169C22.7177 27.7986 22.9244 27.5803 23.1383 27.3943C23.17 27.4863 23.1946 27.5459 23.222 27.6388C23.2235 27.7167 23.2223 27.7613 23.1991 27.8423C23.1869 28.16 23.1967 28.4412 23.2072 28.755C23.2184 28.8293 23.2288 28.871 23.2393 28.9128C23.2393 28.9128 23.2198 28.9071 23.1855 28.9076C23.1191 28.9144 23.0868 28.9159 23.0288 28.8857C22.2645 28.3866 22.0863 27.7153 22.1267 26.8583C22.1961 25.3861 22.1258 23.9078 22.1588 22.4331C22.1665 22.0896 22.3538 21.7501 22.4584 21.4087Z" fill="#118CF0"/>
<path d="M22.456 21.3938C22.3537 21.7501 22.1665 22.0896 22.1588 22.4331C22.1258 23.9078 22.1961 25.3861 22.1267 26.8583C22.0863 27.7153 22.2645 28.3865 23.0285 28.9269C23.0506 29.0222 23.0477 29.0495 23.0448 29.0767C23.0448 29.0767 23.0583 29.1106 23.0194 29.1154C22.7295 28.8889 22.4787 28.6575 22.1686 28.3716C22.1686 29.0318 22.1686 29.5846 22.1686 30.1374C22.1058 30.2079 22.0432 30.2783 21.9497 30.3661C21.9181 29.8606 21.8887 29.3356 21.9249 28.8153C21.957 28.3529 21.8673 27.9725 21.4784 27.6389C21.4984 27.5625 21.5141 27.5447 21.5298 27.5269C21.6362 27.5944 21.7427 27.6618 21.917 27.7723C21.917 26.3864 21.9485 25.0538 21.9046 23.7237C21.8801 22.9808 22.1207 22.2058 21.7016 21.4885C21.6619 21.4205 21.8081 21.1389 21.8603 21.1411C22.0396 21.1486 22.2155 21.2382 22.4248 21.3227C22.4569 21.3488 22.4536 21.3789 22.456 21.3938Z" fill="#94E9FF"/>
<path d="M22.1833 30.1404C22.1687 29.5846 22.1686 29.0318 22.1686 28.3716C22.4787 28.6575 22.7296 28.8889 23.0153 29.1332C23.0543 29.1668 23.0584 29.1875 23.0544 29.2647C23.0431 29.3407 23.0401 29.3599 23.037 29.3792C22.8608 29.5439 22.6846 29.7086 22.4553 29.9105C22.3441 30.0117 22.2859 30.0758 22.2276 30.1398C22.2276 30.1398 22.198 30.1433 22.1833 30.1404Z" fill="#2291E9"/>
<path d="M23.2211 27.8059C23.2223 27.7613 23.2236 27.7167 23.2363 27.5867C23.2241 26.478 23.2003 25.4548 23.1765 24.4315C23.177 24.3568 23.1774 24.2821 23.1988 24.1431C23.1907 23.9852 23.1617 23.8915 23.1328 23.7979C23.1589 23.6504 23.1849 23.5028 23.211 23.3553C23.2726 23.3612 23.3342 23.3671 23.3958 23.373C23.3958 25.1863 23.3959 26.9995 23.3957 28.8632C23.3696 28.9162 23.3436 28.9188 23.2785 28.9171C23.2289 28.871 23.2184 28.8293 23.2267 28.7071C23.2373 28.353 23.2292 28.0794 23.2211 27.8059Z" fill="#BBF8FD"/>
<path d="M26.0764 26.4672C26.1338 26.4004 26.1916 26.3701 26.2492 26.3399C26.2496 26.4242 26.25 26.5085 26.2504 26.5928C26.1925 26.5631 26.1345 26.5335 26.0764 26.4672Z" fill="white"/>
<path d="M22.2626 30.1395C22.2859 30.0758 22.344 30.0117 22.4351 29.9404C22.4111 30.0019 22.3543 30.0705 22.2626 30.1395Z" fill="#94E9FF"/>
<path d="M23.0769 29.0646C23.0478 29.0495 23.0505 29.0223 23.0538 28.9538C23.0867 28.9159 23.1191 28.9144 23.1753 28.9083C23.1692 28.9565 23.1391 29.0045 23.0769 29.0646Z" fill="#65AEE8"/>
<path d="M23.0579 29.3754C23.0401 29.3599 23.043 29.3406 23.0601 29.2957C23.0853 29.2937 23.0993 29.3167 23.1059 29.3416C23.1078 29.3487 23.0884 29.3614 23.0579 29.3754Z" fill="#94E9FF"/>
<path d="M21.7326 1.96392C21.5686 1.99694 21.3902 1.99693 21.2118 1.99693C21.2019 1.96799 21.1921 1.93905 21.1822 1.9101C21.2547 1.86922 21.3273 1.82836 21.4414 1.78413C21.5615 1.83083 21.6397 1.88085 21.7326 1.96392Z" fill="#2291E9"/>
<path d="M20.7171 1.51572C20.5906 1.50746 20.4374 1.46925 20.2623 1.3971C20.3904 1.40402 20.5403 1.4449 20.7171 1.51572Z" fill="#2893E7"/>
<path d="M31.5215 16.2078C31.5723 16.2209 31.6034 16.2529 31.6321 16.2869C31.6329 16.2878 31.6072 16.311 31.5939 16.3238C31.5631 16.2915 31.5323 16.2592 31.5215 16.2078Z" fill="white"/>
<path d="M20.4426 1.83036C20.7307 1.94342 21.02 2.05383 21.3361 2.19264C21.0819 2.35384 20.8011 2.48662 20.3956 2.67826C20.4307 2.7496 20.5272 2.94587 20.6847 3.26618C20.4332 3.28834 20.2003 3.34745 19.9874 3.30537C19.9186 3.29178 19.8928 3.01411 19.864 2.85424C19.7986 2.49225 19.7433 2.12841 19.7223 1.72178C19.9887 1.72618 20.217 1.77409 20.4452 1.82201C20.4452 1.82201 20.4439 1.8277 20.4426 1.83036Z" fill="#EFFBFC"/>
<path d="M20.4281 1.78174C20.217 1.77408 19.9889 1.72618 19.7171 1.68053C19.6284 1.66797 19.5831 1.65311 19.5022 1.63634C19.4665 1.6344 19.4565 1.60034 19.4477 1.5849C19.763 1.6268 20.0869 1.68413 20.4281 1.78174Z" fill="#2893E7"/>
<path d="M21.7835 3.16252C21.8214 3.29203 21.8216 3.41425 21.8216 3.53646C21.7501 3.526 21.6786 3.51554 21.6071 3.50507C21.6534 3.38846 21.6994 3.27184 21.7835 3.16252Z" fill="#EFFBFC"/>
<path d="M9.35297 14.0167C9.25817 13.9205 9.16364 13.8243 9.06884 13.7281C9.12398 13.6914 9.17912 13.6546 9.23426 13.6178C9.2737 13.7237 9.313 13.8296 9.35264 13.9762C9.35284 14.0169 9.35297 14.0167 9.35297 14.0167Z" fill="#EFFBFC"/>
<path d="M10.2082 13.1378C10.1058 13.2302 10.0039 13.2871 9.90172 13.3441C9.87948 13.2863 9.85724 13.2286 9.835 13.1708C9.95955 13.148 10.0839 13.1252 10.2082 13.1378Z" fill="#EFFBFC"/>
<path d="M4.14739 8.91462C4.08457 8.85275 4.05499 8.77588 4.0253 8.699C4.08925 8.6917 4.1532 8.6844 4.21715 8.6771C4.20498 8.75127 4.1927 8.82544 4.14739 8.91462Z" fill="#EFFBFC"/>
<path d="M29.1027 17.9878C29.1297 18.0321 29.1296 18.0761 29.1262 18.1198C29.1261 18.1211 29.092 18.1197 29.0738 18.1195C29.0742 18.0755 29.0746 18.0315 29.1027 17.9878Z" fill="#EFFBFC"/>
<path d="M8.3276 22.1122C8.18817 21.8314 7.98553 21.5638 7.92293 21.2668C7.8025 20.6953 7.74438 20.1084 7.69902 19.5249C7.68724 19.3733 7.81814 19.2106 7.8835 19.053C7.95907 19.0646 8.03465 19.0763 8.11022 19.0879C8.12269 19.3369 8.13041 19.5862 8.14854 19.8348C8.20021 20.5433 7.91453 21.2874 8.36742 22.0108C8.35264 22.0826 8.34012 22.0974 8.3276 22.1122Z" fill="#94E9FF"/>
<path d="M10.9289 19.5168C10.9143 19.4741 10.8996 19.4315 10.885 19.3888C10.8604 19.4161 10.8358 19.4434 10.8036 19.499C10.7542 19.4908 10.6829 19.4592 10.6757 19.4168C10.643 19.2248 10.6285 19.0299 10.6075 18.836C10.7752 18.8286 10.9429 18.8213 11.1105 18.8139C11.0972 19.0229 11.0838 19.2319 11.0231 19.4755C10.9758 19.5101 10.9289 19.5168 10.9289 19.5168Z" fill="#86CEEC"/>
<path d="M10.9271 19.5691C10.9289 19.5168 10.9758 19.5101 10.9993 19.5072C11.0241 20.4519 11.0255 21.3995 11.0143 22.4005C10.9762 21.5097 10.9508 20.5656 10.9271 19.5691Z" fill="#65AEE8"/>
<path d="M9.41546 22.753C9.42131 22.8386 9.38986 22.932 9.35469 23.0624C9.11918 22.8792 8.88743 22.6591 8.66083 22.3856C8.68073 22.3177 8.69549 22.303 8.71025 22.2884C8.93289 22.4458 9.15559 22.6033 9.41546 22.753Z" fill="#94E9FF"/>
<path d="M10.5884 24.0797C10.5052 24.0659 10.4189 24.0157 10.3465 23.9252C10.4352 23.9377 10.5103 23.9905 10.5884 24.0797Z" fill="#BBF8FD"/>
<path d="M8.38638 22.0479C8.46104 22.0577 8.51461 22.0874 8.56234 22.1688C8.54254 22.2398 8.52858 22.259 8.51461 22.2783C8.46226 22.2419 8.4099 22.2055 8.34263 22.1407C8.34022 22.0974 8.35275 22.0827 8.38638 22.0479Z" fill="#94E9FF"/>
<path d="M10.3639 23.8588C10.3223 23.8778 10.2779 23.8638 10.2406 23.8112C10.2856 23.7903 10.3232 23.808 10.3639 23.8588Z" fill="#BBF8FD"/>
<path d="M10.2513 23.7472C10.2098 23.766 10.1648 23.7523 10.1277 23.6994C10.173 23.6784 10.2103 23.6966 10.2513 23.7472Z" fill="#BBF8FD"/>
<path d="M10.1375 23.6359C10.0974 23.6539 10.0521 23.6403 10.0151 23.5873C10.0598 23.5667 10.0958 23.5855 10.1375 23.6359Z" fill="#BBF8FD"/>
<path d="M8.64292 22.3532C8.59004 22.3601 8.56351 22.3415 8.52744 22.2983C8.52856 22.259 8.54257 22.2397 8.58105 22.1944C8.6407 22.1827 8.66808 22.2061 8.69905 22.2635C8.69555 22.303 8.68083 22.3177 8.64292 22.3532Z" fill="#94E9FF"/>
<path d="M15.6357 30.6202C15.6357 28.7923 15.6358 27.0205 15.6358 25.2487C15.6624 25.2487 15.689 25.2488 15.7155 25.2488C15.7155 28.149 15.7155 31.0492 15.7155 33.9494C15.689 33.9501 15.6624 33.9508 15.6358 33.9515C15.6358 32.8598 15.6357 31.768 15.6357 30.6202Z" fill="#018CFE"/>
<path d="M16.1964 23.4289C16.2172 22.7176 16.2174 22.0312 16.2174 21.3448C16.2947 21.3443 16.372 21.3438 16.4493 21.3433C16.4493 22.1266 16.4493 22.9098 16.4493 23.7548C16.3483 23.6906 16.2549 23.6312 16.1468 23.5367C16.1467 23.4856 16.161 23.4697 16.1964 23.4289Z" fill="#A8E9FE"/>
<path d="M14.2756 20.8761C14.2072 20.7925 14.0776 20.7045 14.0832 20.6262C14.095 20.4622 14.1433 20.2727 14.2466 20.1553C14.2977 20.0972 14.6195 20.1664 14.6217 20.194C14.6386 20.401 14.6062 20.6119 14.5386 20.8194C14.4171 20.8368 14.3464 20.8564 14.2756 20.8761Z" fill="#86CEEC"/>
<path d="M14.281 20.9241C14.3464 20.8564 14.4173 20.8368 14.5061 20.8456C14.5541 21.208 14.5838 21.542 14.6124 21.9363C14.5983 22.011 14.5854 22.0252 14.5726 22.0394C14.096 21.7859 14.3735 21.3302 14.281 20.9241Z" fill="#A8E9FE"/>
<path d="M14.6867 16.6074C14.7284 16.6577 14.7326 16.7043 14.7374 16.7862C14.6439 16.7898 14.5498 16.7582 14.4557 16.7266C14.5202 16.6857 14.5848 16.6447 14.6867 16.6074Z" fill="#018CFE"/>
<path d="M14.7025 22.1272C14.6525 22.1275 14.627 22.105 14.5883 22.0594C14.5853 22.0252 14.5981 22.011 14.6315 21.9765C14.6867 21.9693 14.7155 21.9902 14.7517 22.0428C14.7513 22.0801 14.7376 22.0939 14.7025 22.1272Z" fill="#A8E9FE"/>
<path d="M16.4353 24.9034C16.5498 25.0056 16.6226 25.1097 16.6952 25.2138C16.5807 25.2255 16.4662 25.2372 16.3516 25.2489C16.3656 25.1343 16.3794 25.0198 16.4353 24.9034Z" fill="#0C8DF6"/>
<path d="M16.0623 20.3141C16.0485 20.4147 16.0262 20.4812 16.0038 20.5477C15.9692 20.5524 15.9347 20.5571 15.9001 20.5619C15.8877 20.4469 15.8752 20.3319 15.8628 20.2169C15.9265 20.2379 15.99 20.259 16.0623 20.3141Z" fill="#0C8DF6"/>
<path d="M16.7523 19.694C16.7251 19.6496 16.7254 19.6053 16.7287 19.5613C16.7288 19.5601 16.7631 19.5615 16.7815 19.5617C16.781 19.6059 16.7805 19.6501 16.7523 19.694Z" fill="#0C8DF6"/>
<path d="M17.8352 19.5739C17.8855 19.5869 17.9166 19.6186 17.9451 19.6523C17.9458 19.6532 17.9204 19.6761 17.9072 19.6888C17.8766 19.6568 17.8459 19.6248 17.8352 19.5739Z" fill="#0C8DF6"/>
<path d="M21.4577 27.6057C20.4037 26.8414 19.827 25.6569 20.115 24.8657C20.295 24.9188 20.4781 24.9728 20.7281 25.0465C20.6362 25.2404 20.5098 25.4068 20.4799 25.5891C20.3993 26.0799 20.4147 26.5469 20.896 26.88C21.1221 27.0364 21.296 27.2681 21.5118 27.4963C21.5142 27.5447 21.4984 27.5625 21.4577 27.6057Z" fill="#94E9FF"/>
<path d="M23.2752 21.492C23.3254 21.2801 23.4126 21.0698 23.4997 20.8596C23.5704 20.8951 23.6411 20.9307 23.7119 20.9662C23.5786 21.1421 23.4453 21.3179 23.2752 21.492Z" fill="#118CF0"/>
<path d="M24.229 21.7626C24.1848 21.7896 24.1409 21.7894 24.0972 21.786C24.0959 21.7859 24.0973 21.7518 24.0975 21.7336C24.1414 21.7341 24.1853 21.7345 24.229 21.7626Z" fill="#118CF0"/>
<path d="M16.7563 27.3452C16.7566 29.1004 16.7566 30.81 16.7566 32.5195C16.7294 32.5194 16.7022 32.5192 16.6751 32.519C16.6751 30.7282 16.6751 28.9373 16.6751 27.0017C16.7278 27.1957 16.7419 27.2476 16.7563 27.3452Z" fill="#018CFE"/>
<path d="M16.606 18.1595C16.5225 18.1696 16.441 18.1456 16.3594 18.1215C16.3752 18.0777 16.3911 18.0338 16.407 17.99C16.474 18.0351 16.5409 18.0803 16.606 18.1595Z" fill="#018CFE"/>
<path d="M23.1313 27.362C22.9245 27.5803 22.7177 27.7986 22.511 28.0169C22.464 27.9935 22.417 27.9701 22.37 27.9467C22.37 26.8177 22.3463 25.6878 22.3879 24.5603C22.3974 24.3035 22.6326 24.0551 22.8325 23.6711C22.9368 24.1265 23.0053 24.4253 23.1042 24.7996C23.1318 24.96 23.129 25.0449 23.0986 25.1656C23.0055 25.8065 22.9351 26.4112 22.8856 27.0176C22.8826 27.0538 23.0462 27.1037 23.1359 27.183C23.1368 27.2665 23.1341 27.3142 23.1313 27.362Z" fill="#018CFE"/>
<path d="M23.1383 27.3943C23.134 27.3142 23.1369 27.2665 23.1427 27.1303C23.1392 26.4045 23.1327 25.7671 23.1261 25.1297C23.129 25.0448 23.1319 24.96 23.129 24.833C23.1332 24.7005 23.1431 24.6102 23.1648 24.4757C23.2002 25.4547 23.2242 26.4779 23.2336 27.5533C23.1947 27.5458 23.17 27.4863 23.1383 27.3943Z" fill="#65AEE8"/>
<path d="M23.1991 27.8423C23.2291 28.0794 23.2372 28.353 23.2259 28.6745C23.1966 28.4412 23.1869 28.16 23.1991 27.8423Z" fill="#65AEE8"/>
<path d="M23.1354 23.8401C23.1617 23.8915 23.1907 23.9851 23.1983 24.1057C23.164 24.0492 23.151 23.9657 23.1354 23.8401Z" fill="#65AEE8"/>
<path d="M23.0986 25.1656C23.1326 25.7671 23.1389 26.4045 23.1388 27.0946C23.046 27.1037 22.8826 27.0538 22.8856 27.0176C22.9351 26.4112 23.0055 25.8065 23.0986 25.1656Z" fill="#118CF0"/>
</svg>
