<svg width="127" height="64" viewBox="0 0 127 64" fill="none" xmlns="http://www.w3.org/2000/svg">
<path d="M35.5861 57.1619C35.5582 57.3792 35.5654 57.6083 35.4953 57.8115C35.3392 58.2644 35.0089 58.7003 34.9946 59.1506C34.9676 60.0007 34.4747 60.0672 33.8178 60.1166C33.2361 60.1604 32.6592 60.3007 32.0877 60.4304C31.4442 60.5763 31.4629 60.951 31.7118 61.4621C31.9529 61.9571 32.1035 62.4949 32.3833 63.2579C31.1743 62.923 30.0458 63.9556 29.3557 62.57C28.9669 62.881 28.6096 63.217 28.199 63.4683C28.0546 63.5568 27.7796 63.4379 27.6105 63.3366C27.6957 63.2521 27.7346 63.2447 27.8352 63.2309C28.1232 62.9968 28.3495 62.7689 28.6319 62.525C28.7841 62.3947 28.8802 62.2804 29.0411 62.1392C29.4827 61.649 29.8593 61.1858 30.3039 60.7192C30.5565 60.6323 30.741 60.5488 30.9633 60.4118C31.4831 59.8525 31.9652 59.3467 32.4447 58.8328C32.442 58.8248 32.4523 58.8113 32.5293 58.7968C32.7513 58.2377 33.0215 57.6935 33.0226 57.1486C33.038 49.9788 33.0138 42.8088 33.0074 35.6388C33.0071 35.2853 33.0794 34.9318 33.1895 34.6076C33.6544 34.7416 34.0477 34.8463 34.4948 34.9653C34.5916 34.4095 34.6679 33.9711 34.7408 33.5525C34.1253 33.8027 33.6267 34.0053 33.0917 34.15C32.7774 33.7763 32.4996 33.4605 32.2156 33.1677C32.2095 33.1906 32.2122 33.1433 32.1887 33.0823C30.6348 32.0204 29.1044 31.0195 27.5694 30.0205C27.5649 30.0223 27.5712 30.0291 27.5531 29.9793C27.4704 29.9046 27.4058 29.8797 27.3131 29.8076C27.1861 29.7178 27.0871 29.6752 26.9551 29.5785C26.7405 29.4216 26.5588 29.3187 26.3397 29.16C25.5251 28.59 24.7478 28.0758 23.9069 27.5195C23.8255 27.8237 23.7794 27.9156 23.7794 28.0076C23.7732 38.4134 23.7643 48.8192 23.7909 59.2249C23.7919 59.6269 24.0469 60.1118 24.3375 60.4141C25.2315 61.3442 26.2003 62.2043 27.1328 63.1376C27.1256 63.1835 27.1189 63.2762 27.1189 63.2762C26.4738 63.0231 25.6093 63.5532 25.1124 62.7289C25.0796 62.6745 24.7731 62.6838 24.7482 62.7356C24.2341 63.807 23.3078 62.8392 22.6678 63.2402C22.5715 63.1892 22.4751 63.1383 22.3788 63.0874C22.5802 62.4233 22.7207 61.7329 23.0009 61.1029C23.2549 60.5317 23.1222 60.1532 22.49 60.1057C21.6155 60.04 20.7404 59.9827 19.9136 59.9251C19.9136 59.0839 19.9136 58.1963 19.9288 57.2116C19.9439 57.1144 19.9791 57.0778 20.0417 57.1014C20.6769 57.6305 21.2494 58.136 21.9757 58.7772C21.9757 46.7806 21.9757 35.0292 21.9757 23.0504C18.7963 24.9381 15.7833 26.727 12.7496 28.4989C12.729 28.4819 12.6882 28.4474 12.6957 28.373C12.8382 27.7143 12.9732 27.1301 13.0917 26.617C13.444 26.4749 13.9569 26.4187 14.0349 26.2068C14.2274 25.6838 14.4838 25.7492 14.9359 25.7736C15.72 25.8158 16.4151 25.5351 16.7159 24.7066C16.7159 24.7066 16.7156 24.7069 16.7867 24.6999C17.7699 23.9632 18.6818 23.2335 19.614 22.4877C19.6676 22.6595 19.7566 22.9445 19.8752 23.3243C20.1817 22.8828 20.4305 22.5244 20.6693 22.1806C21.7493 22.6348 22.6554 22.0201 22.7456 20.9471C22.8501 19.7042 22.5847 18.4982 22.7943 17.1973C23.0394 15.6766 23.7659 14.8405 24.8359 14.0338C25.1532 13.7946 25.4864 13.5758 25.8127 13.3475C25.9168 13.4913 26.0204 13.6353 25.9939 13.5985C26.5721 13.3774 27.0029 13.1265 27.4626 13.054C28.5331 12.8853 28.9022 12.5107 28.9521 11.391C28.9626 11.1555 29.0353 10.9228 29.0463 10.8645C30.1094 10.8645 31.0131 10.8645 32.0628 10.8645C32.0907 10.6339 32.0754 10.3032 32.1841 10.0185C32.2604 9.81882 32.5071 9.54057 32.6756 9.542C33.3505 9.54772 34.0246 9.64892 34.6733 9.71231C34.7048 10.08 34.6459 10.5252 34.7944 10.8878C35.0995 11.6324 34.9386 11.958 34.114 12.1105C33.3013 12.2609 33.3035 12.3526 33.5515 13.1205C33.8223 12.9755 34.0972 12.8282 34.5032 12.6107C34.5267 13.0634 34.556 13.3768 34.5571 13.6903C34.5621 15.2031 34.5699 16.7161 34.5532 18.2288C34.5482 18.6872 34.6283 19.0158 35.1718 19.0783C35.1568 24.9399 35.1568 30.711 35.1568 36.6225C36.2995 36.2411 37.2597 35.8755 38.2471 35.6077C38.8571 35.4423 38.9968 35.117 38.9944 34.5453C38.9763 30.3338 38.9684 26.1221 39.0036 21.9108C39.0092 21.2463 38.7559 20.9016 38.2052 20.6085C37.2402 20.0948 36.3049 19.5272 35.4032 18.9267C35.8466 18.9641 36.2715 18.9977 36.6352 19.1626C37.2946 19.4617 38.34 19.1188 38.5581 18.505C38.7553 17.9499 39.0339 17.4231 39.2337 16.8687C39.3455 16.5584 39.37 16.2175 39.4454 15.831C40.5737 15.5951 40.5414 16.9038 41.1664 17.4183C41.2673 16.9665 41.2548 16.4224 41.4261 16.3587C42.1974 16.0717 43.0209 15.921 43.907 15.701C43.7276 16.6066 43.6081 17.21 43.4781 17.8659C43.542 17.9161 43.6577 17.9826 43.7416 18.0767C44.2483 18.6451 45.0776 18.9777 44.9887 19.9662C44.8772 21.2056 44.7902 22.4527 44.7981 23.6958C44.8154 26.423 44.8858 29.1502 44.9603 31.8766C45.0145 33.8612 45.0327 33.86 43.3458 34.2928C43.3189 34.2997 43.3173 34.4026 43.3285 34.354C43.7172 34.6406 44.0668 34.8983 44.4062 35.1664C44.3958 35.1768 44.3751 35.1973 44.2981 35.193C43.505 35.4426 42.7889 35.6965 42.0501 35.939C42.0273 35.9275 41.9878 35.9595 41.9088 35.959C40.5254 36.3911 39.2212 36.8238 37.9191 37.2602C37.9212 37.264 37.9189 37.2723 37.8458 37.2739C37.6001 37.3603 37.4276 37.4451 37.2358 37.5179C37.2165 37.5059 37.1793 37.5319 37.1044 37.529C36.8993 37.5892 36.7691 37.6523 36.621 37.7024C36.6032 37.6893 36.5636 37.7092 36.4947 37.7091C36.2618 37.778 36.0979 37.8471 35.8706 37.9186C35.7283 37.9492 35.6493 37.9775 35.4873 38.0102C35.3124 38.3071 35.1413 38.5996 35.1404 38.8925C35.1223 44.7008 35.1188 50.5092 35.1389 56.3175C35.1398 56.5773 35.3928 56.8362 35.5427 57.1122C35.557 57.1289 35.5861 57.1619 35.5861 57.1619ZM23.882 16.1705C23.8478 18.901 23.8405 21.6322 23.7621 24.3615C23.7403 25.1229 24.0273 25.5611 24.6444 25.9669C26.9491 27.4825 29.2225 29.0447 31.5088 30.5876C31.9363 30.8761 32.3694 31.1564 32.9375 31.5312C32.9375 24.5454 32.9375 17.7588 32.9375 10.794C29.8621 12.5926 26.9172 14.3149 23.882 16.1705ZM40.9427 34.6866C41.8602 34.3824 42.8 34.1282 43.6829 33.7463C43.9864 33.615 44.3415 33.1668 44.3449 32.8598C44.3913 28.7749 44.3828 24.6893 44.3732 20.6038C44.3726 20.3604 44.3246 19.9886 44.1658 19.8942C42.7624 19.0605 41.3288 18.2761 39.8453 17.4441C39.8453 23.4093 39.8453 29.1805 39.8453 35.0244C40.2261 34.9106 40.5088 34.8262 40.9427 34.6866ZM34.5614 39.9074C34.536 39.6166 34.5106 39.3259 34.4852 39.0351C34.3687 39.0218 34.2521 39.0084 34.1356 38.995C33.8763 39.9138 33.4432 40.8249 33.4017 41.7531C33.3504 42.8997 33.7234 44.0591 33.7396 45.2153C33.7899 48.8022 33.7761 52.3904 33.747 55.9778C33.7382 57.0559 33.598 58.1331 33.4998 59.4556C33.8063 59.1976 34.0257 59.0784 34.1513 58.8962C34.7929 57.9662 34.5812 56.9233 34.5753 55.8875C34.5454 50.6215 34.5615 45.3552 34.5614 39.9074ZM34.5609 29.0918C34.316 28.1178 33.8522 27.2325 33.9223 26.1411C34.0528 24.1111 33.9724 22.0669 33.9487 20.029C33.9442 19.6367 33.7973 19.246 33.6847 18.7032C33.4635 18.938 33.4237 18.9606 33.424 18.9827C33.4764 22.297 33.5206 25.6115 33.5989 28.9252C33.6106 29.421 34.1686 29.5791 34.5609 29.0918ZM34.4974 36.6201C34.4844 36.4374 34.4714 36.2547 34.4543 36.0143C33.4582 36.2339 33.7457 36.9613 33.835 37.4932C33.8618 37.6533 34.4168 37.7271 34.7299 37.8404C34.6713 37.475 34.6128 37.1095 34.4974 36.6201Z" fill="#EFFBFC"/>
<path d="M7.09212 45.6688C7.23783 45.2676 7.38354 44.8665 7.52926 44.4653C7.63229 44.4788 7.73532 44.4923 7.83836 44.5059C7.47962 43.6678 5.91951 43.3338 6.76659 41.9707C8.13192 43.465 9.41297 45.0244 11.2406 46.1909C11.4373 44.9995 10.5098 44.7047 9.98633 44.1948C6.6419 40.9367 4.18512 37.1788 3.18262 32.6293C4.13697 34.2015 5.32718 33.2058 6.48842 32.9168C6.48842 33.8534 6.51775 34.6982 6.46944 35.5386C6.45602 35.7721 6.24364 36.0205 6.06748 36.2131C5.7628 36.5462 5.59651 36.7769 6.05611 37.172C6.6926 37.7192 7.23282 38.3753 7.95081 39.1279C7.37593 39.1018 6.97288 39.0834 6.56983 39.0651C6.54864 39.1692 6.52745 39.2733 6.50626 39.3774C7.1053 39.4618 7.7164 39.6627 8.30063 39.6039C9.22612 39.5107 9.13209 40.0265 9.03437 40.5753C8.99296 40.8078 8.84123 41.0212 8.62478 41.4945C9.42295 41.4945 10.0358 41.5368 10.6402 41.4844C11.5234 41.4079 11.9757 40.9892 11.9252 40.0083C11.8474 38.4974 11.9181 36.9796 11.8953 35.4651C11.8893 35.0647 11.7718 34.6659 11.7467 34.5145C11.0447 34.3995 10.1535 34.3311 10.1513 34.2418C10.1068 32.3982 10.1612 30.5522 10.2096 28.7071C10.2112 28.6451 10.3533 28.5866 10.43 28.5265C10.4527 28.622 10.4754 28.7174 10.4981 28.8129C11.2282 28.6911 11.9583 28.5694 12.6884 28.4476C12.6884 28.4476 12.7292 28.4821 12.749 28.5881C12.7656 35.4946 12.7879 42.2953 12.7374 49.0954C12.7274 50.442 13.4934 51.0644 14.5724 51.6047C14.6975 51.6148 14.7691 51.6189 14.8538 51.6959C15.4899 52.4711 16.113 53.1735 16.7602 53.9187C16.9005 54.0286 17.0167 54.0955 17.1745 54.2135C17.9055 54.8822 18.5948 55.4999 19.3356 56.1312C19.4223 56.1498 19.4575 56.1549 19.5136 56.2137C19.5577 56.2982 19.5809 56.329 19.6025 56.4169C19.6584 56.6126 19.716 56.7512 19.7576 56.9065C19.7416 56.9233 19.7106 56.9578 19.7106 56.9578C18.509 57.0144 17.548 56.5293 16.6604 55.6567C16.5672 55.8418 16.4645 56.0458 16.3289 56.3149C16.2344 56.1736 16.143 56.1005 16.1453 56.0304C16.164 55.4554 16.247 54.8776 16.2046 54.3084C16.1906 54.1206 15.8867 53.8354 15.6802 53.8012C14.942 53.679 14.1809 53.687 13.4464 53.5515C13.2393 53.5133 12.9201 52.9892 12.9446 52.964C13.5858 52.3036 12.8138 51.7101 12.8406 51.0857C12.8469 50.9392 12.3132 50.7649 12.0228 50.6131C11.7295 50.4598 11.1832 50.3242 11.1796 50.171C11.1694 49.7369 11.2573 49.1919 11.5306 48.8839C12.019 48.3335 12.1194 47.2487 11.5003 46.6817C11.1116 47.8774 10.2094 47.3892 9.49719 47.3796C9.52504 46.861 9.5497 46.4017 9.57436 45.9424C9.45087 45.9389 9.32738 45.9355 9.20389 45.932C9.21118 46.0418 9.19957 46.1571 9.2307 46.2599C9.26644 46.3778 9.34004 46.4846 9.46802 46.7346C9.06942 46.7815 8.75999 46.818 8.37272 46.8547C8.29489 46.8551 8.29513 46.8553 8.29632 46.7826C8.2239 46.1935 8.15029 45.6772 8.07695 45.1627C7.65395 45.3798 7.37279 45.5241 7.09175 45.6684L7.09212 45.6688ZM6.00368 34.0602C5.94864 34.0033 5.89359 33.9464 5.83854 33.8896C5.81468 33.9121 5.76883 33.9529 5.77014 33.9545C5.82152 34.0144 5.8772 34.0708 6.00368 34.0602Z" fill="#EFFBFC"/>
<path d="M6.30651 41.3125C5.99898 41.1525 5.68826 40.9981 5.38489 40.8308C5.13249 40.6915 4.8456 40.3682 4.64826 40.4172C3.50828 40.7004 3.29327 39.723 3.3439 39.195C3.46919 37.8882 2.54019 37.194 2.01363 36.1974C1.44445 36.4377 0.931886 36.6541 0.255934 36.9395C0.0407561 36.5227 -0.205781 35.9731 0.408771 35.377C0.545659 35.2442 0.789745 34.9928 0.760999 34.953C0.0161371 33.9213 0.97302 32.9652 0.877021 31.9715C0.736236 30.5141 0.56285 29.0585 0.472471 27.5981C0.392675 26.3086 0.400578 25.0136 0.38291 23.7208C0.370605 22.8205 0.380539 21.92 0.380539 21.0784C0.883388 21.1185 1.33086 21.1543 1.77833 21.19C1.81641 21.0807 1.85449 20.9714 1.89257 20.8621C1.61484 20.617 1.36865 20.3192 1.05388 20.136C-0.230156 19.3886 -0.327286 18.7921 0.688338 17.658C0.860748 17.4654 1.00725 17.2503 1.20263 16.998C1.46267 17.1847 1.68758 17.3461 1.7658 17.4023C3.44362 16.6596 4.08616 15.3563 4.05133 13.7432C3.78007 13.5506 3.50654 13.4024 3.30977 13.1863C3.25622 13.1275 3.4656 12.7108 3.50058 12.7179C3.84548 12.7874 4.17292 12.962 4.51795 13.0028C4.75366 13.0306 5.12027 12.9734 5.23722 12.8161C5.77163 12.097 6.23852 11.3292 6.78384 10.4961C6.71429 10.2823 6.55331 9.78734 6.36092 9.19585C6.99492 9.29623 7.40982 9.36192 7.91058 9.44121C7.38324 8.66644 6.98934 8.08773 6.53015 7.41308C6.83557 7.07328 7.17273 6.69817 7.45386 6.38541C8.00723 6.65355 8.44446 6.86542 9.00447 7.13678C9.06718 7.27003 9.20054 7.55337 9.32657 7.82114C9.46089 7.80066 9.56386 7.81155 9.5814 7.77843C10.1031 6.79292 11.1122 6.466 11.9886 5.91311C13.0408 5.24937 13.0283 4.72461 12.3035 3.66578C12.5561 3.49777 12.8092 3.32948 13.1724 3.08789C13.3556 3.53484 13.4977 3.88176 13.6844 4.33741C13.8179 4.09393 13.9532 3.92604 14.0065 3.73579C14.2122 3.00055 14.6956 3.04471 15.2434 3.29091C16.2995 3.76557 17.277 3.54453 17.9362 2.76336C17.8043 2.28759 17.4881 1.78135 17.6308 1.54822C18.165 0.675227 18.5874 1.87916 19.1271 1.73101C19.306 0.448951 19.9658 -0.0177365 21.3618 0.0863111C21.7711 0.116821 22.189 0.0360705 22.6907 0C22.6698 0.421677 22.6544 0.733074 22.6384 1.05724C23.1741 1.19797 23.7128 1.33948 24.2339 1.5854C23.0079 1.93022 21.7995 2.17064 20.5712 2.33987C20.401 2.14238 20.2507 2.01608 20.1004 1.88977C20.0523 2.14171 20.0042 2.39364 19.8975 2.68419C17.6215 3.77134 15.2714 4.61362 13.2099 5.90427C4.48271 11.368 0.119337 21.2987 1.92226 31.2539C2.58933 34.9373 4.15224 38.2534 6.30651 41.3125ZM0.821716 18.6015C0.794056 18.4936 0.766393 18.3858 0.738733 18.2779C0.666692 18.3155 0.594652 18.3532 0.522615 18.3908C0.593064 18.4895 0.663517 18.5882 0.821716 18.6015ZM21.2746 0.957805C21.1739 0.968743 21.0732 0.979678 20.9726 0.990617C20.9957 1.07949 21.0189 1.16836 21.042 1.25723C21.128 1.19707 21.214 1.13692 21.2746 0.957805ZM20.284 1.05421C20.2832 1.13276 20.2823 1.21131 20.2815 1.28986C20.3146 1.29016 20.3763 1.29264 20.3765 1.29045C20.3826 1.21228 20.3829 1.13369 20.284 1.05421Z" fill="#EFFBFC"/>
<path d="M6.35523 41.3431C4.15215 38.2531 2.58925 34.937 1.92217 31.2536C0.119252 21.2984 4.48263 11.3677 13.2098 5.90397C15.2713 4.61332 17.6214 3.77105 19.962 2.67009C20.1664 2.5843 20.2476 2.55093 20.3791 2.5222C20.4761 2.48505 20.5229 2.44327 20.575 2.404C20.5802 2.40651 20.591 2.41076 20.591 2.41076C21.7994 2.17034 23.0079 1.92992 24.2794 1.64605C24.4933 1.59468 24.6441 1.58676 24.9529 1.5692C27.4597 1.55269 29.8084 1.54582 32.1572 1.53894C32.3027 1.56445 32.4482 1.58997 32.7315 1.65364C33.7541 1.88607 34.639 2.08034 35.4348 2.29698C35.0172 2.44803 34.6887 2.5767 34.2809 2.70775C33.3874 2.60345 32.5732 2.49677 31.6936 2.37C31.5374 2.35233 31.4467 2.35475 31.287 2.31253C29.3912 2.29939 27.5643 2.33089 25.6626 2.35244C25.4388 2.3619 25.2897 2.38131 25.0594 2.3895C18.4781 3.22361 13.0183 6.04556 8.60897 10.8196C5.82113 13.838 3.89202 17.3165 3.02281 21.3612C3.0094 21.3831 3.03868 21.4255 2.99256 21.4642C2.93871 21.5802 2.93098 21.6576 2.90111 21.7986C2.87444 21.9513 2.86992 22.0404 2.81551 22.1893C2.66348 24.3242 2.56133 26.3992 2.45175 28.5558C2.47095 28.9082 2.49759 29.179 2.51339 29.5288C2.61036 30.1574 2.71817 30.707 2.82294 31.3302C2.85413 31.5465 2.88836 31.6892 2.91593 31.8917C2.95113 32.0169 2.993 32.0822 3.0199 32.2071C3.04102 32.3828 3.07709 32.499 3.11316 32.6152C4.18499 37.1794 6.64177 40.9373 9.98621 44.1953C10.5097 44.7053 11.4372 45 11.2405 46.1915C9.41285 45.025 8.1318 43.4656 6.77563 41.8875C6.61283 41.6922 6.50843 41.5331 6.35523 41.3431Z" fill="#2893E7"/>
<path d="M117.998 38.9457C117.978 37.1679 117.939 35.4887 117.959 33.8102C117.962 33.559 118.239 33.0955 118.393 33.0939C120.582 33.0721 122.817 32.8157 124.734 34.293C126.705 35.8123 127.49 38.3316 126.692 40.8666C126.066 42.8542 124 44.7241 121.552 44.7691C120.423 44.7899 119.293 44.7726 117.998 44.7726C117.998 42.833 117.998 40.9388 117.998 38.9457ZM119.386 39.8355C119.386 41.0351 119.386 42.2346 119.386 43.4234C121.833 43.711 123.851 43.2655 125.016 41.1115C125.893 39.4889 125.778 37.7846 124.717 36.2563C123.631 34.6904 121.508 34.0467 119.386 34.5602C119.386 36.2363 119.386 37.9371 119.386 39.8355Z" fill="white"/>
<path d="M100.984 33.5325C104.43 35.0395 105.186 38.4141 104.203 40.981C102.819 44.5941 99.9701 45.146 95.6504 44.6867C95.6504 40.8612 95.6504 37.0288 95.6504 33.0972C97.4521 33.037 99.2028 32.9279 100.984 33.5325ZM98.3965 34.379C97.9432 34.4013 97.49 34.4235 97.0226 34.4464C97.0226 37.4929 97.0226 40.4368 97.0226 43.4434C98.6728 43.5917 100.214 43.5512 101.513 42.4614C103.16 41.079 103.503 39.2869 102.865 37.3598C102.21 35.3829 100.626 34.5112 98.3965 34.379Z" fill="white"/>
<path d="M87.7705 43.6012C90.202 43.676 91.1738 42.7746 91.1957 40.4548C91.2186 38.0256 91.2008 35.596 91.2008 33.1935C92.5837 32.8474 92.6517 32.8952 92.6511 34.1205C92.6501 36.3584 92.6666 38.5965 92.6416 40.8342C92.6217 42.6238 91.9582 44.0482 90.1406 44.7187C88.2934 45.4 86.1386 45.0304 85.0844 43.6685C84.5707 43.0048 84.1732 42.0882 84.1312 41.2658C84.0053 38.8037 84.083 36.3315 84.0755 33.8632C84.0741 33.4056 84.0726 33.0336 84.7385 33.0314C85.4126 33.0292 85.4898 33.3547 85.4855 33.8911C85.4675 36.1618 85.459 38.4328 85.4801 40.7034C85.4951 42.3089 86.1312 43.1074 87.7705 43.6012Z" fill="white"/>
<path d="M76.5063 27.1674C75.7434 27.0526 75.3544 27.3252 75.1317 27.9591C74.8923 28.6409 74.6637 29.3579 74.2523 29.9362C74.0376 30.238 73.44 30.2747 73.0154 30.4312C72.9577 30.1033 72.7518 29.7112 72.8649 29.4573C74.3786 26.0611 75.9365 22.684 77.485 19.3028C77.6349 18.9753 77.7956 18.6526 78.0577 18.1057C79.8831 22.2598 81.6329 26.2418 83.3864 30.232C82.0814 30.6409 81.8583 30.6258 81.5114 29.4413C80.9793 27.6246 79.9767 26.745 77.9994 27.1583C77.5529 27.2517 77.0684 27.1684 76.5063 27.1674ZM79.0393 23.6561C78.7126 22.9264 78.3859 22.1967 77.9897 21.3117C77.2974 22.9046 76.6859 24.3116 76.0366 25.8057C77.4004 25.8057 78.6027 25.8057 79.9392 25.8057C79.6233 25.057 79.3576 24.4275 79.0393 23.6561Z" fill="white"/>
<path d="M111.193 32.8671C112.945 36.8056 114.658 40.6919 116.374 44.5833C115.139 45.0219 114.927 44.9376 114.485 43.9002C113.462 41.5037 113.445 41.6861 110.864 41.4467C108.754 41.2509 107.897 42.2264 107.432 43.9417C107.153 44.9735 106.474 44.9157 105.561 44.6862C106.15 43.3275 106.695 42.0303 107.273 40.7476C108.398 38.2507 109.536 35.7597 110.686 33.2741C110.772 33.0892 110.995 32.9664 111.193 32.8671ZM109.249 40.1911C110.451 40.1911 111.653 40.1911 112.957 40.1911C112.3 38.6678 111.698 37.2722 111.096 35.8765C111.013 35.8764 110.93 35.8762 110.847 35.876C110.287 37.2679 109.727 38.6597 109.249 40.1911Z" fill="white"/>
<path d="M69.3418 37.1447C68.5267 39.1579 68.9797 41.3529 70.6309 42.5725C72.3844 43.8677 74.0561 44.3919 77.1604 42.3752C77.611 43.5305 77.4462 43.9539 76.3589 44.4347C73.4881 45.7041 70.1484 44.845 68.5237 42.4191C66.7886 39.8284 67.2208 36.3979 69.5428 34.33C71.3862 32.6883 74.6371 32.3823 76.7609 33.6507C77.4102 34.0385 77.4288 34.1016 77.2787 35.5758C74.1354 33.5354 71.3628 33.4395 69.3418 37.1447Z" fill="white"/>
<path d="M55.5643 24.1308C55.5693 24.2763 55.5743 24.4218 55.587 24.7288C55.8261 28.1988 55.3457 31.4237 54.4238 34.5969C54.4238 34.5969 54.3785 34.6523 54.3256 34.7373C53.9864 35.4735 53.7001 36.1247 53.3382 36.7601C53.1611 36.5271 53.0596 36.3098 52.9678 36.0233C53.5067 33.9836 54.0358 32.0132 54.5874 29.9675C54.619 29.6838 54.6282 29.4754 54.6815 29.1977C54.6983 27.584 54.671 26.0397 54.6525 24.4135C54.6296 24.0601 54.5979 23.7885 54.5768 23.4383C53.7752 18.1858 51.4787 13.741 47.7774 10.0077C45.4721 7.6825 42.8469 5.792 39.7497 4.53107C39.728 4.50626 39.6615 4.50454 39.6208 4.45816C39.4408 4.33167 39.3016 4.25156 39.1422 4.10811C39.0717 3.87702 39.0214 3.70927 39.0503 3.53906C39.9841 3.87073 40.9355 4.06535 41.675 4.565C43.9388 6.0945 46.1213 7.74117 48.3354 9.34228C48.3354 9.34228 48.3952 9.28479 48.3902 9.37356C49.1805 10.3435 49.9757 11.2246 50.7709 12.1058C50.7709 12.1058 50.7975 12.1936 50.8328 12.2678C50.8965 12.3979 50.9422 12.4291 51.0052 12.4357C51.0052 12.4357 51 12.4451 51.0097 12.4982C51.0745 12.5923 51.1295 12.6331 51.1846 12.674C51.1846 12.674 51.1869 12.6527 51.1959 12.7263C52.2058 14.6604 53.2068 16.5209 54.2077 18.3814C54.2399 18.5518 54.2721 18.7221 54.3562 18.9912C54.4536 19.1911 54.499 19.2923 54.5443 19.3934C54.5611 19.4772 54.578 19.561 54.6188 19.7794C54.9499 21.3195 55.2571 22.7251 55.5643 24.1308Z" fill="#2291E9"/>
<path d="M48.1729 44.4379C48.0683 44.9879 47.9637 45.5379 47.8346 46.216C47.8468 46.2255 48.0147 46.3553 48.3421 46.6086C47.8093 46.9115 47.3618 47.3887 46.9432 47.3653C45.1949 47.2673 45.0484 47.4691 44.9144 49.1575C44.8558 49.8967 44.3101 50.7628 43.7176 51.2618C42.5219 52.2688 42.4388 52.4651 43.6955 53.3377C43.3059 53.7837 43.3059 53.7837 42.5769 53.4097C41.6669 53.5597 41.0293 53.6836 40.3863 53.7658C39.6908 53.8546 39.5498 54.0537 40.0866 54.6009C40.2542 54.7718 40.2065 55.1481 40.2574 55.4303C39.97 55.3876 39.6713 55.3795 39.3984 55.2926C39.1133 55.2019 38.853 55.0354 38.5098 54.8666C38.5098 55.6653 38.5098 56.2401 38.5098 56.7595C37.5511 56.8935 36.6497 57.0195 35.6672 57.1538C35.586 57.1621 35.557 57.1291 35.5788 57.0581C36.7917 55.8437 37.9828 54.7003 39.2289 53.5263C39.3959 53.3715 39.5081 53.2473 39.6464 53.1284C39.6726 53.1336 39.7257 53.1274 39.7881 53.1268C39.9521 53.0053 40.0536 52.8842 40.1914 52.7104C40.5424 52.3673 40.8573 52.0769 41.2095 51.7799C41.264 51.7553 41.2987 51.7329 41.2953 51.7203C41.2836 51.6764 41.2587 51.636 41.2284 51.5396C41.2106 51.4486 41.2032 51.4123 41.2031 51.3446C41.2104 51.3132 41.1863 51.2535 41.2435 51.2322C41.3547 51.1262 41.4087 51.0416 41.4808 50.9557C41.499 50.9544 41.5339 50.9645 41.6037 50.972C41.7201 50.975 41.7666 50.9705 41.8742 50.9496C42.298 50.5758 42.6608 50.2182 43.0022 49.8579C42.9808 49.855 43.0224 49.8668 43.0895 49.8536C44.1293 49.2541 44.4294 48.4285 44.4087 47.2901C44.3354 43.2604 44.377 39.2286 44.375 35.1975C44.375 35.1975 44.3958 35.177 44.4789 35.1886C44.7014 35.6636 44.9673 36.1298 44.9568 36.5899C44.9223 38.097 44.7873 39.6019 44.6923 41.0853C45.0675 41.1582 45.2971 41.2028 45.8227 41.305C45.3017 41.5508 45.0505 41.6693 44.7419 41.8149C44.9664 42.0533 45.1582 42.2571 45.395 42.5085C44.8402 43.033 44.3232 43.5706 45.218 44.0133C45.0397 44.5511 44.885 45.0176 44.7242 45.5024C45.3123 45.2885 45.7208 45.1399 46.0986 45.0548C45.9876 45.4477 45.9074 45.777 45.8272 46.1064C45.908 46.1342 45.9888 46.1621 46.0696 46.1899C46.7707 45.6059 47.4718 45.0219 48.1729 44.4379ZM46.6048 46.7182C46.7083 46.7704 46.8118 46.8227 46.9152 46.875C46.9145 46.7264 46.9138 46.5778 46.9131 46.4292C46.8101 46.4825 46.7071 46.5358 46.6048 46.7182Z" fill="#EFFBFC"/>
<path d="M48.3492 9.26239C46.1213 7.74052 43.9388 6.09385 41.675 4.56435C40.9355 4.06469 39.9841 3.87007 39.0268 3.52164C38.9241 3.50733 38.8675 3.51953 38.8417 3.46133C38.6756 3.3149 38.5353 3.22669 38.3405 3.09727C37.9795 2.96333 37.6731 2.8706 37.3221 2.7522C37.2098 2.72571 37.1422 2.72489 37.0266 2.67127C36.7106 2.54644 36.4427 2.47439 36.1118 2.37657C35.8739 2.32531 35.699 2.29982 35.524 2.27433C34.6392 2.08007 33.7543 1.8858 32.8057 1.64846C33.0972 1.52908 33.4526 1.45277 33.8943 1.35794C33.864 1.40882 33.9155 1.35723 33.9265 1.2983C34.0035 0.88409 34.0726 0.109046 34.1434 0.109131C34.799 0.109903 35.505 0.127438 36.0944 0.375656C36.5954 0.586675 36.9619 1.10841 37.3978 1.50154C38.5014 1.02617 38.5014 1.02617 38.5707 2.23613C38.6103 2.9271 39.5813 3.41191 40.6555 3.30079C41.3121 3.23286 41.9721 3.16968 42.6315 3.15993C44.0679 3.1387 44.4017 3.4112 44.7678 4.80541C45.2466 6.6289 45.4987 6.83046 47.3245 7.13807C47.5771 7.18064 47.8512 7.53248 47.9723 7.80335C48.1656 8.23585 48.2389 8.72054 48.3492 9.26239Z" fill="#EFFBFC"/>
<path d="M54.4912 34.5854C55.3456 31.423 55.826 28.198 55.6096 24.7977C56.1911 24.8737 56.7577 25.0415 57.541 25.2734C57.389 26.7569 57.2189 28.2496 57.0933 29.7459C57.0565 30.1848 57.1161 30.6385 57.185 31.0773C57.2884 31.735 57.4391 32.3855 57.5986 33.1839C56.9183 33.1161 56.5447 33.0789 56.1196 33.0366C56.0554 33.4071 56.0012 33.7201 55.9717 33.8905C55.4398 34.148 54.9992 34.3613 54.4912 34.5854ZM56.3007 28.6031C56.3558 28.6599 56.4108 28.7168 56.4659 28.7736C56.4897 28.7511 56.5356 28.7103 56.5343 28.7087C56.4829 28.6488 56.4272 28.5924 56.3007 28.6031Z" fill="#EFFBFC"/>
<path d="M79.6798 43.8429C79.6811 40.4907 79.6819 37.2317 79.6847 33.9727C79.685 33.5201 79.5743 33.0435 80.3327 33.029C81.0992 33.0145 81.0887 33.4451 81.0872 33.9812C81.0774 37.5338 81.0822 41.0865 81.0822 44.6185C79.8751 44.9882 79.7455 44.92 79.6798 43.8429Z" fill="white"/>
<path d="M27.7734 63.238C27.7345 63.2454 27.6956 63.2528 27.5984 63.271C27.4465 63.2813 27.3531 63.281 27.1892 63.2788C27.1188 63.2769 27.1255 63.1842 27.1975 63.0819C27.298 62.5228 27.3512 62.0659 27.3512 61.609C27.3513 55.1334 27.3178 48.6577 27.3621 42.1825C27.3705 40.9505 27.3129 39.8455 26.2769 39.0038C26.3395 38.945 26.3639 38.9207 26.452 38.9201C26.7435 39.1125 26.9712 39.2813 27.3593 39.5691C27.3593 37.6333 27.3593 35.8616 27.3593 34.0898C27.4694 34.0919 27.5796 34.094 27.6897 34.096C27.7115 34.4047 27.75 34.7133 27.7521 35.0222C27.7598 36.142 27.8557 37.2731 27.7289 38.3789C27.5858 39.6272 27.9934 40.5387 28.9468 41.2983C28.8835 41.3703 28.8575 41.3984 28.7681 41.4025C28.4192 41.1922 28.1337 41.006 27.7734 40.7709C27.7734 48.3413 27.7734 55.7897 27.7734 63.238Z" fill="#A8E9FE"/>
<path d="M53.4135 36.7759C53.6999 36.1247 53.9863 35.4734 54.3271 34.7728C54.0229 35.7433 54.8589 36.7622 54.2925 37.8554C54.0556 38.3128 54.4968 39.0925 54.5635 39.7323C54.5892 39.9784 54.431 40.2431 54.2832 40.5136C54.2098 40.528 54.2101 40.5282 54.2101 40.5282C54.3453 39.8617 53.8931 39.5519 53.3865 39.6193C53.0843 39.6595 52.8458 40.1658 52.4483 40.6073C51.9346 40.5071 51.4015 40.6525 51.3878 41.6189C51.3603 43.5499 50.6098 44.2095 48.4614 44.2093C50.4356 41.9246 52.2781 39.584 53.4135 36.7759Z" fill="#EFFBFC"/>
<path d="M71.6546 30.4227C71.5667 30.4217 71.4788 30.4208 71.2769 30.3735C70.9259 30.3585 70.6889 30.3897 70.4519 30.421C69.587 30.42 68.7221 30.419 67.7594 30.3525C67.612 30.2013 67.5623 30.1156 67.5126 30.0298C67.5087 29.9489 67.5049 29.8679 67.5431 29.6913C67.5637 29.4768 67.5423 29.3579 67.5209 29.239C67.516 29.1582 67.5112 29.0774 67.5458 28.9002C67.5643 28.6853 67.5436 28.5667 67.5228 28.4481C67.5183 25.4229 67.5139 22.3977 67.553 19.2522C67.6314 19.0827 67.6599 19.0301 67.7449 18.9747C67.8916 18.9795 67.9755 18.9837 68.0544 19.079C68.0479 22.0433 68.0443 24.9166 68.0471 27.79C68.0475 28.1957 67.9201 28.7065 68.6371 28.7301C69.0589 29.5347 69.6711 29.2679 70.2604 29.1172C70.345 29.1129 70.4296 29.1087 70.6367 29.1527C71.2445 29.2921 71.7298 29.3833 72.215 29.4745C72.2177 29.6139 72.2203 29.7532 72.1686 29.9916C71.9611 30.2012 71.8078 30.3119 71.6546 30.4227Z" fill="white"/>
<path d="M53.3378 36.7601C52.2779 39.584 50.4354 41.9246 48.3755 44.2019C48.2812 44.2703 48.2324 44.3011 48.1855 44.3965C47.4718 45.0227 46.7707 45.6068 46.0696 46.1908C45.9888 46.1629 45.908 46.1351 45.8271 46.1072C45.9074 45.7778 45.9876 45.4485 46.0979 45.0523C46.128 44.9855 46.1326 44.9806 46.1937 44.9694C49.2196 42.5402 51.3254 39.4905 52.9577 36.0925C53.0592 36.3098 53.1608 36.5271 53.3378 36.7601Z" fill="#2893E7"/>
<path d="M55.6398 24.1006C55.2571 22.7244 54.9499 21.3188 54.647 19.8366C54.9057 19.9365 55.1602 20.113 55.4897 20.3415C55.5883 19.9177 55.6701 19.5661 55.7519 19.2144C55.8404 19.2026 55.9289 19.1908 56.0174 19.179C56.17 19.8703 56.3227 20.5616 56.4753 21.2529C56.5764 21.2521 56.6775 21.2514 56.7786 21.2507C56.8703 20.513 56.962 19.7753 57.0537 19.0376C57.1233 19.0379 57.193 19.0381 57.2626 19.0384C57.314 19.2285 57.3995 19.4167 57.411 19.6091C57.4675 20.5565 57.5462 21.5054 57.5373 22.453C57.5266 23.6042 56.7213 23.9671 55.6398 24.1006Z" fill="#EFFBFC"/>
<path d="M54.264 18.3315C53.2064 16.5209 52.2054 14.6603 51.188 12.7339C51.6655 12.668 52.1595 12.668 52.7099 12.668C52.7099 13.0002 52.7099 13.27 52.7099 13.7245C53.1943 13.2904 53.5631 12.96 54.1592 12.4259C54.104 13.6348 54.0612 14.573 54.0184 15.5112C54.0431 15.5017 54.0679 15.4921 54.0927 15.4825C54.1686 16.4156 54.2446 17.3486 54.264 18.3315Z" fill="#EFFBFC"/>
<path d="M32.1463 1.46651C29.8083 1.54611 27.4596 1.55299 25.0254 1.54803C25.6236 1.08536 26.1394 0.0254407 27.2005 0.931095C27.2329 0.958744 27.3483 0.941568 27.3865 0.905573C28.3586 -0.00865674 29.5616 0.510022 30.6602 0.378485C31.4847 0.279766 32.0123 0.534005 32.1463 1.46651Z" fill="#EFFBFC"/>
<path d="M50.7999 12.0447C49.9758 11.2235 49.1805 10.3424 48.3604 9.40145C48.9229 9.39885 49.5105 9.45457 50.0976 9.51534C50.1599 9.5218 50.2241 9.54946 50.2789 9.58156C50.4737 9.69576 50.9327 11.7144 50.7999 12.0447Z" fill="#EFFBFC"/>
<path d="M70.1781 29.093C69.6711 29.2679 69.0589 29.5346 68.6404 28.7319C68.6381 28.6567 68.6376 28.6528 68.7011 28.5995C68.7805 25.3645 68.7964 22.1829 68.8337 18.9818C68.855 18.9624 68.8972 18.9232 68.8972 18.9232C68.9371 20.0617 68.9995 21.1999 69.0116 22.3386C69.0311 24.1702 69.012 26.0021 69.0204 27.8339C69.0236 28.5338 69.1305 29.1717 70.1781 29.093Z" fill="white"/>
<path d="M8.2947 46.8549C8.27724 46.9842 8.30886 47.1804 8.23511 47.2331C7.30937 47.8945 7.2539 46.6955 6.71525 46.482C6.38491 46.3511 6.26869 45.7941 7.01606 45.6709C7.09206 45.6687 7.09181 45.6685 7.09852 45.7389C7.50184 46.1579 7.89846 46.5066 8.29507 46.8552L8.2947 46.8549Z" fill="#EFFBFC"/>
<path d="M54.2099 40.5277C54.2252 40.6993 54.2406 40.871 54.256 41.0427C53.9941 40.9987 53.7321 40.9546 53.4702 40.9106C53.4735 40.8273 53.4768 40.744 53.4801 40.6607C53.674 40.6168 53.8679 40.5729 54.136 40.5285C54.2103 40.5281 54.2099 40.5277 54.2099 40.5277Z" fill="#EFFBFC"/>
<path d="M72.2209 29.3944C71.7299 29.3833 71.2446 29.2921 70.7002 29.1577C71.1696 29.1811 71.6981 29.2477 72.2209 29.3944Z" fill="white"/>
<path d="M70.4971 30.463C70.689 30.3906 70.926 30.3594 71.2112 30.3692C71.0203 30.4416 70.7812 30.4728 70.4971 30.463Z" fill="white"/>
<path d="M71.6978 30.4625C71.808 30.3126 71.9612 30.2018 72.1637 30.0618C72.0555 30.1888 71.8981 30.3452 71.6978 30.4625Z" fill="white"/>
<path d="M67.6826 18.9746C67.6604 19.0305 67.6319 19.0831 67.5636 19.1621C67.3577 18.5788 67.697 18.5551 68.1451 18.725C67.9857 18.8476 67.8341 18.9111 67.6826 18.9746Z" fill="white"/>
<path d="M67.7451 18.9751C67.8339 18.911 67.9854 18.8475 68.2022 18.7661C68.356 18.7482 68.4445 18.7481 68.5938 18.8048C68.6547 18.8616 68.643 18.9568 68.5702 18.965C68.3514 18.9783 68.2055 18.9833 68.0596 18.9883C67.9757 18.9841 67.8918 18.9798 67.7451 18.9751Z" fill="white"/>
<path d="M54.5995 19.3646C54.4986 19.2922 54.4532 19.191 54.4072 19.0323C54.4895 19.0951 54.5723 19.2155 54.5995 19.3646Z" fill="#EFFBFC"/>
<path d="M67.4939 29.3088C67.5425 29.3585 67.5639 29.4773 67.5505 29.6314C67.4994 29.5705 67.4831 29.4743 67.4939 29.3088Z" fill="white"/>
<path d="M67.4902 30.0887C67.5628 30.1162 67.6125 30.202 67.6703 30.3375C67.608 30.3071 67.5377 30.2271 67.4902 30.0887Z" fill="white"/>
<path d="M67.4949 28.5184C67.5437 28.5678 67.5645 28.6864 67.5516 28.8408C67.5009 28.7803 67.4839 28.684 67.4949 28.5184Z" fill="white"/>
<path d="M50.9937 12.3994C50.9429 12.4302 50.8966 12.3986 50.8662 12.2991C50.9156 12.2781 50.9544 12.3133 50.9937 12.3994Z" fill="#EFFBFC"/>
<path d="M68.6431 18.9571C68.6431 18.9571 68.6548 18.8618 68.6597 18.814C68.7257 18.7894 68.7867 18.8126 68.8726 18.8798C68.8975 18.9239 68.8553 18.963 68.7968 18.9695C68.7383 18.976 68.6592 18.9806 68.6568 18.9736C68.6545 18.9666 68.6431 18.9571 68.6431 18.9571Z" fill="white"/>
<path d="M51.1734 12.6248C51.1299 12.6331 51.0747 12.5922 51.0151 12.498C51.0611 12.4884 51.1114 12.532 51.1734 12.6248Z" fill="#EFFBFC"/>
<path d="M19.9259 57.1324C19.8498 57.1233 19.8009 57.0853 19.7358 56.9971C19.7107 56.9579 19.7417 56.9235 19.8041 56.9232C19.9261 56.9592 19.9637 57.011 19.9793 57.0782C19.9793 57.0782 19.9441 57.1147 19.9259 57.1324Z" fill="#EFFBFC"/>
<path d="M46.129 44.9887C45.7211 45.1406 45.3126 45.2892 44.7245 45.5031C44.8853 45.0182 45.04 44.5517 45.2183 44.014C44.3235 43.5712 44.8404 43.0337 45.3952 42.5092C45.1585 42.2577 44.9667 42.054 44.7422 41.8155C45.0507 41.6699 45.302 41.5514 45.823 41.3056C45.2973 41.2035 45.0678 41.1589 44.6926 41.086C44.7875 39.6025 44.9226 38.0976 44.9571 36.5905C44.9676 36.1305 44.7016 35.6643 44.4895 35.1789C44.067 34.8992 43.7174 34.6415 43.3287 34.3549C43.3175 34.4035 43.3191 34.3006 43.346 34.2937C45.0329 33.8609 45.0147 33.8621 44.9605 31.8776C44.886 29.1511 44.8156 26.4239 44.7983 23.6967C44.7903 22.4536 44.8774 21.2065 44.9889 19.9671C45.0778 18.9786 44.2485 18.646 43.7418 18.0776C43.6579 17.9835 43.5422 17.917 43.4783 17.8668C43.6083 17.2109 43.7278 16.6075 43.9072 15.7019C43.0211 15.9219 42.1976 16.0727 41.4263 16.3596C41.255 16.4233 41.2675 16.9674 41.1666 17.4192C40.5416 16.9047 40.5739 15.596 39.4456 15.8319C39.3701 16.2184 39.3457 16.5593 39.2339 16.8696C39.0341 17.424 38.7555 17.9508 38.5583 18.5059C38.3402 19.1197 37.2948 19.4626 36.6354 19.1635C36.2717 18.9986 35.8468 18.965 35.361 18.9337C35.2725 18.9952 35.187 18.9887 35.187 18.9887C34.6285 19.0167 34.5484 18.6881 34.5534 18.2297C34.5701 16.717 34.5623 15.204 34.5573 13.6912C34.5562 13.3777 34.5269 13.0643 34.5033 12.6117C34.0974 12.8291 33.8225 12.9764 33.5517 13.1214C33.3037 12.3535 33.3015 12.2618 34.1142 12.1114C34.9388 11.9589 35.0996 11.6333 34.7946 10.8887C34.6461 10.5261 34.705 10.0809 34.6735 9.71321C34.0248 9.64982 33.3507 9.54862 32.6758 9.5429C32.5073 9.54147 32.2606 9.81973 32.1843 10.0194C32.0756 10.3041 32.0909 10.6348 32.063 10.8654C31.0133 10.8654 30.1096 10.8654 29.0465 10.8654C29.0355 10.9237 28.9628 11.1564 28.9523 11.3919C28.9024 12.5116 28.5333 12.8862 27.4628 13.0549C27.0031 13.1274 26.5723 13.3783 25.9941 13.5995C26.0206 13.6362 25.917 13.4922 25.8129 13.3484C25.4866 13.5767 25.1534 13.7955 24.8361 14.0347C23.7661 14.8414 23.0396 15.6775 22.7945 17.1982C22.5849 18.4991 22.8503 19.7051 22.7458 20.948C22.6556 22.021 21.7495 22.6357 20.6695 22.1815C20.4307 22.5253 20.1819 22.8837 19.8754 23.3252C19.7568 22.9454 19.6678 22.6604 19.6142 22.4886C18.682 23.2344 17.7701 23.9641 16.7866 24.6291C16.6446 24.3776 16.5741 24.191 16.5036 24.0044C16.4051 24.0692 16.3065 24.134 16.2079 24.1988C16.3774 24.3683 16.5468 24.5378 16.7162 24.7074C16.4153 25.536 15.7202 25.8167 14.9361 25.7745C14.484 25.7502 14.2276 25.6847 14.0351 26.2077C13.9571 26.4196 13.4442 26.4758 13.0919 26.6179C12.9734 27.131 12.8384 27.7152 12.6959 28.3739C11.9583 28.5701 11.2282 28.6918 10.4982 28.8136C10.4755 28.7181 10.4527 28.6227 10.43 28.5272C10.3534 28.5873 10.2112 28.6458 10.2096 28.7078C10.1613 30.5529 10.1068 32.3989 10.1513 34.2425C10.1535 34.3318 11.0448 34.4002 11.7467 34.5152C11.7719 34.6666 11.8894 35.0654 11.8954 35.4658C11.9181 36.9803 11.8474 38.4981 11.9253 40.0091C11.9758 40.9899 11.5234 41.4086 10.6403 41.4851C10.0358 41.5375 9.42297 41.4952 8.62481 41.4952C8.84126 41.0219 8.99298 40.8085 9.03439 40.576C9.13211 40.0272 9.22614 39.5114 8.30065 39.6046C7.71642 39.6634 7.10533 39.4625 6.50628 39.3781C6.52747 39.274 6.54866 39.1699 6.56985 39.0658C6.9729 39.0842 7.37595 39.1025 7.95084 39.1286C7.23284 38.376 6.69263 37.7199 6.05613 37.1727C5.59653 36.7777 5.76283 36.5469 6.06751 36.2138C6.24367 36.0212 6.45605 35.7728 6.46947 35.5393C6.51778 34.6989 6.48844 33.8541 6.48844 32.9175C5.3272 33.2065 4.13699 34.2022 3.18264 32.63C3.07723 32.4992 3.04116 32.383 3.02429 32.1477C3.00324 31.9631 2.96299 31.8976 2.92275 31.8321C2.88851 31.6894 2.85428 31.5467 2.88975 31.2817C3.03576 30.5349 3.4764 29.82 2.52438 29.45C2.49774 29.1791 2.4711 28.9084 2.51527 28.5C2.75116 26.6893 2.93694 25.0177 3.06616 23.3419C3.09675 22.9451 2.93748 22.5341 2.86554 22.1296C2.87006 22.0405 2.87459 21.9514 2.94268 21.7576C3.01711 21.5771 3.02797 21.5013 3.03883 21.4256C3.03883 21.4256 3.00955 21.3833 3.10463 21.3635C3.65071 21.1394 4.10173 20.9351 4.6989 20.6646C5.12491 20.7578 5.75618 20.8957 6.50465 21.0593C6.4345 20.2247 6.36896 19.4448 6.28071 18.3948C5.79053 18.6857 5.38332 18.9274 4.93586 19.1929C4.80705 19.1058 4.57099 18.946 4.36869 18.8091C4.43035 18.3668 4.4842 17.9805 4.5385 17.5944C5.37019 17.8173 6.55673 17.1391 6.46669 16.4076C6.3411 15.3874 6.8179 14.8522 7.71011 14.5011C8.24768 14.9769 8.7966 14.9355 9.02404 14.247C9.29439 13.4287 9.38847 12.5532 9.55126 11.7011C9.66196 11.1216 9.58895 10.423 9.89825 9.98289C10.5498 9.05582 11.6793 8.90772 12.3311 9.22622C15.525 9.22278 15.916 5.73827 18.6435 5.34661C18.9924 5.43919 19.4911 5.5715 19.9898 5.7038C20.02 5.61485 20.0503 5.5259 20.0805 5.43695C19.8255 5.30072 19.5705 5.16449 19.3469 5.04506C20.0125 4.49694 20.6227 3.99452 21.4508 3.31258C21.3884 4.1496 21.3419 4.77265 21.2955 5.3957C21.1813 5.45872 21.067 5.52174 20.9528 5.58476C21.3563 5.69073 21.7788 5.91169 22.1548 5.85118C22.3269 5.82347 22.4765 5.24929 22.5136 4.90988C22.5728 4.36916 22.5294 3.81752 22.5294 3.10914C23.0737 3.10914 23.6985 3.18741 24.2873 3.07766C24.6038 3.01868 24.8584 2.63697 25.1409 2.40088C25.2899 2.38147 25.4389 2.36206 25.6632 2.43413C25.9717 3.26242 26.4854 3.38182 27.1812 2.87815C27.7894 2.43793 28.3915 2.3045 28.9899 2.92605C29.1017 3.0421 29.3581 3.1426 29.4934 3.09617C30.1247 2.87947 30.737 2.60874 31.3561 2.35733C31.4468 2.35491 31.5376 2.35249 31.7406 2.42255C32.7998 2.86488 33.7324 3.33939 34.8549 2.88435C34.9996 2.91391 35.0804 2.94005 35.1707 3.03891C35.2861 3.75169 35.3846 4.39307 35.5015 5.03117C35.5531 5.31297 35.5991 5.80242 35.722 5.82639C36.1025 5.90056 36.5187 5.79636 36.9684 5.7573C36.6869 5.19268 36.5143 4.84671 36.4516 4.72096C37.1763 4.38316 37.6785 4.14907 38.2388 3.91613C38.398 3.96664 38.499 4.01602 38.6016 4.14827C38.956 4.3222 39.3087 4.41326 39.6615 4.50431C39.6615 4.50431 39.728 4.50603 39.7501 4.61018C39.8049 5.42531 39.9533 5.90103 40.8891 5.97215C42.2449 6.07519 42.2664 6.22574 41.8134 7.39515C41.7569 7.54111 41.7716 7.72165 41.7831 7.88409C41.8193 8.39216 41.8698 8.89924 41.9147 9.40669C42.0007 9.44916 42.0868 9.49162 42.1729 9.53408C42.3287 9.272 42.4845 9.00991 42.7096 8.63118C42.9687 8.9196 43.2209 9.20024 43.4743 9.48232C44.4887 8.47254 45.3944 9.68944 46.3484 9.54621C46.4012 9.53827 46.5133 9.9139 46.5089 9.90374C46.0357 10.1821 45.5571 10.2991 45.4516 10.5618C45.2644 11.0281 46.5517 12.343 47.0546 12.1818C47.3378 12.0909 47.4854 11.5886 47.814 11.0895C48.5841 11.1639 48.1354 12.0638 48.3651 12.5435C48.6071 12.449 48.8293 12.3623 49.2517 12.1974C49.1597 12.7428 49.2313 13.281 49.0125 13.4472C48.1097 14.1328 48.1615 14.8954 48.5656 15.6838C49.7146 15.7398 50.8115 15.7933 51.8087 15.842C52.0922 17.2577 50.8875 18.5202 52.2436 19.5261C52.2934 19.5629 52.3393 19.6048 52.3838 19.6416C52.6088 19.5598 52.833 19.4783 53.0938 19.3835C53.01 20.2861 53.01 20.2861 51.2747 20.2637C52.0451 21.1397 52.8154 22.0158 53.5886 22.8951C53.2881 23.1262 53.05 23.3093 52.8119 23.4924C52.85 23.6021 52.888 23.7119 52.9261 23.8217C53.1964 23.7621 53.4653 23.6955 53.7372 23.645C54.0119 23.5939 54.2897 23.5588 54.5661 23.5166C54.5978 23.7883 54.6295 24.0599 54.5867 24.4684C54.4785 25.602 54.4128 26.5991 54.4234 27.5953C54.4294 28.1532 54.5619 28.7097 54.6374 29.2668C54.6282 29.4752 54.619 29.6836 54.5122 29.965C54.2882 29.9537 54.1263 29.8945 54.0425 29.7798C53.8379 29.4997 53.6694 29.1938 53.4863 28.8984C53.3274 29.2937 53.1291 29.6795 53.0265 30.0886C52.9765 30.2881 53.1693 30.5405 53.1377 30.7523C53.0915 31.0626 52.9814 31.3787 52.8293 31.6553C52.5123 32.2317 51.9562 32.7497 51.8468 33.3531C51.6244 34.5792 51.6329 35.846 51.5472 37.0961C51.4966 37.833 50.5891 38.4145 49.8951 38.1535C48.8631 37.7653 48.1125 38.3242 48.2188 39.3619C48.2604 39.7686 48.1609 40.188 48.1457 40.6023C48.1304 41.0168 48.116 41.4338 48.1447 41.8468C48.1818 42.383 48.3695 42.9576 47.4126 42.7618C47.1561 42.7094 46.6526 42.892 46.5791 43.0843C46.349 43.6861 46.2703 44.3442 46.1329 44.9804C46.1329 44.9804 46.1283 44.9853 46.129 44.9887ZM38.8647 5.56172C38.7821 5.76729 38.6995 5.97285 38.6169 6.17841C38.7447 6.19685 38.8725 6.21529 39.0003 6.23374C39.0003 6.0183 39.0003 5.80288 38.8647 5.56172ZM18.2451 23.0958C18.0225 23.136 17.7999 23.1762 17.5773 23.2164C17.617 23.3183 17.6568 23.4201 17.6965 23.5219C17.8791 23.4214 18.0617 23.321 18.2451 23.0958ZM7.47156 15.6875C7.4933 15.5567 7.51505 15.426 7.5368 15.2953C7.4225 15.3081 7.30821 15.321 7.19392 15.3339C7.24698 15.4694 7.30005 15.6049 7.47156 15.6875ZM51.9641 31.707C51.9633 31.7845 51.9624 31.8621 51.9616 31.9396C51.9942 31.9399 52.0552 31.9424 52.0553 31.9402C52.0614 31.863 52.0618 31.7855 51.9641 31.707Z" fill="white"/>
<path d="M20.0419 57.1019C19.9636 57.0111 19.9261 56.9594 19.8201 56.9066C19.716 56.7515 19.6584 56.6129 19.6441 56.3468C19.6996 55.0409 19.7259 53.8625 19.7216 52.6842C19.7097 49.3443 19.6853 46.0043 19.6675 42.5748C19.667 41.5165 19.6648 40.548 19.6851 39.4853C19.7051 37.7209 19.7026 36.0506 19.7427 34.3243C19.8093 33.9 19.8332 33.5316 19.8571 33.1632C19.5574 33.1761 19.2578 33.1891 18.9581 33.2021C18.9957 33.5439 19.0216 33.8876 19.0799 34.2259C19.0928 34.3008 19.2203 34.3564 19.2954 34.5121C19.2938 36.9517 19.3046 39.3003 19.2736 41.6483C19.2698 41.9333 19.0406 42.2153 18.9183 42.5025C18.9207 42.5064 18.9293 42.5096 18.9238 42.4454C18.7844 42.2882 18.6504 42.1951 18.5181 42.1062C18.5198 42.1104 18.528 42.1142 18.5227 42.0559C18.45 41.9665 18.3825 41.9352 18.3171 41.9082C18.3192 41.9124 18.3277 41.9164 18.3214 41.8593C18.2482 41.7701 18.1814 41.7379 18.1168 41.7101C18.119 41.7144 18.1277 41.7188 18.118 41.6631C18.0436 41.5743 17.9789 41.5411 17.9164 41.5121C17.9187 41.5161 17.9275 41.5192 17.9103 41.455C16.7443 40.8371 17.5989 39.5753 17.0964 38.7931C16.9578 38.8238 16.8192 38.8545 16.6807 38.8853C16.7518 39.2879 16.823 39.6905 16.8276 40.1067C16.3631 39.8428 15.9652 39.5653 15.5472 39.2438C15.4919 39.1427 15.4428 39.1015 15.3467 39.0311C15.2175 38.9335 15.1218 38.881 14.9924 38.7631C14.1452 37.5232 14.6557 36.2117 14.5633 34.9628C14.5309 34.5246 14.5171 34.0851 14.4948 33.6462C14.3598 33.6257 14.2247 33.6052 14.0896 33.5847C13.9728 33.8625 13.7389 34.1492 13.7599 34.4164C13.841 35.445 13.9449 36.4795 14.1601 37.4869C14.272 38.0106 14.6343 38.4821 14.9102 39.0273C15.0304 39.1416 15.124 39.2057 15.2405 39.3052C15.305 39.3814 15.3523 39.4142 15.4376 39.496C15.884 39.9412 16.2982 40.3293 16.7471 40.7926C16.8099 40.9956 16.8623 41.1233 16.8625 41.251C16.8689 45.2711 16.8721 49.2912 16.8666 53.3114C16.8663 53.4997 16.7815 53.6879 16.7361 53.8761C16.113 53.1738 15.49 52.4715 14.8806 51.6052C14.8943 48.8159 14.8943 46.1905 14.8943 43.5652C14.7691 43.5662 14.644 43.5672 14.5188 43.5682C14.5188 46.2451 14.5188 48.922 14.5188 51.599C13.4934 51.0647 12.7274 50.4423 12.7374 49.0957C12.7879 42.2956 12.7656 35.4949 12.7696 28.6054C15.7834 26.7275 18.7965 24.9386 21.9759 23.0509C21.9759 35.0297 21.9759 46.7811 21.9759 58.7777C21.2496 58.1365 20.677 57.631 20.0419 57.1019Z" fill="#0C8EF8"/>
<path d="M23.9274 16.1043C26.9175 14.3153 29.8624 12.593 32.9377 10.7944C32.9377 17.7592 32.9377 24.5458 32.9377 31.5316C32.3697 31.1568 31.9365 30.8765 31.5091 30.588C29.2227 29.0451 26.9494 27.483 24.6446 25.9673C24.0275 25.5616 23.7405 25.1233 23.7624 24.3619C23.8407 21.6326 23.8481 18.9014 23.9274 16.1043Z" fill="#058DFB"/>
<path d="M28.9842 41.2545C27.9936 40.5387 27.586 39.6271 27.7291 38.3788C27.8559 37.2731 27.7601 36.142 27.7523 35.0221C27.7502 34.7133 27.7117 34.4047 27.6899 34.096C27.5798 34.0939 27.4697 34.0918 27.3595 34.0898C27.3595 35.8615 27.3595 37.6333 27.3595 39.569C26.9714 39.2813 26.7437 39.1125 26.4286 38.8786C26.3001 38.7624 26.2485 38.7254 26.1521 38.6317C26.0645 37.9722 26.0113 37.3835 26.0162 36.7487C26.1047 36.3328 26.1625 35.9609 26.1324 35.596C26.1284 35.5473 25.5532 35.4255 25.4619 35.5279C25.2773 35.7348 25.191 36.0688 25.1699 36.3578C25.1599 36.4958 25.3916 36.651 25.5234 36.8831C25.6887 37.5988 25.1925 38.4021 26.0726 38.8842C26.1418 38.9647 26.1878 39.0043 26.2388 39.0383C27.3131 39.8454 27.3707 40.9505 27.3623 42.1825C27.318 48.6577 27.3516 55.1334 27.3515 61.6089C27.3515 62.0658 27.2982 62.5227 27.205 63.036C26.2004 62.205 25.2316 61.3449 24.3376 60.4148C24.047 60.1124 23.792 59.6276 23.791 59.2255C23.7644 48.8198 23.7733 38.414 23.7795 28.0083C23.7796 27.9163 23.8257 27.8243 23.907 27.5201C24.748 28.0764 25.5252 28.5906 26.3245 29.1767C26.3464 29.2486 26.3154 29.2804 26.2485 29.2739C26.0663 29.3396 25.9509 29.4118 25.8356 29.484C26.0037 29.5397 26.1719 29.5954 26.3405 29.7227C26.6079 30.1421 26.8749 30.49 27.142 30.8378C27.142 30.8378 27.1423 30.8374 27.0581 30.8373C26.4627 30.5887 25.7458 31.3992 25.3886 30.6096C25.1556 30.0943 25.1339 29.486 24.9748 28.7114C24.6897 28.9815 24.3839 29.1354 24.3816 29.2938C24.3498 31.4267 24.3603 33.5602 24.3603 35.9351C24.7354 35.4409 24.8844 35.0244 25.1247 34.9646C26.4051 34.6457 26.6609 34.0592 25.7835 33.0501C25.7737 33.0388 25.8512 32.9537 25.835 32.9761C26.3266 33.0627 26.8459 33.3239 27.215 33.188C28.4182 32.7449 28.5899 32.763 29.2878 34.0103C27.8622 34.8754 27.7743 35.053 28.0847 36.4913C28.196 36.515 28.3247 36.5724 28.4478 36.5623C28.7101 36.5408 28.9702 36.4877 29.2301 36.4412C30.1414 36.2781 30.6058 36.5938 30.5335 37.4802C30.4341 38.6968 30.2797 39.9167 30.0345 41.1123C29.6923 42.7808 29.6303 42.7828 27.9361 42.3949C27.9752 42.8724 27.8452 43.5409 28.0793 43.7055C28.6945 44.138 28.5379 44.6747 28.5397 45.1983C28.5589 50.9794 28.5657 56.7606 28.5759 62.5418C28.3496 62.7696 28.1233 62.9974 27.8353 63.2316C27.7736 55.7896 27.7736 48.3413 27.7736 40.7709C28.134 41.0059 28.4194 41.1922 28.7945 41.4644C29.0511 41.655 29.2181 41.7596 29.3987 41.8728C29.3987 40.3833 29.3987 39.0027 29.3987 37.622C29.2606 37.6229 29.1224 37.6237 28.9842 37.6246C28.9842 38.8346 28.9842 40.0445 28.9842 41.2545ZM27.9448 54.0735C27.9448 55.9979 27.9448 57.9223 27.9448 59.8467C27.9923 59.8455 28.0398 59.8442 28.0873 59.843C28.0873 54.7308 28.0873 49.6185 28.0873 44.5063C28.0398 44.5062 27.9923 44.5061 27.9448 44.506C27.9448 47.6292 27.9448 50.7525 27.9448 54.0735Z" fill="#0C8DF6"/>
<path d="M28.6323 62.5266C28.566 56.7615 28.5591 50.9803 28.5399 45.1992C28.5382 44.6756 28.6948 44.1388 28.0795 43.7064C27.8454 43.5418 27.9755 42.8733 27.9364 42.3958C29.6306 42.7837 29.6926 42.7816 30.0348 41.1132C30.28 39.9176 30.4344 38.6977 30.5337 37.4811C30.6061 36.5947 30.1416 36.279 29.2303 36.4421C28.9705 36.4886 28.7104 36.5417 28.448 36.5632C28.325 36.5733 28.1962 36.5159 28.085 36.4922C27.7746 35.0539 27.8625 34.8763 29.2881 34.0112C28.5902 32.7639 28.4185 32.7458 27.2152 33.1889C26.8462 33.3248 26.3269 33.0636 25.8352 32.977C25.8515 32.9546 25.774 33.0397 25.7838 33.051C26.6612 34.0601 26.4054 34.6466 25.125 34.9655C24.8847 35.0253 24.7356 35.4418 24.3605 35.936C24.3605 33.5611 24.3501 31.4276 24.3818 29.2947C24.3842 29.1363 24.6899 28.9824 24.975 28.7123C25.1341 29.4869 25.1558 30.0952 25.3889 30.6104C25.7461 31.4001 26.463 30.5896 27.0662 30.9102C27.3707 31.1831 27.6691 31.5954 27.7818 31.5508C28.5413 31.2505 28.723 31.7347 28.9327 32.25C29.201 32.9092 29.5381 33.1024 30.0167 32.3972C30.0786 32.306 30.2734 32.3024 30.5473 32.2115C30.4214 32.5647 30.2712 32.7778 30.2934 32.9718C30.3291 33.2845 30.4785 33.5846 30.5798 33.8901C30.8434 33.7677 31.1064 33.644 31.3708 33.5234C31.6507 33.3957 31.9319 33.2709 32.2125 33.1448C32.2125 33.1448 32.2098 33.1921 32.1997 33.2482C32.3782 34.1882 32.7241 35.0711 32.7303 35.9563C32.7765 42.5477 32.763 49.1396 32.7403 55.7312C32.7385 56.2495 32.5254 56.7672 32.38 57.4229C32.7262 57.7456 32.7262 57.7456 32.4527 58.8129C32.4527 58.8129 32.4424 58.8263 32.3725 58.7998C31.7326 59.0838 31.1627 59.3944 30.5835 59.6407C30.5807 59.4904 30.5872 59.4043 30.6396 59.2616C31.0041 58.7366 31.3226 58.2681 31.7259 57.675C31.7875 57.7457 31.6817 57.5044 31.5396 57.4814C30.7341 57.3509 30.7356 56.8206 30.7416 56.1877C30.7674 53.4911 30.7497 50.7942 30.7545 48.0974C30.7558 47.3795 31.3394 46.933 32.3197 47.1146C31.8883 46.0854 31.5094 45.1813 31.1304 44.2772C31.0418 44.3064 30.9532 44.3355 30.8647 44.3647C30.8647 44.6293 30.8647 44.8939 30.8647 45.242C30.6492 45.1254 30.4873 44.9619 30.3795 44.9913C29.4489 45.2447 28.978 46.2452 29.2814 47.1984C29.3586 47.4412 29.3437 47.7171 29.3454 47.978C29.352 48.9646 29.3656 49.9516 29.3445 50.9378C29.2995 53.0352 29.1584 55.1337 29.202 57.2288C29.2364 58.8862 29.7667 60.5502 28.9766 62.1676C28.8806 62.2819 28.7845 62.3962 28.6323 62.5266ZM29.2991 43.9015C29.2741 44.1035 29.2492 44.3054 29.2242 44.5074C29.4289 44.4867 29.6336 44.4661 29.8382 44.4455C29.7084 44.262 29.5786 44.0785 29.2991 43.9015ZM28.6921 35.7485C28.5782 35.7115 28.4644 35.6744 28.3505 35.6373C28.3727 35.84 28.395 36.0427 28.4172 36.2455C28.479 36.2371 28.5407 36.2288 28.6025 36.2204C28.6426 36.1032 28.6827 35.9859 28.6921 35.7485ZM29.9899 34.7162C29.9908 34.6382 29.9916 34.5603 29.9924 34.4823C29.9596 34.482 29.8983 34.4796 29.8982 34.4817C29.8921 34.5593 29.8918 34.6373 29.9899 34.7162ZM31.8406 34.5373C31.8952 34.5937 31.9497 34.6501 32.0043 34.7064C32.028 34.6841 32.0734 34.6437 32.0721 34.6421C32.0212 34.5827 31.966 34.5267 31.8406 34.5373Z" fill="#018CFE"/>
<path d="M40.867 34.7145C40.5087 34.8265 40.226 34.911 39.8452 35.0247C39.8452 29.1809 39.8452 23.4096 39.8452 17.4445C41.3287 18.2764 42.7623 19.0608 44.1657 19.8945C44.3245 19.9889 44.3725 20.3608 44.3731 20.6042C44.3827 24.6896 44.3912 28.7752 44.3448 32.8602C44.3414 33.1672 43.9863 33.6154 43.6828 33.7466C42.7999 34.1285 41.8601 34.3827 40.867 34.7145Z" fill="#088CF7"/>
<path d="M35.1718 19.0795C35.1868 18.989 35.2722 18.9956 35.3146 18.9895C36.3048 19.5284 37.2402 20.0961 38.2051 20.6097C38.7559 20.9029 39.0091 21.2475 39.0035 21.912C38.9683 26.1233 38.9762 30.335 38.9943 34.5465C38.9968 35.1182 38.857 35.4435 38.247 35.6089C37.2596 35.8767 36.2994 36.2424 35.1567 36.6238C35.1567 30.7123 35.1567 24.9411 35.1718 19.0795Z" fill="#068BF9"/>
<path d="M39.1742 53.558C37.9831 54.7014 36.792 55.8447 35.5647 57.0425C35.393 56.8375 35.14 56.5786 35.1391 56.3188C35.119 50.5105 35.1226 44.7021 35.1406 38.8938C35.1415 38.6009 35.3126 38.3085 35.4856 38.1007C35.5666 39.9142 35.5666 41.6428 35.5666 43.5782C36.3934 42.8954 37.325 43.1555 37.2808 43.8955C37.2124 45.0403 38.6782 45.9518 37.5809 47.1947C38.3737 47.014 38.8805 46.6862 38.756 45.9396C38.6599 45.3634 38.4223 44.8101 38.237 44.2125C38.4758 44.1866 38.709 44.1613 39.0725 44.122C38.8699 43.5167 38.8115 42.9203 38.498 42.5167C38.1383 42.0534 38.1323 41.7691 38.4571 41.3169C39.14 40.3663 38.8085 38.0743 37.9171 37.2577C39.2214 36.8251 40.5257 36.3924 41.8778 36.0244C41.3289 36.6034 40.7322 37.1179 40.0782 37.5862C39.7042 37.4374 39.3898 37.2795 39.0694 37.2663C38.9761 37.2624 38.7147 37.7587 38.7857 37.8786C39.5348 39.143 39.1048 40.509 39.1486 41.8186C39.227 44.1632 39.1707 46.5123 39.1707 48.9552C38.8592 48.7604 38.669 48.6415 38.4464 48.4687C38.0609 48.0665 37.75 47.6581 37.346 47.3823C36.4856 46.7951 36.4582 45.972 36.6022 45.1068C36.6557 44.7855 36.8815 44.4921 37.0458 44.1504C36.5989 44.0204 36.2718 43.9253 35.9501 43.8317C35.4353 45.2263 36.4663 47.3143 38.3424 48.7648C39.0821 49.3081 39.2422 49.9786 39.1847 50.7937C39.12 51.7109 39.1727 52.6362 39.1742 53.558Z" fill="#118CF0"/>
<path d="M40.1356 37.6312C40.7323 37.1168 41.329 36.6023 41.9569 36.0238C41.9881 35.9597 42.0276 35.9277 42.1408 35.9477C42.7515 35.9187 43.249 35.8696 44.0525 35.7904C43.5224 36.1709 42.9512 36.3807 42.9345 36.6271C42.8577 37.7607 43.6559 36.5468 43.9837 37.0387C43.9837 39.1278 44.0602 41.3325 43.9613 43.5295C43.8696 45.5695 44.5054 47.7465 42.9997 49.5784C42.9551 49.6327 43.0128 49.7688 43.0228 49.8668C43.0228 49.8668 42.9812 49.8549 42.9221 49.8442C42.606 49.8647 42.3491 49.8958 41.9138 49.9485C42.077 47.478 42.2345 45.0752 42.3988 42.6728C42.4049 42.5832 42.466 42.4289 42.5192 42.421C43.5558 42.2674 43.0629 41.3712 43.2666 40.8358C43.3478 40.6222 43.0812 40.1708 42.8468 39.9732C42.4249 39.6175 41.9079 39.3715 41.5347 39.1434C42.0349 40.2708 40.8318 40.24 39.8623 40.6557C40.2316 40.0028 39.3705 39.0183 41.0073 38.9336C40.6604 38.4558 40.3995 38.0963 40.1344 37.7105C40.1302 37.6842 40.1356 37.6312 40.1356 37.6312ZM41.6643 37.8867C41.9025 37.5767 42.1407 37.2668 42.379 36.9568C42.2525 36.8942 42.1261 36.8315 41.9996 36.7688C41.844 37.1395 41.6883 37.5101 41.6643 37.8867ZM43.3037 38.312C43.2252 38.3112 43.1467 38.3103 43.0682 38.3095C43.0679 38.3416 43.0654 38.4017 43.0676 38.4019C43.1457 38.4078 43.2243 38.4082 43.3037 38.312Z" fill="#018CFE"/>
<path d="M37.9191 37.2603C38.8082 38.0731 39.1397 40.3651 38.4569 41.3156C38.132 41.7678 38.1381 42.0522 38.4978 42.5154C38.8113 42.9191 38.8697 43.5154 39.0723 44.1207C38.7088 44.1601 38.4756 44.1853 38.2367 44.2112C38.422 44.8088 38.6597 45.3621 38.7558 45.9384C38.8802 46.6849 38.3734 47.0127 37.5806 47.1934C38.6779 45.9505 37.2122 45.039 37.2806 43.8943C37.3248 43.1543 36.3932 42.8941 35.5664 43.5769C35.5664 41.6415 35.5664 39.9129 35.5683 38.0951C35.6493 37.9776 35.7283 37.9493 35.9122 37.9756C36.1993 37.9232 36.3814 37.8162 36.5636 37.7093C36.5636 37.7093 36.6032 37.6893 36.6988 37.7121C36.9228 37.6673 37.0511 37.5996 37.1793 37.5319C37.1793 37.5319 37.2165 37.506 37.3186 37.5268C37.5868 37.4558 37.7529 37.3641 37.9189 37.2723C37.9189 37.2723 37.9212 37.2641 37.9191 37.2603Z" fill="#018CFE"/>
<path d="M29.041 62.1399C29.7662 60.5493 29.2359 58.8853 29.2015 57.228C29.1579 55.1329 29.299 53.0344 29.344 50.937C29.3651 49.9508 29.3515 48.9638 29.3449 47.9772C29.3432 47.7163 29.3581 47.4404 29.2809 47.1976C28.9775 46.2443 29.4484 45.2439 30.379 44.9904C30.4868 44.9611 30.6487 45.1245 30.8642 45.2412C30.8642 44.8931 30.8642 44.6285 30.8642 44.3639C30.9527 44.3347 31.0413 44.3055 31.1299 44.2764C31.5089 45.1805 31.8878 46.0846 32.3192 47.1138C31.3389 46.9321 30.7553 47.3787 30.754 48.0966C30.7492 50.7934 30.7669 53.4903 30.7411 56.1869C30.7351 56.8198 30.7336 57.3501 31.5391 57.4805C31.6812 57.5035 31.787 57.7449 31.7254 57.6742C31.3221 58.2673 31.0036 58.7357 30.6238 59.1689C30.5625 54.812 30.5625 50.4905 30.5625 46.1689C30.4276 46.1706 30.2926 46.1723 30.1577 46.174C30.1577 46.7182 30.1576 47.2624 30.1577 47.8067C30.1584 50.9978 30.1528 54.1889 30.1634 57.3799C30.167 58.4944 30.2105 59.6089 30.2358 60.7233C29.8592 61.1865 29.4825 61.6497 29.041 62.1399ZM29.9469 48.1212C29.9217 48.0297 29.8965 47.9383 29.8022 47.5963C29.8022 51.0082 29.8022 54.165 29.8022 57.3218C29.8508 57.3221 29.8994 57.3224 29.948 57.3227C29.948 54.3092 29.948 51.2957 29.9469 48.1212Z" fill="#0C8DF6"/>
<path d="M34.5615 39.9989C34.5616 45.3559 34.5454 50.6222 34.5754 55.8882C34.5813 56.924 34.793 57.9669 34.1514 58.8969C34.0258 59.0791 33.8064 59.1983 33.4999 59.4563C33.5981 58.1338 33.7383 57.0566 33.7471 55.9785C33.7762 52.3911 33.79 48.8029 33.7397 45.216C33.7235 44.0598 33.3505 42.9004 33.4018 41.7538C33.4433 40.8256 33.8764 39.9145 34.1357 38.9957C34.2522 39.0091 34.3687 39.0225 34.4853 39.0358C34.5107 39.3266 34.5361 39.6173 34.5615 39.9989Z" fill="white"/>
<path d="M43.0899 49.8542C43.0128 49.7695 42.9551 49.6334 42.9997 49.5791C44.5054 47.7471 43.8695 45.5702 43.9613 43.5302C44.0602 41.3331 43.9837 39.1285 43.9837 37.0394C43.6559 36.5475 42.8577 37.7614 42.9345 36.6278C42.9512 36.3814 43.5224 36.1716 44.0525 35.7911C43.249 35.8703 42.7515 35.9194 42.1636 35.9599C42.7892 35.6974 43.5053 35.4435 44.2984 35.1938C44.3773 39.2292 44.3357 43.261 44.409 47.2907C44.4297 48.4291 44.1296 49.2547 43.0899 49.8542Z" fill="#118CF0"/>
<path d="M34.5595 29.1706C34.1689 29.5807 33.6109 29.4226 33.5992 28.9268C33.5209 25.6131 33.4767 22.2986 33.4243 18.9843C33.424 18.9622 33.4638 18.9396 33.685 18.7048C33.7976 19.2476 33.9444 19.6383 33.949 20.0306C33.9727 22.0685 34.0531 24.1127 33.9226 26.1427C33.8525 27.2341 34.3163 28.1194 34.5595 29.1706Z" fill="white"/>
<path d="M32.5293 58.7982C32.7259 57.7455 32.7259 57.7455 32.3797 57.4228C32.5251 56.7671 32.7382 56.2495 32.7399 55.7311C32.7626 49.1395 32.7761 42.5476 32.73 35.9563C32.7238 35.071 32.3779 34.1882 32.2056 33.2252C32.4997 33.462 32.7775 33.7778 33.0723 34.2118C33.0989 34.4133 33.1084 34.4965 33.118 34.5797C33.0795 34.9332 33.0071 35.2868 33.0075 35.6403C33.0139 42.8103 33.0381 49.9802 33.0227 57.1501C33.0216 57.6949 32.7514 58.2392 32.5293 58.7982Z" fill="#0C8DF6"/>
<path d="M30.3042 60.721C30.2109 59.6099 30.1674 58.4955 30.1637 57.3809C30.1532 54.1899 30.1588 50.9988 30.1581 47.8077C30.158 47.2634 30.1581 46.7192 30.1581 46.175C30.293 46.1733 30.4279 46.1716 30.5628 46.1699C30.5628 50.4915 30.5628 54.813 30.5782 59.2265C30.5871 59.4045 30.5806 59.4905 30.5694 59.7155C30.685 60.0586 30.8055 60.2628 30.9259 60.4669C30.7413 60.5505 30.5567 60.634 30.3042 60.721Z" fill="#A8E9FE"/>
<path d="M32.1887 33.0826C31.9315 33.2696 31.6502 33.3944 31.3704 33.5221C31.106 33.6428 30.843 33.7665 30.5794 33.8889C30.478 33.5834 30.3287 33.2833 30.2929 32.9705C30.2708 32.7766 30.421 32.5635 30.5468 32.2102C30.2729 32.3011 30.0782 32.3047 30.0162 32.396C29.5377 33.1012 29.2006 32.9079 28.9323 32.2488C28.7225 31.7334 28.5408 31.2493 27.7813 31.5496C27.6686 31.5942 27.3702 31.1819 27.1499 30.909C27.1421 30.8371 27.1419 30.8373 27.2126 30.8365C27.3802 30.5635 27.477 30.2912 27.5738 30.0189C29.1043 31.0198 30.6348 32.0207 32.1887 33.0826ZM29.6819 31.9493C29.5622 31.8698 29.4426 31.7902 29.3229 31.7107C29.2945 31.7879 29.2661 31.8652 29.2378 31.9425C29.3836 31.9849 29.5295 32.0273 29.6819 31.9493Z" fill="#0C8DF6"/>
<path d="M34.526 36.6827C34.613 37.1101 34.6716 37.4756 34.7301 37.841C34.4171 37.7277 33.8621 37.6539 33.8352 37.4938C33.7459 36.9619 33.4584 36.2345 34.4545 36.0149C34.4716 36.2553 34.4846 36.438 34.526 36.6827Z" fill="white"/>
<path d="M33.1895 34.6078C33.1083 34.4953 33.0988 34.4121 33.1086 34.2686C33.6267 34.0056 34.1253 33.8029 34.7408 33.5527C34.6679 33.9714 34.5916 34.4098 34.4948 34.9655C34.0477 34.8465 33.6544 34.7419 33.1895 34.6078Z" fill="white"/>
<path d="M30.9636 60.4136C30.8055 60.2629 30.6851 60.0587 30.5786 59.7799C31.1625 59.3947 31.7325 59.0841 32.375 58.8081C31.9655 59.3485 31.4834 59.8544 30.9636 60.4136Z" fill="#0C8DF6"/>
<path d="M27.5695 30.0217C27.4772 30.2921 27.3804 30.5644 27.2127 30.8376C26.8748 30.4906 26.6079 30.1427 26.4214 29.7233C26.664 29.6459 26.8261 29.6398 26.9881 29.6338C27.0871 29.6764 27.1861 29.7191 27.3378 29.8532C27.4507 29.9733 27.511 30.0018 27.5713 30.0303C27.5713 30.0303 27.565 30.0235 27.5695 30.0217Z" fill="#018CFE"/>
<path d="M36.4948 37.7101C36.3815 37.8172 36.1994 37.9242 35.9756 37.9742C36.0979 37.8481 36.2619 37.779 36.4948 37.7101Z" fill="#118CF0"/>
<path d="M26.9553 29.5795C26.8262 29.6396 26.6641 29.6457 26.42 29.5895C26.3305 29.4451 26.323 29.3629 26.3154 29.2807C26.3154 29.2807 26.3465 29.249 26.3619 29.2329C26.559 29.3197 26.7407 29.4226 26.9553 29.5795Z" fill="#0C8DF6"/>
<path d="M37.8457 37.2743C37.7529 37.3644 37.5868 37.4561 37.3379 37.539C37.4276 37.4454 37.6001 37.3607 37.8457 37.2743Z" fill="#118CF0"/>
<path d="M37.1045 37.5293C37.0512 37.5999 36.9229 37.6676 36.7168 37.7255C36.7692 37.6527 36.8994 37.5895 37.1045 37.5293Z" fill="#118CF0"/>
<path d="M27.5537 29.9799C27.5114 30.0013 27.4509 29.9727 27.3657 29.8996C27.4059 29.88 27.4708 29.905 27.5537 29.9799Z" fill="#0C8DF6"/>
<path d="M19.2843 56.1181C18.595 55.5004 17.9057 54.8827 17.1866 54.1227C17.1567 49.7894 17.1567 45.5984 17.1567 41.3872C17.5069 41.4472 17.7173 41.4833 17.9277 41.5193C17.9277 41.5193 17.9188 41.5163 17.9015 41.5817C17.9653 41.671 18.0466 41.695 18.1279 41.7189C18.1279 41.7189 18.1192 41.7146 18.1028 41.7795C18.1669 41.8685 18.2474 41.8925 18.3279 41.9166C18.3279 41.9166 18.3194 41.9126 18.3044 41.9764C18.3689 42.0649 18.4486 42.0896 18.5282 42.1144C18.5282 42.1144 18.52 42.1105 18.4937 42.1774C18.6215 42.3327 18.7755 42.4212 18.9295 42.5098C18.9295 42.5098 18.9209 42.5066 18.908 42.5809C19.0305 43.0442 19.2813 43.4324 19.2835 43.822C19.3066 47.9206 19.29 52.0194 19.2843 56.1181Z" fill="#108EF6"/>
<path d="M19.3355 56.1312C19.2896 52.0189 19.3062 47.9201 19.2831 43.8215C19.2809 43.4319 19.0302 43.0437 18.9053 42.5766C19.0405 42.2149 19.2697 41.9329 19.2734 41.648C19.3045 39.3 19.2937 36.9514 19.3088 34.4617C19.366 34.2724 19.41 34.2244 19.454 34.1763C19.4801 34.2515 19.5063 34.3267 19.5292 34.494C19.5715 36.2505 19.6169 37.9148 19.6624 39.5791C19.6647 40.5477 19.6669 41.5162 19.6229 42.6458C19.5597 43.2311 19.5294 43.6554 19.5279 44.0797C19.5133 48.1065 19.5036 52.1332 19.4925 56.1599C19.4573 56.1549 19.4222 56.1498 19.3355 56.1312Z" fill="#BBF8FD"/>
<path d="M17.9103 41.455C17.7171 41.4831 17.5067 41.447 17.1566 41.387C17.1566 45.5983 17.1566 49.7892 17.1447 54.0714C17.0167 54.0958 16.9005 54.0289 16.7602 53.9191C16.7815 53.6879 16.8664 53.4997 16.8666 53.3114C16.8721 49.2912 16.8689 45.2711 16.8625 41.251C16.8623 41.1232 16.8099 40.9956 16.7539 40.7274C16.782 40.4223 16.8381 40.2577 16.8942 40.0931C16.823 39.6905 16.7518 39.2879 16.6807 38.8853C16.8192 38.8545 16.9578 38.8238 17.0964 38.7931C17.5989 39.5753 16.7443 40.837 17.9103 41.455Z" fill="#BBF8FD"/>
<path d="M14.5721 51.6061C14.5186 48.9231 14.5186 46.2462 14.5186 43.5693C14.6437 43.5683 14.7689 43.5673 14.8941 43.5663C14.8941 46.1916 14.8941 48.817 14.8673 51.5334C14.7689 51.6204 14.6973 51.6162 14.5721 51.6061Z" fill="#A8E9FE"/>
<path d="M19.5138 56.2148C19.5039 52.1343 19.5136 48.1076 19.5282 44.0808C19.5297 43.6565 19.5601 43.2322 19.6215 42.7366C19.6854 46.0051 19.7099 49.345 19.7218 52.685C19.726 53.8633 19.6998 55.0417 19.6459 56.2904C19.5811 56.3301 19.5579 56.2993 19.5138 56.2148Z" fill="#65AEE8"/>
<path d="M8.296 46.7827C7.8982 46.5068 7.50159 46.1581 7.09814 45.7389C7.37247 45.5242 7.65364 45.3799 8.07663 45.1628C8.14997 45.6773 8.22358 46.1936 8.296 46.7827Z" fill="white"/>
<path d="M5.96791 34.0942C5.87711 34.0711 5.82143 34.0148 5.77005 33.9548C5.76873 33.9533 5.81459 33.9124 5.83845 33.8899C5.8935 33.9468 5.94855 34.0036 5.96791 34.0942Z" fill="white"/>
<path d="M20.3291 2.5181C20.2479 2.55147 20.1667 2.58484 20.0209 2.63201C20.0044 2.39389 20.0525 2.14195 20.1005 1.89001C20.2508 2.01632 20.4012 2.14262 20.5714 2.34012C20.5913 2.4113 20.5805 2.40705 20.5267 2.40307C20.4069 2.41752 20.3589 2.45718 20.3291 2.5181Z" fill="white"/>
<path d="M0.777687 18.644C0.663363 18.588 0.59291 18.4893 0.522461 18.3906C0.594498 18.353 0.666538 18.3153 0.738578 18.2777C0.766239 18.3856 0.793902 18.4934 0.777687 18.644Z" fill="white"/>
<path d="M21.2874 1.01688C21.2141 1.13652 21.1281 1.19667 21.0421 1.25683C21.019 1.16796 20.9958 1.07909 20.9727 0.990215C21.0733 0.979277 21.174 0.968342 21.2874 1.01688Z" fill="white"/>
<path d="M20.3343 1.0542C20.3832 1.13321 20.3828 1.2118 20.3767 1.28997C20.3766 1.29216 20.3148 1.28968 20.2817 1.28937C20.2826 1.21083 20.2834 1.13228 20.3343 1.0542Z" fill="white"/>
<path d="M25.0596 2.38879C24.8585 2.63611 24.6039 3.01782 24.2875 3.0768C23.6987 3.18655 23.0739 3.10828 22.5296 3.10828C22.5296 3.81667 22.5729 4.3683 22.5138 4.90902C22.4766 5.24843 22.327 5.82261 22.1549 5.85032C21.779 5.91084 21.3564 5.68987 20.9529 5.5839C21.0672 5.52088 21.1814 5.45786 21.2956 5.39485C21.3421 4.77179 21.3885 4.14874 21.4509 3.31172C20.6228 3.99366 20.0127 4.49608 19.347 5.0442C19.5706 5.16363 19.8256 5.29986 20.0807 5.43609C20.0504 5.52504 20.0202 5.61399 19.9899 5.70295C19.4912 5.57064 18.9926 5.43833 18.6436 5.34575C15.9161 5.73741 15.5251 9.22192 12.3312 9.22536C11.6795 8.90686 10.5499 9.05496 9.89838 9.98204C9.58908 10.4222 9.6621 11.1207 9.55139 11.7002C9.3886 12.5524 9.29452 13.4279 9.02417 14.2462C8.79673 14.9346 8.24781 14.9761 7.71025 14.5002C6.81804 14.8513 6.34123 15.3865 6.46682 16.4068C6.55686 17.1382 5.37032 17.8165 4.53863 17.5935C4.48434 17.9797 4.43048 18.366 4.36882 18.8083C4.57112 18.9452 4.80718 19.1049 4.93599 19.192C5.38345 18.9265 5.79066 18.6848 6.28084 18.3939C6.36909 19.4439 6.43463 20.2238 6.50478 21.0584C5.75631 20.8949 5.12504 20.7569 4.69903 20.6638C4.10186 20.9343 3.65085 21.1385 3.11816 21.3407C3.8923 17.3158 5.82141 13.8373 8.60925 10.8189C13.0185 6.04486 18.4784 3.22291 25.0596 2.38879Z" fill="#EFFBFC"/>
<path d="M31.2868 2.31297C30.7367 2.60902 30.1244 2.87976 29.4931 3.09645C29.3578 3.14288 29.1014 3.04238 28.9897 2.92633C28.3913 2.30479 27.7891 2.43821 27.1809 2.87844C26.4851 3.3821 25.9714 3.2627 25.7378 2.44436C27.5642 2.33133 29.391 2.29983 31.2868 2.31297Z" fill="#EFFBFC"/>
<path d="M2.81591 22.1888C2.93772 22.5334 3.097 22.9445 3.06641 23.3412C2.93718 25.017 2.75141 26.6886 2.52295 28.4177C2.56172 26.3987 2.66388 24.3237 2.81591 22.1888Z" fill="#EFFBFC"/>
<path d="M37.0746 2.72435C37.1422 2.72517 37.2098 2.72599 37.3061 2.82396C37.0678 3.02437 36.8009 3.12762 36.5361 3.22619C36.5382 3.22151 36.5406 3.21146 36.51 3.14049C35.9003 2.96843 35.3211 2.86734 34.6766 2.77044C34.5276 2.75155 34.444 2.72847 34.3604 2.70539C34.6889 2.57672 35.0174 2.44805 35.435 2.297C35.699 2.30011 35.8739 2.32559 36.1507 2.43669C36.5266 2.58965 36.8006 2.657 37.0746 2.72435Z" fill="#2291E9"/>
<path d="M34.2811 2.70729C34.444 2.72799 34.5276 2.75107 34.6922 2.79719C34.7733 2.82022 34.7911 2.88031 34.7911 2.88031C33.7325 3.33877 32.7998 2.86426 31.8062 2.44202C32.5735 2.4963 33.3877 2.60298 34.2811 2.70729Z" fill="#EFFBFC"/>
<path d="M2.51367 29.5298C3.47654 29.8209 3.03589 30.5357 2.89292 31.209C2.71845 30.708 2.61064 30.1584 2.51367 29.5298Z" fill="#EFFBFC"/>
<path d="M2.99247 21.4648C3.02773 21.5019 3.01688 21.5776 2.96459 21.6945C2.93089 21.6583 2.93862 21.5809 2.99247 21.4648Z" fill="#EFFBFC"/>
<path d="M20.3791 2.52269C20.3587 2.45693 20.4067 2.41715 20.5217 2.40015C20.5234 2.44352 20.4764 2.48543 20.3791 2.52269Z" fill="#EFFBFC"/>
<path d="M2.91602 31.8915C2.96307 31.8972 3.00344 31.9629 3.03955 32.0884C2.99331 32.0826 2.95132 32.017 2.91602 31.8915Z" fill="#EFFBFC"/>
<path d="M119.386 39.7368C119.386 37.9373 119.386 36.2365 119.386 34.5604C121.508 34.0469 123.631 34.6906 124.717 36.2565C125.778 37.7847 125.893 39.4891 125.016 41.1116C123.851 43.2657 121.833 43.7112 119.386 43.4236C119.386 42.2348 119.386 41.0352 119.386 39.7368Z" fill="#028CFF"/>
<path d="M98.4876 34.3816C100.626 34.5119 102.21 35.3836 102.865 37.3604C103.503 39.2876 103.16 41.0796 101.513 42.4621C100.214 43.5519 98.6726 43.5923 97.0225 43.4441C97.0225 40.4375 97.0225 37.4935 97.0225 34.4471C97.4898 34.4242 97.9431 34.4019 98.4876 34.3816Z" fill="#028CFF"/>
<path d="M79.0661 23.7273C79.3581 24.4277 79.6237 25.0573 79.9396 25.8059C78.6031 25.8059 77.4009 25.8059 76.0371 25.8059C76.6864 24.3119 77.2979 22.9049 77.9901 21.3119C78.3864 22.1969 78.7131 22.9266 79.0661 23.7273Z" fill="#028CFF"/>
<path d="M109.208 40.1213C109.727 38.6597 110.287 37.2678 110.848 35.876C110.93 35.8761 111.013 35.8763 111.096 35.8764C111.698 37.2721 112.3 38.6677 112.957 40.191C111.653 40.191 110.451 40.191 109.208 40.1213Z" fill="#028CFF"/>
<path d="M54.5769 23.4382C54.2898 23.5589 54.012 23.594 53.7373 23.6451C53.4654 23.6957 53.1965 23.7623 52.9262 23.8218C52.8882 23.7121 52.8501 23.6023 52.812 23.4925C53.0501 23.3094 53.2882 23.1263 53.5887 22.8952C52.8155 22.0159 52.0452 21.1399 51.2748 20.2638C53.0101 20.2862 53.0101 20.2862 53.0939 19.3836C52.8331 19.4784 52.6089 19.5599 52.3839 19.6418C52.3394 19.6049 52.2935 19.5631 52.2437 19.5262C50.8876 18.5204 52.0924 17.2578 51.8088 15.8421C50.8116 15.7935 49.7147 15.74 48.5657 15.6839C48.1616 14.8955 48.1099 14.1329 49.0126 13.4473C49.2314 13.2811 49.1598 12.743 49.2518 12.1975C48.8294 12.3624 48.6072 12.4492 48.3652 12.5436C48.1355 12.0639 48.5842 11.1641 47.8142 11.0897C47.4855 11.5887 47.3379 12.0911 47.0547 12.1819C46.5519 12.3431 45.2645 11.0282 45.4517 10.562C45.5573 10.2993 46.0358 10.1823 46.509 9.90388C46.5134 9.91404 46.4013 9.53841 46.3485 9.54634C45.3946 9.68958 44.4888 8.47268 43.4744 9.48245C43.221 9.20038 42.9689 8.91974 42.7097 8.63132C42.4846 9.01005 42.3288 9.27213 42.173 9.53422C42.0869 9.49176 42.0009 9.44929 41.9148 9.40683C41.8699 8.89937 41.8194 8.3923 41.7833 7.88423C41.7717 7.72178 41.757 7.54125 41.8135 7.39529C42.2665 6.22588 42.245 6.07533 40.8892 5.97229C39.9534 5.90116 39.805 5.42545 39.772 4.63513C42.8469 5.7919 45.4721 7.6824 47.7774 10.0076C51.4788 13.7409 53.7753 18.1857 54.5769 23.4382Z" fill="#EFFBFC"/>
<path d="M46.1938 44.9692C46.2701 44.3441 46.3489 43.6861 46.5789 43.0843C46.6524 42.8919 47.156 42.7093 47.4124 42.7618C48.3694 42.9576 48.1816 42.3829 48.1445 41.8467C48.1158 41.4338 48.1302 41.0167 48.1455 40.6023C48.1608 40.1879 48.2602 39.7686 48.2186 39.3618C48.1123 38.3241 48.863 37.7653 49.895 38.1534C50.5889 38.4144 51.4964 37.833 51.547 37.0961C51.6328 35.846 51.6243 34.5791 51.8466 33.353C51.956 32.7496 52.5121 32.2317 52.8291 31.6553C52.9812 31.3787 53.0914 31.0625 53.1376 30.7523C53.1691 30.5404 52.9763 30.288 53.0263 30.0885C53.1289 29.6794 53.3272 29.2937 53.4861 28.8983C53.6692 29.1938 53.8377 29.4996 54.0424 29.7797C54.1261 29.8944 54.2881 29.9536 54.4895 30.0403C54.0355 32.0129 53.5064 33.9833 52.9676 36.023C51.3255 39.4902 49.2197 42.54 46.1938 44.9692Z" fill="#EFFBFC"/>
<path d="M54.6815 29.197C54.562 28.7092 54.4295 28.1527 54.4235 27.5948C54.4128 26.5986 54.4786 25.6015 54.578 24.5497C54.671 26.039 54.6983 27.5833 54.6815 29.197Z" fill="#EFFBFC"/>
<path d="M36.5337 3.23024C36.8007 3.12699 37.0677 3.02374 37.3506 2.849C37.6729 2.87025 37.9793 2.96299 38.2659 3.10283C38.1166 3.222 37.9872 3.29407 37.8578 3.36614C37.8754 3.41715 37.893 3.46817 37.9106 3.51919C38.2295 3.51919 38.5484 3.51919 38.8673 3.51919C38.8673 3.51919 38.9239 3.50699 38.9474 3.52375C39.0212 3.70827 39.0715 3.87602 39.0706 4.10109C38.8795 4.12715 38.7397 4.09588 38.5999 4.06462C38.4989 4.01525 38.3978 3.96588 38.1908 3.8653C37.5677 3.61947 37.0507 3.42486 36.5337 3.23024Z" fill="#2893E7"/>
<path d="M38.6016 4.14789C38.7398 4.09627 38.8796 4.12753 39.0908 4.16482C39.3015 4.25095 39.4407 4.33105 39.6207 4.45754C39.3086 4.41287 38.9559 4.32182 38.6016 4.14789Z" fill="#EFFBFC"/>
<path d="M40.1385 37.738C40.3994 38.0975 40.6604 38.457 41.0072 38.9348C39.3704 39.0195 40.2316 40.004 39.8622 40.6569C40.8317 40.2413 42.0348 40.272 41.5347 39.1446C41.9078 39.3727 42.4248 39.6187 42.8467 39.9745C43.0811 40.1721 43.3477 40.6234 43.2665 40.837C43.0628 41.3724 43.5557 42.2687 42.5191 42.4222C42.4659 42.4301 42.4048 42.5845 42.3987 42.674C42.2344 45.0764 42.0769 47.4793 41.9138 49.9497C42.3491 49.897 42.6059 49.8659 42.9434 49.8483C42.6611 50.2194 42.2983 50.5769 41.8747 50.8619C41.8139 47.593 41.8139 44.3968 41.8139 41.2006C41.7038 41.1901 41.5937 41.1797 41.4836 41.1693C41.4369 41.4294 41.3903 41.6895 41.3485 42.0238C41.3764 42.2453 41.3995 42.3925 41.4235 42.6055C41.4235 42.8031 41.4227 42.9348 41.401 43.1443C41.3622 43.3814 41.3443 43.5407 41.2823 43.641C41.1158 43.0554 40.9935 42.5287 40.8071 41.7261C40.4499 42.4029 40.0295 42.8408 40.0125 43.2934C39.9382 45.2809 39.9805 47.2725 39.9805 49.2627C40.0645 49.3039 40.1485 49.3452 40.2325 49.3864C40.602 49.0016 40.9714 48.6168 41.3536 48.289C41.4103 48.4511 41.4542 48.5561 41.5032 48.7199C41.506 48.8573 41.5037 48.9359 41.4622 49.0787C41.4405 49.6387 41.458 50.1343 41.4768 50.6874C41.4967 50.8185 41.5154 50.8921 41.5341 50.9657C41.5341 50.9657 41.4992 50.9556 41.438 50.9564C41.3194 50.9685 41.2616 50.9711 41.158 50.9178C39.792 50.038 39.4735 48.8547 39.5457 47.3442C39.6697 44.7491 39.544 42.1433 39.6031 39.5437C39.6169 38.9382 39.9515 38.3397 40.1385 37.738Z" fill="#118CF0"/>
<path d="M40.134 37.7109C39.9513 38.3389 39.6166 38.9373 39.6029 39.5429C39.5438 42.1424 39.6695 44.7483 39.5455 47.3433C39.4733 48.8539 39.7918 50.0372 41.1571 50.9897C41.1966 51.1578 41.1915 51.2058 41.1863 51.2538C41.1863 51.2538 41.2104 51.3136 41.1408 51.322C40.6228 50.9227 40.1745 50.5149 39.6203 50.0108C39.6203 51.1746 39.6203 52.1491 39.6203 53.1235C39.5081 53.2477 39.396 53.3718 39.2289 53.5266C39.1724 52.6355 39.1198 51.7102 39.1845 50.7929C39.242 49.9778 39.0819 49.3074 38.3867 48.7192C38.4225 48.5847 38.4506 48.5533 38.4787 48.5219C38.6688 48.6408 38.8589 48.7597 39.1705 48.9544C39.1705 46.5115 39.2268 44.1625 39.1483 41.8179C39.1046 40.5083 39.5345 39.1423 38.7855 37.8779C38.7144 37.758 38.9758 37.2617 39.0691 37.2655C39.3896 37.2787 39.7039 37.4366 40.078 37.5855C40.1353 37.6316 40.1298 37.6846 40.134 37.7109Z" fill="#94E9FF"/>
<path d="M39.6468 53.129C39.6206 52.1494 39.6206 51.1749 39.6206 50.0111C40.1748 50.5152 40.6232 50.923 41.1338 51.3537C41.2035 51.4129 41.2109 51.4493 41.2037 51.5855C41.1836 51.7193 41.1781 51.7533 41.1727 51.7872C40.8577 52.0776 40.5428 52.3679 40.133 52.7238C39.9342 52.9022 39.8301 53.0151 39.7261 53.128C39.7261 53.128 39.673 53.1342 39.6468 53.129Z" fill="#2291E9"/>
<path d="M41.5016 49.014C41.5038 48.9354 41.5061 48.8568 41.5289 48.6276C41.5069 46.6733 41.4644 44.8696 41.4219 43.066C41.4227 42.9343 41.4236 42.8026 41.4617 42.5575C41.4473 42.2791 41.3955 42.1141 41.3438 41.9491C41.3904 41.689 41.437 41.4289 41.4837 41.1688C41.5938 41.1793 41.7039 41.1897 41.814 41.2001C41.814 44.3964 41.814 47.5926 41.8137 50.8778C41.767 50.9712 41.7205 50.9757 41.6041 50.9727C41.5155 50.8916 41.4968 50.818 41.5116 50.6025C41.5306 49.9784 41.5161 49.4962 41.5016 49.014Z" fill="#BBF8FD"/>
<path d="M46.6045 46.6538C46.7072 46.5359 46.8101 46.4826 46.9131 46.4293C46.9138 46.5779 46.9145 46.7266 46.9153 46.8752C46.8118 46.8229 46.7083 46.7706 46.6045 46.6538Z" fill="white"/>
<path d="M39.7886 53.1281C39.8302 53.0158 39.9343 52.9029 40.097 52.7772C40.0541 52.8855 39.9525 53.0065 39.7886 53.1281Z" fill="#94E9FF"/>
<path d="M41.2438 51.2326C41.1918 51.2059 41.1969 51.1579 41.2028 51.0372C41.2617 50.9704 41.3195 50.9678 41.42 50.957C41.409 51.0421 41.355 51.1267 41.2438 51.2326Z" fill="#65AEE8"/>
<path d="M41.2099 51.7802C41.1781 51.7528 41.1836 51.7188 41.2142 51.6394C41.2592 51.6359 41.2842 51.6764 41.296 51.7204C41.2993 51.733 41.2646 51.7555 41.2099 51.7802Z" fill="#94E9FF"/>
<path d="M38.8416 3.46124C38.5485 3.51944 38.2296 3.51944 37.9107 3.51944C37.8931 3.46842 37.8755 3.41741 37.8579 3.36639C37.9873 3.29432 38.1168 3.22226 38.3206 3.14429C38.5352 3.2266 38.6755 3.31481 38.8416 3.46124Z" fill="#2291E9"/>
<path d="M37.0263 2.67211C36.8003 2.65755 36.5263 2.5902 36.2134 2.46301C36.4424 2.47522 36.7104 2.54727 37.0263 2.67211Z" fill="#2893E7"/>
<path d="M56.3364 28.5691C56.4272 28.5922 56.4829 28.6486 56.5343 28.7085C56.5356 28.7101 56.4898 28.7509 56.4659 28.7734C56.4108 28.7166 56.3558 28.6597 56.3364 28.5691Z" fill="white"/>
<path d="M68.0545 19.0799C68.2053 18.9839 68.3513 18.9789 68.57 18.9657C68.6428 18.9575 68.6542 18.967 68.6497 19.0657C68.6427 22.3276 68.6402 25.4907 68.6377 28.6538C68.6377 28.6538 68.6381 28.6577 68.6348 28.6559C67.9202 28.7074 68.0475 28.1967 68.0471 27.7909C68.0443 24.9176 68.0479 22.0443 68.0545 19.0799Z" fill="white"/>
<path d="M68.7011 28.5999C68.6401 25.4901 68.6427 22.327 68.652 19.0721C68.6589 18.9803 68.738 18.9758 68.7752 18.9887C68.7964 22.1833 68.7805 25.3649 68.7011 28.5999Z" fill="white"/>
<path d="M36.536 3.22644C37.0509 3.42573 37.5679 3.62035 38.1328 3.86503C37.6785 4.14918 37.1764 4.38327 36.4517 4.72107C36.5144 4.84682 36.6869 5.19279 36.9684 5.75741C36.5187 5.79647 36.1025 5.90067 35.722 5.8265C35.5991 5.80253 35.5531 5.31308 35.5015 5.03128C35.3846 4.39318 35.2861 3.7518 35.2485 3.03503C35.7248 3.04278 36.1327 3.12724 36.5406 3.21171C36.5406 3.21171 36.5382 3.22175 36.536 3.22644Z" fill="#EFFBFC"/>
<path d="M36.5102 3.1401C36.1329 3.12661 35.725 3.04214 35.2393 2.96167C35.0806 2.93952 34.9998 2.91339 34.8551 2.88383C34.7913 2.8804 34.7734 2.82032 34.7578 2.79309C35.3213 2.86695 35.9005 2.96804 36.5102 3.1401Z" fill="#2893E7"/>
<path d="M38.9323 5.57495C39.0001 5.80324 39.0001 6.01867 39.0001 6.2341C38.8723 6.21566 38.7445 6.19722 38.6167 6.17877C38.6993 5.97321 38.7819 5.76765 38.9323 5.57495Z" fill="#EFFBFC"/>
<path d="M16.7162 24.7077C16.5469 24.5381 16.3774 24.3686 16.208 24.199C16.3066 24.1342 16.4051 24.0694 16.5037 24.0046C16.5741 24.1913 16.6446 24.3779 16.7155 24.6363C16.7158 24.7081 16.7162 24.7077 16.7162 24.7077Z" fill="#EFFBFC"/>
<path d="M18.2446 23.1577C18.0616 23.3205 17.879 23.4209 17.6964 23.5214C17.6567 23.4196 17.6169 23.3178 17.5771 23.216C17.7998 23.1757 18.0224 23.1355 18.2446 23.1577Z" fill="#EFFBFC"/>
<path d="M7.41226 15.7129C7.29998 15.6038 7.24691 15.4683 7.19385 15.3328C7.30814 15.3199 7.42244 15.3071 7.53673 15.2942C7.51498 15.4249 7.49323 15.5557 7.41226 15.7129Z" fill="#EFFBFC"/>
<path d="M52.0134 31.7072C52.0616 31.7852 52.0613 31.8627 52.0552 31.9399C52.055 31.9421 51.9941 31.9396 51.9614 31.9393C51.9623 31.8618 51.9631 31.7842 52.0134 31.7072Z" fill="#EFFBFC"/>
<path d="M14.8832 38.9785C14.634 38.4834 14.2717 38.0118 14.1598 37.4882C13.9446 36.4808 13.8407 35.4463 13.7596 34.4177C13.7386 34.1505 13.9725 33.8637 14.0893 33.5859C14.2244 33.6065 14.3595 33.627 14.4945 33.6475C14.5168 34.0864 14.5306 34.5259 14.563 34.9641C14.6554 36.213 14.145 37.5245 14.9544 38.7996C14.928 38.9264 14.9056 38.9524 14.8832 38.9785Z" fill="#94E9FF"/>
<path d="M19.5325 34.4022C19.5063 34.327 19.4802 34.2518 19.454 34.1766C19.41 34.2247 19.366 34.2728 19.3085 34.371C19.2202 34.3565 19.0927 34.3008 19.0798 34.2259C19.0215 33.8876 18.9956 33.5439 18.958 33.2022C19.2577 33.1892 19.5573 33.1762 19.857 33.1632C19.8331 33.5316 19.8092 33.9 19.7008 34.3294C19.6162 34.3904 19.5325 34.4022 19.5325 34.4022Z" fill="#86CEEC"/>
<path d="M19.5293 34.494C19.5325 34.4018 19.6163 34.39 19.6581 34.385C19.7025 36.0503 19.705 37.7206 19.685 39.485C19.617 37.9148 19.5716 36.2505 19.5293 34.494Z" fill="#65AEE8"/>
<path d="M16.8276 40.1072C16.8381 40.2582 16.782 40.4229 16.7191 40.6527C16.2982 40.3298 15.884 39.9418 15.479 39.4597C15.5146 39.3399 15.541 39.3141 15.5673 39.2883C15.9652 39.5658 16.3631 39.8433 16.8276 40.1072Z" fill="#94E9FF"/>
<path d="M18.9237 42.4456C18.7752 42.4213 18.6211 42.3328 18.4917 42.1732C18.6503 42.1953 18.7842 42.2884 18.9237 42.4456Z" fill="#BBF8FD"/>
<path d="M14.9883 38.8639C15.1218 38.8811 15.2175 38.9336 15.3028 39.0771C15.2675 39.2021 15.2425 39.2361 15.2175 39.27C15.124 39.2058 15.0304 39.1417 14.9102 39.0274C14.9059 38.9513 14.9283 38.9252 14.9883 38.8639Z" fill="#94E9FF"/>
<path d="M18.5229 42.0566C18.4485 42.0901 18.3689 42.0653 18.3022 41.9726C18.3827 41.9359 18.4501 41.9671 18.5229 42.0566Z" fill="#BBF8FD"/>
<path d="M18.3216 41.8596C18.2474 41.8926 18.1669 41.8685 18.1006 41.7753C18.1815 41.7382 18.2484 41.7703 18.3216 41.8596Z" fill="#BBF8FD"/>
<path d="M18.1179 41.6637C18.0463 41.6954 17.9651 41.6715 17.8989 41.5781C17.9788 41.5418 18.0435 41.5749 18.1179 41.6637Z" fill="#BBF8FD"/>
<path d="M15.4466 39.4022C15.352 39.4144 15.3047 39.3816 15.2402 39.3054C15.2422 39.2361 15.2672 39.2022 15.336 39.1224C15.4426 39.1017 15.4916 39.1429 15.5469 39.244C15.5407 39.3138 15.5143 39.3396 15.4466 39.4022Z" fill="#94E9FF"/>
<path d="M27.9448 53.9747C27.9448 50.7526 27.9448 47.6293 27.9448 44.5061C27.9923 44.5062 28.0398 44.5063 28.0873 44.5064C28.0873 49.6186 28.0873 54.7309 28.0873 59.8431C28.0398 59.8443 27.9923 59.8456 27.9448 59.8468C27.9448 57.9224 27.9448 55.998 27.9448 53.9747Z" fill="#018CFE"/>
<path d="M28.9471 41.2983C28.9843 40.0445 28.9843 38.8345 28.9843 37.6246C29.1224 37.6237 29.2606 37.6228 29.3988 37.6219C29.3988 39.0026 29.3988 40.3833 29.3988 41.8728C29.2181 41.7596 29.0511 41.6549 28.8579 41.4884C28.8577 41.3983 28.8838 41.3702 28.9471 41.2983Z" fill="#A8E9FE"/>
<path d="M25.5136 36.7985C25.3914 36.6511 25.1597 36.4959 25.1698 36.3579C25.1908 36.0689 25.2771 35.7349 25.4617 35.5279C25.553 35.4256 26.1282 35.5474 26.1322 35.5961C26.1623 35.9609 26.1045 36.3329 25.9836 36.6986C25.7666 36.7292 25.6401 36.7638 25.5136 36.7985Z" fill="#86CEEC"/>
<path d="M25.5234 36.8825C25.6403 36.7632 25.7668 36.7286 25.9256 36.7441C26.0113 37.3829 26.0645 37.9716 26.1155 38.6668C26.0903 38.7983 26.0674 38.8234 26.0444 38.8484C25.1926 38.4015 25.6887 37.5982 25.5234 36.8825Z" fill="#A8E9FE"/>
<path d="M26.2484 29.2739C26.3228 29.3626 26.3303 29.4448 26.3389 29.5891C26.1718 29.5955 26.0036 29.5398 25.8354 29.484C25.9508 29.4119 26.0661 29.3397 26.2484 29.2739Z" fill="#018CFE"/>
<path d="M26.277 39.0043C26.1876 39.0049 26.1417 38.9652 26.0725 38.8847C26.0672 38.8245 26.0902 38.7995 26.1498 38.7388C26.2484 38.726 26.3 38.7629 26.3647 38.8555C26.364 38.9213 26.3396 38.9455 26.277 39.0043Z" fill="#A8E9FE"/>
<path d="M29.3739 43.8973C29.5785 44.0776 29.7084 44.2611 29.8382 44.4445C29.6335 44.4652 29.4288 44.4858 29.2241 44.5064C29.2491 44.3045 29.2741 44.1025 29.3739 43.8973Z" fill="#0C8DF6"/>
<path d="M28.707 35.8079C28.6822 35.9852 28.6422 36.1024 28.6021 36.2197C28.5403 36.228 28.4785 36.2364 28.4168 36.2447C28.3945 36.042 28.3723 35.8393 28.3501 35.6366C28.4639 35.6737 28.5778 35.7107 28.707 35.8079Z" fill="#0C8DF6"/>
<path d="M29.9399 34.7142C29.8914 34.6358 29.8918 34.5578 29.8978 34.4803C29.898 34.4781 29.9593 34.4806 29.9921 34.4809C29.9913 34.5588 29.9904 34.6368 29.9399 34.7142Z" fill="#0C8DF6"/>
<path d="M31.876 34.5039C31.966 34.5268 32.0212 34.5827 32.0721 34.6422C32.0734 34.6438 32.0279 34.6842 32.0043 34.7065C31.9497 34.6501 31.8951 34.5938 31.876 34.5039Z" fill="#0C8DF6"/>
<path d="M38.3498 48.6607C36.466 47.3135 35.435 45.2255 35.9499 43.8309C36.2715 43.9245 36.5987 44.0196 37.0456 44.1496C36.8813 44.4913 36.6555 44.7847 36.602 45.106C36.4579 45.9712 36.4853 46.7944 37.3457 47.3816C37.7497 47.6573 38.0606 48.0657 38.4462 48.4679C38.4506 48.5532 38.4225 48.5846 38.3498 48.6607Z" fill="#94E9FF"/>
<path d="M41.5981 37.8842C41.688 37.5106 41.8437 37.14 41.9993 36.7694C42.1258 36.8321 42.2522 36.8947 42.3786 36.9574C42.1404 37.2673 41.9022 37.5773 41.5981 37.8842Z" fill="#118CF0"/>
<path d="M43.303 38.3605C43.224 38.408 43.1454 38.4077 43.0673 38.4017C43.0651 38.4015 43.0676 38.3415 43.0679 38.3093C43.1464 38.3102 43.2249 38.311 43.303 38.3605Z" fill="#118CF0"/>
<path d="M29.9475 48.2016C29.948 51.2956 29.948 54.3091 29.948 57.3225C29.8994 57.3222 29.8508 57.322 29.8022 57.3217C29.8022 54.1649 29.8022 51.0081 29.8022 47.5962C29.8965 47.9381 29.9217 48.0296 29.9475 48.2016Z" fill="#018CFE"/>
<path d="M29.6787 32.0096C29.5295 32.0274 29.3836 31.9849 29.2378 31.9425C29.2662 31.8653 29.2945 31.788 29.3229 31.7107C29.4426 31.7902 29.5623 31.8698 29.6787 32.0096Z" fill="#018CFE"/>
<path d="M41.3412 48.232C40.9717 48.6168 40.6022 49.0016 40.2328 49.3864C40.1487 49.3452 40.0647 49.3039 39.9807 49.2627C39.9807 47.2726 39.9384 45.2809 40.0128 43.2934C40.0297 42.8408 40.4502 42.4029 40.8074 41.7261C40.9938 42.5287 41.1161 43.0554 41.2928 43.7152C41.3422 43.998 41.3371 44.1476 41.2828 44.3603C41.1163 45.4901 40.9906 46.556 40.902 47.6249C40.8967 47.6888 41.1891 47.7767 41.3495 47.9165C41.3511 48.0637 41.3462 48.1478 41.3412 48.232Z" fill="#018CFE"/>
<path d="M41.3535 48.2883C41.3458 48.1471 41.3508 48.0629 41.3611 47.8229C41.3548 46.5435 41.3432 45.42 41.3315 44.2964C41.3367 44.1468 41.3418 43.9972 41.3366 43.7734C41.3442 43.5399 41.3621 43.3807 41.4009 43.1436C41.4642 44.8693 41.5067 46.6729 41.5236 48.5685C41.4541 48.5554 41.4102 48.4504 41.3535 48.2883Z" fill="#65AEE8"/>
<path d="M41.4623 49.0784C41.516 49.4963 41.5306 49.9785 41.5103 50.5452C41.458 50.134 41.4405 49.6383 41.4623 49.0784Z" fill="#65AEE8"/>
<path d="M41.3486 42.0238C41.3956 42.1145 41.4473 42.2795 41.4609 42.4921C41.3996 42.3925 41.3766 42.2453 41.3486 42.0238Z" fill="#65AEE8"/>
<path d="M41.2827 44.3594C41.3435 45.4198 41.3551 46.5433 41.3548 47.7597C41.189 47.7757 40.8966 47.6878 40.9019 47.6239C40.9904 46.555 41.1162 45.4891 41.2827 44.3594Z" fill="#118CF0"/>
</svg>
