<svg width="26" height="26" viewBox="0 0 26 26" fill="none" xmlns="http://www.w3.org/2000/svg">
<path d="M13 18.3334C14.4144 18.3334 15.771 17.7715 16.7712 16.7713C17.7714 15.7711 18.3333 14.4146 18.3333 13.0001C18.3333 11.5856 17.7714 10.229 16.7712 9.22885C15.771 8.22865 14.4144 7.66675 13 7.66675C11.5855 7.66675 10.2289 8.22865 9.22872 9.22885C8.22853 10.229 7.66663 11.5856 7.66663 13.0001C7.66663 14.4146 8.22853 15.7711 9.22872 16.7713C10.2289 17.7715 11.5855 18.3334 13 18.3334Z" stroke="white" stroke-width="1.5" stroke-linecap="round" stroke-linejoin="round"/>
<path d="M1 18.3333V7.66667C1 5.89856 1.70238 4.20286 2.95262 2.95262C4.20286 1.70238 5.89856 1 7.66667 1H18.3333C20.1014 1 21.7971 1.70238 23.0474 2.95262C24.2976 4.20286 25 5.89856 25 7.66667V18.3333C25 20.1014 24.2976 21.7971 23.0474 23.0474C21.7971 24.2976 20.1014 25 18.3333 25H7.66667C5.89856 25 4.20286 24.2976 2.95262 23.0474C1.70238 21.7971 1 20.1014 1 18.3333Z" stroke="white" stroke-width="1.5"/>
<path d="M20.3334 5.67995L20.3467 5.66528" stroke="white" stroke-width="1.5" stroke-linecap="round" stroke-linejoin="round"/>
</svg>
