<svg width="26" height="26" viewBox="0 0 26 26" fill="none" xmlns="http://www.w3.org/2000/svg">
<path d="M25 7.66667V18.3333C25 20.1014 24.2976 21.7971 23.0474 23.0474C21.7971 24.2976 20.1014 25 18.3333 25H7.66667C5.89856 25 4.20286 24.2976 2.95262 23.0474C1.70238 21.7971 1 20.1014 1 18.3333V7.66667C1 5.89856 1.70238 4.20286 2.95262 2.95262C4.20286 1.70238 5.89856 1 7.66667 1H18.3333C20.1014 1 21.7971 1.70238 23.0474 2.95262C24.2976 4.20286 25 5.89856 25 7.66667Z" stroke="black" stroke-width="1.5" stroke-linecap="round" stroke-linejoin="round"/>
<g clip-path="url(#clip0_170_723)">
<path d="M21.6111 7.17389C21.6111 7.17389 20.1537 8.03478 19.3433 8.27889C18.9084 7.77876 18.3303 7.42428 17.6873 7.26339C17.0443 7.1025 16.3674 7.14297 15.7482 7.37933C15.1289 7.61568 14.5972 8.03651 14.2249 8.58491C13.8527 9.1333 13.6578 9.7828 13.6667 10.4456V11.1678C12.3975 11.2007 11.1398 10.9192 10.0057 10.3484C8.87165 9.77756 7.89635 8.93513 7.16667 7.89611C7.16667 7.89611 4.27778 14.3961 10.7778 17.285C9.29039 18.2946 7.51851 18.8009 5.72223 18.7294C12.2222 22.3406 20.1667 18.7294 20.1667 10.4239C20.1667 10.2231 20.1465 10.0223 20.1089 9.82444C20.8456 9.09789 21.6111 7.17389 21.6111 7.17389Z" stroke="black" stroke-width="1.5" stroke-linecap="round" stroke-linejoin="round"/>
</g>
<defs>
<clipPath id="clip0_170_723">
<rect width="17.3333" height="17.3333" fill="white" transform="translate(5 5)"/>
</clipPath>
</defs>
</svg>
